<?xml version="1.0" encoding="utf-8"?>
<!-- Generator: Adobe Illustrator 24.0.1, SVG Export Plug-In . SVG Version: 6.00 Build 0)  -->
<svg version="1.1" id="Layer_1" xmlns="http://www.w3.org/2000/svg" xmlns:xlink="http://www.w3.org/1999/xlink" x="0px" y="0px"
	 viewBox="0 0 78.7 124.3" enable-background="new 0 0 78.7 124.3" xml:space="preserve">
<g>
	
		<linearGradient id="SVGID_1_" gradientUnits="userSpaceOnUse" x1="890.4929" y1="20.4173" x2="898.7745" y2="20.4173" gradientTransform="matrix(-1 0 0 1 938.509 0)">
		<stop  offset="0" style="stop-color:#FFC5B3"/>
		<stop  offset="0.3645" style="stop-color:#FBBBA8"/>
		<stop  offset="1" style="stop-color:#EFA08B"/>
	</linearGradient>
	<path fill="url(#SVGID_1_)" d="M48,18.8c0,0-2.3,1.1-2.6,2.3c-0.3,1.3,1.2,5.8,1.2,5.8l-6.9-3.3c0,0,1.6-4.1,1.1-6
		c-0.4-1.9-1.1-3.8-1.1-3.8L48,18.8z"/>
	
		<linearGradient id="SVGID_2_" gradientUnits="userSpaceOnUse" x1="877.0175" y1="37.1532" x2="893.8926" y2="37.1532" gradientTransform="matrix(-1 0 0 1 938.509 0)">
		<stop  offset="0" style="stop-color:#EFA08B"/>
		<stop  offset="0.6405" style="stop-color:#E48C78"/>
		<stop  offset="0.9948" style="stop-color:#DD7F6C"/>
	</linearGradient>
	<path fill="url(#SVGID_2_)" d="M57.5,27.8c-0.8-0.2-1.9,1.2-1.9,2.7c0,1.5,2,3.2,1.6,3.9c-0.4,0.7-10.6,6.5-10.6,6.5l-1.9,5.7
		c0,0,11.3-6.1,13.4-9.2c2-3,3.2-4.6,3.4-6c0.2-1.2-0.5-1.6-1.2-1.3c0.2-1.5-0.8-1.4-1.3-1.2C58.5,27.2,57.5,27.8,57.5,27.8z"/>
	
		<linearGradient id="SVGID_3_" gradientUnits="userSpaceOnUse" x1="885.633" y1="11.7313" x2="898.7745" y2="11.7313" gradientTransform="matrix(-1 0 0 1 938.509 0)">
		<stop  offset="0" style="stop-color:#FFC5B3"/>
		<stop  offset="0.3645" style="stop-color:#FBBBA8"/>
		<stop  offset="1" style="stop-color:#EFA08B"/>
	</linearGradient>
	<path fill="url(#SVGID_3_)" d="M48.9,4.1c0.9,0.3,1.6,0.8,1.9,1.7C51,6.3,51.2,7,51.2,7.5c0.1,1.4-0.3,2.8-0.3,3.4
		c0,1.4,2.5,2.5,1.9,3.3c-0.2,0.3-1.4,0.4-1.3,1c0.1,0.4,0.5,0.6,0,1c0.3,0.5,0,0.7-0.3,0.8c-0.2,0.1-0.5,0.1-0.4,0.6
		c0.5,1.6-0.4,2.2-3.1,1.6c-1.4-0.3-2.6-1-4.1-2c-1.7-1.1-3.9-3.5-3.9-3.5S43.4,2.2,48.9,4.1z"/>
	
		<linearGradient id="SVGID_4_" gradientUnits="userSpaceOnUse" x1="893.9318" y1="1.7713" x2="893.9318" y2="19.0653" gradientTransform="matrix(-1 0 0 1 938.509 0)">
		<stop  offset="0" style="stop-color:#7B2B08"/>
		<stop  offset="6.743622e-02" style="stop-color:#792A08"/>
		<stop  offset="0.5419" style="stop-color:#6C2207"/>
		<stop  offset="1" style="stop-color:#682007"/>
	</linearGradient>
	<path fill="url(#SVGID_4_)" d="M50.8,5.8c0,0,0.8-0.9,0.9-1.6c-0.8,0-4.4-2.7-7.4-2.4c-3.7,0.3-6.6,3.2-6.9,5.5
		c-0.3,2.3,0.8,6.8,1.4,8.1c0.6,1.3,2,3.7,2,3.7s-0.1-0.4,0.4-1.3c-0.1-0.5,0.4-1.9,0.5-3c-0.6-1.4-1.2-3.2,0.3-3.4
		c1.2-0.2,2.2,1.8,2.2,1.8l0.5-0.3c0,0-0.6-3.4,1.2-4.6C46.1,6.9,44.9,4.3,50.8,5.8z"/>
	
		<linearGradient id="SVGID_5_" gradientUnits="userSpaceOnUse" x1="912.3569" y1="66.0483" x2="912.3569" y2="103.6746" gradientTransform="matrix(-1 0 0 1 938.509 0)">
		<stop  offset="0" style="stop-color:#FFC5B3"/>
		<stop  offset="0.3645" style="stop-color:#FBBBA8"/>
		<stop  offset="1" style="stop-color:#EFA08B"/>
	</linearGradient>
	<path fill="url(#SVGID_5_)" d="M43.7,72.1c0,0-4,6.9-6.2,10.7c-1.2,2.1-2.6,0.6-3.6,1.8s-2.5,2.1-4.1,2.6c-5.2,1.7-19,16.5-19,16.5
		l-2.2-5c0,0,8.6-4.4,11.5-10.8c1.4-3.1,3.7-4,5.5-5c2-1.1,2.7-1.6,3.2-3.2c1-3,7.3-13.7,7.3-13.7L43.7,72.1z"/>
	<path fill="#098256" d="M43.8,72.9l-4.8,8.8c0,0-1.9,0.7-3.6-0.8c-2.6-2.3-3.9-6.6-3.9-6.6l6-11.8L43.8,72.9z"/>
	
		<linearGradient id="SVGID_6_" gradientUnits="userSpaceOnUse" x1="881.2145" y1="72.1437" x2="881.2145" y2="118.7907" gradientTransform="matrix(-1 0 0 1 938.509 0)">
		<stop  offset="0" style="stop-color:#FFC5B3"/>
		<stop  offset="0.3645" style="stop-color:#FBBBA8"/>
		<stop  offset="1" style="stop-color:#EFA08B"/>
	</linearGradient>
	<path fill="url(#SVGID_6_)" d="M53.8,72.1c0,0,1.9,4.7,3,7.2c1.2,2.7,1.8,4,1.8,6.6c0,2.8,0.3,7.6,2.9,14.5
		c1,2.6,6.8,14.4,6.8,14.4l-4.7,3.9c0,0-4.8-14.8-7.9-19.9c-3.6-5.9-3-10.2-4.4-13.1c-1.4-2.9-5-4.8-5-4.8S52.3,76.1,53.8,72.1z"/>
	
		<linearGradient id="SVGID_7_" gradientUnits="userSpaceOnUse" x1="891.9768" y1="58.453" x2="891.9768" y2="84.4389" gradientTransform="matrix(-1 0 0 1 938.509 0)">
		<stop  offset="0" style="stop-color:#15A072"/>
		<stop  offset="0.4562" style="stop-color:#119568"/>
		<stop  offset="1" style="stop-color:#098256"/>
	</linearGradient>
	<path fill="url(#SVGID_7_)" d="M47.9,59.3c0,0,3.4,7.6,3.7,8.3c2.2,5.6,6.4,11.4,6.4,11.4s-1.3,2.2-4.6,3.6
		c-3.8,1.7-7.1,1.8-7.1,1.8s-2.8-12-5.9-14.2c-5.2-3.5-5.4-11.8-5.4-11.8L47.9,59.3z"/>
	
		<linearGradient id="SVGID_8_" gradientUnits="userSpaceOnUse" x1="898.8746" y1="21.8" x2="898.8746" y2="60.5555" gradientTransform="matrix(-1 0 0 1 938.509 0)">
		<stop  offset="0" style="stop-color:#347FB6"/>
		<stop  offset="0.3453" style="stop-color:#337BB2"/>
		<stop  offset="0.7007" style="stop-color:#3270A6"/>
		<stop  offset="1" style="stop-color:#2F6095"/>
	</linearGradient>
	<path fill="url(#SVGID_8_)" d="M45.9,24.3c1.5,0.7,3.9,3,5.2,5.5c0.9,1.9-2.6,6.6-2.7,10c-0.1,2-3.9,7.6-0.3,14.6
		c1.3,2.6,0.3,5.7,0.3,5.7s-2.2,0.5-5.6,0.5c-5.4,0-7.6-2.1-7.6-2.1s1.2-3.1,3.6-11.1c1.6-5.1-3.6-10.9-4.1-11.9
		c-1.1,0.4-3.9,2.2-3.9,2.2s-0.2-3.1-2.6-5.9c2-2.3,2.8-4.3,5-7.4c1.8-2.5,5-2.7,7-2.7c1.3,0.5,4,3.1,5.3,3.6
		C46.4,25.9,45.9,25,45.9,24.3z"/>
	<path fill="#295B8A" d="M35,36.2c0,0,3.8-1.9,5.2-0.7c1.3,1.1,1.5,2.9,0.7,5.5c-0.7,2.4-1,2.3-1.9,3.6C38.7,41,35,36.2,35,36.2z"/>
	
		<linearGradient id="SVGID_9_" gradientUnits="userSpaceOnUse" x1="891.2119" y1="42.1881" x2="916.3738" y2="42.1881" gradientTransform="matrix(-1 0 0 1 938.509 0)">
		<stop  offset="0" style="stop-color:#FFC5B3"/>
		<stop  offset="0.3645" style="stop-color:#FBBBA8"/>
		<stop  offset="1" style="stop-color:#EFA08B"/>
	</linearGradient>
	<path fill="url(#SVGID_9_)" d="M24.5,38c0.9-1.7,3.6-6.2,3.6-6.2s0,0,1.4,1.7c1.2,1.4,1.7,4,1.7,4l-3.7,2.7c0,0,5.8,6.1,11.2,5.6
		c1.9-0.2,3.6,0.4,4.6,0.6c1.3,0.2,4.8,0.5,3.8,2c0.2,0.7,0,1.6-0.7,1.8c0.6,0.9-0.1,1.5-0.5,1.6c0.3,1.1-0.6,0.9-2.5,0.2
		c-2.4-0.8-2.8-1.1-5.1-2.9c-0.3-0.2-2.7-1.4-4-1.7c-5.7-1.8-5.1-2.5-6.8-2.8c-1.9-0.4-4.1-2.5-5-3.1C21.2,40.7,23.7,39.5,24.5,38z"
		/>
	<g>
		
			<linearGradient id="SVGID_10_" gradientUnits="userSpaceOnUse" x1="860.7513" y1="116.0743" x2="879.6992" y2="116.0743" gradientTransform="matrix(-1 0 0 1 938.509 0)">
			<stop  offset="0" style="stop-color:#347FB6"/>
			<stop  offset="0.3453" style="stop-color:#337BB2"/>
			<stop  offset="0.7007" style="stop-color:#3270A6"/>
			<stop  offset="1" style="stop-color:#2F6095"/>
		</linearGradient>
		<path fill="url(#SVGID_10_)" d="M60.5,112.9c0.6,0.1,0.6,1.6,1.3,1.9c0.7,0.3,2.1-1.4,2.9-1.9c0.1,0,0.2-0.1,0.3-0.1l0-0.1
			c0,0,0.2-0.9,0.9-1.8c0.8-1,2.1-1.5,2.1-1.5c0.9-0.5,0.5,2.1,0.2,3.5c0.9,0.6,4,2.6,5.2,2.9c1.5,0.3,3.1-0.3,3.1-0.3
			s0.6,0.9,1.1,1.6c0.6,1.1-0.2,1.7-1.2,2.3c-1,0.6-3,2.2-5.7,2.6c-2.7,0.4-4.1-0.8-4.7-0.5c-0.6,0.2-1,1.3-1,1.3s-1.8,0.1-3.7,0
			c-1.3-0.1-2.5-2.1-2.4-2.4C58.9,119.9,59.9,112.9,60.5,112.9z"/>
		<path fill="#225077" d="M77.5,117.2c0,0-3.3,2.8-6.7,3c-3.5,0.2-5.4-0.9-6.8,0c-1.4,0.9-4.6-0.4-4.6-0.4s2.5,0.8,4.3-0.1
			c2-1,4.8,0,7.3-0.2c1.7-0.1,6.4-2.8,6.4-2.8L77.5,117.2z"/>
		<path fill="#FFFFFF" d="M72.5,115.4c0,0-0.7,0.5-1.9,1.3c-1.2,0.8-1.8,1-1.8,1s0.8-1,1.8-1.8c0.3-0.2,1.3-0.8,1.3-0.8L72.5,115.4z
			"/>
		<path fill="#FFFFFF" d="M70.6,114.4c0,0-1.4,1-1.8,1.3c-0.5,0.3-1.6,1.4-1.6,1.4s0.8-1.5,1.3-2c0.3-0.3,1.6-1,1.6-1L70.6,114.4z"
			/>
		<path fill="#FFFFFF" d="M69.1,113.5c0,0-1.4,1-1.8,1.3c-0.5,0.3-1.6,1.4-1.6,1.4s0.8-1.5,1.3-2c0.3-0.3,1.6-1,1.6-1L69.1,113.5z"
			/>
	</g>
	<g>
		
			<linearGradient id="SVGID_11_" gradientUnits="userSpaceOnUse" x1="976.6517" y1="404.6989" x2="992.6611" y2="404.6989" gradientTransform="matrix(-0.8711 -0.4911 -0.4911 0.8711 1063.952 235.561)">
			<stop  offset="0" style="stop-color:#347FB6"/>
			<stop  offset="0.3453" style="stop-color:#337BB2"/>
			<stop  offset="0.7007" style="stop-color:#3270A6"/>
			<stop  offset="1" style="stop-color:#2F6095"/>
		</linearGradient>
		<path fill="url(#SVGID_11_)" d="M3.4,96.6c0.4,0,7.3-0.5,7.3,0.1c0.1,0.6-1.4,0.9-1.5,1.7c-0.2,0.8,1.8,1.8,2.4,2.5
			c0.1,0.1,0.1,0.2,0.2,0.3l0.1-0.1c0,0,0.8,0,1.9,0.5s1.9,1.8,1.9,1.8c0.7,0.8-1.9,0.9-3.3,0.9c-0.4,1.1-1.6,4.6-1.6,5.9
			c0,1.5,0.9,3.1,0.9,3.1s-0.7,0.8-1.3,1.4c-0.9,0.9-1.6,0.1-2.4-0.7c-0.8-0.9-2.7-2.6-3.6-5.2c-0.9-2.6-0.1-4.3-0.5-4.8
			c-0.3-0.5-1.4-0.7-1.4-0.7s-0.5-1.8-0.8-3.8C1.4,98.2,3,96.6,3.4,96.6z"/>
		<path fill="#225077" d="M10.3,114.8c0,0-3.3-2.7-4.3-6.2c-1-3.4-0.3-5.7-1.5-6.9C3.4,100.6,4,97.1,4,97.1s-0.2,2.7,1,4.3
			c1.4,1.8,1,4.8,1.7,7.3c0.5,1.7,4,5.9,4,5.9L10.3,114.8z"/>
		<path fill="#FFFFFF" d="M10.9,109.3c0,0-0.6-0.6-1.7-1.6c-1-1-1.3-1.6-1.3-1.6s1.1,0.6,2.1,1.4c0.3,0.2,1.1,1.1,1.1,1.1
			L10.9,109.3z"/>
		<path fill="#FFFFFF" d="M11.4,107.3c0,0-1.2-1.2-1.6-1.6c-0.4-0.4-1.6-1.3-1.6-1.3s1.6,0.5,2.1,0.9c0.4,0.3,1.3,1.4,1.3,1.4
			L11.4,107.3z"/>
		<path fill="#FFFFFF" d="M12,105.5c0,0-1.2-1.2-1.6-1.6c-0.4-0.4-1.6-1.3-1.6-1.3s1.6,0.5,2.1,0.9c0.4,0.3,1.3,1.4,1.3,1.4
			L12,105.5z"/>
	</g>
	<path fill="#5B1B1B" d="M49.8,7.9c0.5,0,1,0.3,0.6,0.5c-0.2,0.1-0.9,0-1.6,0.3c-0.8,0.3-1.8,1.2-1.8,1.2S47.9,7.8,49.8,7.9z"/>
	
		<linearGradient id="SVGID_12_" gradientUnits="userSpaceOnUse" x1="895.8243" y1="14.7015" x2="895.8243" y2="11.9129" gradientTransform="matrix(-1 0 0 1 938.509 0)">
		<stop  offset="0" style="stop-color:#EFA08B"/>
		<stop  offset="0.2778" style="stop-color:#E7917D"/>
		<stop  offset="0.6579" style="stop-color:#E08470"/>
		<stop  offset="0.9948" style="stop-color:#DD7F6C"/>
	</linearGradient>
	<path fill="url(#SVGID_12_)" d="M43.7,13.3c0,0-0.8-1.6-1.4-1.4c-0.6,0.2-0.5,1.2-0.5,1.2s0.5-0.5,0.9-0.3c0.4,0.2,0.1,0.7,0,0.9
		c-0.2,0.6,0.6,0.9,0.6,0.9s-0.1-0.6-0.1-0.9C43.2,13.4,43.7,13.3,43.7,13.3z"/>
	
		<linearGradient id="SVGID_13_" gradientUnits="userSpaceOnUse" x1="891.3032" y1="17.9258" x2="896.8015" y2="17.9258" gradientTransform="matrix(-1 0 0 1 938.509 0)">
		<stop  offset="0" style="stop-color:#EFA08B"/>
		<stop  offset="0.6405" style="stop-color:#E48C78"/>
		<stop  offset="0.9948" style="stop-color:#DD7F6C"/>
	</linearGradient>
	<path fill="url(#SVGID_13_)" d="M47.2,19.3c0,0-1.8-0.6-2.6-1.3c-1.3-1.1-2.9-2.6-2.9-2.6s1,2.4,2,3.4c1.4,1.5,2.2,1.6,2.2,1.6
		S46.6,19.5,47.2,19.3z"/>
	<path fill="#FFA08D" d="M57.4,84.1c0,0,1.3,1.3,1.2,1.9c-0.1,0.4-1.4,1.5-1.4,1.5L57.4,84.1z"/>
	
		<linearGradient id="SVGID_14_" gradientUnits="userSpaceOnUse" x1="912.8431" y1="40.9061" x2="914.5602" y2="40.9061" gradientTransform="matrix(-1 0 0 1 938.509 0)">
		<stop  offset="0" style="stop-color:#EFA08B"/>
		<stop  offset="8.620072e-02" style="stop-color:#ED9C87"/>
		<stop  offset="0.6354" style="stop-color:#E18773"/>
		<stop  offset="0.9948" style="stop-color:#DD7F6C"/>
	</linearGradient>
	<path fill="url(#SVGID_14_)" d="M23.9,40.3c1.2-0.2,1.7,1.3,1.7,1.3S23.9,41.1,23.9,40.3z"/>
	<path fill="#FFFFFF" d="M49.8,10.3c0,0,0.1,0.7,0.1,1c-0.1,0.5-0.6,0.5-1,0.4c-0.4-0.1-0.7-0.4-0.7-0.4l0.9-0.6L49.8,10.3z"/>
	<path fill="#3794B5" d="M49.9,10.4c0,0,0.2,1.1-0.2,1.2c-0.5,0.2-0.5-0.9-0.5-0.9L49.9,10.4z"/>
	<path fill="#5B1B1B" d="M49.4,11c0,0.2,0.1,0.3,0.2,0.3c0.1,0,0.2-0.1,0.2-0.3c0-0.2-0.1-0.3-0.2-0.3C49.5,10.8,49.4,10.9,49.4,11z
		"/>
	<path fill="#FFFFFF" d="M49.6,10.8c0,0.1,0.1,0.2,0.1,0.2c0.1,0,0.1-0.1,0.1-0.2c0-0.1-0.1-0.2-0.1-0.2
		C49.6,10.6,49.6,10.7,49.6,10.8z"/>
	<path fill="#FFA08D" d="M52,14.3c0,0-0.1,0.2-0.3,0.4c-0.2,0.2-0.4,0-0.2-0.2C51.6,14.3,52,14.3,52,14.3z"/>
	<path fill="#FFA08D" d="M51.3,16.3c0,0-0.8,0.3-1.1,0.2c-0.2-0.1-0.3-0.2,0-0.2C50.7,16.3,51.3,16.3,51.3,16.3z"/>
	<path fill="#5B1B1B" d="M49.9,10c0.1-0.1,0.3,0.1,0.2,0.2c-0.2,0.3-0.8,0.6-1.2,0.8c-0.4,0.2-1,0.3-1,0.3S49.4,10.4,49.9,10z"/>
	
		<linearGradient id="SVGID_15_" gradientUnits="userSpaceOnUse" x1="888.4547" y1="10.016" x2="890.195" y2="10.016" gradientTransform="matrix(-1 0 0 1 938.509 0)">
		<stop  offset="0" style="stop-color:#EFA08B"/>
		<stop  offset="0.156" style="stop-color:#EB9984"/>
		<stop  offset="0.6493" style="stop-color:#E18672"/>
		<stop  offset="0.9948" style="stop-color:#DD7F6C"/>
	</linearGradient>
	<path fill="url(#SVGID_15_)" d="M50.1,9.6c0,0-0.5,0.4-0.9,0.6c-0.4,0.2-0.8,0.4-0.8,0.4s1.1-1,1.4-1.1C50.1,9.3,50.1,9.6,50.1,9.6
		z"/>
	
		<linearGradient id="SVGID_16_" gradientUnits="userSpaceOnUse" x1="886.555" y1="6.9137" x2="901.2303" y2="6.9137" gradientTransform="matrix(-1 0 0 1 938.509 0)">
		<stop  offset="0" style="stop-color:#B24E2B"/>
		<stop  offset="0.3843" style="stop-color:#AA4727"/>
		<stop  offset="1" style="stop-color:#A34123"/>
	</linearGradient>
	<path fill="url(#SVGID_16_)" d="M52,4.3l-0.5,0.7c0,0-3.5-2.1-5.7-2.5c-2.3-0.5-3.8,0.1-5,1c-1,0.8-2.7,2.5-2.8,4
		c-0.2,2.3-0.1,4.8-0.1,4.8S36,7.6,38.7,4.5c2.6-3.1,5.5-3.4,8-2.6C48.4,2.6,52,4.3,52,4.3z"/>
</g>
</svg>
