<svg id="Layer_1" data-name="Layer 1" xmlns="http://www.w3.org/2000/svg" xmlns:xlink="http://www.w3.org/1999/xlink" viewBox="0 0 73.84 120.75"><defs><style>.cls-1{fill:url(#linear-gradient);}.cls-2{fill:url(#linear-gradient-2);}.cls-3{fill:url(#linear-gradient-3);}.cls-4{fill:url(#linear-gradient-4);}.cls-5{fill:#098256;}.cls-6{fill:url(#linear-gradient-5);}.cls-7{fill:url(#linear-gradient-6);}.cls-8{fill:url(#Degradado_sin_nombre_5);}.cls-9{fill:#295b8a;}.cls-10{fill:url(#linear-gradient-7);}.cls-11{fill:url(#Degradado_sin_nombre_5-2);}.cls-12{fill:#225077;}.cls-13{fill:#fff;}.cls-14{fill:url(#Degradado_sin_nombre_5-3);}.cls-15{fill:#5b1b1b;}.cls-16{fill:url(#linear-gradient-8);}.cls-17{fill:#ffa08d;}.cls-18{fill:url(#linear-gradient-9);}.cls-19{fill:#3794b5;}.cls-20{fill:url(#linear-gradient-10);}.cls-21{fill:url(#linear-gradient-11);}.cls-22{fill:url(#linear-gradient-12);}.cls-23{fill:url(#linear-gradient-13);}</style><linearGradient id="linear-gradient" x1="617.44" y1="35.03" x2="628.42" y2="35.03" gradientTransform="matrix(-1, 0, 0, 1, 676.41, 0)" gradientUnits="userSpaceOnUse"><stop offset="0" stop-color="#efa08b"/><stop offset="0.64" stop-color="#e48c78"/><stop offset="0.99" stop-color="#dd7f6c"/></linearGradient><linearGradient id="linear-gradient-2" x1="627.66" y1="18.38" x2="641.91" y2="18.38" gradientTransform="matrix(-1, 0, 0, 1, 676.41, 0)" gradientUnits="userSpaceOnUse"><stop offset="0" stop-color="#ffc5b3"/><stop offset="0.36" stop-color="#fbbba8"/><stop offset="1" stop-color="#efa08b"/></linearGradient><linearGradient id="linear-gradient-3" x1="635.82" y1="5.49" x2="635.82" y2="20.42" gradientTransform="matrix(-1, 0, 0, 1, 676.41, 0)" gradientUnits="userSpaceOnUse"><stop offset="0" stop-color="#7b2b08"/><stop offset="1" stop-color="#682007"/></linearGradient><linearGradient id="linear-gradient-4" x1="648.21" y1="60.93" x2="648.21" y2="96.08" xlink:href="#linear-gradient-2"/><linearGradient id="linear-gradient-5" x1="629.16" y1="68.34" x2="629.16" y2="109.52" xlink:href="#linear-gradient-2"/><linearGradient id="linear-gradient-6" x1="634.52" y1="52.17" x2="634.52" y2="84.21" gradientTransform="matrix(-1, 0, 0, 1, 676.41, 0)" gradientUnits="userSpaceOnUse"><stop offset="0" stop-color="#15a072"/><stop offset="0.46" stop-color="#119568"/><stop offset="1" stop-color="#098256"/></linearGradient><linearGradient id="Degradado_sin_nombre_5" x1="635.79" y1="22.37" x2="635.79" y2="63.74" gradientTransform="matrix(-1, 0, 0, 1, 676.41, 0)" gradientUnits="userSpaceOnUse"><stop offset="0" stop-color="#347fb6"/><stop offset="0.35" stop-color="#337bb2"/><stop offset="0.7" stop-color="#3270a6"/><stop offset="1" stop-color="#2f6095"/></linearGradient><linearGradient id="linear-gradient-7" x1="632.47" y1="41.54" x2="657.17" y2="41.54" xlink:href="#linear-gradient-2"/><linearGradient id="Degradado_sin_nombre_5-2" x1="604.8" y1="107.1" x2="622.21" y2="107.1" xlink:href="#Degradado_sin_nombre_5"/><linearGradient id="Degradado_sin_nombre_5-3" x1="660.86" y1="313.88" x2="675.35" y2="313.88" gradientTransform="matrix(-0.87, -0.49, -0.49, 0.87, 743.23, 151.38)" xlink:href="#Degradado_sin_nombre_5"/><linearGradient id="linear-gradient-8" x1="637.02" y1="16.99" x2="637.02" y2="14.51" gradientTransform="matrix(-1, 0, 0, 1, 676.41, 0)" gradientUnits="userSpaceOnUse"><stop offset="0" stop-color="#efa08b"/><stop offset="0.28" stop-color="#e7917d"/><stop offset="0.66" stop-color="#e08470"/><stop offset="0.99" stop-color="#dd7f6c"/></linearGradient><linearGradient id="linear-gradient-9" x1="654.24" y1="41.47" x2="655.82" y2="41.47" gradientTransform="matrix(-1, 0, 0, 1, 676.41, 0)" gradientUnits="userSpaceOnUse"><stop offset="0" stop-color="#efa08b"/><stop offset="0.09" stop-color="#ed9c87"/><stop offset="0.64" stop-color="#e18773"/><stop offset="0.99" stop-color="#dd7f6c"/></linearGradient><linearGradient id="linear-gradient-10" x1="630.25" y1="12.82" x2="631.85" y2="12.82" gradientTransform="matrix(-1, 0, 0, 1, 676.41, 0)" gradientUnits="userSpaceOnUse"><stop offset="0" stop-color="#efa08b"/><stop offset="0.16" stop-color="#eb9984"/><stop offset="0.65" stop-color="#e18672"/><stop offset="0.99" stop-color="#dd7f6c"/></linearGradient><linearGradient id="linear-gradient-11" x1="628.42" y1="10.07" x2="643.1" y2="10.07" gradientTransform="matrix(-1, 0, 0, 1, 676.41, 0)" gradientUnits="userSpaceOnUse"><stop offset="0" stop-color="#b24e2b"/><stop offset="0.38" stop-color="#aa4727"/><stop offset="1" stop-color="#a34123"/></linearGradient><linearGradient id="linear-gradient-12" x1="628.88" y1="18.73" x2="630.21" y2="18.73" xlink:href="#linear-gradient-10"/><linearGradient id="linear-gradient-13" x1="632.47" y1="21.13" x2="636.13" y2="21.13" xlink:href="#linear-gradient-10"/></defs><title>men</title><path class="cls-1" d="M54.78,26.61c-.76-.18-1.94,1.44-2,2.8a7.25,7.25,0,0,1-.43,3.17,57.54,57.54,0,0,1-4.38,4l1.46,7s5.31-3.73,7.21-6.52A15.58,15.58,0,0,0,59,30.05c.17-1.07-.57-1.65-1.2-1.33.19-1.33-.86-1.29-1.34-1.16A1.21,1.21,0,0,0,54.78,26.61Z"/><path class="cls-2" d="M36.22,18.89A9.14,9.14,0,0,1,36,16.07S40,5.91,45.06,7.52a2.47,2.47,0,0,1,1.78,1.55,5.69,5.69,0,0,1,.39,1.55,26.71,26.71,0,0,1-.29,3c0,1.29,2.28,2.19,1.73,2.94-.19.25-1.28.34-1.21.86s.45.53,0,.93c-.11.12-.31.23-.28.43s.28.23.33.52-.17.37-.3.45,0,.41.15.84c.54,1.29.13,1.67-1,2.37a7,7,0,0,0-2.16,3.26,4.91,4.91,0,0,1,.15,3.16l-9.84-5.15S36.62,20.56,36.22,18.89Z"/><path class="cls-3" d="M46.84,9.07a3.49,3.49,0,0,0,.86-1.44c-.76,0-4-2.36-6.8-2.12-3.4.29-6.79,1.26-7.35,4.78a13.85,13.85,0,0,0,1.26,6.52,27.35,27.35,0,0,1,1.32,3.61,4.07,4.07,0,0,0,1.55-1.27A4.65,4.65,0,0,0,38.61,17c-.57-1.29-1.14-2.85.3-3.05,1.09-.15,2,1.61,2,1.61l.5-.28s-.52-3,1.09-4.05C42.48,10.05,41.47,7.73,46.84,9.07Z"/><path class="cls-4" d="M41.08,70.23S50,71.51,48,74.84c-1.14,1.87-5.7,5.69-7.65,8.08-3,3.62-5.88,3.81-11.06,4.69-4.95.85-19.18,8.47-19.18,8.47l-2-4.45,4.53-8a13.65,13.65,0,0,1,6.6-6.24c3.67-2,4.66-2.17,5.14-3.59.91-2.69,5.48-12.87,5.48-12.87Z"/><path class="cls-5" d="M43.83,74.26l-4.18,9.32s-3.92.63-8.94-2.79a30.52,30.52,0,0,1-6.52-6.52s4.22-10,5.23-15.95C34.36,56.82,43.83,74.26,43.83,74.26Z"/><path class="cls-6" d="M50.71,68.34s5.77.68,6.79,2.92c1.12,2.44,2.09,3.47,2.12,6s-1.39,8,.14,16.09c.47,2.44,3.15,12.63,3.15,12.63l-4.34,3.5s-11-10.41-12.37-14.37c-2.09-5.85-1.11-5.61-2.37-8.2S31.59,74.84,31.59,74.84,49.31,71.89,50.71,68.34Z"/><path class="cls-7" d="M54.21,52.21s4.41-.37,4.52,1c.13,1.72.78,5.32-.67,8.73-1.24,2.91-1.53,4-.48,6.36A35.08,35.08,0,0,1,60,76.26a17.38,17.38,0,0,1-8.13,4.53c-3.67.88-11.62,3.42-11.62,3.42s-7.46-7.36-12.51-13c-5.85-6.49-3.61-18.18-3.61-18.18Z"/><path class="cls-8" d="M44.2,26.06c1.34.6,3.14.48,4.89,2.9,1,1.44.55,4.32,1.46,7.79C51,38.51,60.08,47.48,59,59c-4.19,3.58-16.42,4.78-20.74,4.79-11.3,0-14.48-.82-14.48-.82s-1.58-9.74,2.14-18c1-2.17,3.47-6.39,3.47-6.39s-3.4-4.9-7.19-6.28a17.49,17.49,0,0,1,4.29-6.44c3.85-4,6.76-3.81,9.17-3,1.17.43,6.22,4.31,7.42,4.82C43.89,28,44.2,26.67,44.2,26.06Z"/><path class="cls-9" d="M28.8,39.4s5.21-6.56,7.45-4c1,1.16,2,5.44-1,7.62-1.77,1.31-6.29,1.68-7.09,2.77C29.05,42.51,29,39.35,28.8,39.4Z"/><path class="cls-10" d="M20.21,37.06a20,20,0,0,1,2-4.78,10,10,0,0,1,4.24,2.35,13.34,13.34,0,0,1,2.95,3.93l-.56.84s4.89,3,7.88,4.33c1.6.73,3.19.38,4.14.55,1.2.21,3.9,1,2.92,2.33a1.23,1.23,0,0,1-.66,1.63.89.89,0,0,1-.5,1.41c.26,1-.57,1.46-2.29.91-2.2-.7-2,0-6.89-1.51-5.12-1.6-6.68-2.22-9-2.91a8.36,8.36,0,0,1-5-4.07C18.82,40.81,19.94,38.54,20.21,37.06Z"/><path class="cls-11" d="M54.88,104.85c.76-.29,1.42.86,2,1.14s1.89-1.26,2.65-1.68a2.15,2.15,0,0,1,.27-.1l0-.08a3.94,3.94,0,0,1,.84-1.62,5.48,5.48,0,0,1,2-1.32c.86-.46.46,1.84.18,3.1a24.48,24.48,0,0,0,4.82,2.53,6.33,6.33,0,0,0,2.85-.23,15.87,15.87,0,0,1,1,1.47c.55,1-.19,1.49-1.1,2a13.21,13.21,0,0,1-5.23,2.31c-2.45.35-3.79-.7-4.31-.49s-.91,1.12-.91,1.12-1.64.09-3.44,0a3.08,3.08,0,0,1-2.23-2.17C54.28,110.52,54.36,105,54.88,104.85Z"/><path class="cls-12" d="M71.43,108.06a12.84,12.84,0,0,1-6.19,2.68c-3.17.2-5-.82-6.25,0s-4.24-.34-4.24-.34a6.24,6.24,0,0,0,3.94-.12c1.85-.93,4.4,0,6.67-.14,1.54-.1,5.86-2.45,5.86-2.45Z"/><path class="cls-13" d="M66.76,106.53s-.67.44-1.75,1.18a6.21,6.21,0,0,1-1.65.89A12.69,12.69,0,0,1,65,107c.27-.22,1.17-.74,1.17-.74Z"/><path class="cls-13" d="M65.06,105.64l-1.7,1.14A17.79,17.79,0,0,0,61.9,108a11,11,0,0,1,1.19-1.75,10.37,10.37,0,0,1,1.49-.88Z"/><path class="cls-13" d="M63.66,104.84,62,106c-.45.3-1.45,1.22-1.45,1.22a11.46,11.46,0,0,1,1.18-1.75,11.23,11.23,0,0,1,1.5-.89Z"/><path class="cls-14" d="M3.28,89.76c.35,0,6-.94,6.25-.45.41.69-.77,1.41-.91,2.09s1.62,1.57,2.19,2.24a1.11,1.11,0,0,1,.16.24l.07-.06a3.87,3.87,0,0,1,1.76.48,5.37,5.37,0,0,1,1.7,1.63c.63.74-1.7.83-3,.83A24.54,24.54,0,0,0,10.05,102a6.42,6.42,0,0,0,.82,2.74A14.66,14.66,0,0,1,9.65,106c-.87.76-1.5.13-2.23-.64a13.27,13.27,0,0,1-3.36-4.63c-.85-2.31-.11-3.85-.43-4.31a2.48,2.48,0,0,0-1.28-.66s-.44-1.58-.73-3.36A3.08,3.08,0,0,1,3.28,89.76Z"/><path class="cls-12" d="M9.65,106s-3.05-2.42-3.92-5.48-.26-5.07-1.34-6.1-.56-4.23-.56-4.23A6.27,6.27,0,0,0,4.77,94c1.3,1.61.91,4.3,1.54,6.48.43,1.49,3.63,5.22,3.63,5.22Z"/><path class="cls-13" d="M10.16,101.11,8.63,99.65a6.09,6.09,0,0,1-1.21-1.42A13.53,13.53,0,0,1,9.34,99.5c.27.22,1,1,1,1Z"/><path class="cls-13" d="M10.67,99.27,9.2,97.85c-.4-.39-1.5-1.18-1.5-1.18a11.92,11.92,0,0,1,2,.8,11.33,11.33,0,0,1,1.18,1.28Z"/><path class="cls-13" d="M11.16,97.73,9.69,96.31c-.4-.38-1.5-1.16-1.5-1.16a10.81,10.81,0,0,1,2,.79,11.43,11.43,0,0,1,1.18,1.27Z"/><path class="cls-15" d="M46,11c.42,0,.95.3.6.48a9.17,9.17,0,0,0-1.46.26,8.53,8.53,0,0,0-1.67,1.06A2.9,2.9,0,0,1,46,11Z"/><path class="cls-16" d="M40.29,15.77s-.77-1.46-1.31-1.24-.49,1.08-.49,1.08.43-.45.84-.25.05.62,0,.79c-.17.56.57.84.57.84a3.24,3.24,0,0,1-.06-.84C39.89,15.84,40.29,15.77,40.29,15.77Z"/><path class="cls-17" d="M55,79.75l2-1.09a3.8,3.8,0,0,1-.41,2.44c-.3.47-1.32,1.82-1.32,1.82Z"/><path class="cls-18" d="M20.6,40.89c1.07-.17,1.57,1.18,1.57,1.18S20.56,41.67,20.6,40.89Z"/><path class="cls-13" d="M45.93,13.1a2.5,2.5,0,0,1,0,.9c-.13.41-.58.42-.94.33a2.07,2.07,0,0,1-.69-.36l.87-.52Z"/><path class="cls-19" d="M46,13.14s.16.95-.2,1.08-.44-.78-.44-.78Z"/><path class="cls-15" d="M45.58,13.74c0,.13.07.24.15.24s.16-.11.16-.24-.07-.25-.16-.25S45.58,13.6,45.58,13.74Z"/><path class="cls-13" d="M45.7,13.53c0,.1,0,.18.12.18s.11-.08.11-.18,0-.18-.11-.18S45.7,13.43,45.7,13.53Z"/><path class="cls-17" d="M47.91,16.6a1.42,1.42,0,0,1-.28.34c-.22.2-.4,0-.22-.17A.83.83,0,0,1,47.91,16.6Z"/><path class="cls-15" d="M46.06,12.81c.08-.06.23.09.14.22a3,3,0,0,1-1.09.72,3.76,3.76,0,0,1-.91.25S45.52,13.18,46.06,12.81Z"/><path class="cls-20" d="M46.16,12.42s-.48.34-.84.54-.76.39-.76.39,1-.86,1.26-1S46.16,12.42,46.16,12.42Z"/><path class="cls-21" d="M48,7.47l-.49.61A24.74,24.74,0,0,0,42.1,5.75a6,6,0,0,0-4.74,1C34.69,8.33,34.21,9.56,34.09,11a22.87,22.87,0,0,0,.1,4.26s-2.18-4.89.32-7.74a7.83,7.83,0,0,1,8.42-2.13C44.64,5.93,48,7.47,48,7.47Z"/><path class="cls-22" d="M47.26,19a7.86,7.86,0,0,1-.86.15c-.11,0-.35-.21,0-.51a2.32,2.32,0,0,1,1.18-.33S47,18.68,47.26,19Z"/><path class="cls-23" d="M44,22.21s-.41.08-1.83-.62A6.86,6.86,0,0,1,40.29,20,2.49,2.49,0,0,0,41.7,22,3.92,3.92,0,0,0,44,22.21Z"/><path class="cls-9" d="M44.82,28.67s-.32,1.55-2,.69a31.56,31.56,0,0,1-4.59-3.52s2.49,4.68,5.28,5.11S44.82,28.67,44.82,28.67Z"/><path class="cls-9" d="M45.58,60.27S37,62.73,32.13,62.2s-6.83-.93-6.83-.93,4.19-.56,8-1A107.93,107.93,0,0,1,45.58,60.27Z"/></svg>