<?xml version="1.0" encoding="utf-8"?>
<!-- Generator: Adobe Illustrator 24.0.1, SVG Export Plug-In . SVG Version: 6.00 Build 0)  -->
<svg version="1.1" id="Layer_1" xmlns="http://www.w3.org/2000/svg" xmlns:xlink="http://www.w3.org/1999/xlink" x="0px" y="0px"
	 viewBox="0 0 78.7 124.3" enable-background="new 0 0 78.7 124.3" xml:space="preserve">
<g>
	
		<linearGradient id="SVGID_1_" gradientUnits="userSpaceOnUse" x1="707.8491" y1="36.1564" x2="723.7744" y2="36.1564" gradientTransform="matrix(-1 0 0 1 769.5513 0)">
		<stop  offset="0" style="stop-color:#EFA08B"/>
		<stop  offset="0.6405" style="stop-color:#E48C78"/>
		<stop  offset="0.9948" style="stop-color:#DD7F6C"/>
	</linearGradient>
	<path fill="url(#SVGID_1_)" d="M57.6,27.1c-0.9-0.2-2,1.2-2,2.7c0,1.6,0.6,2.7,0.1,3.4c-0.4,0.7-10,6.5-10,6.5l0.3,5.6
		c0,0,10.8-5,12.9-8.2c2.1-3.1,2.5-5,2.7-6.4c0.2-1.2-0.6-1.7-1.3-1.3c0.2-1.5-0.8-1.4-1.3-1.3C58.6,26.4,57.6,27.1,57.6,27.1z"/>
	
		<linearGradient id="SVGID_2_" gradientUnits="userSpaceOnUse" x1="716.7189" y1="14.3595" x2="730.2484" y2="14.3595" gradientTransform="matrix(-1 0 0 1 769.5513 0)">
		<stop  offset="0" style="stop-color:#FFC5B3"/>
		<stop  offset="0.3645" style="stop-color:#FBBBA8"/>
		<stop  offset="1" style="stop-color:#EFA08B"/>
	</linearGradient>
	<path fill="url(#SVGID_2_)" d="M40,16.7c-0.4-1.9-0.7-3.8-0.7-3.8s3.8-11.9,9.4-10.1c0.9,0.3,1.7,0.8,2,1.8
		c0.2,0.5,0.4,1.2,0.4,1.8c0.1,1.4-0.3,2.8-0.3,3.5c0,1.5,2.6,2.5,1.9,3.4c-0.2,0.3-1.4,0.4-1.4,1c0.1,0.4,0.5,0.6,0,1.1
		c0.3,0.5,0,0.7-0.3,0.9c-0.2,0.1-0.5,0.1-0.4,0.6c0.3,1,0.1,1.6-0.7,1.8c-0.5,0.1-2.8,0.1-3.1,1.3c-0.3,1.3-0.5,6.2-0.5,6.2
		l-7.1-3.3C39.3,22.8,40.4,18.6,40,16.7z"/>
	
		<linearGradient id="SVGID_3_" gradientUnits="userSpaceOnUse" x1="725.2628" y1="0.451" x2="725.2628" y2="18.1236" gradientTransform="matrix(-1 0 0 1 769.5513 0)">
		<stop  offset="0" style="stop-color:#7B2B08"/>
		<stop  offset="6.743622e-02" style="stop-color:#792A08"/>
		<stop  offset="0.5419" style="stop-color:#6C2207"/>
		<stop  offset="1" style="stop-color:#682007"/>
	</linearGradient>
	<path fill="url(#SVGID_3_)" d="M50.7,4.6c0,0,0.9-0.9,1-1.7c-0.9,0-4.5-2.7-7.6-2.4c-3.8,0.3-6.8,3.2-7.1,5.6
		c-0.3,2.4,0.8,7,1.4,8.3c0.7,1.3,1.6,3.8,1.6,3.8s0.3-0.4,0.9-1.3c-0.1-0.6,0.4-2,0.5-3.1c-0.6-1.5-1.3-3.3,0.3-3.5
		C43,10,44,12.1,44,12.1l0.6-0.3c0,0-0.6-3.5,1.2-4.6C45.8,5.7,44.7,3,50.7,4.6z"/>
	
		<linearGradient id="SVGID_4_" gradientUnits="userSpaceOnUse" x1="743.7605" y1="66.2778" x2="743.7605" y2="104.5849" gradientTransform="matrix(-1 0 0 1 769.5513 0)">
		<stop  offset="0" style="stop-color:#FFC5B3"/>
		<stop  offset="0.3645" style="stop-color:#FBBBA8"/>
		<stop  offset="1" style="stop-color:#EFA08B"/>
	</linearGradient>
	<path fill="url(#SVGID_4_)" d="M44.3,71.7c0,0-5.2,6.7-7.5,10.6c-1.3,2.1-2.3,2.6-3.3,3.7c-1,1.2-3.8,0.6-5.4,1.1
		c-5.4,1.8-18.5,17.5-18.5,17.5l-2.2-5.1c0,0,4.2-6.1,9.4-11.4c2.4-2.5,3.4-3.1,5.2-4.1c2-1.1,4.7-2.9,6.2-6.2
		c1.3-3,7.4-11.5,7.4-11.5L44.3,71.7z"/>
	<path fill="#098256" d="M44.5,72.4l-6.7,9.7c0,0-1.3,0.7-3-0.8c-2.7-2.4-5.5-7-5.5-7l7.5-12.1L44.5,72.4z"/>
	
		<linearGradient id="SVGID_5_" gradientUnits="userSpaceOnUse" x1="711.7768" y1="72.7025" x2="711.7768" y2="120.0318" gradientTransform="matrix(-1 0 0 1 769.5513 0)">
		<stop  offset="0" style="stop-color:#FFC5B3"/>
		<stop  offset="0.3645" style="stop-color:#FBBBA8"/>
		<stop  offset="1" style="stop-color:#EFA08B"/>
	</linearGradient>
	<path fill="url(#SVGID_5_)" d="M55,72.7c0,0,1.9,4.1,3.1,6.7c1.2,2.8,2,4.2,2,6.8c0,2.9-1,7.9,1.6,14.9c1,2.7,7,14.8,7,14.8l-4.9,4
		c0,0-4.3-10.4-8.5-19.2c-3.1-6.4-4.2-10.6-5.6-13.6c-1.4-3-2.9-8-2.9-8S53.5,76.8,55,72.7z"/>
	
		<linearGradient id="SVGID_6_" gradientUnits="userSpaceOnUse" x1="723.7744" y1="57.741" x2="723.7744" y2="84.6918" gradientTransform="matrix(-1 0 0 1 769.5513 0)">
		<stop  offset="0" style="stop-color:#15A072"/>
		<stop  offset="0.4562" style="stop-color:#119568"/>
		<stop  offset="1" style="stop-color:#098256"/>
	</linearGradient>
	<path fill="url(#SVGID_6_)" d="M51.7,59.5c0,0,1.5,5.8,1.8,6.5c2.3,5.7,4.7,13.5,4.7,13.5s-1.4,2.2-4.7,3.7
		c-3.9,1.7-5.1,1.5-5.1,1.5s-4.7-11.8-6.9-15.1c-3.3-4.9-7.9-11.9-7.9-11.9L51.7,59.5z"/>
	
		<linearGradient id="SVGID_7_" gradientUnits="userSpaceOnUse" x1="730.4413" y1="20.9147" x2="730.4413" y2="60.522" gradientTransform="matrix(-1 0 0 1 769.5513 0)">
		<stop  offset="0" style="stop-color:#347FB6"/>
		<stop  offset="0.3453" style="stop-color:#337BB2"/>
		<stop  offset="0.7007" style="stop-color:#3270A6"/>
		<stop  offset="1" style="stop-color:#2F6095"/>
	</linearGradient>
	<path fill="url(#SVGID_7_)" d="M46.3,23.8c1.5,0.7,2.6,2.8,2.9,5.6c0.4,3.1-0.3,5.6-0.6,9c-0.4,5.1-2.3,6.9-1.8,12.3
		c0.3,3,4.8,8.8,4.8,8.8s-5.7,1-9.3,1c-5.5,0-8.9-2.8-8.9-2.8s0.7-2.9,3.3-11c0.8-2.6-2.3-10.9-2.8-11.8c-1.1,0.4-3,2.2-3,2.2
		s-0.9-3.9-4.5-6.7c2-2.3,3.5-3.9,5.9-6.8c2.3-2.7,5.1-2.8,7.2-2.7c1.3,0.5,4.1,3.1,5.5,3.7C46.1,25.1,46.3,24.5,46.3,23.8z"/>
	<path fill="#295B8A" d="M34,34.9c0,0,3.9-2,5.3-0.8c1.3,1.1,1.5,3,0.7,5.6c-0.8,2.4-2.3,3-3.2,4.3C36.6,40.5,34,34.9,34,34.9z"/>
	
		<linearGradient id="SVGID_8_" gradientUnits="userSpaceOnUse" x1="722.1044" y1="41.2271" x2="748.6663" y2="41.2271" gradientTransform="matrix(-1 0 0 1 769.5513 0)">
		<stop  offset="0" style="stop-color:#FFC5B3"/>
		<stop  offset="0.3645" style="stop-color:#FBBBA8"/>
		<stop  offset="1" style="stop-color:#EFA08B"/>
	</linearGradient>
	<path fill="url(#SVGID_8_)" d="M21.8,37.3c0.9-1.7,4.8-6.8,4.8-6.8s1.1,0.4,2.5,2.1c1.2,1.5,1.9,4.5,1.9,4.5l-2.3,2.2
		c0,0,6.8,4,10.6,5.1c1.9,0.6,3.6,0.4,4.6,0.6c1.3,0.2,4.4,1.2,3.3,2.7c0.2,0.7,0,1.6-0.7,1.9c0.6,0.9-0.2,1.5-0.6,1.6
		c0.3,1.2-0.6,0.9-2.6,0.2c-2.5-0.8-3.4-0.4-5.7-2.2c-0.3-0.2-2.2-1.2-3.5-1.6c-5.8-1.8-6-2.2-7-3c-1.6-1.2-4.6-2.9-5.5-3.5
		C20.3,40.4,20.9,38.8,21.8,37.3z"/>
	<g>
		<linearGradient id="SVGID_9_" gradientUnits="userSpaceOnUse" x1="58.9413" y1="117.256" x2="78.4485" y2="117.256">
			<stop  offset="0" style="stop-color:#347FB6"/>
			<stop  offset="0.3453" style="stop-color:#337BB2"/>
			<stop  offset="0.7007" style="stop-color:#3270A6"/>
			<stop  offset="1" style="stop-color:#2F6095"/>
		</linearGradient>
		<path fill="url(#SVGID_9_)" d="M60.7,114c0.6,0.1,0.6,1.6,1.3,1.9c0.7,0.3,2.1-1.4,3-1.9c0.1,0,0.2-0.1,0.3-0.1l0-0.1
			c0,0,0.2-0.9,0.9-1.9c0.8-1,2.2-1.5,2.2-1.5c1-0.5,0.5,2.1,0.2,3.6c1,0.6,4.1,2.6,5.4,2.9c1.5,0.3,3.2-0.3,3.2-0.3
			s0.7,0.9,1.1,1.7c0.6,1.2-0.2,1.7-1.2,2.4c-1,0.6-3.1,2.2-5.9,2.6c-2.7,0.4-4.2-0.8-4.8-0.6c-0.6,0.2-1,1.3-1,1.3s-1.8,0.1-3.8,0
			c-1.4-0.1-2.6-2.1-2.5-2.5C59,121.2,60,114,60.7,114z"/>
		<path fill="#225077" d="M78.2,118.4c0,0-3.4,2.8-6.9,3.1c-3.6,0.2-5.6-0.9-7,0c-1.4,1-4.8-0.4-4.8-0.4s2.6,0.8,4.4-0.1
			c2.1-1.1,4.9,0,7.5-0.2c1.7-0.1,6.6-2.8,6.6-2.8L78.2,118.4z"/>
		<path fill="#FFFFFF" d="M73,116.6c0,0-0.7,0.5-2,1.4c-1.2,0.9-1.8,1-1.8,1s0.8-1,1.8-1.9c0.3-0.2,1.3-0.8,1.3-0.8L73,116.6z"/>
		<path fill="#FFFFFF" d="M71.1,115.6c0,0-1.4,1-1.9,1.3c-0.5,0.4-1.6,1.4-1.6,1.4s0.9-1.5,1.3-2c0.3-0.3,1.7-1,1.7-1L71.1,115.6z"
			/>
		<path fill="#FFFFFF" d="M69.5,114.7c0,0-1.4,1-1.9,1.3c-0.5,0.4-1.6,1.4-1.6,1.4s0.8-1.5,1.3-2c0.3-0.3,1.7-1,1.7-1L69.5,114.7z"
			/>
	</g>
	<g>
		
			<linearGradient id="SVGID_10_" gradientUnits="userSpaceOnUse" x1="819.2419" y1="364.7448" x2="835.6663" y2="364.7448" gradientTransform="matrix(-0.8711 -0.4911 -0.4911 0.8711 905.9963 194.103)">
			<stop  offset="0" style="stop-color:#347FB6"/>
			<stop  offset="0.3453" style="stop-color:#337BB2"/>
			<stop  offset="0.7007" style="stop-color:#3270A6"/>
			<stop  offset="1" style="stop-color:#2F6095"/>
		</linearGradient>
		<path fill="url(#SVGID_10_)" d="M1.9,97.3c0.4,0,7-0.7,7-0.1c0.1,0.6-0.9,1.2-1.1,2c-0.2,0.8,1.8,1.8,2.5,2.6
			c0.1,0.1,0.1,0.2,0.2,0.3l0.1-0.1c0,0,0.9,0,2,0.6c1.1,0.6,1.9,1.9,1.9,1.9c0.7,0.8-1.9,1-3.4,1c-0.4,1.1-1.6,4.7-1.6,6
			c0,1.6,0.9,3.1,0.9,3.1S9.7,115.4,9,116c-1,0.9-1.7,0.1-2.5-0.7c-0.8-0.9-2.8-2.7-3.8-5.3c-1-2.7-0.1-4.4-0.5-5
			c-0.4-0.5-1.4-0.8-1.4-0.8s-0.5-1.8-0.8-3.9C-0.2,99,1.5,97.3,1.9,97.3z"/>
		<path fill="#225077" d="M9,116c0,0-3.4-2.8-4.4-6.3c-1-3.5-0.3-5.8-1.5-7c-1.2-1.2-0.6-4.9-0.6-4.9s-0.2,2.8,1.1,4.4
			c1.5,1.9,1,4.9,1.7,7.5c0.5,1.7,4.1,6,4.1,6L9,116z"/>
		<path fill="#FFFFFF" d="M9.6,110.4c0,0-0.6-0.6-1.7-1.7c-1.1-1-1.4-1.6-1.4-1.6s1.1,0.6,2.2,1.5c0.3,0.3,1.1,1.1,1.1,1.1
			L9.6,110.4z"/>
		<path fill="#FFFFFF" d="M10.2,108.2c0,0-1.2-1.2-1.6-1.6c-0.4-0.4-1.7-1.3-1.7-1.3s1.7,0.5,2.2,0.9c0.4,0.3,1.3,1.5,1.3,1.5
			L10.2,108.2z"/>
		<path fill="#FFFFFF" d="M10.7,106.5c0,0-1.2-1.2-1.6-1.6c-0.4-0.4-1.7-1.3-1.7-1.3s1.7,0.5,2.2,0.9c0.4,0.3,1.3,1.5,1.3,1.5
			L10.7,106.5z"/>
	</g>
	<path fill="#5B1B1B" d="M49.7,6.7c0.5,0,1.1,0.3,0.7,0.5c-0.2,0.1-0.9,0-1.6,0.3c-0.8,0.3-1.9,1.2-1.9,1.2S47.7,6.6,49.7,6.7z"/>
	
		<linearGradient id="SVGID_11_" gradientUnits="userSpaceOnUse" x1="727.2112" y1="13.6643" x2="727.2112" y2="10.8146" gradientTransform="matrix(-1 0 0 1 769.5513 0)">
		<stop  offset="0" style="stop-color:#EFA08B"/>
		<stop  offset="0.2778" style="stop-color:#E7917D"/>
		<stop  offset="0.6579" style="stop-color:#E08470"/>
		<stop  offset="0.9948" style="stop-color:#DD7F6C"/>
	</linearGradient>
	<path fill="url(#SVGID_11_)" d="M43.3,12.3c0,0-0.9-1.7-1.5-1.4c-0.6,0.3-0.5,1.2-0.5,1.2s0.5-0.5,0.9-0.3c0.5,0.2,0.1,0.7,0,0.9
		c-0.2,0.6,0.6,1,0.6,1s-0.1-0.7-0.1-1C42.9,12.4,43.3,12.3,43.3,12.3z"/>
	
		<linearGradient id="SVGID_12_" gradientUnits="userSpaceOnUse" x1="722.647" y1="16.6676" x2="728.2172" y2="16.6676" gradientTransform="matrix(-1 0 0 1 769.5513 0)">
		<stop  offset="0" style="stop-color:#EFA08B"/>
		<stop  offset="0.6405" style="stop-color:#E48C78"/>
		<stop  offset="0.9948" style="stop-color:#DD7F6C"/>
	</linearGradient>
	<path fill="url(#SVGID_12_)" d="M46.9,18.7c0,0-1.7-0.9-2.6-1.7c-1.3-1.1-3-2.6-3-2.6s1,2.4,2,3.5C44.8,19.4,46.3,18.9,46.9,18.7z"
		/>
	<path fill="#FFA08D" d="M57.1,84.7c0,0,1.7,1.2,1.6,1.8c-0.1,0.4-1.9,1.6-1.9,1.6L57.1,84.7z"/>
	
		<linearGradient id="SVGID_13_" gradientUnits="userSpaceOnUse" x1="744.7324" y1="40.4425" x2="746.5001" y2="40.4425" gradientTransform="matrix(-1 0 0 1 769.5513 0)">
		<stop  offset="0" style="stop-color:#EFA08B"/>
		<stop  offset="8.620072e-02" style="stop-color:#ED9C87"/>
		<stop  offset="0.6354" style="stop-color:#E18773"/>
		<stop  offset="0.9948" style="stop-color:#DD7F6C"/>
	</linearGradient>
	<path fill="url(#SVGID_13_)" d="M23.1,39.8c1.2-0.2,1.8,1.4,1.8,1.4S23,40.7,23.1,39.8z"/>
	<path fill="#FFFFFF" d="M49.7,9.2c0,0,0.1,0.7,0.1,1c-0.2,0.5-0.7,0.5-1.1,0.4c-0.4-0.1-0.8-0.4-0.8-0.4l1-0.6L49.7,9.2z"/>
	<path fill="#3794B5" d="M49.8,9.2c0,0,0.2,1.1-0.2,1.2C49,10.7,49,9.6,49,9.6L49.8,9.2z"/>
	<path fill="#5B1B1B" d="M49.3,9.9c0,0.2,0.1,0.3,0.2,0.3c0.1,0,0.2-0.1,0.2-0.3c0-0.2-0.1-0.3-0.2-0.3C49.4,9.6,49.3,9.8,49.3,9.9z
		"/>
	<path fill="#FFFFFF" d="M49.4,9.7c0,0.1,0.1,0.2,0.1,0.2c0.1,0,0.1-0.1,0.1-0.2c0-0.1-0.1-0.2-0.1-0.2C49.5,9.5,49.4,9.6,49.4,9.7z
		"/>
	<path fill="#FFA08D" d="M51.9,13.2c0,0-0.1,0.2-0.3,0.4c-0.2,0.2-0.4,0-0.2-0.2C51.5,13.2,51.9,13.2,51.9,13.2z"/>
	<path fill="#FFA08D" d="M51.2,15.3c0,0-0.8,0.4-1.1,0.2c-0.2-0.1-0.4-0.2,0-0.2C50.6,15.3,51.2,15.3,51.2,15.3z"/>
	<path fill="#5B1B1B" d="M49.8,8.9C49.9,8.8,50.1,9,50,9.1c-0.2,0.3-0.8,0.6-1.2,0.8c-0.4,0.2-1,0.3-1,0.3S49.2,9.3,49.8,8.9z"/>
	
		<linearGradient id="SVGID_14_" gradientUnits="userSpaceOnUse" x1="719.624" y1="8.8762" x2="721.4157" y2="8.8762" gradientTransform="matrix(-1 0 0 1 769.5513 0)">
		<stop  offset="0" style="stop-color:#EFA08B"/>
		<stop  offset="0.156" style="stop-color:#EB9984"/>
		<stop  offset="0.6493" style="stop-color:#E18672"/>
		<stop  offset="0.9948" style="stop-color:#DD7F6C"/>
	</linearGradient>
	<path fill="url(#SVGID_14_)" d="M49.9,8.4c0,0-0.5,0.4-0.9,0.6c-0.4,0.2-0.8,0.5-0.8,0.5s1.1-1,1.4-1.1C49.9,8.1,49.9,8.4,49.9,8.4
		z"/>
	
		<linearGradient id="SVGID_15_" gradientUnits="userSpaceOnUse" x1="717.6682" y1="5.706" x2="732.7767" y2="5.706" gradientTransform="matrix(-1 0 0 1 769.5513 0)">
		<stop  offset="0" style="stop-color:#B24E2B"/>
		<stop  offset="0.3843" style="stop-color:#AA4727"/>
		<stop  offset="1" style="stop-color:#A34123"/>
	</linearGradient>
	<path fill="url(#SVGID_15_)" d="M51.9,3l-0.5,0.7c0,0-3.6-2.1-5.8-2.6c-2.4-0.5-3.9,0.1-5.1,1.1c-1.1,0.8-2.8,2.6-2.9,4.1
		c-0.2,2.3-0.1,4.9-0.1,4.9s-1.9-4.8,0.7-7.9c2.7-3.2,5.7-3.5,8.2-2.6C48.3,1.3,51.9,3,51.9,3z"/>
</g>
</svg>
