<svg id="Layer_1" data-name="Layer 1" xmlns="http://www.w3.org/2000/svg" xmlns:xlink="http://www.w3.org/1999/xlink" viewBox="0 0 73.84 120.75"><defs><style>.cls-1{fill:url(#linear-gradient);}.cls-2{fill:url(#linear-gradient-2);}.cls-3{fill:url(#linear-gradient-3);}.cls-4{fill:url(#linear-gradient-4);}.cls-5{fill:#098256;}.cls-6{fill:url(#linear-gradient-5);}.cls-7{fill:url(#linear-gradient-6);}.cls-8{fill:url(#Degradado_sin_nombre_5);}.cls-9{fill:#295b8a;}.cls-10{fill:url(#linear-gradient-7);}.cls-11{fill:url(#Degradado_sin_nombre_5-2);}.cls-12{fill:#225077;}.cls-13{fill:#fff;}.cls-14{fill:url(#Degradado_sin_nombre_5-3);}.cls-15{fill:#5b1b1b;}.cls-16{fill:url(#linear-gradient-8);}.cls-17{fill:#ffa08d;}.cls-18{fill:url(#linear-gradient-9);}.cls-19{fill:#3794b5;}.cls-20{fill:url(#linear-gradient-10);}.cls-21{fill:url(#linear-gradient-11);}.cls-22{fill:url(#linear-gradient-12);}.cls-23{fill:url(#linear-gradient-13);}</style><linearGradient id="linear-gradient" x1="451.77" y1="35.46" x2="462.74" y2="35.46" gradientTransform="matrix(-1, 0, 0, 1, 510.88, 0)" gradientUnits="userSpaceOnUse"><stop offset="0" stop-color="#efa08b"/><stop offset="0.64" stop-color="#e48c78"/><stop offset="0.99" stop-color="#dd7f6c"/></linearGradient><linearGradient id="linear-gradient-2" x1="461.98" y1="18.81" x2="474.78" y2="18.81" gradientTransform="matrix(-1, 0, 0, 1, 510.88, 0)" gradientUnits="userSpaceOnUse"><stop offset="0" stop-color="#ffc5b3"/><stop offset="0.36" stop-color="#fbbba8"/><stop offset="1" stop-color="#efa08b"/></linearGradient><linearGradient id="linear-gradient-3" x1="469.88" y1="5.92" x2="469.88" y2="20.85" gradientTransform="matrix(-1, 0, 0, 1, 510.88, 0)" gradientUnits="userSpaceOnUse"><stop offset="0" stop-color="#7b2b08"/><stop offset="1" stop-color="#682007"/></linearGradient><linearGradient id="linear-gradient-4" x1="485.78" y1="61.37" x2="485.78" y2="96.51" xlink:href="#linear-gradient-2"/><linearGradient id="linear-gradient-5" x1="460.69" y1="68.78" x2="460.69" y2="109.95" xlink:href="#linear-gradient-2"/><linearGradient id="linear-gradient-6" x1="467.79" y1="52.64" x2="467.79" y2="82" gradientTransform="matrix(-1, 0, 0, 1, 510.88, 0)" gradientUnits="userSpaceOnUse"><stop offset="0" stop-color="#15a072"/><stop offset="0.46" stop-color="#119568"/><stop offset="1" stop-color="#098256"/></linearGradient><linearGradient id="Degradado_sin_nombre_5" x1="470.67" y1="23.12" x2="470.67" y2="61.99" gradientTransform="matrix(-1, 0, 0, 1, 510.88, 0)" gradientUnits="userSpaceOnUse"><stop offset="0" stop-color="#347fb6"/><stop offset="0.35" stop-color="#337bb2"/><stop offset="0.7" stop-color="#3270a6"/><stop offset="1" stop-color="#2f6095"/></linearGradient><linearGradient id="linear-gradient-7" x1="466.79" y1="41.97" x2="491.5" y2="41.97" xlink:href="#linear-gradient-2"/><linearGradient id="Degradado_sin_nombre_5-2" x1="439.12" y1="107.53" x2="456.53" y2="107.53" xlink:href="#Degradado_sin_nombre_5"/><linearGradient id="Degradado_sin_nombre_5-3" x1="505.66" y1="273.54" x2="520.15" y2="273.54" gradientTransform="matrix(-0.87, -0.49, -0.49, 0.87, 588.36, 110.73)" xlink:href="#Degradado_sin_nombre_5"/><linearGradient id="linear-gradient-8" x1="471.35" y1="17.42" x2="471.35" y2="14.94" gradientTransform="matrix(-1, 0, 0, 1, 510.88, 0)" gradientUnits="userSpaceOnUse"><stop offset="0" stop-color="#efa08b"/><stop offset="0.28" stop-color="#e7917d"/><stop offset="0.66" stop-color="#e08470"/><stop offset="0.99" stop-color="#dd7f6c"/></linearGradient><linearGradient id="linear-gradient-9" x1="488.57" y1="41.91" x2="490.14" y2="41.91" gradientTransform="matrix(-1, 0, 0, 1, 510.88, 0)" gradientUnits="userSpaceOnUse"><stop offset="0" stop-color="#efa08b"/><stop offset="0.09" stop-color="#ed9c87"/><stop offset="0.64" stop-color="#e18773"/><stop offset="0.99" stop-color="#dd7f6c"/></linearGradient><linearGradient id="linear-gradient-10" x1="464.58" y1="13.25" x2="466.18" y2="13.25" gradientTransform="matrix(-1, 0, 0, 1, 510.88, 0)" gradientUnits="userSpaceOnUse"><stop offset="0" stop-color="#efa08b"/><stop offset="0.16" stop-color="#eb9984"/><stop offset="0.65" stop-color="#e18672"/><stop offset="0.99" stop-color="#dd7f6c"/></linearGradient><linearGradient id="linear-gradient-11" x1="462.74" y1="10.35" x2="476.73" y2="10.35" gradientTransform="matrix(-1, 0, 0, 1, 510.88, 0)" gradientUnits="userSpaceOnUse"><stop offset="0" stop-color="#b24e2b"/><stop offset="0.38" stop-color="#aa4727"/><stop offset="1" stop-color="#a34123"/></linearGradient><linearGradient id="linear-gradient-12" x1="463.21" y1="19.16" x2="464.54" y2="19.16" xlink:href="#linear-gradient-10"/><linearGradient id="linear-gradient-13" x1="466.79" y1="21.57" x2="470.45" y2="21.57" xlink:href="#linear-gradient-10"/></defs><title>men</title><path class="cls-1" d="M54.92,27.05c-.76-.19-1.94,1.43-2,2.79A7.32,7.32,0,0,1,52.52,33c-.4.62-4.39,3.94-4.39,3.94l1.47,7s5.31-3.72,7.21-6.52a15.58,15.58,0,0,0,2.28-6.95c.17-1.07-.57-1.65-1.2-1.33.19-1.33-.86-1.29-1.34-1.16A1.2,1.2,0,0,0,54.92,27.05Z"/><path class="cls-2" d="M36.84,20.32c-.39-1.67-.74-3.82-.74-3.82S40.17,6.34,45.2,8A2.47,2.47,0,0,1,47,9.5a5.69,5.69,0,0,1,.39,1.55,26.47,26.47,0,0,1-.29,3c0,1.29,2.28,2.2,1.72,2.94-.18.25-1.27.34-1.2.86s.45.53,0,.93c-.11.12-.31.23-.28.43s.28.23.33.52-.17.37-.3.45a.76.76,0,0,0-.2.85c.27,1.06.28,1.62-1.1,2-.52.16-1.33.62-1.94,2.4-.38,1.08.4,4.34.4,4.34L36.1,25.46S37.24,22,36.84,20.32Z"/><path class="cls-3" d="M47,9.5a3.49,3.49,0,0,0,.86-1.44c-.76,0-4-2.36-6.8-2.12-3.4.29-6.28,1.44-6.83,5-.33,2,.86,5.8,1.46,6.91a31.62,31.62,0,0,1,1.29,3,2.32,2.32,0,0,0,1.1-1,6.08,6.08,0,0,0,.69-2.39c-.57-1.29-1.14-2.85.3-3,1.09-.15,2,1.6,2,1.6l.5-.28s-.52-3,1.09-4.05C42.62,10.48,41.61,8.17,47,9.5Z"/><path class="cls-4" d="M41.22,70.67S43,75.06,41,78.4c-1.13,1.86-1.43,3.45-3.66,5.58-3.17,3-3,1.29-7.82,3.28s-19.25,9.25-19.25,9.25l-2-4.45s1-3,5.73-7.82c2.51-2.54,4.65-5.34,6.28-6.22,1.82-1,4.82-1.14,5.3-2.56C26.46,72.77,30,61.37,30,61.37Z"/><path class="cls-5" d="M44,74.7l-3.76,6.44a14.29,14.29,0,0,1-8.12-1.57c-3.9-2-6.06-6.66-6.06-6.66s2.51-8.26,3.53-14.16C34.5,57.25,44,74.7,44,74.7Z"/><path class="cls-6" d="M50.85,68.78s5.77.67,6.79,2.91a19.09,19.09,0,0,1,1.47,7.78c0,2.5-.74,6.27.79,14.35.46,2.44,3.15,12.63,3.15,12.63L58.71,110S48.89,98.66,47.48,94.7c-2.09-5.85-.5-6.62-1.76-9.21S37.32,75,37.32,75,49.45,72.32,50.85,68.78Z"/><path class="cls-7" d="M54.35,52.64s3.62.65,3.73,2.07a16.72,16.72,0,0,1-1.46,7.84c-1.24,2.91-1.06,4.24,0,6.56a36.1,36.1,0,0,1,2.49,8.18s-4.62,1.91-7.63,3.21C48,82,42.26,82,42.26,82s-5.32-7.29-10.38-12.89C26,62.63,27.15,54.27,27.15,54.27Z"/><path class="cls-8" d="M43.81,26.53c1.35.6,3.82,1,5.42,2.86,1.15,1.36.55,4.33,1.46,7.79.47,1.76,8.42,9.46,7.32,20.93-4.19,3.57-14,4.52-19.38,3.5-4.85-.93-11.56-4.18-11.56-4.18a36.51,36.51,0,0,1,2-12.56c.75-2.25,3.25-7.34,2.84-8.16C31.71,37.34,29.5,39,29.5,39s-3.4-4.89-7.19-6.28a17.49,17.49,0,0,1,4.29-6.44c3.85-4,7.55-3.35,10-2.54,1.17.42,5.42,3.85,6.62,4.37C44,28.46,43.81,27.14,43.81,26.53Z"/><path class="cls-9" d="M31.93,36.71s3.19-1.88,4.46-.84.43,2-.29,4.25c-.68,2.09-5.8,3.66-6.6,4.75C30.35,41.55,32.15,36.66,31.93,36.71Z"/><path class="cls-10" d="M20.35,37.49a20,20,0,0,1,2-4.78,10,10,0,0,1,4.24,2.35A13.55,13.55,0,0,1,29.5,39l-.56.84s4.89,3,7.88,4.33c1.6.73,3.19.39,4.14.55,1.2.21,3.9,1,2.92,2.33a1.23,1.23,0,0,1-.66,1.63.89.89,0,0,1-.5,1.41c.26,1-.57,1.47-2.29.92-2.2-.7-2,0-6.89-1.52-5.13-1.6-6.68-2.21-9-2.9a8.38,8.38,0,0,1-5-4.08C19,41.24,20.08,39,20.35,37.49Z"/><path class="cls-11" d="M55,105.28c.76-.28,1.42.86,2,1.14s1.89-1.26,2.65-1.68a1.69,1.69,0,0,1,.27-.1l0-.08a3.94,3.94,0,0,1,.84-1.62,5.48,5.48,0,0,1,2-1.32c.86-.46.46,1.84.18,3.1a25.06,25.06,0,0,0,4.82,2.54,6.33,6.33,0,0,0,2.85-.23,15.06,15.06,0,0,1,1,1.46c.55,1-.19,1.49-1.1,2.05a13.37,13.37,0,0,1-5.23,2.3c-2.45.35-3.79-.7-4.31-.49s-.91,1.12-.91,1.12-1.64.09-3.44,0a3.08,3.08,0,0,1-2.23-2.17C54.42,111,54.5,105.47,55,105.28Z"/><path class="cls-12" d="M71.57,108.49a12.84,12.84,0,0,1-6.19,2.68c-3.18.21-5-.82-6.25,0s-4.24-.34-4.24-.34a6.29,6.29,0,0,0,3.94-.11c1.85-.93,4.4,0,6.67-.15,1.54-.1,5.86-2.45,5.86-2.45Z"/><path class="cls-13" d="M66.9,107s-.67.44-1.75,1.18a6.21,6.21,0,0,1-1.65.89,12.69,12.69,0,0,1,1.65-1.61c.27-.22,1.17-.74,1.17-.74Z"/><path class="cls-13" d="M65.2,106.08l-1.7,1.13A17.79,17.79,0,0,0,62,108.43a11.46,11.46,0,0,1,1.19-1.75,10.37,10.37,0,0,1,1.49-.88Z"/><path class="cls-13" d="M63.8,105.27l-1.7,1.14c-.45.3-1.45,1.22-1.45,1.22a11.46,11.46,0,0,1,1.18-1.75,10.92,10.92,0,0,1,1.5-.88Z"/><path class="cls-14" d="M3.41,90.2c.35,0,6-1,6.26-.46.41.69-.77,1.41-.91,2.09S10.38,93.4,11,94.07a1.11,1.11,0,0,1,.16.24l.07-.06a4,4,0,0,1,1.76.48,5.37,5.37,0,0,1,1.7,1.63c.63.74-1.7.83-3,.83a24.7,24.7,0,0,0-1.46,5.24,6.36,6.36,0,0,0,.82,2.74,14.66,14.66,0,0,1-1.22,1.26c-.87.76-1.5.13-2.23-.64a13.17,13.17,0,0,1-3.36-4.63c-.85-2.31-.11-3.85-.43-4.31a2.57,2.57,0,0,0-1.28-.66s-.44-1.58-.73-3.35A3.06,3.06,0,0,1,3.41,90.2Z"/><path class="cls-12" d="M9.79,106.43S6.74,104,5.87,101s-.26-5.06-1.34-6.1S4,90.63,4,90.63a6.24,6.24,0,0,0,.94,3.83c1.3,1.61.91,4.3,1.54,6.48.43,1.49,3.63,5.22,3.63,5.22Z"/><path class="cls-13" d="M10.3,101.54l-1.53-1.45a6.22,6.22,0,0,1-1.21-1.43,13.53,13.53,0,0,1,1.92,1.27c.27.22,1,1,1,1Z"/><path class="cls-13" d="M10.8,99.7,9.34,98.28a18.69,18.69,0,0,0-1.5-1.17,11.63,11.63,0,0,1,2,.79A11.33,11.33,0,0,1,11,99.18Z"/><path class="cls-13" d="M11.3,98.17,9.83,96.74c-.4-.38-1.5-1.16-1.5-1.16a11.63,11.63,0,0,1,2,.79,11.43,11.43,0,0,1,1.18,1.27Z"/><path class="cls-15" d="M46.09,11.4c.42,0,.95.29.6.47a10.56,10.56,0,0,0-1.46.26,8.53,8.53,0,0,0-1.67,1.06A2.88,2.88,0,0,1,46.09,11.4Z"/><path class="cls-16" d="M40.43,16.2s-.77-1.46-1.31-1.24S38.63,16,38.63,16s.43-.45.84-.25.05.62,0,.79c-.17.56.57.84.57.84a3.24,3.24,0,0,1-.06-.84C40,16.28,40.43,16.2,40.43,16.2Z"/><path class="cls-17" d="M55.06,79.57s1.15,1.85,1,2.59A7,7,0,0,1,54.73,84Z"/><path class="cls-18" d="M20.74,41.32c1.07-.17,1.57,1.18,1.57,1.18S20.7,42.1,20.74,41.32Z"/><path class="cls-13" d="M46.07,13.54a2.72,2.72,0,0,1,0,.89c-.13.41-.58.42-.94.33a2.07,2.07,0,0,1-.69-.36l.87-.52Z"/><path class="cls-19" d="M46.15,13.57s.16.95-.2,1.08-.44-.77-.44-.77Z"/><path class="cls-15" d="M45.72,14.17c0,.14.07.25.15.25s.16-.11.16-.25-.07-.25-.16-.25S45.72,14,45.72,14.17Z"/><path class="cls-13" d="M45.84,14c0,.1,0,.18.12.18s.11-.08.11-.18,0-.18-.11-.18S45.84,13.87,45.84,14Z"/><path class="cls-17" d="M48.05,17a1.22,1.22,0,0,1-.28.34c-.22.2-.4,0-.22-.17A.83.83,0,0,1,48.05,17Z"/><path class="cls-15" d="M46.19,13.24c.09-.06.24.09.15.22a2.92,2.92,0,0,1-1.09.72,3.76,3.76,0,0,1-.91.25S45.66,13.61,46.19,13.24Z"/><path class="cls-20" d="M46.3,12.85s-.48.34-.84.54-.76.39-.76.39a14.4,14.4,0,0,1,1.26-1C46.3,12.61,46.3,12.85,46.3,12.85Z"/><path class="cls-21" d="M48.13,7.9l-.48.61a24.89,24.89,0,0,0-5.41-2.32,5.35,5.35,0,0,0-4.74.95c-1,.77-2.55,2.32-2.67,3.72a36.58,36.58,0,0,0,0,4.43S33,11,35.47,8.15,40.75,5,43.07,5.79C44.77,6.36,48.13,7.9,48.13,7.9Z"/><path class="cls-22" d="M47.4,19.42c-.32,0-.64.18-.86.16s-.35-.22,0-.52a2.32,2.32,0,0,1,1.18-.33S47.18,19.11,47.4,19.42Z"/><path class="cls-23" d="M44.09,22.64s-.41.08-1.83-.62a6.86,6.86,0,0,1-1.83-1.62,2.47,2.47,0,0,0,1.41,2.06A3.92,3.92,0,0,0,44.09,22.64Z"/><path class="cls-9" d="M45,29.1s-.32,1.55-2,.69a31.56,31.56,0,0,1-4.59-3.52s2.49,4.68,5.28,5.11S45,29.1,45,29.1Z"/><path class="cls-9" d="M44.49,58.26a58.64,58.64,0,0,1-8.39-.76c-4.24-.73-7.58-1.69-7.58-1.69s4.48,2.4,7.58,2.85A37.21,37.21,0,0,0,44.49,58.26Z"/></svg>