<?xml version="1.0" encoding="utf-8"?>
<!-- Generator: Adobe Illustrator 24.0.1, SVG Export Plug-In . SVG Version: 6.00 Build 0)  -->
<svg version="1.1" id="Layer_1" xmlns="http://www.w3.org/2000/svg" xmlns:xlink="http://www.w3.org/1999/xlink" x="0px" y="0px"
	 viewBox="0 0 78.7 124.3" enable-background="new 0 0 78.7 124.3" xml:space="preserve">
<g>
	
		<linearGradient id="SVGID_1_" gradientUnits="userSpaceOnUse" x1="534.5496" y1="36.0347" x2="550.0583" y2="36.0347" gradientTransform="matrix(-1 0 0 1 596.1771 0)">
		<stop  offset="0" style="stop-color:#EFA08B"/>
		<stop  offset="0.6405" style="stop-color:#E48C78"/>
		<stop  offset="0.9948" style="stop-color:#DD7F6C"/>
	</linearGradient>
	<path fill="url(#SVGID_1_)" d="M57.6,26.9c-0.8-0.2-1.9,1.2-2,2.7c0,1.5,0.6,2.6,0.1,3.3s-7.9,4.6-7.9,4.6l-1.6,7.6
		c0,0,10.7-5.3,12.8-8.5c2.1-3.1,2.5-5,2.7-6.4c0.2-1.2-0.6-1.7-1.3-1.3c0.2-1.5-0.8-1.4-1.3-1.2C58.6,26.3,57.6,26.9,57.6,26.9z"/>
	
		<linearGradient id="SVGID_2_" gradientUnits="userSpaceOnUse" x1="543.348" y1="14.3786" x2="556.7686" y2="14.3786" gradientTransform="matrix(-1 0 0 1 596.1771 0)">
		<stop  offset="0" style="stop-color:#FFC5B3"/>
		<stop  offset="0.3645" style="stop-color:#FBBBA8"/>
		<stop  offset="1" style="stop-color:#EFA08B"/>
	</linearGradient>
	<path fill="url(#SVGID_2_)" d="M40.1,16.7c-0.4-1.9-0.7-3.7-0.7-3.7s3.7-11.8,9.3-10c0.9,0.3,1.7,0.8,2,1.8
		c0.2,0.5,0.4,1.2,0.4,1.8c0.1,1.4-0.3,2.8-0.3,3.4c0,1.5,2.5,2.5,1.9,3.3c-0.2,0.3-1.4,0.4-1.3,1c0.1,0.4,0.5,0.6,0,1.1
		c0.3,0.5,0,0.7-0.3,0.8c-0.2,0.1-0.5,0.1-0.4,0.6c0.3,1,0.1,1.6-0.7,1.8c-0.5,0.1-2.8,0.1-3.1,1.3c-0.3,1.3-0.5,6.1-0.5,6.1l-7-3.3
		C39.4,22.7,40.5,18.6,40.1,16.7z"/>
	
		<linearGradient id="SVGID_3_" gradientUnits="userSpaceOnUse" x1="551.8231" y1="0.6694" x2="551.8231" y2="18.0887" gradientTransform="matrix(-1 0 0 1 596.1771 0)">
		<stop  offset="0" style="stop-color:#7B2B08"/>
		<stop  offset="6.743622e-02" style="stop-color:#792A08"/>
		<stop  offset="0.5419" style="stop-color:#6C2207"/>
		<stop  offset="1" style="stop-color:#682007"/>
	</linearGradient>
	<path fill="url(#SVGID_3_)" d="M50.7,4.7c0,0,0.9-0.9,1-1.6c-0.8,0-4.5-2.7-7.6-2.4c-3.8,0.3-6.7,3.2-7,5.5
		c-0.3,2.3,0.8,6.9,1.4,8.2c0.7,1.3,1.6,3.7,1.6,3.7s0.3-0.4,0.9-1.3c-0.1-0.6,0.4-1.9,0.5-3.1c-0.6-1.5-1.3-3.2,0.3-3.4
		c1.2-0.2,2.2,1.8,2.2,1.8l0.6-0.3c0,0-0.6-3.4,1.2-4.6C45.9,5.8,44.7,3.2,50.7,4.7z"/>
	
		<linearGradient id="SVGID_4_" gradientUnits="userSpaceOnUse" x1="570.1981" y1="64.9207" x2="570.1981" y2="103.311" gradientTransform="matrix(-1 0 0 1 596.1771 0)">
		<stop  offset="0" style="stop-color:#FFC5B3"/>
		<stop  offset="0.3645" style="stop-color:#FBBBA8"/>
		<stop  offset="1" style="stop-color:#EFA08B"/>
	</linearGradient>
	<path fill="url(#SVGID_4_)" d="M44.3,74c0,0-4.9,4.5-7.2,8.3c-1.3,2.1-2.4,3.7-3.4,4.9c-1,1.2-2.7,0.2-4.3,0.7
		c-5.3,1.7-19.6,15.4-19.6,15.4l-2.2-5c0,0,4.2-6,9.3-11.3c2.4-2.5,3.3-3,5.1-4c2-1.1,4.7-2.9,6.1-6.1c1.3-2.9,6.3-12,6.3-12
		L44.3,74z"/>
	<path fill="#098256" d="M44.3,74l-5.7,8.4c0,0-2-0.5-3.7-2c-2.7-2.3-5.4-6.9-5.4-6.9l6.1-12.3L44.3,74z"/>
	
		<linearGradient id="SVGID_5_" gradientUnits="userSpaceOnUse" x1="539.2684" y1="71.8855" x2="539.2684" y2="118.5365" gradientTransform="matrix(-1 0 0 1 596.1771 0)">
		<stop  offset="0" style="stop-color:#FFC5B3"/>
		<stop  offset="0.3645" style="stop-color:#FBBBA8"/>
		<stop  offset="1" style="stop-color:#EFA08B"/>
	</linearGradient>
	<path fill="url(#SVGID_5_)" d="M55,71.9c0,0,1.9,4.1,3.1,6.6c1.2,2.8,1.9,4.1,1.9,6.7c0,2.8,0.6,7.3,3.2,14.3c1,2.6,5.3,15,5.3,15
		l-4.8,4c0,0-4.3-9.8-8.5-18.5c-3-6.3-4.1-10.9-5.5-13.8c-1.4-2.9-4.5-6.5-4.5-6.5S53.4,75.9,55,71.9z"/>
	
		<linearGradient id="SVGID_6_" gradientUnits="userSpaceOnUse" x1="550.3466" y1="57.1384" x2="550.3466" y2="83.9359" gradientTransform="matrix(-1 0 0 1 596.1771 0)">
		<stop  offset="0" style="stop-color:#15A072"/>
		<stop  offset="0.4562" style="stop-color:#119568"/>
		<stop  offset="1" style="stop-color:#098256"/>
	</linearGradient>
	<path fill="url(#SVGID_6_)" d="M51.7,58.9c0,0,1.5,5.7,1.8,6.4c2.3,5.6,4.7,13.3,4.7,13.3s-1.4,2.2-4.7,3.7
		c-3.8,1.7-7.2,1.8-7.2,1.8s-2.7-13.4-6.2-15.7c-4.9-3.2-6.4-11.1-6.4-11.1L51.7,58.9z"/>
	
		<linearGradient id="SVGID_7_" gradientUnits="userSpaceOnUse" x1="556.96" y1="20.8398" x2="556.96" y2="59.8795" gradientTransform="matrix(-1 0 0 1 596.1771 0)">
		<stop  offset="0" style="stop-color:#347FB6"/>
		<stop  offset="0.3453" style="stop-color:#337BB2"/>
		<stop  offset="0.7007" style="stop-color:#3270A6"/>
		<stop  offset="1" style="stop-color:#2F6095"/>
	</linearGradient>
	<path fill="url(#SVGID_7_)" d="M46.4,23.7c1.5,0.7,2.3,2.8,4.1,5c1.3,1.5,0.8,5.5-0.7,9c-2,4.7-1.9,9.1-1.1,14.9c0.4,3,3,6.3,3,6.3
		s-5.7,1-9.2,1c-5.5,0-8.8-2.7-8.8-2.7s0.7-2.6,3.3-10.5c0.8-2.6-2.3-11-2.8-11.9c-1.1,0.4-3,2.1-3,2.1s-0.9-3.8-4.4-6.6
		c2-2.3,3.4-3.9,5.9-6.7c2.3-2.7,5.1-2.7,7.2-2.7c1.3,0.5,4.1,3.1,5.4,3.7C46.2,24.9,46.4,24.4,46.4,23.7z"/>
	<path fill="#295B8A" d="M34.1,34.7c0,0,3.9-1.9,5.3-0.8c1.3,1.1,1.5,2.9,0.7,5.5c-0.7,2.4-2.2,3.2-3,4.4
		C36.8,40.3,34.1,34.7,34.1,34.7z"/>
	
		<linearGradient id="SVGID_8_" gradientUnits="userSpaceOnUse" x1="548.6901" y1="40.8612" x2="575.0381" y2="40.8612" gradientTransform="matrix(-1 0 0 1 596.1771 0)">
		<stop  offset="0" style="stop-color:#FFC5B3"/>
		<stop  offset="0.3645" style="stop-color:#FBBBA8"/>
		<stop  offset="1" style="stop-color:#EFA08B"/>
	</linearGradient>
	<path fill="url(#SVGID_8_)" d="M22,37c0.9-1.7,4.8-6.7,4.8-6.7s1.1,0.4,2.5,2.1c1.2,1.5,1.9,4.5,1.9,4.5l-1.5,1.4
		c0,0,6.3,4.3,9.7,5.8c1.8,0.8,3.5,0.4,4.6,0.6c1.3,0.2,4.3,1.2,3.2,2.6c0.2,0.7,0,1.6-0.7,1.8c0.6,0.9-0.2,1.5-0.6,1.6
		c0.3,1.1-0.6,0.9-2.5,0.2c-2.4-0.8-3.3-0.4-5.7-2.1c-0.3-0.2-2.3-0.6-3.6-1c-5.8-1.8-6.3-2.3-7.4-3.1c-1.6-1.2-3.9-3.2-4.9-3.8
		C20.6,40,21.2,38.5,22,37z"/>
	<g>
		<linearGradient id="SVGID_9_" gradientUnits="userSpaceOnUse" x1="58.8888" y1="115.8005" x2="78.239" y2="115.8005">
			<stop  offset="0" style="stop-color:#347FB6"/>
			<stop  offset="0.3453" style="stop-color:#337BB2"/>
			<stop  offset="0.7007" style="stop-color:#3270A6"/>
			<stop  offset="1" style="stop-color:#2F6095"/>
		</linearGradient>
		<path fill="url(#SVGID_9_)" d="M60.6,112.6c0.6,0.1,0.6,1.6,1.3,1.9c0.7,0.3,2.1-1.4,2.9-1.9c0.1,0,0.2-0.1,0.3-0.1l0-0.1
			c0,0,0.2-0.9,0.9-1.8c0.8-1,2.2-1.5,2.2-1.5c0.9-0.5,0.5,2.1,0.2,3.5c0.9,0.6,4.1,2.6,5.4,2.9c1.5,0.3,3.2-0.3,3.2-0.3
			s0.7,0.9,1.1,1.7c0.6,1.1-0.2,1.7-1.2,2.3c-1,0.6-3.1,2.2-5.8,2.6c-2.7,0.4-4.2-0.8-4.8-0.6c-0.6,0.2-1,1.3-1,1.3s-1.8,0.1-3.8,0
			c-1.4-0.1-2.6-2.1-2.5-2.5C59,119.7,60,112.6,60.6,112.6z"/>
		<path fill="#225077" d="M78,116.9c0,0-3.3,2.8-6.9,3c-3.5,0.2-5.6-0.9-6.9,0c-1.4,0.9-4.7-0.4-4.7-0.4s2.6,0.8,4.4-0.1
			c2.1-1.1,4.9,0,7.4-0.2c1.7-0.1,6.5-2.8,6.5-2.8L78,116.9z"/>
		<path fill="#FFFFFF" d="M72.8,115.1c0,0-0.7,0.5-1.9,1.3c-1.2,0.8-1.8,1-1.8,1s0.8-1,1.8-1.8c0.3-0.2,1.3-0.8,1.3-0.8L72.8,115.1z
			"/>
		<path fill="#FFFFFF" d="M70.9,114.1c0,0-1.4,1-1.9,1.3c-0.5,0.3-1.6,1.4-1.6,1.4s0.8-1.5,1.3-2c0.3-0.3,1.7-1,1.7-1L70.9,114.1z"
			/>
		<path fill="#FFFFFF" d="M69.4,113.2c0,0-1.4,1-1.9,1.3c-0.5,0.3-1.6,1.4-1.6,1.4s0.8-1.5,1.3-2c0.3-0.3,1.7-1,1.7-1L69.4,113.2z"
			/>
	</g>
	<g>
		
			<linearGradient id="SVGID_10_" gradientUnits="userSpaceOnUse" x1="657.3295" y1="320.8324" x2="673.5731" y2="320.8324" gradientTransform="matrix(-0.8711 -0.4911 -0.4911 0.8711 743.6834 151.5014)">
			<stop  offset="0" style="stop-color:#347FB6"/>
			<stop  offset="0.3453" style="stop-color:#337BB2"/>
			<stop  offset="0.7007" style="stop-color:#3270A6"/>
			<stop  offset="1" style="stop-color:#2F6095"/>
		</linearGradient>
		<path fill="url(#SVGID_10_)" d="M2.3,96.2c0.4,0,6.9-0.7,7-0.1c0.1,0.6-0.9,1.2-1,1.9c-0.2,0.8,1.8,1.8,2.4,2.5
			c0.1,0.1,0.1,0.2,0.2,0.3l0.1-0.1c0,0,0.9,0,1.9,0.5c1.1,0.6,1.9,1.8,1.9,1.8c0.7,0.8-1.9,0.9-3.3,0.9c-0.4,1.1-1.6,4.6-1.6,5.9
			c0,1.5,0.9,3.1,0.9,3.1s-0.7,0.8-1.4,1.4c-1,0.9-1.7,0.1-2.5-0.7c-0.8-0.9-2.8-2.6-3.7-5.2c-1-2.6-0.1-4.4-0.5-4.9
			c-0.3-0.5-1.4-0.7-1.4-0.7s-0.5-1.8-0.8-3.8C0.2,97.8,1.9,96.2,2.3,96.2z"/>
		<path fill="#225077" d="M9.4,114.6c0,0-3.4-2.7-4.4-6.2c-1-3.5-0.3-5.7-1.5-6.9c-1.2-1.2-0.6-4.8-0.6-4.8s-0.2,2.7,1,4.3
			c1.4,1.8,1,4.9,1.7,7.3c0.5,1.7,4,5.9,4,5.9L9.4,114.6z"/>
		<path fill="#FFFFFF" d="M9.9,109c0,0-0.6-0.6-1.7-1.7c-1.1-1-1.4-1.6-1.4-1.6s1.1,0.6,2.1,1.4c0.3,0.2,1.1,1.1,1.1,1.1L9.9,109z"
			/>
		<path fill="#FFFFFF" d="M10.5,106.9c0,0-1.2-1.2-1.6-1.6c-0.4-0.4-1.7-1.3-1.7-1.3s1.6,0.5,2.2,0.9c0.4,0.3,1.3,1.4,1.3,1.4
			L10.5,106.9z"/>
		<path fill="#FFFFFF" d="M11,105.2c0,0-1.2-1.2-1.6-1.6c-0.4-0.4-1.7-1.3-1.7-1.3s1.6,0.5,2.2,0.9c0.4,0.3,1.3,1.4,1.3,1.4
			L11,105.2z"/>
	</g>
	<path fill="#5B1B1B" d="M49.7,6.9c0.5,0,1.1,0.3,0.7,0.5c-0.2,0.1-0.9,0-1.6,0.3C48,8,46.9,8.9,46.9,8.9S47.8,6.8,49.7,6.9z"/>
	
		<linearGradient id="SVGID_11_" gradientUnits="userSpaceOnUse" x1="553.7558" y1="13.6933" x2="553.7558" y2="10.8845" gradientTransform="matrix(-1 0 0 1 596.1771 0)">
		<stop  offset="0" style="stop-color:#EFA08B"/>
		<stop  offset="0.2778" style="stop-color:#E7917D"/>
		<stop  offset="0.6579" style="stop-color:#E08470"/>
		<stop  offset="0.9948" style="stop-color:#DD7F6C"/>
	</linearGradient>
	<path fill="url(#SVGID_11_)" d="M43.4,12.3c0,0-0.9-1.6-1.5-1.4c-0.6,0.2-0.5,1.2-0.5,1.2s0.5-0.5,0.9-0.3c0.4,0.2,0.1,0.7,0,0.9
		c-0.2,0.6,0.6,0.9,0.6,0.9s-0.1-0.6-0.1-0.9C43,12.4,43.4,12.3,43.4,12.3z"/>
	
		<linearGradient id="SVGID_12_" gradientUnits="userSpaceOnUse" x1="549.2283" y1="16.6536" x2="554.7537" y2="16.6536" gradientTransform="matrix(-1 0 0 1 596.1771 0)">
		<stop  offset="0" style="stop-color:#EFA08B"/>
		<stop  offset="0.6405" style="stop-color:#E48C78"/>
		<stop  offset="0.9948" style="stop-color:#DD7F6C"/>
	</linearGradient>
	<path fill="url(#SVGID_12_)" d="M46.9,18.6c0,0-1.7-0.9-2.6-1.6c-1.3-1.1-2.9-2.6-2.9-2.6s1,2.4,2,3.4
		C44.9,19.3,46.4,18.9,46.9,18.6z"/>
	<path fill="#FFA08D" d="M57.9,83.5c0,0,0.9,1.4,0.8,2c-0.1,0.4-1,1.4-1,1.4L57.9,83.5z"/>
	
		<linearGradient id="SVGID_13_" gradientUnits="userSpaceOnUse" x1="571.1359" y1="40.0878" x2="572.8893" y2="40.0878" gradientTransform="matrix(-1 0 0 1 596.1771 0)">
		<stop  offset="0" style="stop-color:#EFA08B"/>
		<stop  offset="8.620072e-02" style="stop-color:#ED9C87"/>
		<stop  offset="0.6354" style="stop-color:#E18773"/>
		<stop  offset="0.9948" style="stop-color:#DD7F6C"/>
	</linearGradient>
	<path fill="url(#SVGID_13_)" d="M23.3,39.4c1.2-0.2,1.8,1.3,1.8,1.3S23.2,40.3,23.3,39.4z"/>
	<path fill="#FFFFFF" d="M49.7,9.3c0,0,0.1,0.7,0.1,1c-0.1,0.5-0.7,0.5-1,0.4c-0.4-0.1-0.8-0.4-0.8-0.4l1-0.6L49.7,9.3z"/>
	<path fill="#3794B5" d="M49.8,9.3c0,0,0.2,1.1-0.2,1.2c-0.5,0.2-0.5-0.9-0.5-0.9L49.8,9.3z"/>
	<path fill="#5B1B1B" d="M49.3,10c0,0.2,0.1,0.3,0.2,0.3c0.1,0,0.2-0.1,0.2-0.3c0-0.2-0.1-0.3-0.2-0.3C49.4,9.7,49.3,9.9,49.3,10z"
		/>
	<path fill="#FFFFFF" d="M49.4,9.8c0,0.1,0.1,0.2,0.1,0.2c0.1,0,0.1-0.1,0.1-0.2c0-0.1-0.1-0.2-0.1-0.2C49.5,9.6,49.4,9.7,49.4,9.8z
		"/>
	<path fill="#FFA08D" d="M51.9,13.3c0,0-0.1,0.2-0.3,0.4c-0.2,0.2-0.4,0-0.2-0.2C51.5,13.3,51.9,13.3,51.9,13.3z"/>
	<path fill="#FFA08D" d="M51.3,15.3c0,0-0.8,0.3-1.1,0.2c-0.2-0.1-0.4-0.2,0-0.2C50.7,15.3,51.3,15.3,51.3,15.3z"/>
	<path fill="#5B1B1B" d="M49.8,9c0.1-0.1,0.3,0.1,0.2,0.3c-0.2,0.3-0.8,0.6-1.2,0.8c-0.4,0.2-1,0.3-1,0.3S49.2,9.4,49.8,9z"/>
	
		<linearGradient id="SVGID_14_" gradientUnits="userSpaceOnUse" x1="546.2297" y1="8.9739" x2="548.007" y2="8.9739" gradientTransform="matrix(-1 0 0 1 596.1771 0)">
		<stop  offset="0" style="stop-color:#EFA08B"/>
		<stop  offset="0.156" style="stop-color:#EB9984"/>
		<stop  offset="0.6493" style="stop-color:#E18672"/>
		<stop  offset="0.9948" style="stop-color:#DD7F6C"/>
	</linearGradient>
	<path fill="url(#SVGID_14_)" d="M49.9,8.5c0,0-0.5,0.4-0.9,0.6c-0.4,0.2-0.8,0.4-0.8,0.4s1.1-1,1.4-1.1C49.9,8.2,49.9,8.5,49.9,8.5
		z"/>
	
		<linearGradient id="SVGID_15_" gradientUnits="userSpaceOnUse" x1="544.2896" y1="5.8491" x2="559.2765" y2="5.8491" gradientTransform="matrix(-1 0 0 1 596.1771 0)">
		<stop  offset="0" style="stop-color:#B24E2B"/>
		<stop  offset="0.3843" style="stop-color:#AA4727"/>
		<stop  offset="1" style="stop-color:#A34123"/>
	</linearGradient>
	<path fill="url(#SVGID_15_)" d="M51.9,3.2l-0.5,0.7c0,0-3.5-2.1-5.8-2.5c-2.3-0.5-3.9,0.1-5.1,1c-1,0.8-2.7,2.5-2.9,4.1
		c-0.2,2.3-0.1,4.8-0.1,4.8s-1.9-4.7,0.7-7.8C41,0.3,44,0,46.5,0.9C48.3,1.5,51.9,3.2,51.9,3.2z"/>
</g>
</svg>
