<svg id="Layer_1" data-name="Layer 1" xmlns="http://www.w3.org/2000/svg" xmlns:xlink="http://www.w3.org/1999/xlink" viewBox="0 0 73.84 120.75"><defs><style>.cls-1{fill:url(#linear-gradient);}.cls-2{fill:url(#linear-gradient-2);}.cls-3{fill:url(#linear-gradient-3);}.cls-4{fill:url(#linear-gradient-4);}.cls-5{fill:#098256;}.cls-6{fill:url(#linear-gradient-5);}.cls-7{fill:url(#linear-gradient-6);}.cls-8{fill:url(#Degradado_sin_nombre_5);}.cls-9{fill:#295b8a;}.cls-10{fill:url(#linear-gradient-7);}.cls-11{fill:url(#Degradado_sin_nombre_5-2);}.cls-12{fill:#225077;}.cls-13{fill:#fff;}.cls-14{fill:url(#Degradado_sin_nombre_5-3);}.cls-15{fill:#5b1b1b;}.cls-16{fill:url(#linear-gradient-8);}.cls-17{fill:#ffa08d;}.cls-18{fill:url(#linear-gradient-9);}.cls-19{fill:#3794b5;}.cls-20{fill:url(#linear-gradient-10);}.cls-21{fill:url(#linear-gradient-11);}.cls-22{fill:url(#linear-gradient-12);}.cls-23{fill:url(#linear-gradient-13);}</style><linearGradient id="linear-gradient" x1="290.22" y1="36.31" x2="301.19" y2="36.31" gradientTransform="matrix(-1, 0, 0, 1, 349.13, 0)" gradientUnits="userSpaceOnUse"><stop offset="0" stop-color="#efa08b"/><stop offset="0.64" stop-color="#e48c78"/><stop offset="0.99" stop-color="#dd7f6c"/></linearGradient><linearGradient id="linear-gradient-2" x1="300.43" y1="18.45" x2="313.23" y2="18.45" gradientTransform="matrix(-1, 0, 0, 1, 349.13, 0)" gradientUnits="userSpaceOnUse"><stop offset="0" stop-color="#ffc5b3"/><stop offset="0.36" stop-color="#fbbba8"/><stop offset="1" stop-color="#efa08b"/></linearGradient><linearGradient id="linear-gradient-3" x1="308.33" y1="6.78" x2="308.33" y2="21.7" gradientTransform="matrix(-1, 0, 0, 1, 349.13, 0)" gradientUnits="userSpaceOnUse"><stop offset="0" stop-color="#7b2b08"/><stop offset="1" stop-color="#682007"/></linearGradient><linearGradient id="linear-gradient-4" x1="324.59" y1="63.48" x2="324.59" y2="97.36" xlink:href="#linear-gradient-2"/><linearGradient id="linear-gradient-5" x1="299.14" y1="69.63" x2="299.14" y2="110.8" xlink:href="#linear-gradient-2"/><linearGradient id="linear-gradient-6" x1="306.64" y1="53.49" x2="306.64" y2="82.86" gradientTransform="matrix(-1, 0, 0, 1, 349.13, 0)" gradientUnits="userSpaceOnUse"><stop offset="0" stop-color="#15a072"/><stop offset="0.46" stop-color="#119568"/><stop offset="1" stop-color="#098256"/></linearGradient><linearGradient id="Degradado_sin_nombre_5" x1="309.35" y1="24.58" x2="309.35" y2="61.56" gradientTransform="matrix(-1, 0, 0, 1, 349.13, 0)" gradientUnits="userSpaceOnUse"><stop offset="0" stop-color="#347fb6"/><stop offset="0.35" stop-color="#337bb2"/><stop offset="0.7" stop-color="#3270a6"/><stop offset="1" stop-color="#2f6095"/></linearGradient><linearGradient id="linear-gradient-7" x1="305.24" y1="42.82" x2="329.65" y2="42.82" xlink:href="#linear-gradient-2"/><linearGradient id="Degradado_sin_nombre_5-2" x1="277.57" y1="108.39" x2="294.98" y2="108.39" xlink:href="#Degradado_sin_nombre_5"/><linearGradient id="Degradado_sin_nombre_5-3" x1="354.09" y1="234.66" x2="368.58" y2="234.66" gradientTransform="matrix(-0.87, -0.49, -0.49, 0.87, 437.03, 71.02)" xlink:href="#Degradado_sin_nombre_5"/><linearGradient id="linear-gradient-8" x1="309.8" y1="18.27" x2="309.8" y2="15.79" gradientTransform="matrix(-1, 0, 0, 1, 349.13, 0)" gradientUnits="userSpaceOnUse"><stop offset="0" stop-color="#efa08b"/><stop offset="0.28" stop-color="#e7917d"/><stop offset="0.66" stop-color="#e08470"/><stop offset="0.99" stop-color="#dd7f6c"/></linearGradient><linearGradient id="linear-gradient-9" x1="327.01" y1="42.76" x2="328.59" y2="42.76" gradientTransform="matrix(-1, 0, 0, 1, 349.13, 0)" gradientUnits="userSpaceOnUse"><stop offset="0" stop-color="#efa08b"/><stop offset="0.09" stop-color="#ed9c87"/><stop offset="0.64" stop-color="#e18773"/><stop offset="0.99" stop-color="#dd7f6c"/></linearGradient><linearGradient id="linear-gradient-10" x1="303.03" y1="14.11" x2="304.63" y2="14.11" gradientTransform="matrix(-1, 0, 0, 1, 349.13, 0)" gradientUnits="userSpaceOnUse"><stop offset="0" stop-color="#efa08b"/><stop offset="0.16" stop-color="#eb9984"/><stop offset="0.65" stop-color="#e18672"/><stop offset="0.99" stop-color="#dd7f6c"/></linearGradient><linearGradient id="linear-gradient-11" x1="301.19" y1="11.2" x2="315.18" y2="11.2" gradientTransform="matrix(-1, 0, 0, 1, 349.13, 0)" gradientUnits="userSpaceOnUse"><stop offset="0" stop-color="#b24e2b"/><stop offset="0.38" stop-color="#aa4727"/><stop offset="1" stop-color="#a34123"/></linearGradient><linearGradient id="linear-gradient-12" x1="301.65" y1="20.01" x2="302.99" y2="20.01" xlink:href="#linear-gradient-10"/><linearGradient id="linear-gradient-13" x1="305.24" y1="22.42" x2="308.9" y2="22.42" xlink:href="#linear-gradient-10"/></defs><title>men</title><path class="cls-1" d="M54.72,27.9c-.76-.18-1.94,1.44-2,2.79S54.43,33.33,54,34s-6.09,3.86-6.09,3.86l1.46,7s5.31-3.72,7.21-6.52a15.58,15.58,0,0,0,2.28-7c.17-1.07-.57-1.65-1.2-1.33.19-1.33-.86-1.28-1.33-1.16A1.21,1.21,0,0,0,54.72,27.9Z"/><path class="cls-2" d="M36.64,21.17c-.39-1.67-.74-3.81-.74-3.81S40,7.19,45,8.8a2.53,2.53,0,0,1,1.79,1.55,6.14,6.14,0,0,1,.38,1.56,30.18,30.18,0,0,1-.28,3c0,1.28,2.28,2.19,1.72,2.94-.19.24-1.28.34-1.21.86s.45.52,0,.93c-.11.11-.31.22-.27.42s.27.23.32.52-.17.37-.3.45a.76.76,0,0,0-.2.85c.27,1.06,0,1.16-1.41,1.59-.52.15-.91.26-2.22,2.28a4.19,4.19,0,0,0-.38,2.49l-7-2S37,22.84,36.64,21.17Z"/><path class="cls-3" d="M46.79,10.35a3.43,3.43,0,0,0,.85-1.44c-.76,0-4-2.35-6.8-2.12-3.4.29-6.27,1.44-6.83,5-.33,2,.87,5.8,1.46,6.92a31.87,31.87,0,0,1,1.3,3,2.34,2.34,0,0,0,1.09-1,6.19,6.19,0,0,0,.69-2.4c-.56-1.29-1.14-2.85.3-3,1.09-.15,2,1.61,2,1.61l.5-.29s-.52-3,1.1-4C42.42,11.33,41.41,9,46.79,10.35Z"/><path class="cls-4" d="M41,71.52s-1.17,5.57-3.2,8.9a23.08,23.08,0,0,1-3.32,3.94c-.9,1-1.78,1.49-4.41,2.89-4.44,2.36-20,10.11-20,10.11l-2-4.44a44,44,0,0,1,7.1-9.28,28.18,28.18,0,0,1,6.18-5c1.81-1,4.85-1.15,5.33-2.57.9-2.69,5.58-12.57,5.58-12.57Z"/><path class="cls-5" d="M43.77,75.55l-6,4.87s-4.42-.92-5.93-2.32a28.37,28.37,0,0,1-4.13-4.8s.59-7.8,1.6-13.7C34.3,58.1,43.77,75.55,43.77,75.55Z"/><path class="cls-6" d="M50.65,69.63s3.67,2.23,4.7,4.48a14.55,14.55,0,0,1,1.26,6.76c0,2.5-.91,7,1.43,13.15.89,2.33,4.81,13.28,4.81,13.28l-4.34,3.5S48.7,99.52,47.28,95.55c-2.09-5.84-.5-6.62-1.76-9.2s-8.4-10.48-8.4-10.48S49.25,73.17,50.65,69.63Z"/><path class="cls-7" d="M54.15,53.49a2.15,2.15,0,0,1,1.6,1.79c.13,1.72-.32,4.19-1.77,7.6-1.24,2.91-.24,5.77.82,8.1a21.37,21.37,0,0,1,1.81,7.91s-2.32,1.16-5.33,2.47c-3.46,1.5-9.22,1.5-9.22,1.5S36.65,75.65,31.68,70c-4.54-5.21-3.1-14.22-3.1-14.22Z"/><path class="cls-8" d="M42.91,27.06a12.42,12.42,0,0,1,4.86,3.31c1.15,1.35,1.47,5.06,2.38,8.52.47,1.76,6.52,12.24,5.63,20.07-4.19,3.58-13,2.5-17.35,2.26C33.5,61,28.07,56.64,28.07,56.64a71.91,71.91,0,0,1,3-12c.76-2.25,1.2-7,.79-7.82a12.31,12.31,0,0,0-2.66,1.89,31.24,31.24,0,0,0-5.54-5.79,58.82,58.82,0,0,1,5.67-5.31c3.36-3,5.71-3,7.63-3,1.17.42,3.69,2.71,4.89,3.23C42.73,28.18,42.91,27.68,42.91,27.06Z"/><path class="cls-9" d="M31.89,36.77s3.46-1.7,4.73-.66,0,2.59-.72,4.86c-.68,2.1-4,2.8-4.8,3.89A53,53,0,0,0,31.89,36.77Z"/><path class="cls-10" d="M21,38a36.37,36.37,0,0,1,3.59-4.47,9.85,9.85,0,0,1,2.68,2.22,21.18,21.18,0,0,1,2,2.88l-1.32,1.2A93.2,93.2,0,0,0,36.62,45c1.6.73,3.19.38,4.14.54,1.2.21,3.9,1,2.92,2.33A1.23,1.23,0,0,1,43,49.52a.89.89,0,0,1-.5,1.42c.26,1-.57,1.46-2.29.91-2.2-.7-2.53-.23-7.16-2.4-4.93-2.32-6.26-2.15-8.53-2.84a7.78,7.78,0,0,1-4.9-3.9C19.05,41.45,20.23,39.35,21,38Z"/><path class="cls-11" d="M54.83,106.13c.75-.28,1.41.86,2,1.14s1.89-1.26,2.65-1.67a2.15,2.15,0,0,1,.27-.1l0-.09a3.88,3.88,0,0,1,.84-1.61,5.43,5.43,0,0,1,1.95-1.33c.86-.46.46,1.85.18,3.1a25.36,25.36,0,0,0,4.82,2.54,6.3,6.3,0,0,0,2.85-.23,15.06,15.06,0,0,1,1,1.46c.56,1-.19,1.49-1.1,2a13.22,13.22,0,0,1-5.23,2.3c-2.44.35-3.79-.7-4.31-.49s-.91,1.12-.91,1.12-1.64.09-3.44,0c-1.22-.06-2.3-1.83-2.23-2.17S54.3,106.33,54.83,106.13Z"/><path class="cls-12" d="M71.37,109.34A12.84,12.84,0,0,1,65.18,112c-3.17.21-5-.82-6.25,0s-4.24-.34-4.24-.34a6.29,6.29,0,0,0,3.94-.11c1.85-.93,4.4,0,6.67-.14,1.54-.11,5.86-2.45,5.86-2.45Z"/><path class="cls-13" d="M66.7,107.81S66,108.25,65,109a6.21,6.21,0,0,1-1.65.89A13.14,13.14,0,0,1,65,108.27c.27-.21,1.17-.73,1.17-.73Z"/><path class="cls-13" d="M65,106.93l-1.7,1.13c-.46.31-1.46,1.22-1.46,1.22A11,11,0,0,1,63,107.54a10.63,10.63,0,0,1,1.5-.89Z"/><path class="cls-13" d="M63.6,106.13l-1.69,1.13c-.46.31-1.46,1.22-1.46,1.22a12,12,0,0,1,1.18-1.75,10.92,10.92,0,0,1,1.5-.88Z"/><path class="cls-14" d="M3.22,91.05c.35,0,6-.94,6.25-.46.41.7-.77,1.42-.91,2.09s1.62,1.58,2.19,2.24a1.11,1.11,0,0,1,.16.24L11,95.1a4,4,0,0,1,1.76.48,5.57,5.57,0,0,1,1.71,1.63c.62.74-1.71.83-3,.83A25.22,25.22,0,0,0,10,103.29a6.35,6.35,0,0,0,.82,2.73,14.09,14.09,0,0,1-1.22,1.27c-.87.75-1.5.12-2.23-.64A13.23,13.23,0,0,1,4,102c-.85-2.31-.11-3.85-.43-4.3A2.52,2.52,0,0,0,2.29,97a33.77,33.77,0,0,1-.72-3.35A3,3,0,0,1,3.22,91.05Z"/><path class="cls-12" d="M9.59,107.29s-3-2.43-3.92-5.49-.26-5.06-1.34-6.1-.56-4.22-.56-4.22a6.24,6.24,0,0,0,.94,3.83c1.3,1.61.91,4.3,1.54,6.49.43,1.49,3.63,5.21,3.63,5.21Z"/><path class="cls-13" d="M10.1,102.4s-.57-.56-1.53-1.46a6.09,6.09,0,0,1-1.21-1.42,12.58,12.58,0,0,1,1.92,1.27,13.49,13.49,0,0,1,1,1Z"/><path class="cls-13" d="M10.61,100.55,9.14,99.13c-.4-.38-1.5-1.17-1.5-1.17a11.63,11.63,0,0,1,2,.79A11.33,11.33,0,0,1,10.78,100Z"/><path class="cls-13" d="M11.1,99,9.63,97.6a17,17,0,0,0-1.5-1.17,11.63,11.63,0,0,1,2,.79,11.33,11.33,0,0,1,1.18,1.28Z"/><path class="cls-15" d="M45.89,12.25c.42,0,1,.29.6.48A8.77,8.77,0,0,0,45,13,8.53,8.53,0,0,0,43.36,14S44.16,12.15,45.89,12.25Z"/><path class="cls-16" d="M40.23,17.05s-.77-1.45-1.31-1.24-.49,1.09-.49,1.09.43-.46.84-.26,0,.62,0,.79c-.17.56.57.84.57.84a3.24,3.24,0,0,1-.06-.84C39.83,17.13,40.23,17.05,40.23,17.05Z"/><path class="cls-17" d="M53.29,81.36s.78,1.25.68,1.76a5,5,0,0,1-.9,1.24Z"/><path class="cls-18" d="M20.54,42.18c1.07-.18,1.57,1.17,1.57,1.17S20.5,43,20.54,42.18Z"/><path class="cls-13" d="M45.87,14.39a2.46,2.46,0,0,1,.05.89c-.13.41-.58.42-.94.33a2.07,2.07,0,0,1-.69-.36l.87-.51Z"/><path class="cls-19" d="M46,14.42s.16.95-.19,1.08-.45-.77-.45-.77Z"/><path class="cls-15" d="M45.52,15c0,.14.07.25.16.25s.15-.11.15-.25-.07-.24-.15-.24S45.52,14.89,45.52,15Z"/><path class="cls-13" d="M45.64,14.82c0,.1.06.18.12.18s.11-.08.11-.18,0-.18-.11-.18S45.64,14.72,45.64,14.82Z"/><path class="cls-17" d="M47.85,17.89a1.42,1.42,0,0,1-.28.34c-.22.19-.4,0-.22-.17A.83.83,0,0,1,47.85,17.89Z"/><path class="cls-15" d="M46,14.09c.08-.06.23.09.14.22a2.92,2.92,0,0,1-1.09.72,3.76,3.76,0,0,1-.91.25S45.46,14.46,46,14.09Z"/><path class="cls-20" d="M46.1,13.71s-.48.33-.84.53-.76.4-.76.4a14.18,14.18,0,0,1,1.26-1C46.1,13.46,46.1,13.71,46.1,13.71Z"/><path class="cls-21" d="M47.94,8.75l-.49.61A24.65,24.65,0,0,0,42,7,5.32,5.32,0,0,0,37.3,8c-1,.76-2.55,2.31-2.67,3.71a36.58,36.58,0,0,0-.05,4.43s-1.8-4.29.7-7.14,5.27-3.15,7.59-2.36C44.58,7.22,47.94,8.75,47.94,8.75Z"/><path class="cls-22" d="M47.2,20.27c-.32,0-.64.18-.86.16s-.35-.22-.05-.52a2.28,2.28,0,0,1,1.18-.32S47,20,47.2,20.27Z"/><path class="cls-23" d="M43.89,23.5s-.41.08-1.83-.62a7,7,0,0,1-1.83-1.62,2.47,2.47,0,0,0,1.41,2A4,4,0,0,0,43.89,23.5Z"/><path class="cls-9" d="M44.29,28.76s-.32,1.54-2,.68a30.55,30.55,0,0,1-4.6-3.52S40.19,30.61,43,31,44.29,28.76,44.29,28.76Z"/></svg>