<svg id="Layer_1" data-name="Layer 1" xmlns="http://www.w3.org/2000/svg" xmlns:xlink="http://www.w3.org/1999/xlink" viewBox="0 0 73.84 120.75"><defs><style>.cls-1{fill:url(#linear-gradient);}.cls-2{fill:url(#linear-gradient-2);}.cls-3{fill:url(#linear-gradient-3);}.cls-4{fill:url(#linear-gradient-4);}.cls-5{fill:#098256;}.cls-6{fill:url(#linear-gradient-5);}.cls-7{fill:url(#linear-gradient-6);}.cls-8{fill:url(#Degradado_sin_nombre_5);}.cls-9{fill:#295b8a;}.cls-10{fill:url(#linear-gradient-7);}.cls-11{fill:url(#Degradado_sin_nombre_5-2);}.cls-12{fill:#225077;}.cls-13{fill:#fff;}.cls-14{fill:url(#Degradado_sin_nombre_5-3);}.cls-15{fill:#5b1b1b;}.cls-16{fill:url(#linear-gradient-8);}.cls-17{fill:url(#linear-gradient-9);}.cls-18{fill:#ffa08d;}.cls-19{fill:url(#linear-gradient-10);}.cls-20{fill:#3794b5;}.cls-21{fill:url(#linear-gradient-11);}.cls-22{fill:url(#linear-gradient-12);}</style><linearGradient id="linear-gradient" x1="120.15" y1="35.96" x2="130.8" y2="35.96" gradientTransform="matrix(-1, 0, 0, 1, 177.98, 0)" gradientUnits="userSpaceOnUse"><stop offset="0" stop-color="#efa08b"/><stop offset="0.64" stop-color="#e48c78"/><stop offset="0.99" stop-color="#dd7f6c"/></linearGradient><linearGradient id="linear-gradient-2" x1="128.46" y1="19.95" x2="141.17" y2="19.95" gradientTransform="matrix(-1, 0, 0, 1, 177.98, 0)" gradientUnits="userSpaceOnUse"><stop offset="0" stop-color="#ffc5b3"/><stop offset="0.36" stop-color="#fbbba8"/><stop offset="1" stop-color="#efa08b"/></linearGradient><linearGradient id="linear-gradient-3" x1="136.07" y1="6.87" x2="136.07" y2="22.22" gradientTransform="matrix(-1, 0, 0, 1, 177.98, 0)" gradientUnits="userSpaceOnUse"><stop offset="0" stop-color="#7b2b08"/><stop offset="0.07" stop-color="#792a08"/><stop offset="0.54" stop-color="#6c2207"/><stop offset="1" stop-color="#682007"/></linearGradient><linearGradient id="linear-gradient-4" x1="152.58" y1="63.49" x2="152.58" y2="97.33" xlink:href="#linear-gradient-2"/><linearGradient id="linear-gradient-5" x1="126.19" y1="69.63" x2="126.19" y2="110.75" xlink:href="#linear-gradient-2"/><linearGradient id="linear-gradient-6" x1="134.24" y1="56.6" x2="134.24" y2="81.08" gradientTransform="matrix(-1, 0, 0, 1, 177.98, 0)" gradientUnits="userSpaceOnUse"><stop offset="0" stop-color="#15a072"/><stop offset="0.46" stop-color="#119568"/><stop offset="1" stop-color="#098256"/></linearGradient><linearGradient id="Degradado_sin_nombre_5" x1="138.69" y1="24.5" x2="138.69" y2="59.05" gradientTransform="matrix(-1, 0, 0, 1, 177.98, 0)" gradientUnits="userSpaceOnUse"><stop offset="0" stop-color="#347fb6"/><stop offset="0.35" stop-color="#337bb2"/><stop offset="0.7" stop-color="#3270a6"/><stop offset="1" stop-color="#2f6095"/></linearGradient><linearGradient id="linear-gradient-7" x1="133.26" y1="42.43" x2="157.92" y2="42.43" xlink:href="#linear-gradient-2"/><linearGradient id="Degradado_sin_nombre_5-2" x1="105.63" y1="108.33" x2="123.01" y2="108.33" xlink:href="#Degradado_sin_nombre_5"/><linearGradient id="Degradado_sin_nombre_5-3" x1="193.23" y1="192.33" x2="207.69" y2="192.33" gradientTransform="matrix(-0.87, -0.49, -0.49, 0.87, 276.91, 28.99)" xlink:href="#Degradado_sin_nombre_5"/><linearGradient id="linear-gradient-8" x1="137.81" y1="18.35" x2="137.81" y2="15.87" gradientTransform="matrix(-1, 0, 0, 1, 177.98, 0)" gradientUnits="userSpaceOnUse"><stop offset="0" stop-color="#efa08b"/><stop offset="0.28" stop-color="#e7917d"/><stop offset="0.66" stop-color="#e08470"/><stop offset="0.99" stop-color="#dd7f6c"/></linearGradient><linearGradient id="linear-gradient-9" x1="134.25" y1="21.89" x2="138.32" y2="21.89" xlink:href="#linear-gradient"/><linearGradient id="linear-gradient-10" x1="154.59" y1="42.2" x2="156.17" y2="42.2" gradientTransform="matrix(-1, 0, 0, 1, 177.98, 0)" gradientUnits="userSpaceOnUse"><stop offset="0" stop-color="#efa08b"/><stop offset="0.09" stop-color="#ed9c87"/><stop offset="0.64" stop-color="#e18773"/><stop offset="0.99" stop-color="#dd7f6c"/></linearGradient><linearGradient id="linear-gradient-11" x1="131.05" y1="14.19" x2="132.64" y2="14.19" gradientTransform="matrix(-1, 0, 0, 1, 177.98, 0)" gradientUnits="userSpaceOnUse"><stop offset="0" stop-color="#efa08b"/><stop offset="0.16" stop-color="#eb9984"/><stop offset="0.65" stop-color="#e18672"/><stop offset="0.99" stop-color="#dd7f6c"/></linearGradient><linearGradient id="linear-gradient-12" x1="129.3" y1="11.43" x2="142.77" y2="11.43" gradientTransform="matrix(-1, 0, 0, 1, 177.98, 0)" gradientUnits="userSpaceOnUse"><stop offset="0" stop-color="#b24e2b"/><stop offset="0.38" stop-color="#aa4727"/><stop offset="1" stop-color="#a34123"/></linearGradient></defs><title>men</title><path class="cls-1" d="M54.17,28.57c-.76-.18-1.75,1-1.77,2.39s.49,2.32.1,2.95A60,60,0,0,1,47.18,38l1.14,5.47s2.42-1,5.57-4.61a19.44,19.44,0,0,0,3.91-7.18c.16-1.07-.5-1.46-1.14-1.15.19-1.32-.73-1.21-1.2-1.09C55.07,28,54.17,28.57,54.17,28.57Z"/><path class="cls-2" d="M37.7,21a12,12,0,0,1-.24-3.35S40.8,7.28,45.83,8.89a2.47,2.47,0,0,1,1.78,1.55A6.52,6.52,0,0,1,48,12a27,27,0,0,1-.29,3c0,1.28,2.28,2.19,1.72,2.93-.18.25-1.28.34-1.21.86s.45.53,0,.93c.31.46,0,.59-.26.74s-.46.13-.32.57c.29.88.11,1.41-.65,1.58a3.29,3.29,0,0,0-2.47,1.88c-.55,1,.21,6.66.21,6.66L36.8,26.45S38.1,22.68,37.7,21Z"/><path class="cls-3" d="M47.61,10.44A3.49,3.49,0,0,0,48.47,9c-.76,0-4-2.35-6.79-2.11-3.4.28-6,2.81-6.3,4.86a17.82,17.82,0,0,0,1.29,7.19,17.57,17.57,0,0,1,1.08,3.28,3.28,3.28,0,0,0,1.16-1.14c0-.48.4-1.69.48-2.7-.57-1.28-1.14-2.84.29-3,1.1-.15,2,1.6,2,1.6l.5-.28s-.51-3,1.1-4C43.26,11.42,42.24,9.11,47.61,10.44Z"/><path class="cls-4" d="M41.86,71.52s-2.27,5.14-3.77,8.73c-1.76,4.2-5,3.85-8.57,5.62C25,88.1,10.93,97.33,10.93,97.33l-2-4.44A38.94,38.94,0,0,1,20.06,78.05c4.49-3.53,5.92-2.4,7.22-5.24a108.2,108.2,0,0,1,5.81-9.32Z"/><path class="cls-5" d="M42.71,74l-4.62,6.24a25,25,0,0,1-5.7-2.2,17,17,0,0,1-5.11-5.24S28.57,63.49,31,58.3C35.38,57.9,42.71,74,42.71,74Z"/><path class="cls-6" d="M51.47,69.63s3.85,1.26,4.44,3.66a26.79,26.79,0,0,1,1,7.75c0,2.5,1,5.49,2.65,12.3.59,2.41,4.15,13.91,4.15,13.91l-4.34,3.5a112.47,112.47,0,0,1-9.8-15.61C46.78,89.58,48.25,87,47,84.45s-7.07-9.08-7.07-9.08S50.07,73.17,51.47,69.63Z"/><path class="cls-7" d="M53.69,57.45c-.27,1.15-2.15,2.74-.74,5.33,2.55,4.72,3.91,13.16,3.91,13.16s-4.43,2.28-7.43,3.59A18.8,18.8,0,0,1,43,81.08S34.13,70.27,32.15,67.4c-2.94-4.26-.74-10.77-.74-10.77S45.56,56.36,53.69,57.45Z"/><path class="cls-8" d="M44,26.59a13.51,13.51,0,0,1,5.06,3.84c1.51,2,.86,6.19,1.32,9.17.74,4.72,2.89,8.2,3.5,13a12,12,0,0,1-.46,5.73s-10.08.75-13.26.75a18.08,18.08,0,0,1-8.76-2.42s.55-2.44,2.9-9.46c.75-2.25-1.17-9.53-1.58-10.35a12.44,12.44,0,0,0-2.65,1.89,27.42,27.42,0,0,0-5.53-6.26A79.57,79.57,0,0,1,31.28,26c2.38-2.08,4.14-1.43,6-1.39,1.17.43,4.65,4.14,6.44,4.55C44.67,29.38,44,27.2,44,26.59Z"/><path class="cls-9" d="M32.73,36.82s3.47-1.7,4.73-.66,1.35,2.58.62,4.85c-.67,2.1-2.83,2.8-3.63,3.89A44.36,44.36,0,0,0,32.73,36.82Z"/><path class="cls-10" d="M21.05,38.25a55.8,55.8,0,0,1,4.09-5.32,15.24,15.24,0,0,1,2.61,2.42,28.94,28.94,0,0,1,2.33,3.36L28.77,39.9a90.4,90.4,0,0,0,8.69,5.15c1.6.73,3.19.38,4.13.55,1.21.21,3.9,1,2.92,2.33a1.22,1.22,0,0,1-.66,1.62.89.89,0,0,1-.5,1.42c.26,1-.39,1.23-2.1.68-2.19-.7-2.61-.12-4.71-1.7-.26-.17-9.69-3.17-10.62-3.85-1.42-1-4.46-2.72-5.29-3.25C19.47,42.1,20.32,39.57,21.05,38.25Z"/><path class="cls-11" d="M56.5,105.55c.56.07.56,1.39,1.18,1.67s1.89-1.25,2.65-1.67a1.69,1.69,0,0,1,.27-.1l0-.09a3.94,3.94,0,0,1,.84-1.61,5.4,5.4,0,0,1,2-1.32c.85-.46.45,1.84.18,3.09a25,25,0,0,0,4.81,2.54,6.27,6.27,0,0,0,2.84-.23,13.27,13.27,0,0,1,1,1.46c.56,1-.19,1.48-1.1,2a13.1,13.1,0,0,1-5.22,2.3c-2.44.35-3.79-.7-4.3-.49s-.91,1.12-.91,1.12-1.64.09-3.43,0c-1.22-.06-2.3-1.83-2.23-2.17S55.94,105.48,56.5,105.55Z"/><path class="cls-12" d="M72.16,109.29A12.86,12.86,0,0,1,66,112c-3.17.21-5-.81-6.24,0s-4.24-.34-4.24-.34a6.29,6.29,0,0,0,3.94-.11c1.85-.93,4.39,0,6.66-.14,1.54-.11,5.85-2.45,5.85-2.45Z"/><path class="cls-13" d="M67.5,107.76s-.67.44-1.75,1.18a6.21,6.21,0,0,1-1.65.89,12.69,12.69,0,0,1,1.65-1.61c.27-.22,1.17-.74,1.17-.74Z"/><path class="cls-13" d="M65.8,106.88,64.1,108c-.45.31-1.46,1.22-1.46,1.22a12.28,12.28,0,0,1,1.19-1.75,10.92,10.92,0,0,1,1.5-.88Z"/><path class="cls-13" d="M64.41,106.08l-1.7,1.13a17.15,17.15,0,0,0-1.45,1.22,10.74,10.74,0,0,1,1.18-1.75,10.37,10.37,0,0,1,1.49-.88Z"/><path class="cls-14" d="M4.1,91c.35,0,6-.71,6.09-.15S9.58,92,9.44,92.65s1.62,1.57,2.19,2.24a1.11,1.11,0,0,1,.16.24l.07-.06a3.82,3.82,0,0,1,1.75.48,5.33,5.33,0,0,1,1.71,1.63c.62.73-1.71.83-3,.82a24.7,24.7,0,0,0-1.46,5.24,6.2,6.2,0,0,0,.82,2.73,13.22,13.22,0,0,1-1.22,1.26c-.87.76-1.49.13-2.23-.63A13.15,13.15,0,0,1,4.89,102c-.85-2.31-.12-3.85-.43-4.3A2.48,2.48,0,0,0,3.18,97a33.77,33.77,0,0,1-.72-3.35A3,3,0,0,1,4.1,91Z"/><path class="cls-12" d="M10.47,107.23s-3.05-2.41-3.92-5.47S6.3,96.7,5.22,95.67s-.56-4.22-.56-4.22a6.24,6.24,0,0,0,.94,3.83c1.29,1.61.91,4.29,1.54,6.47.42,1.49,3.62,5.21,3.62,5.21Z"/><path class="cls-13" d="M11,102.35,9.46,100.9a6,6,0,0,1-1.22-1.42,13,13,0,0,1,1.92,1.26c.27.22,1,1,1,1Z"/><path class="cls-13" d="M11.48,100.51,10,99.09c-.39-.38-1.5-1.17-1.5-1.17a11.63,11.63,0,0,1,2,.79A11.33,11.33,0,0,1,11.66,100Z"/><path class="cls-13" d="M12,99l-1.46-1.42c-.4-.38-1.5-1.17-1.5-1.17a11.63,11.63,0,0,1,2,.79,11.33,11.33,0,0,1,1.18,1.28Z"/><path class="cls-15" d="M46.72,12.33c.42,0,1,.29.59.48a8.2,8.2,0,0,0-1.45.26,8.67,8.67,0,0,0-1.67,1A2.91,2.91,0,0,1,46.72,12.33Z"/><path class="cls-16" d="M41.06,17.13s-.77-1.46-1.3-1.24S39.27,17,39.27,17s.43-.45.83-.25.06.62,0,.79c-.16.56.58.84.58.84a3.24,3.24,0,0,1-.06-.84C40.67,17.21,41.06,17.13,41.06,17.13Z"/><path class="cls-17" d="M43.72,22.91a8.23,8.23,0,0,1-2-.76c-.93-.63-2-1.51-2-1.51a7.61,7.61,0,0,0,1.38,2A2.7,2.7,0,0,0,43.72,22.91Z"/><path class="cls-18" d="M53.65,78.05s.79,1.25.68,1.76a4.92,4.92,0,0,1-.9,1.23Z"/><path class="cls-19" d="M21.81,41.62c1.07-.17,1.57,1.18,1.57,1.18S21.77,42.4,21.81,41.62Z"/><path class="cls-13" d="M46.7,14.47a2.72,2.72,0,0,1,0,.89c-.13.41-.58.42-.94.33a2.07,2.07,0,0,1-.69-.36l.87-.51Z"/><path class="cls-20" d="M46.78,14.5s.16.95-.2,1.08-.44-.77-.44-.77Z"/><path class="cls-15" d="M46.35,15.1c0,.14.07.25.15.25s.16-.11.16-.25-.07-.24-.16-.24S46.35,15,46.35,15.1Z"/><path class="cls-13" d="M46.47,14.9c0,.1.05.18.12.18s.11-.08.11-.18-.05-.18-.11-.18S46.47,14.8,46.47,14.9Z"/><path class="cls-18" d="M48.67,18a1.15,1.15,0,0,1-.28.34c-.21.2-.39,0-.21-.17A.81.81,0,0,1,48.67,18Z"/><path class="cls-18" d="M48.1,19.73s-.69.31-1,.16-.32-.17,0-.17Z"/><path class="cls-15" d="M46.82,14.17c.09-.06.24.09.15.22a2.92,2.92,0,0,1-1.09.72,3.76,3.76,0,0,1-.91.25S46.29,14.54,46.82,14.17Z"/><path class="cls-21" d="M46.93,13.79s-.48.33-.84.54-.76.39-.76.39a14.18,14.18,0,0,1,1.26-1C46.93,13.55,46.93,13.79,46.93,13.79Z"/><path class="cls-22" d="M48.67,9.07l-.47.59A24.08,24.08,0,0,0,43,7.42a5.17,5.17,0,0,0-4.57.92c-.94.74-2.46,2.23-2.57,3.59a36.15,36.15,0,0,0,0,4.26s-1.73-4.14.67-6.88,5.08-3,7.31-2.27C45.44,7.59,48.67,9.07,48.67,9.07Z"/></svg>