<?xml version="1.0" encoding="utf-8"?>
<!-- Generator: Adobe Illustrator 24.0.1, SVG Export Plug-In . SVG Version: 6.00 Build 0)  -->
<svg version="1.1" id="Layer_1" xmlns="http://www.w3.org/2000/svg" xmlns:xlink="http://www.w3.org/1999/xlink" x="0px" y="0px"
	 viewBox="0 0 78.7 124.3" enable-background="new 0 0 78.7 124.3" xml:space="preserve">
<g>
	
		<linearGradient id="SVGID_1_" gradientUnits="userSpaceOnUse" x1="346.3354" y1="35.9489" x2="358.0745" y2="35.9489" gradientTransform="matrix(-1 0 0 1 407.7567 0)">
		<stop  offset="0" style="stop-color:#EFA08B"/>
		<stop  offset="0.6405" style="stop-color:#E48C78"/>
		<stop  offset="0.9948" style="stop-color:#DD7F6C"/>
	</linearGradient>
	<path fill="url(#SVGID_1_)" d="M57.4,27.5c-0.8-0.2-1.9,1.2-2,2.7c0,1.6,0.6,2.7,0.1,3.4c-0.4,0.7-5.9,4.7-5.9,4.7l1.3,6.3
		c0,0,5.7-3.9,7.8-7.1c2-3.1,2.4-5,2.7-6.4c0.2-1.2-0.6-1.7-1.3-1.3c0.2-1.5-0.8-1.4-1.3-1.3C58.4,26.8,57.4,27.5,57.4,27.5z"/>
	
		<linearGradient id="SVGID_2_" gradientUnits="userSpaceOnUse" x1="355.0525" y1="14.7644" x2="368.3488" y2="14.7644" gradientTransform="matrix(-1 0 0 1 407.7567 0)">
		<stop  offset="0" style="stop-color:#FFC5B3"/>
		<stop  offset="0.3645" style="stop-color:#FBBBA8"/>
		<stop  offset="1" style="stop-color:#EFA08B"/>
	</linearGradient>
	<path fill="url(#SVGID_2_)" d="M40.1,17.1c-0.4-1.9-0.7-3.8-0.7-3.8s3.7-11.9,9.2-10.1c0.9,0.3,1.7,0.8,2,1.8
		C50.8,5.5,51,6.2,51,6.8c0.1,1.4-0.3,2.8-0.3,3.5c0,1.5,2.5,2.5,1.9,3.4c-0.2,0.3-1.4,0.4-1.3,1c0.1,0.4,0.5,0.6,0,1.1
		c0.3,0.5,0,0.7-0.3,0.9c-0.2,0.1-0.5,0.1-0.4,0.6c0.3,1,0.1,1.6-0.7,1.8c-0.5,0.1-2,0.3-3,2.2c-0.6,1.1-0.5,5.4-0.5,5.4l-7-3.3
		C39.4,23.2,40.5,19,40.1,17.1z"/>
	
		<linearGradient id="SVGID_3_" gradientUnits="userSpaceOnUse" x1="363.4491" y1="0.8904" x2="363.4491" y2="18.5192" gradientTransform="matrix(-1 0 0 1 407.7567 0)">
		<stop  offset="0" style="stop-color:#7B2B08"/>
		<stop  offset="6.743622e-02" style="stop-color:#792A08"/>
		<stop  offset="0.5419" style="stop-color:#6C2207"/>
		<stop  offset="1" style="stop-color:#682007"/>
	</linearGradient>
	<path fill="url(#SVGID_3_)" d="M50.6,5c0,0,0.9-0.9,0.9-1.6c-0.8,0-4.4-2.7-7.5-2.4c-3.7,0.3-6.6,3.2-6.9,5.6
		c-0.3,2.4,0.8,7,1.4,8.3c0.7,1.3,1.6,3.8,1.6,3.8s0.3-0.4,0.9-1.3c-0.1-0.6,0.4-1.9,0.5-3.1c-0.6-1.5-1.3-3.3,0.3-3.5
		c1.2-0.2,2.2,1.8,2.2,1.8l0.6-0.3c0,0-0.6-3.5,1.2-4.6C45.8,6.1,44.7,3.5,50.6,5z"/>
	
		<linearGradient id="SVGID_4_" gradientUnits="userSpaceOnUse" x1="381.6542" y1="65.9142" x2="381.6542" y2="104.766" gradientTransform="matrix(-1 0 0 1 407.7567 0)">
		<stop  offset="0" style="stop-color:#FFC5B3"/>
		<stop  offset="0.3645" style="stop-color:#FBBBA8"/>
		<stop  offset="1" style="stop-color:#EFA08B"/>
	</linearGradient>
	<path fill="url(#SVGID_4_)" d="M44.3,75.1c0,0-2.6,4.6-4.8,8.5c-1.2,2.1-4.4,4.7-8.4,6.7c-5,2.6-20.9,14.5-20.9,14.5l-2.2-5.1
		c0,0,4-8.8,12.3-16.2c1.7-1.5,6.7-2.2,8.1-5.4c1.3-3,6.3-12.1,6.3-12.1L44.3,75.1z"/>
	<path fill="#098256" d="M45.2,78l-5.1,7.2c0,0-3.4-2.1-5.1-3.6c-2.7-2.3-5.4-7-5.4-7s2.8-8.4,4.6-14.6C39,59.5,45.2,78,45.2,78z"/>
	
		<linearGradient id="SVGID_5_" gradientUnits="userSpaceOnUse" x1="351.7668" y1="72.9628" x2="351.7668" y2="120.1746" gradientTransform="matrix(-1 0 0 1 407.7567 0)">
		<stop  offset="0" style="stop-color:#FFC5B3"/>
		<stop  offset="0.3645" style="stop-color:#FBBBA8"/>
		<stop  offset="1" style="stop-color:#EFA08B"/>
	</linearGradient>
	<path fill="url(#SVGID_5_)" d="M54.9,73c0,0,2.7,3.3,3.8,5.8c1.2,2.8,1.8,6,1.8,8.7c0,2.9-0.1,6.4,2.4,13.5
		c1,2.7,5.3,15.2,5.3,15.2l-4.8,4c0,0-7.6-10.5-11.7-19.3c-3-6.4-0.5-7.9-1.9-10.9c-1.4-3-6.2-9.7-6.2-9.7S53.3,77,54.9,73z"/>
	
		<linearGradient id="SVGID_6_" gradientUnits="userSpaceOnUse" x1="361.8093" y1="58.0383" x2="361.8093" y2="85.158" gradientTransform="matrix(-1 0 0 1 407.7567 0)">
		<stop  offset="0" style="stop-color:#15A072"/>
		<stop  offset="0.4562" style="stop-color:#119568"/>
		<stop  offset="1" style="stop-color:#098256"/>
	</linearGradient>
	<path fill="url(#SVGID_6_)" d="M50.5,59.9c0,0,1.3,3.9,2.8,6.4c3.2,5.2,6,13.1,6,13.1s-2.7,2.5-6.1,4c-3.8,1.7-7.1,1.8-7.1,1.8
		s-9.7-12.4-11.9-15.7C31,64.6,33.6,58,33.6,58L50.5,59.9z"/>
	
		<linearGradient id="SVGID_7_" gradientUnits="userSpaceOnUse" x1="367.8434" y1="21.1558" x2="367.8434" y2="60.8124" gradientTransform="matrix(-1 0 0 1 407.7567 0)">
		<stop  offset="0" style="stop-color:#347FB6"/>
		<stop  offset="0.3453" style="stop-color:#337BB2"/>
		<stop  offset="0.7007" style="stop-color:#3270A6"/>
		<stop  offset="1" style="stop-color:#2F6095"/>
	</linearGradient>
	<path fill="url(#SVGID_7_)" d="M46.4,23.9c1.5,0.7,3.3,2.9,5.8,4.1c4.8,2.3,1,7.1,1.5,10.5c0.8,5.4-2.3,8.7-2.5,14.2
		c-0.1,3-0.6,7.2-0.6,7.2s-4.6,0.9-8.1,0.9c-5.4,0-9.7-2.8-9.7-2.8s0.6-2.8,3.2-10.9c0.8-2.6,1.4-11.9,1-12.9
		c-1.1,0.4-5.7,3.2-5.7,3.2s-2.6-4.4-6.1-7.2c2-2.3,4.7-4.9,7.4-7.4c2.6-2.4,5.1-1.6,7.2-1.6c1.3,0.5,4.1,3.1,5.4,3.7
		C46.1,25.4,46.4,24.6,46.4,23.9z"/>
	<path fill="#295B8A" d="M34.2,35.3c0,0,3.8-2,5.2-0.8c1.3,1.1,1.5,3,0.7,5.6c-0.7,2.4-2.7,2.5-3.5,3.7
		C36.4,40.2,34.2,35.3,34.2,35.3z"/>
	
		<linearGradient id="SVGID_8_" gradientUnits="userSpaceOnUse" x1="360.3451" y1="41.7313" x2="387.5368" y2="41.7313" gradientTransform="matrix(-1 0 0 1 407.7567 0)">
		<stop  offset="0" style="stop-color:#FFC5B3"/>
		<stop  offset="0.3645" style="stop-color:#FBBBA8"/>
		<stop  offset="1" style="stop-color:#EFA08B"/>
	</linearGradient>
	<path fill="url(#SVGID_8_)" d="M21.3,36.9c0.9-1.7,4.5-6.1,4.5-6.1s1.4,1.1,2.9,2.8c1.2,1.5,2.6,3.9,2.6,3.9l-1.4,1.4
		c0,0,6.3,4.3,9.6,5.9c1.8,0.8,3.5,0.4,4.6,0.6c1.3,0.2,4.3,1.2,3.2,2.7c0.2,0.7,0,1.6-0.7,1.9c0.6,0.9-0.1,1.5-0.6,1.6
		c0.3,1.1-0.4,1.4-2.3,0.8c-2.4-0.8-2.9-0.1-5.2-2c-0.3-0.2-10.7-3.6-11.7-4.4c-1.6-1.2-4.9-3.1-5.8-3.7
		C19.6,41.3,20.5,38.4,21.3,36.9z"/>
	<g>
		
			<linearGradient id="SVGID_9_" gradientUnits="userSpaceOnUse" x1="329.8776" y1="117.4057" x2="349.0487" y2="117.4057" gradientTransform="matrix(-1 0 0 1 407.7567 0)">
			<stop  offset="0" style="stop-color:#347FB6"/>
			<stop  offset="0.3453" style="stop-color:#337BB2"/>
			<stop  offset="0.7007" style="stop-color:#3270A6"/>
			<stop  offset="1" style="stop-color:#2F6095"/>
		</linearGradient>
		<path fill="url(#SVGID_9_)" d="M60.4,114.2c0.6,0.1,0.6,1.6,1.3,1.9c0.7,0.3,2.1-1.4,2.9-1.9c0.1,0,0.2-0.1,0.3-0.1l0-0.1
			c0,0,0.2-0.9,0.9-1.8c0.8-1,2.2-1.5,2.2-1.5c0.9-0.5,0.5,2.1,0.2,3.6c0.9,0.6,4.1,2.6,5.3,2.9c1.5,0.3,3.1-0.3,3.1-0.3
			s0.7,0.9,1.1,1.7c0.6,1.2-0.2,1.7-1.2,2.3c-1,0.6-3.1,2.2-5.8,2.6c-2.7,0.4-4.2-0.8-4.7-0.6c-0.6,0.2-1,1.3-1,1.3s-1.8,0.1-3.8,0
			c-1.3-0.1-2.5-2.1-2.5-2.5C58.8,121.3,59.8,114.1,60.4,114.2z"/>
		<path fill="#225077" d="M77.5,118.7c0,0-3.3,2.8-6.8,3.1c-3.5,0.2-5.5-0.9-6.9,0c-1.4,1-4.7-0.4-4.7-0.4s2.6,0.8,4.3-0.1
			c2-1.1,4.8,0,7.3-0.2c1.7-0.1,6.5-2.8,6.5-2.8L77.5,118.7z"/>
		<path fill="#FFFFFF" d="M72.5,116.7c0,0-0.7,0.5-1.9,1.4c-1.2,0.9-1.8,1-1.8,1s0.8-1,1.8-1.9c0.3-0.2,1.3-0.8,1.3-0.8L72.5,116.7z
			"/>
		<path fill="#FFFFFF" d="M70.7,115.7c0,0-1.4,1-1.9,1.3c-0.5,0.4-1.6,1.4-1.6,1.4s0.8-1.5,1.3-2c0.3-0.3,1.6-1,1.6-1L70.7,115.7z"
			/>
		<path fill="#FFFFFF" d="M69.1,114.8c0,0-1.4,1-1.9,1.3c-0.5,0.4-1.6,1.4-1.6,1.4s0.8-1.5,1.3-2c0.3-0.3,1.6-1,1.6-1L69.1,114.8z"
			/>
	</g>
	<g>
		
			<linearGradient id="SVGID_10_" gradientUnits="userSpaceOnUse" x1="480.0493" y1="275.429" x2="496.3046" y2="275.429" gradientTransform="matrix(-0.8711 -0.4911 -0.4911 0.8711 567.4067 105.2348)">
			<stop  offset="0" style="stop-color:#347FB6"/>
			<stop  offset="0.3453" style="stop-color:#337BB2"/>
			<stop  offset="0.7007" style="stop-color:#3270A6"/>
			<stop  offset="1" style="stop-color:#2F6095"/>
		</linearGradient>
		<path fill="url(#SVGID_10_)" d="M2.6,97.5c0.4,0,7.3-1.1,7.4-0.5c0.1,0.6-1.3,1.6-1.5,2.4c-0.2,0.8,1.8,1.8,2.4,2.6
			c0.1,0.1,0.1,0.2,0.2,0.3l0.1-0.1c0,0,0.9,0,1.9,0.5c1.1,0.6,1.9,1.9,1.9,1.9c0.7,0.8-1.9,1-3.3,1c-0.4,1.1-1.6,4.7-1.6,6
			c0,1.6,0.9,3.1,0.9,3.1s-0.7,0.9-1.4,1.4c-1,0.9-1.6,0.1-2.5-0.7c-0.8-0.9-2.8-2.7-3.7-5.3c-0.9-2.7-0.1-4.4-0.5-4.9
			c-0.3-0.5-1.4-0.8-1.4-0.8s-0.5-1.8-0.8-3.8C0.6,99.2,2.2,97.5,2.6,97.5z"/>
		<path fill="#225077" d="M9.6,116.1c0,0-3.4-2.8-4.3-6.3c-1-3.5-0.3-5.8-1.5-7C2.7,101.7,3.2,98,3.2,98s-0.2,2.8,1,4.4
			c1.4,1.8,1,4.9,1.7,7.4c0.5,1.7,4,6,4,6L9.6,116.1z"/>
		<path fill="#FFFFFF" d="M10.2,110.5c0,0-0.6-0.6-1.7-1.7c-1-1-1.3-1.6-1.3-1.6s1.1,0.6,2.1,1.5c0.3,0.3,1.1,1.1,1.1,1.1
			L10.2,110.5z"/>
		<path fill="#FFFFFF" d="M10.8,108.4c0,0-1.2-1.2-1.6-1.6c-0.4-0.4-1.7-1.3-1.7-1.3s1.6,0.5,2.2,0.9c0.4,0.3,1.3,1.5,1.3,1.5
			L10.8,108.4z"/>
		<path fill="#FFFFFF" d="M11.3,106.7c0,0-1.2-1.2-1.6-1.6c-0.4-0.4-1.7-1.3-1.7-1.3s1.6,0.5,2.2,0.9c0.4,0.3,1.3,1.5,1.3,1.5
			L11.3,106.7z"/>
	</g>
	<path fill="#5B1B1B" d="M49.6,7.2c0.5,0,1,0.3,0.7,0.5c-0.2,0.1-0.9,0-1.6,0.3c-0.8,0.3-1.8,1.2-1.8,1.2S47.7,7.1,49.6,7.2z"/>
	
		<linearGradient id="SVGID_11_" gradientUnits="userSpaceOnUse" x1="365.3639" y1="14.0709" x2="365.3639" y2="11.2284" gradientTransform="matrix(-1 0 0 1 407.7567 0)">
		<stop  offset="0" style="stop-color:#EFA08B"/>
		<stop  offset="0.2778" style="stop-color:#E7917D"/>
		<stop  offset="0.6579" style="stop-color:#E08470"/>
		<stop  offset="0.9948" style="stop-color:#DD7F6C"/>
	</linearGradient>
	<path fill="url(#SVGID_11_)" d="M43.4,12.7c0,0-0.8-1.7-1.4-1.4c-0.6,0.3-0.5,1.2-0.5,1.2s0.5-0.5,0.9-0.3c0.4,0.2,0.1,0.7,0,0.9
		c-0.2,0.6,0.6,1,0.6,1s-0.1-0.6-0.1-1C42.9,12.8,43.4,12.7,43.4,12.7z"/>
	
		<linearGradient id="SVGID_12_" gradientUnits="userSpaceOnUse" x1="361.4437" y1="18.1426" x2="365.9278" y2="18.1426" gradientTransform="matrix(-1 0 0 1 407.7567 0)">
		<stop  offset="0" style="stop-color:#EFA08B"/>
		<stop  offset="0.6405" style="stop-color:#E48C78"/>
		<stop  offset="0.9948" style="stop-color:#DD7F6C"/>
	</linearGradient>
	<path fill="url(#SVGID_12_)" d="M46.3,19.3c0,0-1.6-0.4-2.2-0.9c-1-0.7-2.2-1.7-2.2-1.7s0.8,1.6,1.5,2.3
		C44.5,20,45.9,19.5,46.3,19.3z"/>
	<path fill="#FFA08D" d="M57.3,82.6c0,0,0.9,1.4,0.7,2c-0.1,0.4-1,1.4-1,1.4L57.3,82.6z"/>
	
		<linearGradient id="SVGID_13_" gradientUnits="userSpaceOnUse" x1="383.87" y1="41.466" x2="385.6072" y2="41.466" gradientTransform="matrix(-1 0 0 1 407.7567 0)">
		<stop  offset="0" style="stop-color:#EFA08B"/>
		<stop  offset="8.620072e-02" style="stop-color:#ED9C87"/>
		<stop  offset="0.6354" style="stop-color:#E18773"/>
		<stop  offset="0.9948" style="stop-color:#DD7F6C"/>
	</linearGradient>
	<path fill="url(#SVGID_13_)" d="M22.2,40.8c1.2-0.2,1.7,1.3,1.7,1.3S22.1,41.7,22.2,40.8z"/>
	<path fill="#FFFFFF" d="M49.6,9.6c0,0,0.1,0.7,0.1,1c-0.1,0.5-0.6,0.5-1,0.4c-0.4-0.1-0.8-0.4-0.8-0.4l1-0.6L49.6,9.6z"/>
	<path fill="#3794B5" d="M49.7,9.7c0,0,0.2,1.1-0.2,1.2C48.9,11.1,49,10,49,10L49.7,9.7z"/>
	<path fill="#5B1B1B" d="M49.2,10.3c0,0.2,0.1,0.3,0.2,0.3c0.1,0,0.2-0.1,0.2-0.3c0-0.2-0.1-0.3-0.2-0.3
		C49.3,10.1,49.2,10.2,49.2,10.3z"/>
	<path fill="#FFFFFF" d="M49.3,10.1c0,0.1,0.1,0.2,0.1,0.2s0.1-0.1,0.1-0.2c0-0.1-0.1-0.2-0.1-0.2S49.3,10,49.3,10.1z"/>
	<path fill="#FFA08D" d="M51.8,13.6c0,0-0.1,0.2-0.3,0.4c-0.2,0.2-0.4,0-0.2-0.2C51.4,13.6,51.8,13.6,51.8,13.6z"/>
	<path fill="#FFA08D" d="M51.1,15.7c0,0-0.8,0.3-1.1,0.2c-0.2-0.1-0.3-0.2,0-0.2C50.6,15.7,51.1,15.7,51.1,15.7z"/>
	<path fill="#5B1B1B" d="M49.7,9.3c0.1-0.1,0.3,0.1,0.2,0.3c-0.2,0.3-0.8,0.6-1.2,0.8c-0.4,0.2-1,0.3-1,0.3S49.1,9.7,49.7,9.3z"/>
	
		<linearGradient id="SVGID_14_" gradientUnits="userSpaceOnUse" x1="357.9075" y1="9.2948" x2="359.6683" y2="9.2948" gradientTransform="matrix(-1 0 0 1 407.7567 0)">
		<stop  offset="0" style="stop-color:#EFA08B"/>
		<stop  offset="0.156" style="stop-color:#EB9984"/>
		<stop  offset="0.6493" style="stop-color:#E18672"/>
		<stop  offset="0.9948" style="stop-color:#DD7F6C"/>
	</linearGradient>
	<path fill="url(#SVGID_14_)" d="M49.8,8.8c0,0-0.5,0.4-0.9,0.6c-0.4,0.2-0.8,0.5-0.8,0.5s1.1-1,1.4-1.1C49.8,8.6,49.8,8.8,49.8,8.8
		z"/>
	
		<linearGradient id="SVGID_15_" gradientUnits="userSpaceOnUse" x1="355.9853" y1="6.1324" x2="370.8335" y2="6.1324" gradientTransform="matrix(-1 0 0 1 407.7567 0)">
		<stop  offset="0" style="stop-color:#B24E2B"/>
		<stop  offset="0.3843" style="stop-color:#AA4727"/>
		<stop  offset="1" style="stop-color:#A34123"/>
	</linearGradient>
	<path fill="url(#SVGID_15_)" d="M51.8,3.4l-0.5,0.7c0,0-3.5-2.1-5.7-2.6c-2.3-0.5-3.8,0.1-5,1.1c-1,0.8-2.7,2.6-2.8,4.1
		c-0.2,2.3-0.1,4.9-0.1,4.9s-1.9-4.8,0.7-7.9c2.7-3.1,5.6-3.5,8.1-2.6C48.2,1.7,51.8,3.4,51.8,3.4z"/>
</g>
</svg>
