<svg id="Layer_1" data-name="Layer 1" xmlns="http://www.w3.org/2000/svg" xmlns:xlink="http://www.w3.org/1999/xlink" viewBox="0 0 73.84 120.75"><defs><style>.cls-1{fill:url(#linear-gradient);}.cls-2{fill:url(#linear-gradient-2);}.cls-3{fill:url(#linear-gradient-3);}.cls-4{fill:url(#linear-gradient-4);}.cls-5{fill:#098256;}.cls-6{fill:url(#linear-gradient-5);}.cls-7{fill:url(#linear-gradient-6);}.cls-8{fill:url(#Degradado_sin_nombre_5);}.cls-9{fill:#295b8a;}.cls-10{fill:url(#linear-gradient-7);}.cls-11{fill:url(#Degradado_sin_nombre_5-2);}.cls-12{fill:#225077;}.cls-13{fill:#fff;}.cls-14{fill:url(#Degradado_sin_nombre_5-3);}.cls-15{fill:#5b1b1b;}.cls-16{fill:url(#linear-gradient-8);}.cls-17{fill:url(#linear-gradient-9);}.cls-18{fill:#ffa08d;}.cls-19{fill:url(#linear-gradient-10);}.cls-20{fill:#3794b5;}.cls-21{fill:url(#linear-gradient-11);}.cls-22{fill:url(#linear-gradient-12);}</style><linearGradient id="linear-gradient" x1="-52.76" y1="43.04" x2="-42.11" y2="43.04" gradientTransform="matrix(-1, 0, 0, 1, 4.6, 0)" gradientUnits="userSpaceOnUse"><stop offset="0" stop-color="#efa08b"/><stop offset="0.64" stop-color="#e48c78"/><stop offset="0.99" stop-color="#dd7f6c"/></linearGradient><linearGradient id="linear-gradient-2" x1="-44.85" y1="24.59" x2="-32.79" y2="24.59" gradientTransform="matrix(-1, 0, 0, 1, 4.6, 0)" gradientUnits="userSpaceOnUse"><stop offset="0" stop-color="#ffc5b3"/><stop offset="0.36" stop-color="#fbbba8"/><stop offset="1" stop-color="#efa08b"/></linearGradient><linearGradient id="linear-gradient-3" x1="-37.24" y1="12.51" x2="-37.24" y2="27.86" gradientTransform="matrix(-1, 0, 0, 1, 4.6, 0)" gradientUnits="userSpaceOnUse"><stop offset="0" stop-color="#7b2b08"/><stop offset="0.07" stop-color="#792a08"/><stop offset="0.54" stop-color="#6c2207"/><stop offset="1" stop-color="#682007"/></linearGradient><linearGradient id="linear-gradient-4" x1="-20.73" y1="69.13" x2="-20.73" y2="102.97" xlink:href="#linear-gradient-2"/><linearGradient id="linear-gradient-5" x1="-47.83" y1="75.27" x2="-47.83" y2="116.38" xlink:href="#linear-gradient-2"/><linearGradient id="linear-gradient-6" x1="-38.73" y1="62.27" x2="-38.73" y2="85.89" gradientTransform="matrix(-1, 0, 0, 1, 4.6, 0)" gradientUnits="userSpaceOnUse"><stop offset="0" stop-color="#15a072"/><stop offset="0.46" stop-color="#119568"/><stop offset="1" stop-color="#098256"/></linearGradient><linearGradient id="Degradado_sin_nombre_5" x1="-33.43" y1="30.15" x2="-33.43" y2="64.69" gradientTransform="matrix(-1, 0, 0, 1, 4.6, 0)" gradientUnits="userSpaceOnUse"><stop offset="0" stop-color="#347fb6"/><stop offset="0.35" stop-color="#337bb2"/><stop offset="0.7" stop-color="#3270a6"/><stop offset="1" stop-color="#2f6095"/></linearGradient><linearGradient id="linear-gradient-7" x1="-40.05" y1="48.07" x2="-15.39" y2="48.07" xlink:href="#linear-gradient-2"/><linearGradient id="Degradado_sin_nombre_5-2" x1="-67.68" y1="113.97" x2="-50.3" y2="113.97" xlink:href="#Degradado_sin_nombre_5"/><linearGradient id="Degradado_sin_nombre_5-3" x1="28.31" y1="154.43" x2="42.78" y2="154.43" gradientTransform="matrix(-0.87, -0.49, -0.49, 0.87, 114.71, -13.58)" xlink:href="#Degradado_sin_nombre_5"/><linearGradient id="linear-gradient-8" x1="-35.5" y1="23.98" x2="-35.5" y2="21.51" gradientTransform="matrix(-1, 0, 0, 1, 4.6, 0)" gradientUnits="userSpaceOnUse"><stop offset="0" stop-color="#efa08b"/><stop offset="0.28" stop-color="#e7917d"/><stop offset="0.66" stop-color="#e08470"/><stop offset="0.99" stop-color="#dd7f6c"/></linearGradient><linearGradient id="linear-gradient-9" x1="-39.06" y1="27.53" x2="-34.99" y2="27.53" xlink:href="#linear-gradient"/><linearGradient id="linear-gradient-10" x1="-18.72" y1="47.84" x2="-17.14" y2="47.84" gradientTransform="matrix(-1, 0, 0, 1, 4.6, 0)" gradientUnits="userSpaceOnUse"><stop offset="0" stop-color="#efa08b"/><stop offset="0.09" stop-color="#ed9c87"/><stop offset="0.64" stop-color="#e18773"/><stop offset="0.99" stop-color="#dd7f6c"/></linearGradient><linearGradient id="linear-gradient-11" x1="-42.26" y1="19.83" x2="-40.67" y2="19.83" gradientTransform="matrix(-1, 0, 0, 1, 4.6, 0)" gradientUnits="userSpaceOnUse"><stop offset="0" stop-color="#efa08b"/><stop offset="0.16" stop-color="#eb9984"/><stop offset="0.65" stop-color="#e18672"/><stop offset="0.99" stop-color="#dd7f6c"/></linearGradient><linearGradient id="linear-gradient-12" x1="-44.01" y1="17.07" x2="-30.54" y2="17.07" gradientTransform="matrix(-1, 0, 0, 1, 4.6, 0)" gradientUnits="userSpaceOnUse"><stop offset="0" stop-color="#b24e2b"/><stop offset="0.38" stop-color="#aa4727"/><stop offset="1" stop-color="#a34123"/></linearGradient></defs><title>men</title><path class="cls-1" d="M53.71,35.65c-.76-.18-1.75,1-1.78,2.39s.5,2.32.1,3-5.32,4.08-5.32,4.08l1.14,5.46s5.17-3.39,7.07-6.18a12.57,12.57,0,0,0,2.41-5.6c.17-1.07-.5-1.47-1.13-1.15.19-1.33-.73-1.22-1.21-1.09C54.6,35.09,53.71,35.65,53.71,35.65Z"/><path class="cls-2" d="M38,26.6c-.4-1.67-.6-3.3-.6-3.3s3.35-10.38,8.37-8.77a2.47,2.47,0,0,1,1.78,1.55,5.6,5.6,0,0,1,.39,1.55,26.48,26.48,0,0,1-.29,3c0,1.29,2.28,2.19,1.72,2.94-.18.24-1.27.34-1.21.86s.46.52,0,.93c.31.46,0,.59-.25.74s-.47.13-.33.57c.29.88.11,1.41-.65,1.58a3.62,3.62,0,0,0-2.74,1.87c-.56,1-.47,4.67-.47,4.67l-6.31-2.89S38.38,28.27,38,26.6Z"/><path class="cls-3" d="M47.54,16.08a3.49,3.49,0,0,0,.86-1.44c-.76,0-4-2.35-6.79-2.12-3.39.29-6,2.82-6.29,4.87a17.65,17.65,0,0,0,1.29,7.19c.59,1.12,1.44,3.28,1.44,3.28a8.7,8.7,0,0,0,.79-1.14c-.05-.49.4-1.69.48-2.7-.56-1.28-1.14-2.84.3-3,1.09-.15,2,1.6,2,1.6l.51-.28s-.52-3,1.09-4C43.19,17.06,42.18,14.75,47.54,16.08Z"/><path class="cls-4" d="M41.79,77.16s-2.37,4-4.4,7.36c-1.13,1.86-4,4.07-7.59,5.84C25.31,92.59,10.86,103,10.86,103l-2-4.45a80,80,0,0,1,13-14.83c1.57-1.35,4.15-1.17,5.46-4C28.52,77.1,33,69.13,33,69.13Z"/><path class="cls-5" d="M42.64,79.65,38,85.89a46.48,46.48,0,0,1-4.66-3.17,31,31,0,0,1-4.89-6.07s2.54-7.27,4.2-12.71C37.06,63.55,42.64,79.65,42.64,79.65Z"/><path class="cls-6" d="M51.41,75.27a27.42,27.42,0,0,1,3.49,5.07,19.1,19.1,0,0,1,1.67,7.56,27.83,27.83,0,0,0,2.21,11.73c.89,2.32,4.81,13.26,4.81,13.26l-4.34,3.49S53.82,108,50,100.31c-2.73-5.57-1.85-7.64-3.11-10.22a83.39,83.39,0,0,0-5.66-8.42S50,78.81,51.41,75.27Z"/><path class="cls-7" d="M50.64,63.69s-2,3.57-.66,5.73a72.73,72.73,0,0,1,5.45,11.43,24,24,0,0,1-5.49,3.49,18.77,18.77,0,0,1-6.47,1.55s-8.82-10.82-10.8-13.68c-3-4.26-.51-9.94-.51-9.94Z"/><path class="cls-8" d="M43.75,32.52c1.34.6,3.75,1.57,5.25,3.55s.86,6.19,1.33,9.17c.73,4.72,1.43,8,1.19,12.78a35.31,35.31,0,0,1-.88,5.67s-7.35,1-10.54,1a18.08,18.08,0,0,1-8.76-2.42s.55-2.44,2.9-9.46c.76-2.25-1.16-9.53-1.57-10.35A12.31,12.31,0,0,0,30,44.35a27.31,27.31,0,0,0-5.53-6.27,82.86,82.86,0,0,1,6.73-6.43c2.39-2.08,4.64-1.4,6.55-1.36,1.17.43,3.69,2.71,4.88,3.23C43.49,33.88,43.75,33.13,43.75,32.52Z"/><path class="cls-9" d="M32.67,42.46s3.46-1.7,4.72-.66,1.35,2.58.62,4.85c-.67,2.09-2.83,2.79-3.63,3.88A44.71,44.71,0,0,0,32.67,42.46Z"/><path class="cls-10" d="M21,43.89a54.21,54.21,0,0,1,4.1-5.32A15.41,15.41,0,0,1,27.68,41,28.94,28.94,0,0,1,30,44.35L28.7,45.54a90.4,90.4,0,0,0,8.69,5.15c1.61.73,3.19.38,4.14.55,1.2.21,3.89,1,2.91,2.32a1.22,1.22,0,0,1-.66,1.63.88.88,0,0,1-.5,1.41c.26,1-.38,1.24-2.1.69-2.19-.7-2.61-.12-4.71-1.7-.26-.18-9.69-3.17-10.62-3.85-1.41-1-4.46-2.72-5.28-3.25C19.4,47.74,20.25,45.21,21,43.89Z"/><path class="cls-11" d="M56.43,111.19c.56.07.56,1.39,1.19,1.67s1.88-1.26,2.65-1.67a1.57,1.57,0,0,1,.26-.1l0-.09a3.88,3.88,0,0,1,.84-1.61,5.34,5.34,0,0,1,2-1.32c.85-.46.45,1.84.18,3.09a24.68,24.68,0,0,0,4.81,2.53,6.33,6.33,0,0,0,2.85-.23,14.63,14.63,0,0,1,1,1.47c.56,1-.19,1.48-1.09,2a13.22,13.22,0,0,1-5.23,2.3c-2.44.35-3.78-.7-4.3-.49s-.91,1.12-.91,1.12-1.64.09-3.43,0a3.08,3.08,0,0,1-2.23-2.17C55,117.39,55.88,111.12,56.43,111.19Z"/><path class="cls-12" d="M71.92,115.06a12.86,12.86,0,0,1-6.18,2.67c-3.17.21-5-.81-6.24,0s-4.24-.34-4.24-.34a6.29,6.29,0,0,0,3.94-.11c1.85-.93,4.39,0,6.66-.14,1.54-.1,5.85-2.45,5.85-2.45Z"/><path class="cls-13" d="M67.43,113.4s-.67.44-1.75,1.18a6.27,6.27,0,0,1-1.64.89,13,13,0,0,1,1.64-1.61c.27-.22,1.17-.74,1.17-.74Z"/><path class="cls-13" d="M65.73,112.52,64,113.65a17.79,17.79,0,0,0-1.46,1.22,11.46,11.46,0,0,1,1.18-1.75,10.92,10.92,0,0,1,1.5-.88Z"/><path class="cls-13" d="M64.34,111.71l-1.7,1.14c-.45.3-1.45,1.22-1.45,1.22a10.74,10.74,0,0,1,1.18-1.75,10.92,10.92,0,0,1,1.5-.88Z"/><path class="cls-14" d="M4,96.66c.35,0,6.62-1,6.67-.44s-1.2,1.4-1.34,2.07,1.62,1.57,2.19,2.23a1.53,1.53,0,0,1,.16.25l.07-.06a3.82,3.82,0,0,1,1.75.48,5.35,5.35,0,0,1,1.71,1.62c.63.74-1.71.83-3,.83a24.7,24.7,0,0,0-1.46,5.24,6.35,6.35,0,0,0,.82,2.73,14.66,14.66,0,0,1-1.22,1.26c-.87.76-1.49.13-2.23-.64a13.24,13.24,0,0,1-3.35-4.62c-.85-2.31-.11-3.85-.43-4.3a2.48,2.48,0,0,0-1.28-.66s-.43-1.58-.72-3.36A3,3,0,0,1,4,96.66Z"/><path class="cls-12" d="M10.4,112.87a12.89,12.89,0,0,1-3.92-5.47c-.87-3.06-.25-5.06-1.33-6.1s-.56-4.21-.56-4.21a6.24,6.24,0,0,0,.94,3.83c1.29,1.61.91,4.29,1.54,6.47.43,1.49,3.62,5.21,3.62,5.21Z"/><path class="cls-13" d="M10.91,108s-.57-.56-1.52-1.45a6.25,6.25,0,0,1-1.22-1.43,12.93,12.93,0,0,1,1.92,1.27c.27.22,1,1,1,1Z"/><path class="cls-13" d="M11.42,106.15,10,104.73c-.39-.38-1.5-1.17-1.5-1.17a11.3,11.3,0,0,1,2,.79,11.33,11.33,0,0,1,1.18,1.28Z"/><path class="cls-13" d="M11.91,104.62l-1.47-1.42c-.39-.38-1.5-1.17-1.5-1.17a11.3,11.3,0,0,1,2,.79,11.33,11.33,0,0,1,1.18,1.28Z"/><path class="cls-15" d="M46.65,18c.42,0,1,.29.6.48a8.77,8.77,0,0,0-1.46.25,8.53,8.53,0,0,0-1.67,1.06A2.91,2.91,0,0,1,46.65,18Z"/><path class="cls-16" d="M41,22.77s-.77-1.46-1.31-1.24-.49,1.08-.49,1.08.43-.45.84-.25.05.62,0,.79c-.17.55.57.83.57.83a3.15,3.15,0,0,1-.06-.83C40.6,22.84,41,22.77,41,22.77Z"/><path class="cls-17" d="M43.66,28.54a8.22,8.22,0,0,1-2-.75c-.92-.63-2-1.52-2-1.52a7.6,7.6,0,0,0,1.38,2A2.69,2.69,0,0,0,43.66,28.54Z"/><path class="cls-18" d="M53.58,83.69s.79,1.25.68,1.76a4.92,4.92,0,0,1-.9,1.23Z"/><path class="cls-19" d="M21.74,47.26c1.07-.17,1.58,1.18,1.58,1.18S21.71,48,21.74,47.26Z"/><path class="cls-13" d="M46.63,20.11a2.46,2.46,0,0,1,0,.89c-.13.41-.58.42-.94.33a2,2,0,0,1-.68-.36l.86-.51Z"/><path class="cls-20" d="M46.71,20.14s.16.95-.19,1.08-.45-.77-.45-.77Z"/><path class="cls-15" d="M46.28,20.74c0,.14.07.25.16.25s.15-.11.15-.25-.07-.24-.15-.24S46.28,20.61,46.28,20.74Z"/><path class="cls-13" d="M46.4,20.54c0,.1.06.18.12.18s.11-.08.11-.18-.05-.18-.11-.18S46.4,20.44,46.4,20.54Z"/><path class="cls-18" d="M48.61,23.6a1.35,1.35,0,0,1-.29.34c-.21.2-.39,0-.21-.17A.83.83,0,0,1,48.61,23.6Z"/><path class="cls-18" d="M48,25.37s-.7.3-1,.16-.31-.17,0-.17Z"/><path class="cls-15" d="M46.76,19.81c.08-.06.23.09.14.22a3,3,0,0,1-1.08.72,3.91,3.91,0,0,1-.92.25S46.22,20.18,46.76,19.81Z"/><path class="cls-21" d="M46.86,19.43s-.48.33-.84.53-.75.4-.75.4a13.79,13.79,0,0,1,1.25-1C46.86,19.18,46.86,19.43,46.86,19.43Z"/><path class="cls-22" d="M48.61,14.71l-.47.59a23.5,23.5,0,0,0-5.21-2.24,5.17,5.17,0,0,0-4.57.92c-.94.74-2.45,2.23-2.57,3.58a35.17,35.17,0,0,0,0,4.27S34,17.69,36.41,15s5.09-3,7.32-2.28C45.37,13.23,48.61,14.71,48.61,14.71Z"/></svg>