<?xml version="1.0" encoding="utf-8"?>
<!-- Generator: Adobe Illustrator 24.0.1, SVG Export Plug-In . SVG Version: 6.00 Build 0)  -->
<svg version="1.1" id="Layer_1" xmlns="http://www.w3.org/2000/svg" xmlns:xlink="http://www.w3.org/1999/xlink" x="0px" y="0px"
	 viewBox="0 0 78.7 124.3" enable-background="new 0 0 78.7 124.3" xml:space="preserve">
<g>
	
		<linearGradient id="SVGID_1_" gradientUnits="userSpaceOnUse" x1="164.3298" y1="34.0282" x2="176.174" y2="34.0282" gradientTransform="matrix(-1 0 0 1 226.3909 0)">
		<stop  offset="0" style="stop-color:#EFA08B"/>
		<stop  offset="0.6405" style="stop-color:#E48C78"/>
		<stop  offset="0.9948" style="stop-color:#DD7F6C"/>
	</linearGradient>
	<path fill="url(#SVGID_1_)" d="M58,25.6c-0.8-0.2-1.9,1.2-2,2.7c0,1.5,0.6,2.6,0.1,3.4c-0.4,0.7-5.9,4.6-5.9,4.6l1.3,6.2
		c0,0,2.7-1.1,6.2-5.2c2.4-2.8,4.1-6.8,4.4-8.2c0.2-1.2-0.6-1.7-1.3-1.3c0.2-1.5-0.8-1.4-1.3-1.2C59,25,58,25.6,58,25.6z"/>
	
		<linearGradient id="SVGID_2_" gradientUnits="userSpaceOnUse" x1="173.567" y1="15.835" x2="187.7151" y2="15.835" gradientTransform="matrix(-1 0 0 1 226.3909 0)">
		<stop  offset="0" style="stop-color:#FFC5B3"/>
		<stop  offset="0.3645" style="stop-color:#FBBBA8"/>
		<stop  offset="1" style="stop-color:#EFA08B"/>
	</linearGradient>
	<path fill="url(#SVGID_2_)" d="M39.7,17c-0.4-1.9-0.3-3.8-0.3-3.8s3.7-11.8,9.3-10c0.9,0.3,1.7,0.8,2,1.8c0.2,0.5,0.4,1.2,0.4,1.8
		c0.1,1.4-0.3,2.8-0.3,3.4c0,1.5,2.5,2.5,1.9,3.3c-0.2,0.3-1.4,0.4-1.3,1c0.1,0.4,0.5,0.6,0,1.1c0.3,0.5,0,0.7-0.3,0.8
		c-0.2,0.1-0.5,0.1-0.4,0.6c0.3,1,0.1,1.6-0.7,1.8c-0.5,0.1-1.8,0.3-2.7,2.1c-0.6,1.1,0.2,7.6,0.2,7.6l-8.8-5.4
		C38.7,23.2,40.1,18.9,39.7,17z"/>
	
		<linearGradient id="SVGID_3_" gradientUnits="userSpaceOnUse" x1="182.0388" y1="0.9702" x2="182.0388" y2="18.416" gradientTransform="matrix(-1 0 0 1 226.3909 0)">
		<stop  offset="0" style="stop-color:#7B2B08"/>
		<stop  offset="6.743622e-02" style="stop-color:#792A08"/>
		<stop  offset="0.5419" style="stop-color:#6C2207"/>
		<stop  offset="1" style="stop-color:#682007"/>
	</linearGradient>
	<path fill="url(#SVGID_3_)" d="M50.7,5c0,0,0.9-0.9,1-1.6c-0.8,0-4.4-2.7-7.6-2.4c-3.8,0.3-6.7,3.2-7,5.5c-0.3,2.3,0.8,6.9,1.4,8.2
		c0.7,1.3,1.2,3.7,1.2,3.7s0.8-0.4,1.3-1.3c-0.1-0.6,0.4-1.9,0.5-3.1c-0.6-1.5-1.3-3.2,0.3-3.5c1.2-0.2,2.2,1.8,2.2,1.8l0.6-0.3
		c0,0-0.6-3.4,1.2-4.6C45.9,6.1,44.7,3.5,50.7,5z"/>
	
		<linearGradient id="SVGID_4_" gradientUnits="userSpaceOnUse" x1="200.4068" y1="65.3194" x2="200.4068" y2="103.7683" gradientTransform="matrix(-1 0 0 1 226.3909 0)">
		<stop  offset="0" style="stop-color:#FFC5B3"/>
		<stop  offset="0.3645" style="stop-color:#FBBBA8"/>
		<stop  offset="1" style="stop-color:#EFA08B"/>
	</linearGradient>
	<path fill="url(#SVGID_4_)" d="M44.3,74.4c0,0-2.5,5.8-4.2,9.9c-2,4.8-5.6,4.4-9.5,6.4c-5,2.5-20.7,13-20.7,13l-2.2-5
		c0,0,3.8-9.9,12.4-16.9c5-4,6.6-2.7,8-5.9c1.3-2.9,6.5-10.6,6.5-10.6L44.3,74.4z"/>
	<path fill="#098256" d="M45.3,77.3l-5.1,7.1c0,0-4.4-1.2-6.3-2.5c-4-2.8-5.7-5.9-5.7-5.9s3-10.2,5.7-16.1
		C38.7,59.4,45.3,77.3,45.3,77.3z"/>
	
		<linearGradient id="SVGID_5_" gradientUnits="userSpaceOnUse" x1="171.0399" y1="72.2949" x2="171.0399" y2="119.017" gradientTransform="matrix(-1 0 0 1 226.3909 0)">
		<stop  offset="0" style="stop-color:#FFC5B3"/>
		<stop  offset="0.3645" style="stop-color:#FBBBA8"/>
		<stop  offset="1" style="stop-color:#EFA08B"/>
	</linearGradient>
	<path fill="url(#SVGID_5_)" d="M55,72.3c0,0,4.3,1.4,4.9,4.2c1,4.2,1.1,6.2,1.1,8.8c0,2.8,1.1,6.2,2.9,14
		c0.7,2.7,4.6,15.8,4.6,15.8l-4.8,4c0,0-6.7-9-10.9-17.7c-3-6.3-1.4-9.2-2.8-12.2c-1.4-2.9-7.9-10.3-7.9-10.3S53.4,76.3,55,72.3z"/>
	
		<linearGradient id="SVGID_6_" gradientUnits="userSpaceOnUse" x1="179.5585" y1="57.5252" x2="179.5585" y2="85.3092" gradientTransform="matrix(-1 0 0 1 226.3909 0)">
		<stop  offset="0" style="stop-color:#15A072"/>
		<stop  offset="0.4562" style="stop-color:#119568"/>
		<stop  offset="1" style="stop-color:#098256"/>
	</linearGradient>
	<path fill="url(#SVGID_6_)" d="M56.1,59.2c-0.3,1.3-1.1,2.4,0.5,5.4c2.8,5.4,4.4,14.9,4.4,14.9s-4.9,2.6-8.3,4.1
		c-3.8,1.7-7.2,1.8-7.2,1.8S38.2,72.9,36,69.7c-3.3-4.8-3.3-12.1-3.3-12.1S47.1,57.9,56.1,59.2z"/>
	
		<linearGradient id="SVGID_7_" gradientUnits="userSpaceOnUse" x1="185.2791" y1="21.0089" x2="185.2791" y2="60.2706" gradientTransform="matrix(-1 0 0 1 226.3909 0)">
		<stop  offset="0" style="stop-color:#347FB6"/>
		<stop  offset="0.3453" style="stop-color:#337BB2"/>
		<stop  offset="0.7007" style="stop-color:#3270A6"/>
		<stop  offset="1" style="stop-color:#2F6095"/>
	</linearGradient>
	<path fill="url(#SVGID_7_)" d="M46.7,23.4c1.5,0.7,4,2.1,5.6,4.4c1.7,2.3,1,7,1.5,10.4c0.8,5.4,0.7,9.8,1.4,15.2c0.5,4.1,2,6,2,6
		S46,60.3,42.4,60.3c-5.5,0-9.7-2.7-9.7-2.7s0.6-2.8,3.2-10.8c0.8-2.6-1.3-10.8-1.8-11.8c-1.1,0.4-3,2.1-3,2.1S28.5,32.8,25,30
		c2-2.3,4.7-4.9,7.5-7.3c2.7-2.4,4.6-1.6,6.7-1.6c1.3,0.5,5.2,4.7,7.2,5.2C47.4,26.6,46.7,24.1,46.7,23.4z"/>
	<path fill="#295B8A" d="M34.1,35c0,0,3.9-1.9,5.3-0.8c1.3,1.1,1.5,2.9,0.7,5.5c-0.7,2.4-3.1,3.2-4,4.4C35.9,40.6,34.1,35,34.1,35z"
		/>
	
		<linearGradient id="SVGID_8_" gradientUnits="userSpaceOnUse" x1="178.907" y1="41.3874" x2="206.3422" y2="41.3874" gradientTransform="matrix(-1 0 0 1 226.3909 0)">
		<stop  offset="0" style="stop-color:#FFC5B3"/>
		<stop  offset="0.3645" style="stop-color:#FBBBA8"/>
		<stop  offset="1" style="stop-color:#EFA08B"/>
	</linearGradient>
	<path fill="url(#SVGID_8_)" d="M21.1,36.6c0.9-1.7,4.6-6,4.6-6s1.5,1,2.9,2.8c1.2,1.5,2.6,3.8,2.6,3.8l-1.5,1.4
		c0,0,6.3,4.3,9.7,5.9c1.8,0.8,3.5,0.4,4.6,0.6c1.3,0.2,4.3,1.2,3.2,2.6c0.2,0.7,0,1.6-0.7,1.8c0.6,0.9-0.2,1.5-0.6,1.6
		c0.3,1.1-0.4,1.4-2.3,0.8c-2.4-0.8-2.9-0.1-5.2-1.9c-0.3-0.2-10.8-3.6-11.8-4.4c-1.6-1.2-5-3.1-5.9-3.7
		C19.4,41,20.3,38.1,21.1,36.6z"/>
	<g>
		
			<linearGradient id="SVGID_9_" gradientUnits="userSpaceOnUse" x1="148.1667" y1="116.2768" x2="167.5096" y2="116.2768" gradientTransform="matrix(-1 0 0 1 226.3909 0)">
			<stop  offset="0" style="stop-color:#347FB6"/>
			<stop  offset="0.3453" style="stop-color:#337BB2"/>
			<stop  offset="0.7007" style="stop-color:#3270A6"/>
			<stop  offset="1" style="stop-color:#2F6095"/>
		</linearGradient>
		<path fill="url(#SVGID_9_)" d="M60.6,113.1c0.6,0.1,0.6,1.6,1.3,1.9c0.7,0.3,2.1-1.4,2.9-1.9c0.1,0,0.2-0.1,0.3-0.1l0-0.1
			c0,0,0.2-0.9,0.9-1.8c0.8-1,2.2-1.5,2.2-1.5c0.9-0.5,0.5,2.1,0.2,3.5c0.9,0.6,4.1,2.6,5.4,2.9c1.5,0.3,3.2-0.3,3.2-0.3
			s0.7,0.9,1.1,1.7c0.6,1.1-0.2,1.7-1.2,2.3c-1,0.6-3.1,2.2-5.8,2.6c-2.7,0.4-4.2-0.8-4.8-0.6c-0.6,0.2-1,1.3-1,1.3s-1.8,0.1-3.8,0
			c-1.4-0.1-2.6-2.1-2.5-2.5C59,120.2,60,113,60.6,113.1z"/>
		<path fill="#225077" d="M78,117.4c0,0-3.3,2.8-6.9,3c-3.5,0.2-5.6-0.9-6.9,0s-4.7-0.4-4.7-0.4s2.6,0.8,4.4-0.1
			c2.1-1.1,4.9,0,7.4-0.2c1.7-0.1,6.5-2.8,6.5-2.8L78,117.4z"/>
		<path fill="#FFFFFF" d="M72.8,115.6c0,0-0.7,0.5-1.9,1.3c-1.2,0.8-1.8,1-1.8,1s0.8-1,1.8-1.8c0.3-0.2,1.3-0.8,1.3-0.8L72.8,115.6z
			"/>
		<path fill="#FFFFFF" d="M70.9,114.6c0,0-1.4,1-1.9,1.3c-0.5,0.3-1.6,1.4-1.6,1.4s0.8-1.5,1.3-2c0.3-0.3,1.7-1,1.7-1L70.9,114.6z"
			/>
		<path fill="#FFFFFF" d="M69.4,113.7c0,0-1.4,1-1.9,1.3c-0.5,0.3-1.6,1.4-1.6,1.4s0.8-1.5,1.3-2c0.3-0.3,1.7-1,1.7-1L69.4,113.7z"
			/>
	</g>
	<g>
		
			<linearGradient id="SVGID_10_" gradientUnits="userSpaceOnUse" x1="311.1338" y1="230.4406" x2="327.3857" y2="230.4406" gradientTransform="matrix(-0.8711 -0.4911 -0.4911 0.8711 397.7299 60.7004)">
			<stop  offset="0" style="stop-color:#347FB6"/>
			<stop  offset="0.3453" style="stop-color:#337BB2"/>
			<stop  offset="0.7007" style="stop-color:#3270A6"/>
			<stop  offset="1" style="stop-color:#2F6095"/>
		</linearGradient>
		<path fill="url(#SVGID_10_)" d="M2.3,96.6c0.4,0,6.7-0.8,6.8-0.2c0.1,0.6-0.7,1.3-0.8,2c-0.2,0.8,1.8,1.8,2.4,2.5
			c0.1,0.1,0.1,0.2,0.2,0.3l0.1-0.1c0,0,0.9,0,1.9,0.5c1.1,0.6,1.9,1.9,1.9,1.9c0.7,0.8-1.9,0.9-3.3,0.9c-0.4,1.1-1.6,4.6-1.6,6
			c0,1.5,0.9,3.1,0.9,3.1s-0.7,0.8-1.4,1.4c-1,0.9-1.7,0.1-2.5-0.7c-0.8-0.9-2.8-2.6-3.7-5.3c-1-2.6-0.1-4.4-0.5-4.9
			c-0.3-0.5-1.4-0.7-1.4-0.7s-0.5-1.8-0.8-3.8C0.2,98.2,1.9,96.6,2.3,96.6z"/>
		<path fill="#225077" d="M9.4,115c0,0-3.4-2.7-4.4-6.2c-1-3.5-0.3-5.7-1.5-6.9c-1.2-1.2-0.6-4.8-0.6-4.8s-0.2,2.7,1,4.3
			c1.4,1.8,1,4.9,1.7,7.4c0.5,1.7,4,5.9,4,5.9L9.4,115z"/>
		<path fill="#FFFFFF" d="M9.9,109.5c0,0-0.6-0.6-1.7-1.7c-1.1-1-1.4-1.6-1.4-1.6s1.1,0.6,2.1,1.4c0.3,0.2,1.1,1.1,1.1,1.1
			L9.9,109.5z"/>
		<path fill="#FFFFFF" d="M10.5,107.4c0,0-1.2-1.2-1.6-1.6c-0.4-0.4-1.7-1.3-1.7-1.3s1.6,0.5,2.2,0.9c0.4,0.3,1.3,1.4,1.3,1.4
			L10.5,107.4z"/>
		<path fill="#FFFFFF" d="M11.1,105.6c0,0-1.2-1.2-1.6-1.6c-0.4-0.4-1.7-1.3-1.7-1.3s1.6,0.5,2.2,0.9c0.4,0.3,1.3,1.4,1.3,1.4
			L11.1,105.6z"/>
	</g>
	<path fill="#5B1B1B" d="M49.7,7.2c0.5,0,1.1,0.3,0.7,0.5c-0.2,0.1-0.9,0-1.6,0.3c-0.8,0.3-1.9,1.2-1.9,1.2S47.8,7.1,49.7,7.2z"/>
	
		<linearGradient id="SVGID_11_" gradientUnits="userSpaceOnUse" x1="183.9708" y1="14.0139" x2="183.9708" y2="11.2008" gradientTransform="matrix(-1 0 0 1 226.3909 0)">
		<stop  offset="0" style="stop-color:#EFA08B"/>
		<stop  offset="0.2778" style="stop-color:#E7917D"/>
		<stop  offset="0.6579" style="stop-color:#E08470"/>
		<stop  offset="0.9948" style="stop-color:#DD7F6C"/>
	</linearGradient>
	<path fill="url(#SVGID_11_)" d="M43.4,12.6c0,0-0.9-1.7-1.5-1.4c-0.6,0.2-0.5,1.2-0.5,1.2s0.5-0.5,0.9-0.3c0.4,0.2,0.1,0.7,0,0.9
		C42.2,13.7,43,14,43,14s-0.1-0.6-0.1-1C43,12.7,43.4,12.6,43.4,12.6z"/>
	
		<linearGradient id="SVGID_12_" gradientUnits="userSpaceOnUse" x1="180.0154" y1="18.0433" x2="184.5398" y2="18.0433" gradientTransform="matrix(-1 0 0 1 226.3909 0)">
		<stop  offset="0" style="stop-color:#EFA08B"/>
		<stop  offset="0.6405" style="stop-color:#E48C78"/>
		<stop  offset="0.9948" style="stop-color:#DD7F6C"/>
	</linearGradient>
	<path fill="url(#SVGID_12_)" d="M46.4,19.2c0,0-1.6-0.4-2.3-0.9c-1-0.7-2.3-1.7-2.3-1.7s0.8,1.6,1.5,2.3
		C44.5,19.9,45.9,19.3,46.4,19.2z"/>
	<path fill="#FFA08D" d="M57.4,81.9c0,0,0.9,1.4,0.8,2c-0.1,0.4-1,1.4-1,1.4L57.4,81.9z"/>
	
		<linearGradient id="SVGID_13_" gradientUnits="userSpaceOnUse" x1="202.6425" y1="41.1248" x2="204.3954" y2="41.1248" gradientTransform="matrix(-1 0 0 1 226.3909 0)">
		<stop  offset="0" style="stop-color:#EFA08B"/>
		<stop  offset="8.620072e-02" style="stop-color:#ED9C87"/>
		<stop  offset="0.6354" style="stop-color:#E18773"/>
		<stop  offset="0.9948" style="stop-color:#DD7F6C"/>
	</linearGradient>
	<path fill="url(#SVGID_13_)" d="M22,40.5c1.2-0.2,1.8,1.3,1.8,1.3S22,41.3,22,40.5z"/>
	<path fill="#FFFFFF" d="M49.7,9.6c0,0,0.1,0.7,0.1,1c-0.1,0.5-0.7,0.5-1,0.4c-0.4-0.1-0.8-0.4-0.8-0.4l1-0.6L49.7,9.6z"/>
	<path fill="#3794B5" d="M49.8,9.6c0,0,0.2,1.1-0.2,1.2C49,11.1,49.1,10,49.1,10L49.8,9.6z"/>
	<path fill="#5B1B1B" d="M49.3,10.3c0,0.2,0.1,0.3,0.2,0.3c0.1,0,0.2-0.1,0.2-0.3c0-0.2-0.1-0.3-0.2-0.3
		C49.4,10,49.3,10.2,49.3,10.3z"/>
	<path fill="#FFFFFF" d="M49.4,10.1c0,0.1,0.1,0.2,0.1,0.2c0.1,0,0.1-0.1,0.1-0.2c0-0.1-0.1-0.2-0.1-0.2C49.5,9.9,49.4,10,49.4,10.1
		z"/>
	<path fill="#FFA08D" d="M51.9,13.6c0,0-0.1,0.2-0.3,0.4c-0.2,0.2-0.4,0-0.2-0.2C51.5,13.6,51.9,13.6,51.9,13.6z"/>
	<path fill="#FFA08D" d="M51.2,15.6c0,0-0.8,0.3-1.1,0.2c-0.2-0.1-0.4-0.2,0-0.2C50.7,15.6,51.2,15.6,51.2,15.6z"/>
	<path fill="#5B1B1B" d="M49.8,9.3c0.1-0.1,0.3,0.1,0.2,0.3c-0.2,0.3-0.8,0.6-1.2,0.8c-0.4,0.2-1,0.3-1,0.3S49.2,9.7,49.8,9.3z"/>
	
		<linearGradient id="SVGID_14_" gradientUnits="userSpaceOnUse" x1="176.4475" y1="9.2873" x2="178.2241" y2="9.2873" gradientTransform="matrix(-1 0 0 1 226.3909 0)">
		<stop  offset="0" style="stop-color:#EFA08B"/>
		<stop  offset="0.156" style="stop-color:#EB9984"/>
		<stop  offset="0.6493" style="stop-color:#E18672"/>
		<stop  offset="0.9948" style="stop-color:#DD7F6C"/>
	</linearGradient>
	<path fill="url(#SVGID_14_)" d="M49.9,8.8c0,0-0.5,0.4-0.9,0.6c-0.4,0.2-0.8,0.4-0.8,0.4s1.1-1,1.4-1.1C49.9,8.6,49.9,8.8,49.9,8.8
		z"/>
	
		<linearGradient id="SVGID_15_" gradientUnits="userSpaceOnUse" x1="174.5083" y1="6.1577" x2="189.4894" y2="6.1577" gradientTransform="matrix(-1 0 0 1 226.3909 0)">
		<stop  offset="0" style="stop-color:#B24E2B"/>
		<stop  offset="0.3843" style="stop-color:#AA4727"/>
		<stop  offset="1" style="stop-color:#A34123"/>
	</linearGradient>
	<path fill="url(#SVGID_15_)" d="M51.9,3.5l-0.5,0.7c0,0-3.5-2.1-5.8-2.5c-2.3-0.5-3.9,0.1-5.1,1c-1,0.8-2.7,2.5-2.9,4.1
		c-0.2,2.3-0.1,4.8-0.1,4.8s-1.9-4.7,0.7-7.8C41,0.6,44,0.3,46.5,1.2C48.3,1.8,51.9,3.5,51.9,3.5z"/>
</g>
</svg>
