<?xml version="1.0" encoding="utf-8"?>
<!-- Generator: Adobe Illustrator 24.0.1, SVG Export Plug-In . SVG Version: 6.00 Build 0)  -->
<svg version="1.1" id="Layer_1" xmlns="http://www.w3.org/2000/svg" xmlns:xlink="http://www.w3.org/1999/xlink" x="0px" y="0px"
	 viewBox="0 0 78.7 124.3" enable-background="new 0 0 78.7 124.3" xml:space="preserve">
<g>
	
		<linearGradient id="SVGID_1_" gradientUnits="userSpaceOnUse" x1="-9.9982" y1="33.6671" x2="1.7315" y2="33.6671" gradientTransform="matrix(-1 0 0 1 51.5075 0)">
		<stop  offset="0" style="stop-color:#EFA08B"/>
		<stop  offset="0.6405" style="stop-color:#E48C78"/>
		<stop  offset="0.9948" style="stop-color:#DD7F6C"/>
	</linearGradient>
	<path fill="url(#SVGID_1_)" d="M57.5,25.4c-0.8-0.2-1.9,1.2-2,2.7c0,1.5,0.6,2.6,0.1,3.3c-0.4,0.7-5.9,4.6-5.9,4.6L51,42
		c0,0,2.7-1.1,6.1-5.1c2.4-2.8,4.1-6.6,4.3-8c0.2-1.2-0.6-1.6-1.3-1.3c0.2-1.5-0.8-1.4-1.3-1.2C58.5,24.8,57.5,25.4,57.5,25.4z"/>
	
		<linearGradient id="SVGID_2_" gradientUnits="userSpaceOnUse" x1="-0.8504" y1="15.7909" x2="13.161" y2="15.7909" gradientTransform="matrix(-1 0 0 1 51.5075 0)">
		<stop  offset="0" style="stop-color:#FFC5B3"/>
		<stop  offset="0.3645" style="stop-color:#FBBBA8"/>
		<stop  offset="1" style="stop-color:#EFA08B"/>
	</linearGradient>
	<path fill="url(#SVGID_2_)" d="M39.3,17c-0.4-1.9-0.3-3.7-0.3-3.7s3.7-11.6,9.2-9.8c0.9,0.3,1.7,0.8,2,1.7c0.2,0.5,0.4,1.2,0.4,1.7
		c0.1,1.4-0.3,2.7-0.3,3.4c0,1.4,2.5,2.4,1.9,3.3c-0.2,0.3-1.4,0.4-1.3,1c0.1,0.4,0.5,0.6,0,1c0.3,0.5,0,0.7-0.3,0.8
		c-0.2,0.1-0.5,0.1-0.4,0.6c0.3,1,0.1,1.6-0.7,1.8c-0.5,0.1-1.7,0.3-2.7,2.1c-0.6,1.1,0.2,7.4,0.2,7.4l-8.7-5.3
		C38.3,23.1,39.8,18.8,39.3,17z"/>
	
		<linearGradient id="SVGID_3_" gradientUnits="userSpaceOnUse" x1="7.5395" y1="1.1851" x2="7.5395" y2="18.327" gradientTransform="matrix(-1 0 0 1 51.5075 0)">
		<stop  offset="0" style="stop-color:#7B2B08"/>
		<stop  offset="6.743622e-02" style="stop-color:#792A08"/>
		<stop  offset="0.5419" style="stop-color:#6C2207"/>
		<stop  offset="1" style="stop-color:#682007"/>
	</linearGradient>
	<path fill="url(#SVGID_3_)" d="M50.3,5.2c0,0,0.9-0.9,0.9-1.6c-0.8,0-4.4-2.6-7.5-2.4c-3.7,0.3-6.6,3.1-6.9,5.4
		c-0.3,2.3,0.8,6.8,1.4,8c0.7,1.2,1.2,3.7,1.2,3.7s0.8-0.4,1.3-1.3c-0.1-0.5,0.4-1.9,0.5-3c-0.6-1.4-1.3-3.2,0.3-3.4
		c1.2-0.2,2.2,1.8,2.2,1.8l0.6-0.3c0,0-0.6-3.4,1.2-4.5C45.5,6.3,44.3,3.7,50.3,5.2z"/>
	
		<linearGradient id="SVGID_4_" gradientUnits="userSpaceOnUse" x1="25.73" y1="64.4131" x2="25.73" y2="102.1919" gradientTransform="matrix(-1 0 0 1 51.5075 0)">
		<stop  offset="0" style="stop-color:#FFC5B3"/>
		<stop  offset="0.3645" style="stop-color:#FBBBA8"/>
		<stop  offset="1" style="stop-color:#EFA08B"/>
	</linearGradient>
	<path fill="url(#SVGID_4_)" d="M43.9,73.4c0,0-2.5,5.7-4.2,9.8c-1.9,4.7-5.5,4.3-9.4,6.3c-4.9,2.5-20.5,12.8-20.5,12.8l-2.2-5
		c0,0,3.7-9.8,12.3-16.6c4.9-3.9,6.5-2.7,8-5.8c1.3-2.9,6.4-10.4,6.4-10.4L43.9,73.4z"/>
	<path fill="#098256" d="M44.9,76.2l-5.1,7c0,0-4.4-1.2-6.3-2.5c-4-2.7-5.6-5.8-5.6-5.8s1.4-10.4,4.1-16.2
		C36.8,58.2,44.9,76.2,44.9,76.2z"/>
	
		<linearGradient id="SVGID_5_" gradientUnits="userSpaceOnUse" x1="-3.353" y1="71.2669" x2="-3.353" y2="117.1749" gradientTransform="matrix(-1 0 0 1 51.5075 0)">
		<stop  offset="0" style="stop-color:#FFC5B3"/>
		<stop  offset="0.3645" style="stop-color:#FBBBA8"/>
		<stop  offset="1" style="stop-color:#EFA08B"/>
	</linearGradient>
	<path fill="url(#SVGID_5_)" d="M54.5,71.3c0,0,4.2,1.4,4.9,4.1c1,4.1,1,6.1,1,8.7c0,2.8,1.1,6.1,2.9,13.7
		c0.7,2.7,4.6,15.5,4.6,15.5l-4.8,3.9c0,0-6.6-8.8-10.8-17.4c-3-6.2-1.4-9.1-2.8-11.9c-1.4-2.9-7.8-10.1-7.8-10.1S53,75.2,54.5,71.3
		z"/>
	
		<linearGradient id="SVGID_6_" gradientUnits="userSpaceOnUse" x1="5.5166" y1="56.7204" x2="5.5166" y2="84.0545" gradientTransform="matrix(-1 0 0 1 51.5075 0)">
		<stop  offset="0" style="stop-color:#15A072"/>
		<stop  offset="0.4562" style="stop-color:#119568"/>
		<stop  offset="1" style="stop-color:#098256"/>
	</linearGradient>
	<path fill="url(#SVGID_6_)" d="M57,57.7c-0.3,1.3,0.7,1.8,0.2,5.4c-0.8,5.9,3.3,15.3,3.3,15.3s-4.9,2.6-8.2,4
		c-3.8,1.7-7.1,1.7-7.1,1.7S35.4,72,33.2,68.8c-3.2-4.8-0.8-12-0.8-12S48,56.4,57,57.7z"/>
	
		<linearGradient id="SVGID_7_" gradientUnits="userSpaceOnUse" x1="9.8675" y1="20.8746" x2="9.8675" y2="59.4522" gradientTransform="matrix(-1 0 0 1 51.5075 0)">
		<stop  offset="0" style="stop-color:#347FB6"/>
		<stop  offset="0.3453" style="stop-color:#337BB2"/>
		<stop  offset="0.7007" style="stop-color:#3270A6"/>
		<stop  offset="1" style="stop-color:#2F6095"/>
	</linearGradient>
	<path fill="url(#SVGID_7_)" d="M46.3,23.2c1.5,0.7,3.9,2.1,5.6,4.3c1.7,2.2,0.9,6.9,1.5,10.2c0.8,5.3,4.4,10.2,5,15.5
		c0.5,4-1.7,5.4-1.7,5.4s-11.1,0.8-14.6,0.8c-5.4,0-9.7-2.7-9.7-2.7S33,54,35.6,46.2c0.8-2.5-1.3-10.6-1.7-11.6
		c-1.1,0.4-2.9,2.1-2.9,2.1s-2.6-4.3-6.1-7c2-2.3,4.7-4.8,7.4-7.2c2.6-2.3,4.6-1.6,6.7-1.5c1.3,0.5,5.1,4.6,7.1,5.1
		C47,26.3,46.3,23.9,46.3,23.2z"/>
	<path fill="#295B8A" d="M33.9,34.6c0,0,3.8-1.9,5.2-0.7c1.3,1.1,1.5,2.9,0.7,5.4c-0.7,2.3-3.1,3.1-4,4.3
		C35.6,40.2,33.9,34.6,33.9,34.6z"/>
	
		<linearGradient id="SVGID_8_" gradientUnits="userSpaceOnUse" x1="4.438" y1="40.898" x2="31.608" y2="40.898" gradientTransform="matrix(-1 0 0 1 51.5075 0)">
		<stop  offset="0" style="stop-color:#FFC5B3"/>
		<stop  offset="0.3645" style="stop-color:#FBBBA8"/>
		<stop  offset="1" style="stop-color:#EFA08B"/>
	</linearGradient>
	<path fill="url(#SVGID_8_)" d="M21,36.2c0.9-1.7,4.5-5.9,4.5-5.9s1.4,1,2.9,2.7c1.2,1.4,2.6,3.8,2.6,3.8l-1.4,1.3
		c0,0,6.3,4.2,9.6,5.7c1.8,0.8,3.5,0.4,4.6,0.6c1.3,0.2,4.3,1.2,3.2,2.6c0.2,0.6,0,1.6-0.7,1.8c0.6,0.9-0.1,1.5-0.5,1.6
		c0.3,1.1-0.4,1.4-2.3,0.8c-2.4-0.8-2.9-0.1-5.2-1.9c-0.3-0.2-10.7-3.5-11.7-4.3c-1.6-1.2-4.9-3-5.8-3.6
		C19.2,40.5,20.2,37.7,21,36.2z"/>
	<g>
		
			<linearGradient id="SVGID_9_" gradientUnits="userSpaceOnUse" x1="-26.0051" y1="114.4825" x2="-6.8492" y2="114.4825" gradientTransform="matrix(-1 0 0 1 51.5075 0)">
			<stop  offset="0" style="stop-color:#347FB6"/>
			<stop  offset="0.3453" style="stop-color:#337BB2"/>
			<stop  offset="0.7007" style="stop-color:#3270A6"/>
			<stop  offset="1" style="stop-color:#2F6095"/>
		</linearGradient>
		<path fill="url(#SVGID_9_)" d="M60,111.4c0.6,0.1,0.6,1.6,1.3,1.9c0.7,0.3,2.1-1.4,2.9-1.9c0.1,0,0.2-0.1,0.3-0.1l0-0.1
			c0,0,0.2-0.9,0.9-1.8c0.8-0.9,2.1-1.5,2.1-1.5c0.9-0.5,0.5,2.1,0.2,3.5c0.9,0.6,4.1,2.6,5.3,2.8c1.5,0.3,3.1-0.3,3.1-0.3
			s0.7,0.9,1.1,1.6c0.6,1.1-0.2,1.7-1.2,2.3c-1,0.6-3.1,2.2-5.8,2.6c-2.7,0.4-4.2-0.8-4.7-0.5c-0.6,0.2-1,1.2-1,1.2s-1.8,0.1-3.8,0
			c-1.3-0.1-2.5-2-2.5-2.4C58.4,118.3,59.4,111.3,60,111.4z"/>
		<path fill="#225077" d="M77.3,115.5c0,0-3.3,2.8-6.8,3c-3.5,0.2-5.5-0.9-6.9,0c-1.4,0.9-4.7-0.4-4.7-0.4s2.6,0.8,4.3-0.1
			c2-1,4.8,0,7.3-0.2c1.7-0.1,6.4-2.7,6.4-2.7L77.3,115.5z"/>
		<path fill="#FFFFFF" d="M72.2,113.8c0,0-0.7,0.5-1.9,1.3c-1.2,0.8-1.8,1-1.8,1s0.8-1,1.8-1.8c0.3-0.2,1.3-0.8,1.3-0.8L72.2,113.8z
			"/>
		<path fill="#FFFFFF" d="M70.3,112.9c0,0-1.4,0.9-1.9,1.3c-0.5,0.3-1.6,1.4-1.6,1.4s0.8-1.5,1.3-1.9c0.3-0.3,1.6-1,1.6-1
			L70.3,112.9z"/>
		<path fill="#FFFFFF" d="M68.8,112c0,0-1.4,0.9-1.9,1.3c-0.5,0.3-1.6,1.4-1.6,1.4s0.8-1.5,1.3-1.9c0.3-0.3,1.6-1,1.6-1L68.8,112z"
			/>
	</g>
	<g>
		
			<linearGradient id="SVGID_10_" gradientUnits="userSpaceOnUse" x1="148.4309" y1="186.1122" x2="164.4667" y2="186.1122" gradientTransform="matrix(-0.8711 -0.4911 -0.4911 0.8711 234.1178 17.7578)">
			<stop  offset="0" style="stop-color:#347FB6"/>
			<stop  offset="0.3453" style="stop-color:#337BB2"/>
			<stop  offset="0.7007" style="stop-color:#3270A6"/>
			<stop  offset="1" style="stop-color:#2F6095"/>
		</linearGradient>
		<path fill="url(#SVGID_10_)" d="M2.3,95.1C2.7,95.1,9,94.4,9,95c0.1,0.6-0.7,1.2-0.8,2c-0.2,0.8,1.8,1.8,2.4,2.5
			c0.1,0.1,0.1,0.2,0.2,0.3l0.1-0.1c0,0,0.9,0,1.9,0.5c1.1,0.6,1.9,1.8,1.9,1.8c0.7,0.8-1.9,0.9-3.3,0.9c-0.4,1.1-1.6,4.6-1.6,5.8
			c0,1.5,0.9,3,0.9,3s-0.7,0.8-1.3,1.4c-1,0.8-1.6,0.1-2.5-0.7c-0.8-0.9-2.7-2.6-3.7-5.2c-0.9-2.6-0.1-4.3-0.5-4.8
			c-0.3-0.5-1.4-0.7-1.4-0.7s-0.5-1.8-0.8-3.7C0.3,96.7,1.9,95.2,2.3,95.1z"/>
		<path fill="#225077" d="M9.3,113.3c0,0-3.4-2.7-4.3-6.1c-1-3.4-0.3-5.6-1.5-6.8c-1.2-1.2-0.6-4.7-0.6-4.7s-0.2,2.7,1,4.3
			c1.4,1.8,1,4.8,1.7,7.2c0.5,1.7,4,5.8,4,5.8L9.3,113.3z"/>
		<path fill="#FFFFFF" d="M9.9,107.8c0,0-0.6-0.6-1.7-1.6c-1-1-1.3-1.6-1.3-1.6S8,105.2,9,106c0.3,0.2,1.1,1.1,1.1,1.1L9.9,107.8z"
			/>
		<path fill="#FFFFFF" d="M10.5,105.7c0,0-1.2-1.2-1.6-1.6c-0.4-0.4-1.7-1.3-1.7-1.3s1.6,0.5,2.2,0.9c0.4,0.3,1.3,1.4,1.3,1.4
			L10.5,105.7z"/>
		<path fill="#FFFFFF" d="M11,104c0,0-1.2-1.2-1.6-1.6c-0.4-0.4-1.7-1.3-1.7-1.3s1.6,0.5,2.2,0.9c0.4,0.3,1.3,1.4,1.3,1.4L11,104z"
			/>
	</g>
	<path fill="#5B1B1B" d="M49.3,7.3c0.5,0,1,0.3,0.7,0.5c-0.2,0.1-0.9,0-1.6,0.3c-0.8,0.3-1.8,1.2-1.8,1.2S47.4,7.2,49.3,7.3z"/>
	
		<linearGradient id="SVGID_11_" gradientUnits="userSpaceOnUse" x1="9.4528" y1="14.0015" x2="9.4528" y2="11.2375" gradientTransform="matrix(-1 0 0 1 51.5075 0)">
		<stop  offset="0" style="stop-color:#EFA08B"/>
		<stop  offset="0.2778" style="stop-color:#E7917D"/>
		<stop  offset="0.6579" style="stop-color:#E08470"/>
		<stop  offset="0.9948" style="stop-color:#DD7F6C"/>
	</linearGradient>
	<path fill="url(#SVGID_11_)" d="M43,12.6c0,0-0.8-1.6-1.4-1.4c-0.6,0.2-0.5,1.2-0.5,1.2s0.5-0.5,0.9-0.3c0.4,0.2,0.1,0.7,0,0.9
		c-0.2,0.6,0.6,0.9,0.6,0.9s-0.1-0.6-0.1-0.9C42.6,12.7,43,12.6,43,12.6z"/>
	
		<linearGradient id="SVGID_12_" gradientUnits="userSpaceOnUse" x1="5.5356" y1="17.9607" x2="10.0163" y2="17.9607" gradientTransform="matrix(-1 0 0 1 51.5075 0)">
		<stop  offset="0" style="stop-color:#EFA08B"/>
		<stop  offset="0.6405" style="stop-color:#E48C78"/>
		<stop  offset="0.9948" style="stop-color:#DD7F6C"/>
	</linearGradient>
	<path fill="url(#SVGID_12_)" d="M46,19.1c0,0-1.6-0.4-2.2-0.8c-1-0.7-2.2-1.7-2.2-1.7s0.8,1.6,1.5,2.2C44.1,19.8,45.5,19.2,46,19.1
		z"/>
	<path fill="#FFA08D" d="M56.9,80.7c0,0,0.9,1.4,0.7,2c-0.1,0.4-1,1.4-1,1.4L56.9,80.7z"/>
	
		<linearGradient id="SVGID_13_" gradientUnits="userSpaceOnUse" x1="27.944" y1="40.64" x2="29.6799" y2="40.64" gradientTransform="matrix(-1 0 0 1 51.5075 0)">
		<stop  offset="0" style="stop-color:#EFA08B"/>
		<stop  offset="8.620072e-02" style="stop-color:#ED9C87"/>
		<stop  offset="0.6354" style="stop-color:#E18773"/>
		<stop  offset="0.9948" style="stop-color:#DD7F6C"/>
	</linearGradient>
	<path fill="url(#SVGID_13_)" d="M21.8,40c1.2-0.2,1.7,1.3,1.7,1.3S21.8,40.9,21.8,40z"/>
	<path fill="#FFFFFF" d="M49.3,9.7c0,0,0.1,0.7,0.1,1c-0.1,0.5-0.6,0.5-1,0.4c-0.4-0.1-0.8-0.4-0.8-0.4l1-0.6L49.3,9.7z"/>
	<path fill="#3794B5" d="M49.3,9.7c0,0,0.2,1.1-0.2,1.2c-0.5,0.2-0.5-0.9-0.5-0.9L49.3,9.7z"/>
	<path fill="#5B1B1B" d="M48.9,10.4c0,0.2,0.1,0.3,0.2,0.3c0.1,0,0.2-0.1,0.2-0.3c0-0.2-0.1-0.3-0.2-0.3
		C48.9,10.1,48.9,10.2,48.9,10.4z"/>
	<path fill="#FFFFFF" d="M49,10.2c0,0.1,0.1,0.2,0.1,0.2c0.1,0,0.1-0.1,0.1-0.2c0-0.1-0.1-0.2-0.1-0.2C49.1,9.9,49,10,49,10.2z"/>
	<path fill="#FFA08D" d="M51.4,13.6c0,0-0.1,0.2-0.3,0.4c-0.2,0.2-0.4,0-0.2-0.2C51.1,13.6,51.4,13.6,51.4,13.6z"/>
	<path fill="#FFA08D" d="M50.8,15.5c0,0-0.8,0.3-1.1,0.2c-0.2-0.1-0.3-0.2,0-0.2C50.2,15.6,50.8,15.5,50.8,15.5z"/>
	<path fill="#5B1B1B" d="M49.4,9.3c0.1-0.1,0.3,0.1,0.2,0.2c-0.2,0.3-0.8,0.6-1.2,0.8c-0.4,0.2-1,0.3-1,0.3S48.8,9.8,49.4,9.3z"/>
	
		<linearGradient id="SVGID_14_" gradientUnits="userSpaceOnUse" x1="2.0023" y1="9.3573" x2="3.7617" y2="9.3573" gradientTransform="matrix(-1 0 0 1 51.5075 0)">
		<stop  offset="0" style="stop-color:#EFA08B"/>
		<stop  offset="0.156" style="stop-color:#EB9984"/>
		<stop  offset="0.6493" style="stop-color:#E18672"/>
		<stop  offset="0.9948" style="stop-color:#DD7F6C"/>
	</linearGradient>
	<path fill="url(#SVGID_14_)" d="M49.5,8.9c0,0-0.5,0.4-0.9,0.6c-0.4,0.2-0.8,0.4-0.8,0.4s1.1-1,1.4-1.1C49.5,8.6,49.5,8.9,49.5,8.9
		z"/>
	
		<linearGradient id="SVGID_15_" gradientUnits="userSpaceOnUse" x1="8.177903e-02" y1="6.2822" x2="14.9181" y2="6.2822" gradientTransform="matrix(-1 0 0 1 51.5075 0)">
		<stop  offset="0" style="stop-color:#B24E2B"/>
		<stop  offset="0.3843" style="stop-color:#AA4727"/>
		<stop  offset="1" style="stop-color:#A34123"/>
	</linearGradient>
	<path fill="url(#SVGID_15_)" d="M51.4,3.6l-0.5,0.7c0,0-3.5-2-5.7-2.5c-2.3-0.5-3.8,0.1-5,1c-1,0.8-2.7,2.5-2.8,4
		c-0.2,2.3-0.1,4.8-0.1,4.8S35.3,7,38,3.9c2.6-3.1,5.6-3.4,8.1-2.5C47.9,2,51.4,3.6,51.4,3.6z"/>
</g>
</svg>
