<svg id="Layer_1" data-name="Layer 1" xmlns="http://www.w3.org/2000/svg" xmlns:xlink="http://www.w3.org/1999/xlink" viewBox="0 0 73.84 120.75"><defs><style>.cls-1{fill:url(#linear-gradient);}.cls-2{fill:url(#linear-gradient-2);}.cls-3{fill:url(#linear-gradient-3);}.cls-4{fill:url(#linear-gradient-4);}.cls-5{fill:#098256;}.cls-6{fill:url(#linear-gradient-5);}.cls-7{fill:url(#linear-gradient-6);}.cls-8{fill:url(#Degradado_sin_nombre_5);}.cls-9{fill:#295b8a;}.cls-10{fill:url(#linear-gradient-7);}.cls-11{fill:url(#Degradado_sin_nombre_5-2);}.cls-12{fill:#225077;}.cls-13{fill:#fff;}.cls-14{fill:url(#Degradado_sin_nombre_5-3);}.cls-15{fill:#5b1b1b;}.cls-16{fill:url(#linear-gradient-8);}.cls-17{fill:url(#linear-gradient-9);}.cls-18{fill:#ffa08d;}.cls-19{fill:url(#linear-gradient-10);}.cls-20{fill:#3794b5;}.cls-21{fill:url(#linear-gradient-11);}.cls-22{fill:url(#linear-gradient-12);}</style><linearGradient id="linear-gradient" x1="-232.09" y1="37.94" x2="-221.45" y2="37.94" gradientTransform="matrix(-1, 0, 0, 1, -174.59, 0)" gradientUnits="userSpaceOnUse"><stop offset="0" stop-color="#efa08b"/><stop offset="0.64" stop-color="#e48c78"/><stop offset="0.99" stop-color="#dd7f6c"/></linearGradient><linearGradient id="linear-gradient-2" x1="-224.19" y1="19.49" x2="-212.13" y2="19.49" gradientTransform="matrix(-1, 0, 0, 1, -174.59, 0)" gradientUnits="userSpaceOnUse"><stop offset="0" stop-color="#ffc5b3"/><stop offset="0.36" stop-color="#fbbba8"/><stop offset="1" stop-color="#efa08b"/></linearGradient><linearGradient id="linear-gradient-3" x1="-216.57" y1="7.41" x2="-216.57" y2="22.76" gradientTransform="matrix(-1, 0, 0, 1, -174.59, 0)" gradientUnits="userSpaceOnUse"><stop offset="0" stop-color="#7b2b08"/><stop offset="0.07" stop-color="#792a08"/><stop offset="0.54" stop-color="#6c2207"/><stop offset="1" stop-color="#682007"/></linearGradient><linearGradient id="linear-gradient-4" x1="-200.06" y1="64.03" x2="-200.06" y2="97.87" xlink:href="#linear-gradient-2"/><linearGradient id="linear-gradient-5" x1="-227.85" y1="70.17" x2="-227.85" y2="111.28" xlink:href="#linear-gradient-2"/><linearGradient id="linear-gradient-6" x1="-217.9" y1="57.17" x2="-217.9" y2="80.79" gradientTransform="matrix(-1, 0, 0, 1, -174.59, 0)" gradientUnits="userSpaceOnUse"><stop offset="0" stop-color="#15a072"/><stop offset="0.46" stop-color="#119568"/><stop offset="1" stop-color="#098256"/></linearGradient><linearGradient id="Degradado_sin_nombre_5" x1="-213.15" y1="25.18" x2="-213.15" y2="59.59" gradientTransform="matrix(-1, 0, 0, 1, -174.59, 0)" gradientUnits="userSpaceOnUse"><stop offset="0" stop-color="#347fb6"/><stop offset="0.35" stop-color="#337bb2"/><stop offset="0.7" stop-color="#3270a6"/><stop offset="1" stop-color="#2f6095"/></linearGradient><linearGradient id="linear-gradient-7" x1="-219.39" y1="42.83" x2="-195.71" y2="42.83" xlink:href="#linear-gradient-2"/><linearGradient id="Degradado_sin_nombre_5-2" x1="55.05" y1="108.87" x2="72.43" y2="108.87" gradientTransform="matrix(1, 0, 0, 1, 0, 0)" xlink:href="#Degradado_sin_nombre_5"/><linearGradient id="Degradado_sin_nombre_5-3" x1="-136.95" y1="106.17" x2="-122.48" y2="106.17" gradientTransform="matrix(-0.87, -0.49, -0.49, 0.87, -52.93, -57.58)" xlink:href="#Degradado_sin_nombre_5"/><linearGradient id="linear-gradient-8" x1="-214.84" y1="18.89" x2="-214.84" y2="16.41" gradientTransform="matrix(-1, 0, 0, 1, -174.59, 0)" gradientUnits="userSpaceOnUse"><stop offset="0" stop-color="#efa08b"/><stop offset="0.28" stop-color="#e7917d"/><stop offset="0.66" stop-color="#e08470"/><stop offset="0.99" stop-color="#dd7f6c"/></linearGradient><linearGradient id="linear-gradient-9" x1="-218.9" y1="21.49" x2="-213.94" y2="21.49" xlink:href="#linear-gradient"/><linearGradient id="linear-gradient-10" x1="-199.22" y1="42.15" x2="-197.64" y2="42.15" gradientTransform="matrix(-1, 0, 0, 1, -174.59, 0)" gradientUnits="userSpaceOnUse"><stop offset="0" stop-color="#efa08b"/><stop offset="0.09" stop-color="#ed9c87"/><stop offset="0.64" stop-color="#e18773"/><stop offset="0.99" stop-color="#dd7f6c"/></linearGradient><linearGradient id="linear-gradient-11" x1="-221.6" y1="14.73" x2="-220" y2="14.73" gradientTransform="matrix(-1, 0, 0, 1, -174.59, 0)" gradientUnits="userSpaceOnUse"><stop offset="0" stop-color="#efa08b"/><stop offset="0.16" stop-color="#eb9984"/><stop offset="0.65" stop-color="#e18672"/><stop offset="0.99" stop-color="#dd7f6c"/></linearGradient><linearGradient id="linear-gradient-12" x1="-223.34" y1="11.97" x2="-209.88" y2="11.97" gradientTransform="matrix(-1, 0, 0, 1, -174.59, 0)" gradientUnits="userSpaceOnUse"><stop offset="0" stop-color="#b24e2b"/><stop offset="0.38" stop-color="#aa4727"/><stop offset="1" stop-color="#a34123"/></linearGradient></defs><title>men</title><path class="cls-1" d="M53.86,30.55c-.76-.18-1.75,1-1.78,2.39s.5,2.32.1,3S46.86,40,46.86,40L48,45.44s5.17-3.4,7.07-6.19a12.57,12.57,0,0,0,2.41-5.6c.17-1.07-.5-1.47-1.14-1.15.2-1.32-.72-1.21-1.2-1.09C54.75,30,53.86,30.55,53.86,30.55Z"/><path class="cls-2" d="M38.14,21.5c-.4-1.67-.6-3.3-.6-3.3s3.35-10.38,8.37-8.77A2.47,2.47,0,0,1,47.69,11a6.08,6.08,0,0,1,.39,1.55,27,27,0,0,1-.29,3c0,1.28,2.28,2.18,1.72,2.93-.18.25-1.28.34-1.21.86s.46.53,0,.93c.31.46,0,.59-.25.74s-.47.13-.33.57c.29.88.11,1.41-.65,1.58-.48.11-2.53.09-2.79,1.17s-.42,5.37-.42,5.37l-6.31-2.89S38.53,23.17,38.14,21.5Z"/><path class="cls-3" d="M47.69,11a3.49,3.49,0,0,0,.86-1.44c-.76,0-4-2.35-6.79-2.12-3.39.29-6,2.82-6.29,4.87a17.65,17.65,0,0,0,1.29,7.19c.59,1.12,1.44,3.28,1.44,3.28A8.7,8.7,0,0,0,39,21.62c-.05-.48.4-1.69.48-2.7-.56-1.28-1.14-2.84.3-3,1.09-.15,2,1.6,2,1.6l.51-.28s-.52-3,1.09-4C43.34,12,42.33,9.65,47.69,11Z"/><path class="cls-4" d="M41.94,72.06a42.05,42.05,0,0,0-6.44,7.3,29.93,29.93,0,0,1-3,4.3A4.08,4.08,0,0,1,30,85.26C25.18,86.79,11,97.87,11,97.87L9,93.43a91.7,91.7,0,0,1,8.35-9.94A15.86,15.86,0,0,1,22,79.94a11.94,11.94,0,0,0,5.51-5.36C28.67,72,33.17,64,33.17,64Z"/><path class="cls-5" d="M42.79,74.55l-5.94,4.87a9.55,9.55,0,0,1-3.34-1.79,30.88,30.88,0,0,1-4.89-6.08l5.47-10.86Z"/><path class="cls-6" d="M51.56,70.17s1.73,3.6,2.76,5.84c1.11,2.43,1.74,3.64,1.74,5.95,0,2.5.54,6.45,2.87,12.57.89,2.32,4.81,13.26,4.81,13.26l-4.34,3.49S54,102.89,50.19,95.21c-2.73-5.57-2.07-9.83-3.33-12.41A32.89,32.89,0,0,0,42.79,77S50.15,73.71,51.56,70.17Z"/><path class="cls-7" d="M48.56,58.7s1.31,5,1.57,5.62c2,5,4.19,11.69,4.19,11.69a9.81,9.81,0,0,1-4.23,3.23,18.8,18.8,0,0,1-6.48,1.55s-6.34-9.46-8.32-12.33c-2.94-4.25-3-11.29-3-11.29Z"/><path class="cls-8" d="M43.82,27.66A12.49,12.49,0,0,1,48.68,31c1.15,1.36,1,5.88,1.44,8.86.73,4.72,1.24,8.86.38,13.29a27.26,27.26,0,0,1-1.94,5.59,63.06,63.06,0,0,1-8.31.89,13.46,13.46,0,0,1-7.94-2.42s-.27-2.44,2.08-9.46c.76-2.25-1.17-9.53-1.58-10.35a12.44,12.44,0,0,0-2.65,1.89,11.6,11.6,0,0,0-4-5.78c1.83-2,3.08-3.41,5.27-5.91s4.55-2.41,6.46-2.37c1.17.43,3.69,2.71,4.88,3.23C43.64,28.78,43.82,28.28,43.82,27.66Z"/><path class="cls-9" d="M32.81,37.36s3.47-1.7,4.73-.66,1.35,2.58.62,4.85c-.67,2.09-2.83,2.79-3.63,3.89A44.36,44.36,0,0,0,32.81,37.36Z"/><path class="cls-10" d="M21.9,39.39c.82-1.49,4.28-5.92,4.28-5.92a6.07,6.07,0,0,1,2.26,1.83,11.65,11.65,0,0,1,1.72,4l-1.31,1.19a90.4,90.4,0,0,0,8.69,5.15c1.61.73,3.19.38,4.14.55,1.2.21,3.89,1,2.91,2.33a1.21,1.21,0,0,1-.66,1.62.89.89,0,0,1-.5,1.42c.26,1-.57.75-2.28.21-2.19-.7-3-.32-5.09-1.89-.26-.18-2.08-.54-3.25-.89-5.21-1.56-5.7-2.06-6.63-2.74-1.41-1-3.54-2.84-4.37-3.37C20.64,42.08,21.18,40.71,21.9,39.39Z"/><path class="cls-11" d="M56.58,106.09c.56.07.56,1.39,1.19,1.67s1.88-1.25,2.64-1.67a2.15,2.15,0,0,1,.27-.1l0-.09a3.94,3.94,0,0,1,.84-1.61,5.48,5.48,0,0,1,2-1.32c.85-.46.45,1.84.18,3.09a25.27,25.27,0,0,0,4.81,2.54,6.43,6.43,0,0,0,2.84-.23,13.27,13.27,0,0,1,1,1.46c.56,1-.19,1.48-1.09,2a13.22,13.22,0,0,1-5.23,2.3c-2.44.35-3.78-.7-4.3-.49s-.91,1.12-.91,1.12-1.64.09-3.43,0a3.08,3.08,0,0,1-2.23-2.17C55.12,112.29,56,106,56.58,106.09Z"/><path class="cls-12" d="M72.24,109.83a12.86,12.86,0,0,1-6.18,2.67c-3.17.21-5-.81-6.23,0s-4.24-.34-4.24-.34a6.29,6.29,0,0,0,3.94-.11c1.84-.93,4.39,0,6.65-.14,1.54-.11,5.85-2.45,5.85-2.45Z"/><path class="cls-13" d="M67.58,108.3s-.67.44-1.75,1.18a6.27,6.27,0,0,1-1.64.89,13,13,0,0,1,1.64-1.61C66.1,108.54,67,108,67,108Z"/><path class="cls-13" d="M65.88,107.42l-1.69,1.13a18.46,18.46,0,0,0-1.47,1.22A12.28,12.28,0,0,1,63.91,108a10.92,10.92,0,0,1,1.5-.88Z"/><path class="cls-13" d="M64.49,106.62l-1.7,1.13c-.45.3-1.45,1.22-1.45,1.22a10.74,10.74,0,0,1,1.18-1.75,10.92,10.92,0,0,1,1.5-.88Z"/><path class="cls-14" d="M4.19,91.56c.35,0,6.22-.64,6.27-.08s-.8,1-.94,1.71,1.62,1.57,2.19,2.24a1.11,1.11,0,0,1,.16.24l.07-.06a3.82,3.82,0,0,1,1.75.48,5.33,5.33,0,0,1,1.71,1.63c.63.73-1.71.83-3,.82A24.7,24.7,0,0,0,11,103.78a6.35,6.35,0,0,0,.82,2.73,13.22,13.22,0,0,1-1.22,1.26c-.87.76-1.49.13-2.23-.64A13.24,13.24,0,0,1,5,102.51c-.85-2.31-.11-3.85-.43-4.3a2.48,2.48,0,0,0-1.28-.66S2.83,96,2.54,94.2A3,3,0,0,1,4.19,91.56Z"/><path class="cls-12" d="M10.55,107.77a12.89,12.89,0,0,1-3.92-5.47c-.87-3.06-.25-5.06-1.33-6.1S4.74,92,4.74,92a6.24,6.24,0,0,0,.94,3.83c1.29,1.61.91,4.29,1.54,6.47.43,1.49,3.62,5.21,3.62,5.21Z"/><path class="cls-13" d="M11.06,102.89l-1.52-1.45A6.25,6.25,0,0,1,8.32,100a12.93,12.93,0,0,1,1.92,1.27c.27.22,1,1,1,1Z"/><path class="cls-13" d="M11.57,101.05,10.1,99.63c-.39-.38-1.5-1.17-1.5-1.17a11.3,11.3,0,0,1,2,.79,11.33,11.33,0,0,1,1.18,1.28Z"/><path class="cls-13" d="M12.06,99.52,10.59,98.1c-.39-.38-1.5-1.17-1.5-1.17a11.3,11.3,0,0,1,2,.79A11.33,11.33,0,0,1,12.23,99Z"/><path class="cls-15" d="M46.8,12.87c.42,0,1,.29.6.48a8.11,8.11,0,0,0-1.46.26,8.18,8.18,0,0,0-1.67,1.05A2.91,2.91,0,0,1,46.8,12.87Z"/><path class="cls-16" d="M41.15,17.67s-.77-1.46-1.31-1.24-.49,1.08-.49,1.08.43-.45.84-.25.05.62,0,.79c-.17.55.57.84.57.84a3.24,3.24,0,0,1-.06-.84C40.75,17.74,41.15,17.67,41.15,17.67Z"/><path class="cls-17" d="M44.32,23.24A19.2,19.2,0,0,1,42,21.8c-1.2-.94-2.64-2.26-2.64-2.26a11.67,11.67,0,0,0,1.8,3A2.83,2.83,0,0,0,44.32,23.24Z"/><path class="cls-18" d="M54.19,80.38s.78,1.26.68,1.77a4.92,4.92,0,0,1-.9,1.23Z"/><path class="cls-19" d="M23.06,41.57c1.07-.17,1.57,1.17,1.57,1.17S23,42.34,23.06,41.57Z"/><path class="cls-13" d="M46.78,15a2.46,2.46,0,0,1,0,.89c-.13.41-.58.42-.94.33a2,2,0,0,1-.68-.36l.86-.51Z"/><path class="cls-20" d="M46.86,15s.16,1-.19,1.08-.45-.77-.45-.77Z"/><path class="cls-15" d="M46.43,15.64c0,.14.07.25.16.25s.15-.11.15-.25-.07-.24-.15-.24S46.43,15.51,46.43,15.64Z"/><path class="cls-13" d="M46.55,15.44c0,.1.06.18.12.18s.11-.08.11-.18-.05-.18-.11-.18S46.55,15.34,46.55,15.44Z"/><path class="cls-18" d="M48.76,18.5a1.35,1.35,0,0,1-.29.34c-.21.2-.39,0-.21-.17A.83.83,0,0,1,48.76,18.5Z"/><path class="cls-18" d="M48.19,20.27s-.7.31-1,.16-.31-.17,0-.17Z"/><path class="cls-15" d="M46.91,14.71c.08-.06.23.09.14.22a2.92,2.92,0,0,1-1.09.72,3.76,3.76,0,0,1-.91.25S46.37,15.08,46.91,14.71Z"/><path class="cls-21" d="M47,14.33s-.48.33-.84.53-.75.4-.75.4a13.79,13.79,0,0,1,1.25-1C47,14.09,47,14.33,47,14.33Z"/><path class="cls-22" d="M48.76,9.61l-.47.59A23.5,23.5,0,0,0,43.08,8a5.17,5.17,0,0,0-4.57.92c-.94.74-2.45,2.23-2.57,3.58a36.31,36.31,0,0,0,0,4.27s-1.73-4.14.67-6.88,5.09-3,7.32-2.27C45.52,8.13,48.76,9.61,48.76,9.61Z"/></svg>