<svg id="Layer_1" data-name="Layer 1" xmlns="http://www.w3.org/2000/svg" xmlns:xlink="http://www.w3.org/1999/xlink" viewBox="0 0 73.84 120.75"><defs><style>.cls-1{fill:url(#linear-gradient);}.cls-2{fill:url(#linear-gradient-2);}.cls-3{fill:url(#linear-gradient-3);}.cls-4{fill:url(#linear-gradient-4);}.cls-5{fill:url(#linear-gradient-5);}.cls-6{fill:#098256;}.cls-7{fill:url(#linear-gradient-6);}.cls-8{fill:url(#linear-gradient-7);}.cls-9{fill:url(#Degradado_sin_nombre_5);}.cls-10{fill:#295b8a;}.cls-11{fill:url(#linear-gradient-8);}.cls-12{fill:url(#Degradado_sin_nombre_5-2);}.cls-13{fill:#225077;}.cls-14{fill:#fff;}.cls-15{fill:url(#Degradado_sin_nombre_5-3);}.cls-16{fill:#5b1b1b;}.cls-17{fill:url(#linear-gradient-9);}.cls-18{fill:url(#linear-gradient-10);}.cls-19{fill:#ffa08d;}.cls-20{fill:url(#linear-gradient-11);}.cls-21{fill:#3794b5;}.cls-22{fill:url(#linear-gradient-12);}.cls-23{fill:url(#linear-gradient-13);}</style><linearGradient id="linear-gradient" x1="-402.82" y1="21.08" x2="-395.22" y2="21.08" gradientTransform="matrix(-1, 0, 0, 1, -356.22, 0)" gradientUnits="userSpaceOnUse"><stop offset="0" stop-color="#ffc5b3"/><stop offset="0.36" stop-color="#fbbba8"/><stop offset="1" stop-color="#efa08b"/></linearGradient><linearGradient id="linear-gradient-2" x1="-415.19" y1="35.06" x2="-404.54" y2="35.06" gradientTransform="matrix(-1, 0, 0, 1, -356.22, 0)" gradientUnits="userSpaceOnUse"><stop offset="0" stop-color="#efa08b"/><stop offset="0.64" stop-color="#e48c78"/><stop offset="0.99" stop-color="#dd7f6c"/></linearGradient><linearGradient id="linear-gradient-3" x1="-407.28" y1="13.37" x2="-395.22" y2="13.37" xlink:href="#linear-gradient"/><linearGradient id="linear-gradient-4" x1="-399.67" y1="4.53" x2="-399.67" y2="19.88" gradientTransform="matrix(-1, 0, 0, 1, -356.22, 0)" gradientUnits="userSpaceOnUse"><stop offset="0" stop-color="#7b2b08"/><stop offset="0.07" stop-color="#792a08"/><stop offset="0.54" stop-color="#6c2207"/><stop offset="1" stop-color="#682007"/></linearGradient><linearGradient id="linear-gradient-5" x1="-383.15" y1="61.16" x2="-383.15" y2="94.99" xlink:href="#linear-gradient"/><linearGradient id="linear-gradient-6" x1="-411.33" y1="67.3" x2="-411.33" y2="108.41" xlink:href="#linear-gradient"/><linearGradient id="linear-gradient-7" x1="-401.46" y1="54.85" x2="-401.46" y2="77.92" gradientTransform="matrix(-1, 0, 0, 1, -356.22, 0)" gradientUnits="userSpaceOnUse"><stop offset="0" stop-color="#15a072"/><stop offset="0.46" stop-color="#119568"/><stop offset="1" stop-color="#098256"/></linearGradient><linearGradient id="Degradado_sin_nombre_5" x1="-395.84" y1="22.31" x2="-395.84" y2="56.71" gradientTransform="matrix(-1, 0, 0, 1, -356.22, 0)" gradientUnits="userSpaceOnUse"><stop offset="0" stop-color="#347fb6"/><stop offset="0.35" stop-color="#337bb2"/><stop offset="0.7" stop-color="#3270a6"/><stop offset="1" stop-color="#2f6095"/></linearGradient><linearGradient id="linear-gradient-8" x1="-402.48" y1="39.95" x2="-379.12" y2="39.95" xlink:href="#linear-gradient"/><linearGradient id="Degradado_sin_nombre_5-2" x1="-430.11" y1="106" x2="-412.72" y2="106" xlink:href="#Degradado_sin_nombre_5"/><linearGradient id="Degradado_sin_nombre_5-3" x1="-306.74" y1="58.33" x2="-292.27" y2="58.33" gradientTransform="matrix(-0.87, -0.49, -0.49, 0.87, -222.86, -102.18)" xlink:href="#Degradado_sin_nombre_5"/><linearGradient id="linear-gradient-9" x1="-397.93" y1="16.01" x2="-397.93" y2="13.53" gradientTransform="matrix(-1, 0, 0, 1, -356.22, 0)" gradientUnits="userSpaceOnUse"><stop offset="0" stop-color="#efa08b"/><stop offset="0.28" stop-color="#e7917d"/><stop offset="0.66" stop-color="#e08470"/><stop offset="0.99" stop-color="#dd7f6c"/></linearGradient><linearGradient id="linear-gradient-10" x1="-402.53" y1="19.07" x2="-397.03" y2="19.07" xlink:href="#linear-gradient-2"/><linearGradient id="linear-gradient-11" x1="-382.31" y1="39.27" x2="-380.74" y2="39.27" gradientTransform="matrix(-1, 0, 0, 1, -356.22, 0)" gradientUnits="userSpaceOnUse"><stop offset="0" stop-color="#efa08b"/><stop offset="0.09" stop-color="#ed9c87"/><stop offset="0.64" stop-color="#e18773"/><stop offset="0.99" stop-color="#dd7f6c"/></linearGradient><linearGradient id="linear-gradient-12" x1="-404.69" y1="11.85" x2="-403.09" y2="11.85" gradientTransform="matrix(-1, 0, 0, 1, -356.22, 0)" gradientUnits="userSpaceOnUse"><stop offset="0" stop-color="#efa08b"/><stop offset="0.16" stop-color="#eb9984"/><stop offset="0.65" stop-color="#e18672"/><stop offset="0.99" stop-color="#dd7f6c"/></linearGradient><linearGradient id="linear-gradient-13" x1="-406.43" y1="9.1" x2="-392.97" y2="9.1" gradientTransform="matrix(-1, 0, 0, 1, -356.22, 0)" gradientUnits="userSpaceOnUse"><stop offset="0" stop-color="#b24e2b"/><stop offset="0.38" stop-color="#aa4727"/><stop offset="1" stop-color="#a34123"/></linearGradient></defs><title>men</title><path class="cls-1" d="M46.6,19.66a3.57,3.57,0,0,0-1.12,1.82,41.67,41.67,0,0,0-.17,5.36L39,24s1-3.66.59-5.33S39,15.33,39,15.33Z"/><path class="cls-2" d="M55.31,27.67c-.76-.18-1.74,1-1.77,2.39s1.26,2.56.86,3.18-6.08,3.86-6.08,3.86l1.14,5.46s5.17-3.4,7.07-6.19a12.65,12.65,0,0,0,2.41-5.6c.16-1.07-.5-1.46-1.14-1.14.19-1.33-.73-1.22-1.2-1.09C56.21,27.11,55.31,27.67,55.31,27.67Z"/><path class="cls-3" d="M47.37,6.56A2.46,2.46,0,0,1,49.15,8.1a6.48,6.48,0,0,1,.39,1.56,26.73,26.73,0,0,1-.29,3c0,1.28,2.28,2.19,1.72,2.94-.18.24-1.28.34-1.21.85s.45.53,0,.93c.31.47,0,.59-.26.75s-.46.12-.32.56c.47,1.45-.33,2-2.86,1.45a11.47,11.47,0,0,1-3.73-1.78A27.21,27.21,0,0,1,39,15.33S42.34,5,47.37,6.56Z"/><path class="cls-4" d="M49.15,8.1A3.43,3.43,0,0,0,50,6.67c-.76,0-4-2.36-6.79-2.12-3.4.29-6,2.82-6.3,4.86a17.9,17.9,0,0,0,1.29,7.2c.59,1.11,1.45,3.27,1.45,3.27a8.93,8.93,0,0,0,.79-1.13c-.05-.49.39-1.7.48-2.7-.57-1.29-1.14-2.84.29-3,1.1-.15,2,1.61,2,1.61l.5-.29s-.51-3,1.1-4C44.8,9.08,43.78,6.77,49.15,8.1Z"/><path class="cls-5" d="M43.4,69.18A42.28,42.28,0,0,0,37,76.49a30.56,30.56,0,0,1-3,4.29,4.07,4.07,0,0,1-2.52,1.6C26.63,83.92,12.47,95,12.47,95l-2-4.44s4.6-5,9.17-9.58c2.16-2.18,3.8-3.91,5.42-4.79,1.82-1,3.51-1.05,4-2.47C30,71,34.63,61.16,34.63,61.16Z"/><path class="cls-6" d="M44.25,71.68l-5.94,4.86A9.46,9.46,0,0,1,35,74.75a20.69,20.69,0,0,1-4.2-5.56l4.78-11.37Z"/><path class="cls-7" d="M53,67.3s1.74,3.59,2.76,5.84c1.11,2.43,1.75,3.63,1.75,5.94,0,2.5.54,6.45,2.87,12.57.88,2.32,4.81,13.26,4.81,13.26l-4.34,3.5s-6.39-12-9.18-16.53c-3.26-5.28-1.36-9.46-2.62-12a20.21,20.21,0,0,0-4-5.06S51.61,70.83,53,67.3Z"/><path class="cls-8" d="M50,55.82s1.32,5,1.58,5.62c2,5,4.18,11.7,4.18,11.7a9.85,9.85,0,0,1-4.22,3.22,19,19,0,0,1-6.48,1.56s-5.73-9.57-7.71-12.44c-3-4.26-2.66-10.63-2.66-10.63Z"/><path class="cls-9" d="M45.28,24.79a12.45,12.45,0,0,1,4.86,3.3c1.14,1.35,1.54,5.84,1.44,8.86-.06,1.81-.52,10.73-1.57,13.68a9.21,9.21,0,0,0,0,5.19,63.05,63.05,0,0,1-8.3.89c-4.93,0-7-1.86-7-1.86s-.36-2.93,2-10c.75-2.25-2-9.59-2.43-10.41a12.23,12.23,0,0,0-2.65,1.88,11.68,11.68,0,0,0-4-5.78,69.13,69.13,0,0,0,5.27-5.9c1.65-2.22,4.55-2.41,6.46-2.37,1.17.42,3.69,2.71,4.88,3.22C45.1,25.91,45.28,25.4,45.28,24.79Z"/><path class="cls-10" d="M34.27,34.49s3.46-1.7,4.73-.66,1.34,2.58.62,4.85c-.67,2.09-2.11,2.79-2.91,3.88C36.53,39.45,34.27,34.49,34.27,34.49Z"/><path class="cls-11" d="M23.91,36.56c.81-1.48,3.73-6,3.73-6a6,6,0,0,1,2.26,1.84,9.42,9.42,0,0,1,1.58,3.51l-1.17,1.63A90.4,90.4,0,0,0,39,42.72c1.6.73,3.19.38,4.13.54,1.2.21,3.9,1,2.92,2.33a1.23,1.23,0,0,1-.66,1.63.89.89,0,0,1-.5,1.41c.26,1-.57.76-2.29.21-2.19-.7-3-.31-5.09-1.89a22.48,22.48,0,0,0-3.45-1.48c-5.22-1.56-6-2.23-6.89-2.91-1.42-1-2.87-2.52-3.7-3.05C22.3,38.76,23.18,37.88,23.91,36.56Z"/><path class="cls-12" d="M58,103.21c.56.07.56,1.39,1.18,1.67s1.89-1.25,2.65-1.67a1.69,1.69,0,0,1,.27-.1l0-.08a3.94,3.94,0,0,1,.84-1.62,5.4,5.4,0,0,1,2-1.32c.85-.46.45,1.84.18,3.1a25.51,25.51,0,0,0,4.81,2.53,6.27,6.27,0,0,0,2.84-.23,14.47,14.47,0,0,1,1,1.46c.55,1-.19,1.49-1.1,2a13.11,13.11,0,0,1-5.22,2.29c-2.44.35-3.79-.69-4.3-.48s-.91,1.11-.91,1.11-1.64.09-3.43,0c-1.23-.06-2.3-1.82-2.23-2.16S57.48,103.14,58,103.21Z"/><path class="cls-13" d="M73.7,107s-3,2.47-6.18,2.68-5-.82-6.24,0-4.24-.34-4.24-.34a6.25,6.25,0,0,0,3.94-.12c1.85-.92,4.39,0,6.66-.14,1.54-.1,5.85-2.44,5.85-2.44Z"/><path class="cls-14" d="M69,105.42l-1.74,1.19a5.91,5.91,0,0,1-1.65.88,13.46,13.46,0,0,1,1.65-1.61c.27-.21,1.17-.73,1.17-.73Z"/><path class="cls-14" d="M67.34,104.54l-1.7,1.13c-.45.31-1.46,1.22-1.46,1.22a11,11,0,0,1,1.19-1.74,11.23,11.23,0,0,1,1.5-.89Z"/><path class="cls-14" d="M65.94,103.74l-1.69,1.13c-.46.31-1.46,1.22-1.46,1.22A11,11,0,0,1,64,104.35a10.66,10.66,0,0,1,1.49-.89Z"/><path class="cls-15" d="M5.64,88.68c.35,0,6.67-.44,6.72.12s-1.24.84-1.38,1.51,1.62,1.58,2.19,2.24a.82.82,0,0,1,.15.24l.08-.06a4,4,0,0,1,1.75.48,5.46,5.46,0,0,1,1.71,1.63c.62.74-1.71.83-3,.83a24.45,24.45,0,0,0-1.46,5.23,6.21,6.21,0,0,0,.82,2.74A13.87,13.87,0,0,1,12,104.9c-.86.75-1.49.13-2.22-.64a13,13,0,0,1-3.35-4.63c-.86-2.31-.12-3.84-.43-4.3a2.57,2.57,0,0,0-1.28-.66A33.77,33.77,0,0,1,4,91.32,3.05,3.05,0,0,1,5.64,88.68Z"/><path class="cls-13" d="M12,104.9a12.81,12.81,0,0,1-3.91-5.48c-.87-3-.25-5-1.33-6.09s-.56-4.22-.56-4.22a6.28,6.28,0,0,0,.93,3.83c1.3,1.61.92,4.3,1.54,6.48.43,1.48,3.63,5.2,3.63,5.2Z"/><path class="cls-14" d="M12.52,100S12,99.46,11,98.56a6.09,6.09,0,0,1-1.21-1.42,12.58,12.58,0,0,1,1.92,1.27c.27.22,1,1,1,1Z"/><path class="cls-14" d="M13,98.17l-1.46-1.41c-.4-.39-1.5-1.18-1.5-1.18a11.92,11.92,0,0,1,2,.8,11.13,11.13,0,0,1,1.17,1.27Z"/><path class="cls-14" d="M13.51,96.64l-1.46-1.42c-.4-.38-1.5-1.16-1.5-1.16a11.29,11.29,0,0,1,1.95.79,10.52,10.52,0,0,1,1.18,1.27Z"/><path class="cls-16" d="M48.26,10c.41,0,.94.29.59.47a9.31,9.31,0,0,0-1.45.26,8.53,8.53,0,0,0-1.67,1.06A2.88,2.88,0,0,1,48.26,10Z"/><path class="cls-17" d="M42.6,14.79s-.77-1.45-1.3-1.23-.49,1.08-.49,1.08.43-.45.83-.26.06.62,0,.79c-.17.56.58.84.58.84a3.24,3.24,0,0,1-.06-.84C42.21,14.87,42.6,14.79,42.6,14.79Z"/><path class="cls-18" d="M46.31,20.17a12.27,12.27,0,0,1-2.87-1.24c-1.2-.94-2.63-2.27-2.63-2.27a11.84,11.84,0,0,0,1.79,3,8.66,8.66,0,0,0,2.88,1.82S45.77,20.36,46.31,20.17Z"/><path class="cls-19" d="M55.64,77.51s.79,1.25.68,1.76a4.92,4.92,0,0,1-.9,1.23Z"/><path class="cls-20" d="M24.52,38.69c1.07-.17,1.57,1.18,1.57,1.18S24.48,39.47,24.52,38.69Z"/><path class="cls-14" d="M48.24,12.13a2.72,2.72,0,0,1,0,.89c-.13.41-.58.42-.94.33a2.14,2.14,0,0,1-.69-.35l.87-.52Z"/><path class="cls-21" d="M48.32,12.17s.15.94-.2,1.08-.44-.78-.44-.78Z"/><path class="cls-16" d="M47.89,12.77c0,.13.07.24.15.24s.16-.11.16-.24-.07-.25-.16-.25S47.89,12.63,47.89,12.77Z"/><path class="cls-14" d="M48,12.56c0,.1.05.18.12.18s.11-.08.11-.18-.05-.18-.11-.18S48,12.46,48,12.56Z"/><path class="cls-19" d="M50.21,15.63a1.15,1.15,0,0,1-.28.34c-.21.19-.39,0-.21-.17A.81.81,0,0,1,50.21,15.63Z"/><path class="cls-19" d="M49.64,17.4s-.69.3-1,.16-.32-.18,0-.17Z"/><path class="cls-16" d="M48.36,11.83c.09-.05.23.09.14.23a2.92,2.92,0,0,1-1.08.72,3.53,3.53,0,0,1-.91.24S47.83,12.21,48.36,11.83Z"/><path class="cls-22" d="M48.47,11.45s-.48.34-.85.54-.75.39-.75.39a14.55,14.55,0,0,1,1.26-1C48.47,11.21,48.47,11.45,48.47,11.45Z"/><path class="cls-23" d="M50.21,6.74l-.47.58a23.72,23.72,0,0,0-5.2-2.23A5.17,5.17,0,0,0,40,6c-.94.73-2.46,2.23-2.57,3.58a36.13,36.13,0,0,0,0,4.26S35.62,9.72,38,7,43.1,4,45.33,4.7C47,5.26,50.21,6.74,50.21,6.74Z"/></svg>