<?xml version="1.0" encoding="utf-8"?>
<!-- Generator: Adobe Illustrator 24.0.1, SVG Export Plug-In . SVG Version: 6.00 Build 0)  -->
<svg version="1.1" id="Layer_1" xmlns="http://www.w3.org/2000/svg" xmlns:xlink="http://www.w3.org/1999/xlink" x="0px" y="0px"
	 viewBox="0 0 78.7 124.3" enable-background="new 0 0 78.7 124.3" xml:space="preserve">
<g>
	
		<linearGradient id="SVGID_1_" gradientUnits="userSpaceOnUse" x1="-183.3906" y1="35.9499" x2="-171.3753" y2="35.9499" gradientTransform="matrix(-1 0 0 1 -119.5618 0)">
		<stop  offset="0" style="stop-color:#EFA08B"/>
		<stop  offset="0.6405" style="stop-color:#E48C78"/>
		<stop  offset="0.9948" style="stop-color:#DD7F6C"/>
	</linearGradient>
	<path fill="url(#SVGID_1_)" d="M59.2,26.7c-0.8-0.2-2.1,1.6-2.2,3.1c0,1.5,1.8,2.9,1.4,3.6c-0.4,0.7-6.7,4.3-6.7,4.3l1.6,7.7
		c0,0,5.8-4.1,7.9-7.2c2-3,2.3-6.3,2.5-7.7c0.2-1.2-0.6-1.8-1.3-1.5c0.2-1.5-0.9-1.4-1.5-1.3C60.6,26.1,59.2,26.7,59.2,26.7z"/>
	
		<linearGradient id="SVGID_2_" gradientUnits="userSpaceOnUse" x1="-172.2066" y1="16.2307" x2="-158.1979" y2="16.2307" gradientTransform="matrix(-1 0 0 1 -119.5618 0)">
		<stop  offset="0" style="stop-color:#FFC5B3"/>
		<stop  offset="0.3645" style="stop-color:#FBBBA8"/>
		<stop  offset="1" style="stop-color:#EFA08B"/>
	</linearGradient>
	<path fill="url(#SVGID_2_)" d="M39.5,19.2C39,17.4,38.6,15,38.6,15s4.5-11.2,10-9.4c0.9,0.3,1.6,0.8,2,1.7C50.7,7.8,51,8.4,51,9
		c0.1,1.4-0.3,2.7-0.3,3.4c0,1.4,2.5,2.4,1.9,3.2c-0.2,0.3-1.4,0.4-1.3,0.9c0.1,0.4,0.5,0.6,0,1c-0.1,0.1-0.3,0.2-0.3,0.5
		c0,0.2,0.3,0.3,0.4,0.6c0.1,0.4-0.2,0.4-0.3,0.5c-0.2,0.1-0.3,0.4-0.2,0.9c0.3,1.2,0,1.3-1.5,1.8c-0.6,0.2-1,0.3-2.4,2.5
		c-0.7,1.1-0.4,2.7-0.4,2.7l-7.7-2.2C38.6,24.9,39.9,21.1,39.5,19.2z"/>
	
		<linearGradient id="SVGID_3_" gradientUnits="userSpaceOnUse" x1="-163.563" y1="3.339" x2="-163.563" y2="19.8199" gradientTransform="matrix(-1 0 0 1 -119.5618 0)">
		<stop  offset="0" style="stop-color:#7B2B08"/>
		<stop  offset="1" style="stop-color:#682007"/>
	</linearGradient>
	<path fill="url(#SVGID_3_)" d="M50.6,7.3c0,0,0.9-0.9,0.9-1.6c-0.8,0-4.4-2.6-7.4-2.3c-3.7,0.3-6.9,1.6-7.5,5.5
		c-0.4,2.3,1,6.4,1.6,7.6c0.6,1.2,1.4,3.4,1.4,3.4s0.7-0.2,1.2-1.1c0.3-0.6,0.7-1.5,0.8-2.6c-0.6-1.4-1.2-3.1,0.3-3.4
		c1.2-0.2,2.2,1.8,2.2,1.8l0.6-0.3c0,0-0.6-3.3,1.2-4.5C45.8,8.4,44.7,5.8,50.6,7.3z"/>
	
		<linearGradient id="SVGID_4_" gradientUnits="userSpaceOnUse" x1="-145.7632" y1="65.9486" x2="-145.7632" y2="103.358" gradientTransform="matrix(-1 0 0 1 -119.5618 0)">
		<stop  offset="0" style="stop-color:#FFC5B3"/>
		<stop  offset="0.3645" style="stop-color:#FBBBA8"/>
		<stop  offset="1" style="stop-color:#EFA08B"/>
	</linearGradient>
	<path fill="url(#SVGID_4_)" d="M44.2,74.8c0,0-1.3,6.2-3.5,9.8c-1.2,2.1-2.6,3.2-3.6,4.3c-1,1.1-1.9,1.6-4.8,3.2
		c-4.9,2.6-21.9,11.2-21.9,11.2l-2.2-4.9c0,0,2.6-4.9,7.8-10.2c2.7-2.8,5-4.6,6.8-5.5c2-1.1,5.3-1.3,5.8-2.8c1-3,6.1-13.9,6.1-13.9
		L44.2,74.8z"/>
	<path fill="#098256" d="M47.3,79.3l-6.5,5.4c0,0-4.8-1-6.5-2.6c-2.8-2.6-4.5-5.3-4.5-5.3s0.6-8.6,1.7-15.1
		C36.9,60,47.3,79.3,47.3,79.3z"/>
	
		<linearGradient id="SVGID_5_" gradientUnits="userSpaceOnUse" x1="-173.6214" y1="72.7353" x2="-173.6214" y2="118.1945" gradientTransform="matrix(-1 0 0 1 -119.5618 0)">
		<stop  offset="0" style="stop-color:#FFC5B3"/>
		<stop  offset="0.3645" style="stop-color:#FBBBA8"/>
		<stop  offset="1" style="stop-color:#EFA08B"/>
	</linearGradient>
	<path fill="url(#SVGID_5_)" d="M54.8,72.7c0,0,4,2.5,5.1,4.9c1.2,2.7,1.4,4.6,1.4,7.5c0,2.8-1,7.8,1.6,14.5
		c1,2.6,5.3,14.7,5.3,14.7l-4.8,3.9c0,0-10.7-12.5-12.3-16.8c-2.3-6.5-0.5-7.3-1.9-10.2C47.8,88.3,40,79.6,40,79.6
		S53.3,76.6,54.8,72.7z"/>
	
		<linearGradient id="SVGID_6_" gradientUnits="userSpaceOnUse" x1="-166.8281" y1="54.9202" x2="-166.8281" y2="87.3397" gradientTransform="matrix(-1 0 0 1 -119.5618 0)">
		<stop  offset="0" style="stop-color:#15A072"/>
		<stop  offset="0.4562" style="stop-color:#119568"/>
		<stop  offset="1" style="stop-color:#098256"/>
	</linearGradient>
	<path fill="url(#SVGID_6_)" d="M58.6,54.9c0,0,1.6,0.4,1.8,2c0.1,1.9,5.1,3,3.5,6.7c-1.4,3.2-5.7,8-4.5,10.6c2,4.4,2,8.7,2,8.7
		s-2.5,1.3-5.8,2.7c-3.8,1.7-10.1,1.7-10.1,1.7s-5.9-8-11.4-14.2c-5-5.7-3.4-15.7-3.4-15.7L58.6,54.9z"/>
	
		<linearGradient id="SVGID_7_" gradientUnits="userSpaceOnUse" x1="-164.9839" y1="22.9947" x2="-164.9839" y2="63.6217" gradientTransform="matrix(-1 0 0 1 -119.5618 0)">
		<stop  offset="0" style="stop-color:#347FB6"/>
		<stop  offset="0.3453" style="stop-color:#337BB2"/>
		<stop  offset="0.7007" style="stop-color:#3270A6"/>
		<stop  offset="1" style="stop-color:#2F6095"/>
	</linearGradient>
	<path fill="url(#SVGID_7_)" d="M46.3,25.7c1.5,0.7,3.6,1.6,5.3,3.7c1.3,1.5,1.6,5.6,2.6,9.4c0.5,1.9,12.2,12.8,11.3,21.4
		c-4.6,3.9-19.4,3.5-24.1,3.2c-5.4-0.3-11.3-5.1-11.3-5.1s0.7-5.5,3.3-13.3c0.8-2.5,1.3-7.7,0.9-8.6c-1.1,0.4-2.9,2.1-2.9,2.1
		s-2.6-3.7-6.1-6.4c2-2.3,3.5-3.4,6.2-5.9c3.7-3.3,6.3-3.3,8.4-3.3c1.3,0.5,4,3,5.3,3.6C46.1,27,46.3,26.4,46.3,25.7z"/>
	<path fill="#295B8A" d="M34.2,36.5c0,0,3.8-1.9,5.2-0.7c1.3,1.1,0,2.9-0.8,5.4c-0.7,2.3-4.4,3.1-5.2,4.3
		C34.2,41.8,34.2,36.5,34.2,36.5z"/>
	
		<linearGradient id="SVGID_8_" gradientUnits="userSpaceOnUse" x1="-166.9456" y1="43.137" x2="-140.2262" y2="43.137" gradientTransform="matrix(-1 0 0 1 -119.5618 0)">
		<stop  offset="0" style="stop-color:#FFC5B3"/>
		<stop  offset="0.3645" style="stop-color:#FBBBA8"/>
		<stop  offset="1" style="stop-color:#EFA08B"/>
	</linearGradient>
	<path fill="url(#SVGID_8_)" d="M22.3,37.9c0.9-1.6,3.9-4.9,3.9-4.9s1.5,0.8,2.9,2.4c1.2,1.4,2.2,3.2,2.2,3.2l-1.4,1.3
		c0,0,6.3,4.2,9.5,5.7c1.8,0.8,3.5,0.4,4.5,0.6c1.3,0.2,4.3,1.2,3.2,2.6c0.2,0.6,0,1.6-0.7,1.8c0.6,0.9-0.1,1.5-0.5,1.6
		c0.3,1.1-0.6,1.6-2.5,1c-2.4-0.8-2.8-0.2-7.8-2.7c-5.4-2.6-6.8-2.4-9.3-3.1c-1.8-0.6-4.2-1.9-5.4-4.3
		C20.2,41.6,21.5,39.3,22.3,37.9z"/>
	<g>
		
			<linearGradient id="SVGID_9_" gradientUnits="userSpaceOnUse" x1="-197.2318" y1="115.5283" x2="-178.1748" y2="115.5283" gradientTransform="matrix(-1 0 0 1 -119.5618 0)">
			<stop  offset="0" style="stop-color:#347FB6"/>
			<stop  offset="0.3453" style="stop-color:#337BB2"/>
			<stop  offset="0.7007" style="stop-color:#3270A6"/>
			<stop  offset="1" style="stop-color:#2F6095"/>
		</linearGradient>
		<path fill="url(#SVGID_9_)" d="M59.4,113c0.8-0.3,1.6,1,2.2,1.3c0.7,0.3,2.1-1.4,2.9-1.8c0.1,0,0.2-0.1,0.3-0.1l0-0.1
			c0,0,0.2-0.8,0.9-1.8c0.8-0.9,2.1-1.5,2.1-1.5c0.9-0.5,0.5,2,0.2,3.4c0.9,0.6,4,2.5,5.3,2.8c1.5,0.3,3.1-0.3,3.1-0.3
			s0.7,0.9,1.1,1.6c0.6,1.1-0.2,1.6-1.2,2.3c-1,0.6-3.1,2.2-5.7,2.5c-2.7,0.4-4.1-0.8-4.7-0.5c-0.6,0.2-1,1.2-1,1.2s-1.8,0.1-3.8,0
			c-1.3-0.1-2.5-2-2.4-2.4C58.7,119.3,58.8,113.3,59.4,113z"/>
		<path fill="#225077" d="M77.5,116.6c0,0-3.3,2.7-6.8,3c-3.5,0.2-5.5-0.9-6.8,0c-1.4,0.9-4.6-0.4-4.6-0.4s2.5,0.8,4.3-0.1
			c2-1,4.8,0,7.3-0.2c1.7-0.1,6.4-2.7,6.4-2.7L77.5,116.6z"/>
		<path fill="#FFFFFF" d="M72.3,114.9c0,0-0.7,0.5-1.9,1.3c-1.2,0.8-1.8,1-1.8,1s0.8-1,1.8-1.8c0.3-0.2,1.3-0.8,1.3-0.8L72.3,114.9z
			"/>
		<path fill="#FFFFFF" d="M70.5,113.9c0,0-1.4,0.9-1.9,1.3c-0.5,0.3-1.6,1.3-1.6,1.3s0.8-1.5,1.3-1.9c0.3-0.3,1.6-1,1.6-1
			L70.5,113.9z"/>
		<path fill="#FFFFFF" d="M69,113c0,0-1.4,0.9-1.9,1.3c-0.5,0.3-1.6,1.3-1.6,1.3s0.8-1.5,1.3-1.9c0.3-0.3,1.6-1,1.6-1L69,113z"/>
	</g>
	<g>
		
			<linearGradient id="SVGID_10_" gradientUnits="userSpaceOnUse" x1="-12.5767" y1="144.6778" x2="3.3418" y2="144.6778" gradientTransform="matrix(-0.8711 -0.4911 -0.4911 0.8711 74.0738 -24.2483)">
			<stop  offset="0" style="stop-color:#347FB6"/>
			<stop  offset="0.3453" style="stop-color:#337BB2"/>
			<stop  offset="0.7007" style="stop-color:#3270A6"/>
			<stop  offset="1" style="stop-color:#2F6095"/>
		</linearGradient>
		<path fill="url(#SVGID_10_)" d="M2.9,96.4c0.4,0,6.5-1,6.9-0.5c0.4,0.8-0.8,1.6-1,2.3c-0.2,0.7,1.8,1.7,2.4,2.5
			c0.1,0.1,0.1,0.2,0.2,0.3l0.1-0.1c0,0,0.9,0,1.9,0.5c1.1,0.6,1.9,1.8,1.9,1.8c0.7,0.8-1.9,0.9-3.3,0.9c-0.4,1-1.6,4.5-1.6,5.8
			c0,1.5,0.9,3,0.9,3s-0.7,0.8-1.3,1.4c-0.9,0.8-1.6,0.1-2.4-0.7c-0.8-0.8-2.7-2.6-3.7-5.1c-0.9-2.6-0.1-4.3-0.5-4.8
			c-0.3-0.5-1.4-0.7-1.4-0.7s-0.5-1.7-0.8-3.7C0.8,98,2.5,96.4,2.9,96.4z"/>
		<path fill="#225077" d="M9.8,114.3c0,0-3.3-2.7-4.3-6.1c-1-3.4-0.3-5.6-1.5-6.7c-1.2-1.1-0.6-4.7-0.6-4.7s-0.2,2.7,1,4.2
			c1.4,1.8,1,4.7,1.7,7.2c0.5,1.6,4,5.8,4,5.8L9.8,114.3z"/>
		<path fill="#FFFFFF" d="M10.4,108.9c0,0-0.6-0.6-1.7-1.6c-1-1-1.3-1.6-1.3-1.6s1.1,0.6,2.1,1.4c0.3,0.2,1.1,1.1,1.1,1.1
			L10.4,108.9z"/>
		<path fill="#FFFFFF" d="M11,106.9c0,0-1.2-1.2-1.6-1.6c-0.4-0.4-1.6-1.3-1.6-1.3s1.6,0.5,2.1,0.9c0.4,0.3,1.3,1.4,1.3,1.4
			L11,106.9z"/>
		<path fill="#FFFFFF" d="M11.5,105.2c0,0-1.2-1.2-1.6-1.6c-0.4-0.4-1.6-1.3-1.6-1.3s1.6,0.5,2.1,0.9c0.4,0.3,1.3,1.4,1.3,1.4
			L11.5,105.2z"/>
	</g>
	<path fill="#5B1B1B" d="M49.6,9.4c0.5,0,1,0.3,0.6,0.5c-0.2,0.1-0.9,0-1.6,0.3c-0.8,0.3-1.8,1.2-1.8,1.2S47.7,9.3,49.6,9.4z"/>
	
		<linearGradient id="SVGID_11_" gradientUnits="userSpaceOnUse" x1="-161.9566" y1="16.0301" x2="-161.9566" y2="13.2931" gradientTransform="matrix(-1 0 0 1 -119.5618 0)">
		<stop  offset="0" style="stop-color:#EFA08B"/>
		<stop  offset="0.2778" style="stop-color:#E7917D"/>
		<stop  offset="0.6579" style="stop-color:#E08470"/>
		<stop  offset="0.9948" style="stop-color:#DD7F6C"/>
	</linearGradient>
	<path fill="url(#SVGID_11_)" d="M43.4,14.7c0,0-0.8-1.6-1.4-1.4c-0.6,0.2-0.5,1.2-0.5,1.2s0.5-0.5,0.9-0.3c0.4,0.2,0.1,0.7,0,0.9
		C42.1,15.7,43,16,43,16s-0.1-0.6-0.1-0.9C42.9,14.8,43.4,14.7,43.4,14.7z"/>
	<path fill="#FFA08D" d="M57.7,85.7c0,0,0.9,1.4,0.7,1.9c-0.1,0.4-1,1.4-1,1.4L57.7,85.7z"/>
	
		<linearGradient id="SVGID_12_" gradientUnits="userSpaceOnUse" x1="-143.1127" y1="43.066" x2="-141.3856" y2="43.066" gradientTransform="matrix(-1 0 0 1 -119.5618 0)">
		<stop  offset="0" style="stop-color:#EFA08B"/>
		<stop  offset="8.620072e-02" style="stop-color:#ED9C87"/>
		<stop  offset="0.6354" style="stop-color:#E18773"/>
		<stop  offset="0.9948" style="stop-color:#DD7F6C"/>
	</linearGradient>
	<path fill="url(#SVGID_12_)" d="M21.8,42.4c1.2-0.2,1.7,1.3,1.7,1.3S21.8,43.3,21.8,42.4z"/>
	<path fill="#FFFFFF" d="M49.6,11.7c0,0,0.1,0.7,0.1,1c-0.1,0.5-0.6,0.5-1,0.4c-0.4-0.1-0.8-0.4-0.8-0.4l0.9-0.6L49.6,11.7z"/>
	<path fill="#3794B5" d="M49.6,11.8c0,0,0.2,1-0.2,1.2c-0.5,0.2-0.5-0.9-0.5-0.9L49.6,11.8z"/>
	<path fill="#5B1B1B" d="M49.2,12.4c0,0.1,0.1,0.3,0.2,0.3c0.1,0,0.2-0.1,0.2-0.3c0-0.1-0.1-0.3-0.2-0.3
		C49.2,12.2,49.2,12.3,49.2,12.4z"/>
	<path fill="#FFFFFF" d="M49.3,12.2c0,0.1,0.1,0.2,0.1,0.2c0.1,0,0.1-0.1,0.1-0.2c0-0.1-0.1-0.2-0.1-0.2
		C49.4,12,49.3,12.1,49.3,12.2z"/>
	<path fill="#FFA08D" d="M51.7,15.6c0,0-0.1,0.2-0.3,0.4c-0.2,0.2-0.4,0-0.2-0.2C51.4,15.6,51.7,15.6,51.7,15.6z"/>
	<path fill="#5B1B1B" d="M49.7,11.4c0.1-0.1,0.3,0.1,0.2,0.2c-0.2,0.3-0.8,0.6-1.2,0.8c-0.4,0.2-1,0.3-1,0.3S49.1,11.8,49.7,11.4z"
		/>
	
		<linearGradient id="SVGID_13_" gradientUnits="userSpaceOnUse" x1="-169.3688" y1="11.4313" x2="-167.6184" y2="11.4313" gradientTransform="matrix(-1 0 0 1 -119.5618 0)">
		<stop  offset="0" style="stop-color:#EFA08B"/>
		<stop  offset="0.156" style="stop-color:#EB9984"/>
		<stop  offset="0.6493" style="stop-color:#E18672"/>
		<stop  offset="0.9948" style="stop-color:#DD7F6C"/>
	</linearGradient>
	<path fill="url(#SVGID_13_)" d="M49.8,11c0,0-0.5,0.4-0.9,0.6c-0.4,0.2-0.8,0.4-0.8,0.4s1.1-1,1.4-1.1C49.8,10.7,49.8,11,49.8,11z"
		/>
	
		<linearGradient id="SVGID_14_" gradientUnits="userSpaceOnUse" x1="-171.3753" y1="8.2274" x2="-156.0698" y2="8.2274" gradientTransform="matrix(-1 0 0 1 -119.5618 0)">
		<stop  offset="0" style="stop-color:#B24E2B"/>
		<stop  offset="0.3843" style="stop-color:#AA4727"/>
		<stop  offset="1" style="stop-color:#A34123"/>
	</linearGradient>
	<path fill="url(#SVGID_14_)" d="M51.8,5.5l-0.5,0.7c0,0-3.6-2.1-5.9-2.6c-2.4-0.5-3.9,0.1-5.2,1.1c-1.1,0.8-2.8,2.6-2.9,4.1
		c-0.2,2.3-0.1,4.9-0.1,4.9s-2-4.7,0.8-7.9s5.8-3.5,8.3-2.6C48.1,3.8,51.8,5.5,51.8,5.5z"/>
	
		<linearGradient id="SVGID_15_" gradientUnits="userSpaceOnUse" x1="-170.8706" y1="17.9492" x2="-169.413" y2="17.9492" gradientTransform="matrix(-1 0 0 1 -119.5618 0)">
		<stop  offset="0" style="stop-color:#EFA08B"/>
		<stop  offset="0.156" style="stop-color:#EB9984"/>
		<stop  offset="0.6493" style="stop-color:#E18672"/>
		<stop  offset="0.9948" style="stop-color:#DD7F6C"/>
	</linearGradient>
	<path fill="url(#SVGID_15_)" d="M51,18.2c-0.4,0-0.7,0.2-0.9,0.2c-0.1,0-0.4-0.2-0.1-0.6c0.3-0.3,1.3-0.4,1.3-0.4
		S50.8,17.9,51,18.2z"/>
	
		<linearGradient id="SVGID_16_" gradientUnits="userSpaceOnUse" x1="-166.9456" y1="20.6094" x2="-162.9393" y2="20.6094" gradientTransform="matrix(-1 0 0 1 -119.5618 0)">
		<stop  offset="0" style="stop-color:#EFA08B"/>
		<stop  offset="0.156" style="stop-color:#EB9984"/>
		<stop  offset="0.6493" style="stop-color:#E18672"/>
		<stop  offset="0.9948" style="stop-color:#DD7F6C"/>
	</linearGradient>
	<path fill="url(#SVGID_16_)" d="M47.4,21.8c0,0-0.4,0.1-2-0.7c-1-0.5-2-1.8-2-1.8s0.1,1.7,1.5,2.3C46.2,22.1,47.4,21.8,47.4,21.8z"
		/>
	<path fill="#295B8A" d="M47.8,27.6c0,0-0.4,1.7-2.2,0.8c-1.8-0.9-5-3.9-5-3.9s2.7,5.2,5.8,5.6C49.4,30.6,47.8,27.6,47.8,27.6z"/>
</g>
</svg>
