<?xml version="1.0" encoding="utf-8"?>
<!-- Generator: Adobe Illustrator 24.0.1, SVG Export Plug-In . SVG Version: 6.00 Build 0)  -->
<svg version="1.1" id="Layer_1" xmlns="http://www.w3.org/2000/svg" xmlns:xlink="http://www.w3.org/1999/xlink" x="0px" y="0px"
	 viewBox="0 0 78.7 124.3" enable-background="new 0 0 78.7 124.3" xml:space="preserve">
<g>
	
		<linearGradient id="SVGID_1_" gradientUnits="userSpaceOnUse" x1="-351.9262" y1="35.1271" x2="-339.9554" y2="35.1271" gradientTransform="matrix(-1 0 0 1 -288.0439 0)">
		<stop  offset="0" style="stop-color:#EFA08B"/>
		<stop  offset="0.6405" style="stop-color:#E48C78"/>
		<stop  offset="0.9948" style="stop-color:#DD7F6C"/>
	</linearGradient>
	<path fill="url(#SVGID_1_)" d="M59.3,25.6c-0.8-0.2-2.1,1.6-2.2,3.1c0,1.5,0,2.9-0.5,3.6c-0.4,0.7-4.8,4.4-4.8,4.4l1.6,7.9
		c0,0,5.8-4.2,7.9-7.4c2-3.1,2.3-6.4,2.5-7.8c0.2-1.2-0.6-1.9-1.3-1.5c0.2-1.5-0.9-1.5-1.5-1.3C60.7,25.1,59.3,25.6,59.3,25.6z"/>
	
		<linearGradient id="SVGID_2_" gradientUnits="userSpaceOnUse" x1="-340.7836" y1="16.3587" x2="-325.2483" y2="16.3587" gradientTransform="matrix(-1 0 0 1 -288.0439 0)">
		<stop  offset="0" style="stop-color:#FFC5B3"/>
		<stop  offset="0.3645" style="stop-color:#FBBBA8"/>
		<stop  offset="1" style="stop-color:#EFA08B"/>
	</linearGradient>
	<path fill="url(#SVGID_2_)" d="M39.1,16.9c-0.4-1.9-0.3-3.2-0.3-3.2s4.4-11.5,9.9-9.6c0.9,0.3,1.6,0.8,1.9,1.7
		c0.2,0.5,0.4,1.2,0.4,1.8c0.1,1.4-0.3,2.8-0.3,3.4c0,1.4,2.5,2.5,1.9,3.3c-0.2,0.3-1.4,0.4-1.3,1c0.1,0.4,0.5,0.6,0,1
		c-0.1,0.1-0.3,0.3-0.3,0.5c0,0.2,0.3,0.3,0.4,0.6c0.1,0.4-0.2,0.4-0.3,0.5c-0.2,0.1,0,0.5,0.2,1c0.6,1.5,0.1,1.9-1.1,2.7
		c-0.5,0.3-1.7,1.7-2.3,3.7c0.7,1.7,0.2,3.6,0.2,3.6L37.2,23C37.2,23,39.5,18.8,39.1,16.9z"/>
	
		<linearGradient id="SVGID_3_" gradientUnits="userSpaceOnUse" x1="-331.8864" y1="1.8263" x2="-331.8864" y2="18.6559" gradientTransform="matrix(-1 0 0 1 -288.0439 0)">
		<stop  offset="0" style="stop-color:#7B2B08"/>
		<stop  offset="1" style="stop-color:#682007"/>
	</linearGradient>
	<path fill="url(#SVGID_3_)" d="M50.7,5.9c0,0,0.8-0.9,0.9-1.6c-0.8,0-4.4-2.7-7.4-2.4c-3.7,0.3-7.4,1.4-8,5.4
		c-0.4,2.3,0.7,6.1,1.4,7.4c0.6,1.3,1.4,4.1,1.4,4.1s1.2-0.5,1.7-1.4c0.3-0.6,0.9-1.3,1-2.4c-0.6-1.5-1.2-3.2,0.3-3.4
		c1.2-0.2,2.2,1.8,2.2,1.8l0.5-0.3c0,0-0.6-3.4,1.2-4.6C45.9,7,44.8,4.4,50.7,5.9z"/>
	
		<linearGradient id="SVGID_4_" gradientUnits="userSpaceOnUse" x1="-318.3702" y1="64.3362" x2="-318.3702" y2="103.9611" gradientTransform="matrix(-1 0 0 1 -288.0439 0)">
		<stop  offset="0" style="stop-color:#FFC5B3"/>
		<stop  offset="0.3645" style="stop-color:#FBBBA8"/>
		<stop  offset="1" style="stop-color:#EFA08B"/>
	</linearGradient>
	<path fill="url(#SVGID_4_)" d="M44.4,74.8c0,0,9.7,1.4,7.5,5.2c-1.2,2.1-6.2,6.4-8.3,9.1c-3.2,4.1-6.4,4.3-12.1,5.3
		c-5.4,1-20.9,9.5-20.9,9.5l-2.2-5c0,0,1.3-2.4,4.9-9c2.7-4.9,5.4-6,7.2-7c4-2.2,5.1-2.4,5.6-4c1-3,6-14.5,6-14.5L44.4,74.8z"/>
	<path fill="#098256" d="M47.4,79.4l-4.6,10.5c0,0-4.3,0.7-9.7-3.1c-3.9-2.8-7.1-7.3-7.1-7.3s4.6-11.3,5.7-18
		C37,59.7,47.4,79.4,47.4,79.4z"/>
	
		<linearGradient id="SVGID_5_" gradientUnits="userSpaceOnUse" x1="-339.1465" y1="72.6906" x2="-339.1465" y2="119.1113" gradientTransform="matrix(-1 0 0 1 -288.0439 0)">
		<stop  offset="0" style="stop-color:#FFC5B3"/>
		<stop  offset="0.3645" style="stop-color:#FBBBA8"/>
		<stop  offset="1" style="stop-color:#EFA08B"/>
	</linearGradient>
	<path fill="url(#SVGID_5_)" d="M54.9,72.7c0,0,6.3,0.8,7.4,3.3c1.2,2.7,2.3,3.9,2.3,6.8c0,2.8-1.5,9,0.2,18.1
		c0.5,2.8,3.4,14.2,3.4,14.2l-4.7,3.9c0,0-11.9-11.7-13.5-16.2c-2.3-6.6-1.2-6.3-2.6-9.2C46,90.8,34,80,34,80S53.3,76.7,54.9,72.7z"
		/>
	
		<linearGradient id="SVGID_6_" gradientUnits="userSpaceOnUse" x1="-333.3051" y1="54.4486" x2="-333.3051" y2="90.5772" gradientTransform="matrix(-1 0 0 1 -288.0439 0)">
		<stop  offset="0" style="stop-color:#15A072"/>
		<stop  offset="0.4562" style="stop-color:#119568"/>
		<stop  offset="1" style="stop-color:#098256"/>
	</linearGradient>
	<path fill="url(#SVGID_6_)" d="M58.7,54.5c0,0,4.8-0.4,4.9,1.2c0.1,1.9,0.8,6-0.7,9.8c-1.4,3.3-1.7,4.6-0.5,7.2
		c2,4.5,2.7,8.9,2.7,8.9s-3.3,3.7-8.9,5.1c-4,1-12.7,3.9-12.7,3.9S35.4,82.3,29.9,76c-6.4-7.3-3.9-20.5-3.9-20.5L58.7,54.5z"/>
	
		<linearGradient id="SVGID_7_" gradientUnits="userSpaceOnUse" x1="-331.9124" y1="20.8572" x2="-331.9124" y2="67.5013" gradientTransform="matrix(-1 0 0 1 -288.0439 0)">
		<stop  offset="0" style="stop-color:#347FB6"/>
		<stop  offset="0.3453" style="stop-color:#337BB2"/>
		<stop  offset="0.7007" style="stop-color:#3270A6"/>
		<stop  offset="1" style="stop-color:#2F6095"/>
	</linearGradient>
	<path fill="url(#SVGID_7_)" d="M47.8,25c1.5,0.7,3.4,0.5,5.3,3.3c1.1,1.6,0.6,4.9,1.6,8.8c0.5,2,10.4,12.1,9.2,25
		c-4.6,4-17.9,5.4-22.6,5.4c-12.3,0-15.8-0.9-15.8-0.9s-1.7-11,2.3-20.3c1.1-2.4,3.8-7.2,3.8-7.2s-3.7-5.5-7.8-7.1
		c0.8-2.3,2.2-4.6,4.7-7.3c4.2-4.5,7.4-4.3,10-3.4c1.3,0.5,6.8,4.9,8.1,5.4C47.4,27.2,47.8,25.7,47.8,25z"/>
	<path fill="#295B8A" d="M31,40.1c0,0,5.7-7.4,8.1-4.5c1.1,1.3,2.2,6.1-1,8.6c-1.9,1.5-6.9,1.9-7.7,3.1C31.3,43.6,31.2,40,31,40.1z"
		/>
	
		<linearGradient id="SVGID_8_" gradientUnits="userSpaceOnUse" x1="-335.542" y1="42.4662" x2="-308.598" y2="42.4662" gradientTransform="matrix(-1 0 0 1 -288.0439 0)">
		<stop  offset="0" style="stop-color:#FFC5B3"/>
		<stop  offset="0.3645" style="stop-color:#FBBBA8"/>
		<stop  offset="1" style="stop-color:#EFA08B"/>
	</linearGradient>
	<path fill="url(#SVGID_8_)" d="M21.6,37.4c0.4-2.3,2.1-5.4,2.1-5.4s2.1,0.4,4.6,2.7c2.1,1.9,3.2,4.4,3.2,4.4L31,40.1
		c0,0,5.3,3.3,8.6,4.9c1.8,0.8,3.5,0.4,4.5,0.6c1.3,0.2,4.3,1.2,3.2,2.6c0.2,0.7,0,1.6-0.7,1.8c0.6,0.9-0.1,1.5-0.5,1.6
		c0.3,1.1-0.6,1.6-2.5,1c-2.4-0.8-2.2,0-7.5-1.7c-5.6-1.8-7.3-2.5-9.8-3.3c-1.8-0.6-4.4-2.1-5.5-4.6C20.1,41.6,21.3,39.1,21.6,37.4z
		"/>
	<g>
		
			<linearGradient id="SVGID_9_" gradientUnits="userSpaceOnUse" x1="-365.7163" y1="116.3888" x2="-346.7296" y2="116.3888" gradientTransform="matrix(-1 0 0 1 -288.0439 0)">
			<stop  offset="0" style="stop-color:#347FB6"/>
			<stop  offset="0.3453" style="stop-color:#337BB2"/>
			<stop  offset="0.7007" style="stop-color:#3270A6"/>
			<stop  offset="1" style="stop-color:#2F6095"/>
		</linearGradient>
		<path fill="url(#SVGID_9_)" d="M59.4,113.8c0.8-0.3,1.5,1,2.2,1.3c0.7,0.3,2.1-1.4,2.9-1.9c0.1,0,0.2-0.1,0.3-0.1l0-0.1
			c0,0,0.2-0.9,0.9-1.8c0.8-1,2.1-1.5,2.1-1.5c0.9-0.5,0.5,2.1,0.2,3.5c0.9,0.6,4,2.6,5.3,2.9c1.5,0.3,3.1-0.3,3.1-0.3
			s0.6,0.9,1.1,1.7c0.6,1.1-0.2,1.7-1.2,2.3c-1,0.6-3,2.2-5.7,2.6c-2.7,0.4-4.1-0.8-4.7-0.6c-0.6,0.2-1,1.3-1,1.3s-1.8,0.1-3.7,0
			c-1.3-0.1-2.5-2.1-2.4-2.4C58.8,120.2,58.8,114.1,59.4,113.8z"/>
		<path fill="#225077" d="M77.5,117.5c0,0-3.3,2.8-6.7,3c-3.5,0.2-5.5-0.9-6.8,0c-1.4,0.9-4.6-0.4-4.6-0.4s2.5,0.8,4.3-0.1
			c2-1,4.8,0,7.3-0.2c1.7-0.1,6.4-2.8,6.4-2.8L77.5,117.5z"/>
		<path fill="#FFFFFF" d="M72.4,115.7c0,0-0.7,0.5-1.9,1.3c-1.2,0.8-1.8,1-1.8,1s0.8-1,1.8-1.8c0.3-0.2,1.3-0.8,1.3-0.8L72.4,115.7z
			"/>
		<path fill="#FFFFFF" d="M70.5,114.7c0,0-1.4,1-1.9,1.3c-0.5,0.3-1.6,1.4-1.6,1.4s0.8-1.5,1.3-2c0.3-0.3,1.6-1,1.6-1L70.5,114.7z"
			/>
		<path fill="#FFFFFF" d="M69,113.8c0,0-1.4,1-1.9,1.3c-0.5,0.3-1.6,1.4-1.6,1.4s0.8-1.5,1.3-2c0.3-0.3,1.6-1,1.6-1L69,113.8z"/>
	</g>
	<g>
		
			<linearGradient id="SVGID_10_" gradientUnits="userSpaceOnUse" x1="-170.8121" y1="103.7399" x2="-154.7682" y2="103.7399" gradientTransform="matrix(-0.8711 -0.4911 -0.4911 0.8711 -83.5496 -65.619)">
			<stop  offset="0" style="stop-color:#347FB6"/>
			<stop  offset="0.3453" style="stop-color:#337BB2"/>
			<stop  offset="0.7007" style="stop-color:#3270A6"/>
			<stop  offset="1" style="stop-color:#2F6095"/>
		</linearGradient>
		<path fill="url(#SVGID_10_)" d="M3.1,96.8c0.4,0,6.5-1.1,6.8-0.5c0.4,0.8-0.8,1.6-1,2.4c-0.2,0.8,1.8,1.8,2.4,2.5
			c0.1,0.1,0.1,0.2,0.2,0.3l0.1-0.1c0,0,0.8,0,1.9,0.5c1.1,0.6,1.9,1.8,1.9,1.8c0.7,0.8-1.9,0.9-3.3,0.9c-0.4,1.1-1.6,4.6-1.6,5.9
			c0,1.5,0.9,3.1,0.9,3.1s-0.7,0.8-1.3,1.4c-0.9,0.9-1.6,0.1-2.4-0.7c-0.8-0.9-2.7-2.6-3.7-5.2c-0.9-2.6-0.1-4.3-0.5-4.9
			c-0.3-0.5-1.4-0.7-1.4-0.7s-0.5-1.8-0.8-3.8C1.1,98.5,2.8,96.8,3.1,96.8z"/>
		<path fill="#225077" d="M10.1,115.1c0,0-3.3-2.7-4.3-6.2c-1-3.4-0.3-5.7-1.5-6.9c-1.2-1.2-0.6-4.8-0.6-4.8s-0.2,2.7,1,4.3
			c1.4,1.8,1,4.8,1.7,7.3c0.5,1.7,4,5.9,4,5.9L10.1,115.1z"/>
		<path fill="#FFFFFF" d="M10.7,109.6c0,0-0.6-0.6-1.7-1.6c-1-1-1.3-1.6-1.3-1.6s1.1,0.6,2.1,1.4c0.3,0.2,1.1,1.1,1.1,1.1
			L10.7,109.6z"/>
		<path fill="#FFFFFF" d="M11.2,107.6c0,0-1.2-1.2-1.6-1.6c-0.4-0.4-1.6-1.3-1.6-1.3s1.6,0.5,2.1,0.9c0.4,0.3,1.3,1.4,1.3,1.4
			L11.2,107.6z"/>
		<path fill="#FFFFFF" d="M11.7,105.8c0,0-1.2-1.2-1.6-1.6c-0.4-0.4-1.6-1.3-1.6-1.3s1.6,0.5,2.1,0.9c0.4,0.3,1.3,1.4,1.3,1.4
			L11.7,105.8z"/>
	</g>
	<path fill="#5B1B1B" d="M49.7,8c0.5,0,1,0.3,0.6,0.5c-0.2,0.1-0.9,0-1.6,0.3C48,9.1,46.9,10,46.9,10S47.8,7.9,49.7,8z"/>
	
		<linearGradient id="SVGID_11_" gradientUnits="userSpaceOnUse" x1="-330.5715" y1="14.7859" x2="-330.5715" y2="11.991" gradientTransform="matrix(-1 0 0 1 -288.0439 0)">
		<stop  offset="0" style="stop-color:#EFA08B"/>
		<stop  offset="0.2778" style="stop-color:#E7917D"/>
		<stop  offset="0.6579" style="stop-color:#E08470"/>
		<stop  offset="0.9948" style="stop-color:#DD7F6C"/>
	</linearGradient>
	<path fill="url(#SVGID_11_)" d="M43.5,13.4c0,0-0.8-1.6-1.4-1.4c-0.6,0.2-0.5,1.2-0.5,1.2s0.5-0.5,0.9-0.3c0.4,0.2,0.1,0.7,0,0.9
		c-0.2,0.6,0.6,0.9,0.6,0.9S43,14.1,43,13.8C43.1,13.5,43.5,13.4,43.5,13.4z"/>
	<path fill="#FFA08D" d="M59.5,85.5l2.2-1.2c0,0,0.3,1.6-0.4,2.7c-0.3,0.5-1.4,2-1.4,2L59.5,85.5z"/>
	
		<linearGradient id="SVGID_12_" gradientUnits="userSpaceOnUse" x1="-311.7971" y1="42.3937" x2="-310.0765" y2="42.3937" gradientTransform="matrix(-1 0 0 1 -288.0439 0)">
		<stop  offset="0" style="stop-color:#EFA08B"/>
		<stop  offset="8.620072e-02" style="stop-color:#ED9C87"/>
		<stop  offset="0.6354" style="stop-color:#E18773"/>
		<stop  offset="0.9948" style="stop-color:#DD7F6C"/>
	</linearGradient>
	<path fill="url(#SVGID_12_)" d="M22,41.7c1.2-0.2,1.7,1.3,1.7,1.3S22,42.6,22,41.7z"/>
	<path fill="#FFFFFF" d="M49.7,10.4c0,0,0.1,0.7,0.1,1c-0.1,0.5-0.6,0.5-1,0.4c-0.4-0.1-0.7-0.4-0.7-0.4l0.9-0.6L49.7,10.4z"/>
	<path fill="#3794B5" d="M49.7,10.4c0,0,0.2,1.1-0.2,1.2c-0.5,0.2-0.5-0.9-0.5-0.9L49.7,10.4z"/>
	<path fill="#5B1B1B" d="M49.3,11.1c0,0.2,0.1,0.3,0.2,0.3c0.1,0,0.2-0.1,0.2-0.3c0-0.2-0.1-0.3-0.2-0.3
		C49.4,10.8,49.3,11,49.3,11.1z"/>
	<path fill="#FFFFFF" d="M49.4,10.9c0,0.1,0.1,0.2,0.1,0.2c0.1,0,0.1-0.1,0.1-0.2c0-0.1-0.1-0.2-0.1-0.2
		C49.5,10.7,49.4,10.8,49.4,10.9z"/>
	<path fill="#FFA08D" d="M51.8,14.4c0,0-0.1,0.2-0.3,0.4c-0.2,0.2-0.4,0-0.2-0.2C51.5,14.4,51.8,14.4,51.8,14.4z"/>
	<path fill="#5B1B1B" d="M49.8,10.1c0.1-0.1,0.3,0.1,0.2,0.2c-0.2,0.3-0.8,0.6-1.2,0.8c-0.4,0.2-1,0.3-1,0.3S49.2,10.5,49.8,10.1z"
		/>
	
		<linearGradient id="SVGID_13_" gradientUnits="userSpaceOnUse" x1="-337.9561" y1="10.0898" x2="-336.2122" y2="10.0898" gradientTransform="matrix(-1 0 0 1 -288.0439 0)">
		<stop  offset="0" style="stop-color:#EFA08B"/>
		<stop  offset="0.156" style="stop-color:#EB9984"/>
		<stop  offset="0.6493" style="stop-color:#E18672"/>
		<stop  offset="0.9948" style="stop-color:#DD7F6C"/>
	</linearGradient>
	<path fill="url(#SVGID_13_)" d="M49.9,9.6c0,0-0.5,0.4-0.9,0.6c-0.4,0.2-0.8,0.4-0.8,0.4s1.1-1,1.4-1.1C49.9,9.4,49.9,9.6,49.9,9.6
		z"/>
	
		<linearGradient id="SVGID_14_" gradientUnits="userSpaceOnUse" x1="-339.9554" y1="6.9907" x2="-323.9431" y2="6.9907" gradientTransform="matrix(-1 0 0 1 -288.0439 0)">
		<stop  offset="0" style="stop-color:#B24E2B"/>
		<stop  offset="0.3843" style="stop-color:#AA4727"/>
		<stop  offset="1" style="stop-color:#A34123"/>
	</linearGradient>
	<path fill="url(#SVGID_14_)" d="M51.9,4.1l-0.5,0.7c0,0-3.6-2.1-5.9-2.6c-2.4-0.5-3.8,0.2-5.2,1.1C37.4,5,36.9,6.4,36.7,8
		c-0.2,2.4,0.1,4.8,0.1,4.8s-2.4-5.5,0.3-8.7s6.7-3.3,9.2-2.4C48.2,2.3,51.9,4.1,51.9,4.1z"/>
	
		<linearGradient id="SVGID_15_" gradientUnits="userSpaceOnUse" x1="-339.4525" y1="16.7456" x2="-338.0002" y2="16.7456" gradientTransform="matrix(-1 0 0 1 -288.0439 0)">
		<stop  offset="0" style="stop-color:#EFA08B"/>
		<stop  offset="0.156" style="stop-color:#EB9984"/>
		<stop  offset="0.6493" style="stop-color:#E18672"/>
		<stop  offset="0.9948" style="stop-color:#DD7F6C"/>
	</linearGradient>
	<path fill="url(#SVGID_15_)" d="M51.1,17c-0.4,0-0.7,0.2-0.9,0.2c-0.1,0-0.4-0.2-0.1-0.6c0.3-0.3,1.3-0.4,1.3-0.4
		S50.9,16.7,51.1,17z"/>
	
		<linearGradient id="SVGID_16_" gradientUnits="userSpaceOnUse" x1="-335.5419" y1="19.462" x2="-331.5506" y2="19.462" gradientTransform="matrix(-1 0 0 1 -288.0439 0)">
		<stop  offset="0" style="stop-color:#EFA08B"/>
		<stop  offset="0.156" style="stop-color:#EB9984"/>
		<stop  offset="0.6493" style="stop-color:#E18672"/>
		<stop  offset="0.9948" style="stop-color:#DD7F6C"/>
	</linearGradient>
	<path fill="url(#SVGID_16_)" d="M47.5,20.7c0,0-0.4,0.1-2-0.7c-1-0.5-2-1.8-2-1.8s0.1,1.7,1.5,2.3C46.3,21,47.5,20.7,47.5,20.7z"/>
	<path fill="#295B8A" d="M48.5,28c0,0-0.4,1.7-2.2,0.8c-1.8-1-5-4-5-4S44,30,47,30.5C50.1,31,48.5,28,48.5,28z"/>
	<path fill="#295B8A" d="M49.3,63.6c0,0-9.4,2.8-14.7,2.2c-5.3-0.6-7.5-1-7.5-1s4.6-0.6,8.7-1.1C40.1,63.1,49.3,63.6,49.3,63.6z"/>
</g>
</svg>
