<?xml version="1.0" encoding="utf-8"?>
<!-- Generator: Adobe Illustrator 24.0.1, SVG Export Plug-In . SVG Version: 6.00 Build 0)  -->
<svg version="1.1" id="Layer_1" xmlns="http://www.w3.org/2000/svg" xmlns:xlink="http://www.w3.org/1999/xlink" x="0px" y="0px"
	 viewBox="0 0 69.1 123.9" enable-background="new 0 0 69.1 123.9" xml:space="preserve">
<g>
	
		<linearGradient id="SVGID_1_" gradientUnits="userSpaceOnUse" x1="237.4711" y1="46.373" x2="254.5601" y2="46.373" gradientTransform="matrix(-1 0 0 1 295.4409 0)">
		<stop  offset="0" style="stop-color:#EFA08B"/>
		<stop  offset="0.6405" style="stop-color:#E48C78"/>
		<stop  offset="0.9948" style="stop-color:#DD7F6C"/>
	</linearGradient>
	<path fill="url(#SVGID_1_)" d="M43.7,45.5c0,0,6.5,0.5,8,0c0.9-0.3,0.8-2.3,1.5-3c1-1.1,1.3-0.4,2.6-0.2c1.6,0.3,1.6,0.8,1.4,1.7
		c0.4,0.3,0.8,0.9,0.4,1.7c0.6,0.5,0.6,1.4-0.1,1.9c-2.3,1.5-3.1,1.2-5.9,1.9c-1.7,0.4-5.6,1.7-8.2,1.5c-2.1-0.2-1.8-0.4-2.2-1
		C40.1,48.1,43.7,45.5,43.7,45.5z"/>
	
		<linearGradient id="SVGID_2_" gradientUnits="userSpaceOnUse" x1="254.3408" y1="83.872" x2="287.377" y2="83.872" gradientTransform="matrix(-1 0 0 1 295.4409 0)">
		<stop  offset="0" style="stop-color:#FFC5B3"/>
		<stop  offset="0.3645" style="stop-color:#FBBBA8"/>
		<stop  offset="1" style="stop-color:#EFA08B"/>
	</linearGradient>
	<path fill="url(#SVGID_2_)" d="M41.1,72.9c0,0-1.8,7.2-3.1,12.3c-0.6,2.2-2,3.5-5.7,4.8c-4.4,1.5-19.5,12.6-19.5,12.6L8.1,103
		l1.1-2.2c0,0,6.2-9.2,10.1-13.7c4.2-4.8,7.9-4.9,8-6.1c0.6-5.3-0.4-16.2-0.4-16.2L41.1,72.9z"/>
	
		<linearGradient id="SVGID_3_" gradientUnits="userSpaceOnUse" x1="249.5515" y1="42.7473" x2="265.8948" y2="42.7473" gradientTransform="matrix(-1 0 0 1 295.4409 0)">
		<stop  offset="0" style="stop-color:#FFC5B3"/>
		<stop  offset="0.3645" style="stop-color:#FBBBA8"/>
		<stop  offset="1" style="stop-color:#EFA08B"/>
	</linearGradient>
	<path fill="url(#SVGID_3_)" d="M45.9,42c0,0-5.1,8.6-5.3,11.4c-0.4,5.3,4,7,4,7L37.1,57l-7.4-1.2c0,0,1.3-6.5,1.6-8.8
		c0.4-3.2,0.9-6.8,0.9-6.8s-2.8-8.5-2.6-11s5.2-5.5,8.6-3.3C41.6,28.1,45.9,42,45.9,42z"/>
	<g>
		
			<linearGradient id="SVGID_4_" gradientUnits="userSpaceOnUse" x1="246.3775" y1="20.54" x2="262.427" y2="20.54" gradientTransform="matrix(-1 0 0 1 295.4409 0)">
			<stop  offset="0" style="stop-color:#FFC5B3"/>
			<stop  offset="0.3645" style="stop-color:#FBBBA8"/>
			<stop  offset="1" style="stop-color:#EFA08B"/>
		</linearGradient>
		<path fill="url(#SVGID_4_)" d="M43.8,33.6L33,28.6c0,0,2.7-4.7,3-6.4c0.4-1.8,0.2-3.8,0.1-5.1c-0.8-0.5-2.3-0.4-2.5-3.6
			c-0.4-4.8,5.7-6.5,10-5.9c1.7,0.2,2.2,0.1,2.9,1.8c0.7,1.7-0.1,1.7,0.1,4.2c0.1,0.7,1.1,1.5,1.6,2.1c0.4,0.4,0.8,0.6,0.7,0.8
			c-0.3,0.8-0.9,0.6-1.2,1c-0.1,0.2-0.5,0.5-0.2,0.9c0.2,0.3-0.2,0.6-0.3,0.7c-0.1,0.5-0.2,0.3-0.3,0.7c-0.2,0.7,0.6,1.5,0,2.2
			c-0.4,0.5-2.2,1.1-3.7,1.8c-1.1,0.6-2.2,0.8-1.5,4.3C42.2,29.9,43.8,33.6,43.8,33.6z"/>
		
			<linearGradient id="SVGID_5_" gradientUnits="userSpaceOnUse" x1="253.716" y1="21.0759" x2="257.4417" y2="21.0759" gradientTransform="matrix(-1 0 0 1 295.4409 0)">
			<stop  offset="0" style="stop-color:#EFA08B"/>
			<stop  offset="0.6405" style="stop-color:#E48C78"/>
			<stop  offset="0.9948" style="stop-color:#DD7F6C"/>
		</linearGradient>
		<path fill="url(#SVGID_5_)" d="M41.7,22.9c0,0-0.5,0.7-2.4-0.9c-1.2-1-1.3-2.8-1.3-2.8s0.6,1.1,2.1,2.5
			C40.7,22.2,41.7,22.9,41.7,22.9z"/>
		
			<linearGradient id="SVGID_6_" gradientUnits="userSpaceOnUse" x1="260.7427" y1="6.4295" x2="268.6232" y2="6.4295" gradientTransform="matrix(-1 0 0 1 295.4409 0)">
			<stop  offset="0" style="stop-color:#7B2B08"/>
			<stop  offset="1" style="stop-color:#682007"/>
		</linearGradient>
		<path fill="url(#SVGID_6_)" d="M27.4,7.8c0.2-1.9,1.5-1.5,2.5-4.1c1-2.8,4.1-2.9,4.6-0.6c0.5,2.3,0,4.3,0,4.3l-2.9,3.3
			c0,0-0.4,0-1,0c-0.5,0.2-1.1,0.5-1.5,0.5c-0.8,0.1-2.2-1.1-2.3-1.8C26.8,9,27.1,8.2,27.4,7.8z M28.6,10.7c0.3,0,0.6,0,0.9-0.1
			c-1.1-0.2-2.2-0.8-2.2-2.2c0-0.1,0-0.2,0-0.3c-0.1,0.3-0.1,0.6-0.1,0.9C27.3,9.8,27.6,10.6,28.6,10.7z"/>
		
			<linearGradient id="SVGID_7_" gradientUnits="userSpaceOnUse" x1="260.509" y1="3.385" x2="266.5355" y2="3.385" gradientTransform="matrix(-1 0 0 1 295.4409 0)">
			<stop  offset="0" style="stop-color:#B24E2B"/>
			<stop  offset="1" style="stop-color:#A34123"/>
		</linearGradient>
		<path fill="url(#SVGID_7_)" d="M28.9,3.5C29,2.7,29.5,1.6,31,1.7c0.1,0,0.3,0.1,0.4,0.1c0.3-0.3,1.1-1,2.2-0.4
			c0.9,0.5,1.1,1.5,1.3,1.9s0,1.9,0,1.9l-0.6,0.3c0,0,0.2-2.8-1.1-3.4c-0.8-0.4-1.3-0.4-1.7-0.3c1.1,0.4,1.7,1.6,1.7,1.6
			c-0.7-1-2-1.4-2.4-1.4c-0.4,0-1.1,0.3-1.4,1c-0.4,0.6,0.1,1.5,0.1,1.5l-0.3,0.5C29.2,5.1,28.8,4.3,28.9,3.5z"/>
		<path fill="#295B8A" d="M35.1,5.7c0,0,0.1-1-1.5,0c-2.2,1.4-2.6,3.9-2,5c0.6,1.1,1.3,0.8,1.3,0.8L35.1,5.7z"/>
		<path fill="#F967A9" d="M47.4,18.1c0,0,0.5-0.1,0.4,0.4c-0.1,0.4-0.3,0.5-0.3,0.5s0.4,0.2,0.3,0.5c-0.1,0.5-0.7,0.3-0.7,0.3
			s-0.8-0.3-1.6-1C46.5,18.7,47.4,18.1,47.4,18.1z"/>
		<path fill="#FFFFFF" d="M45.6,13.1c0,0,0,0.4,0,0.7c0,0.3-0.1,0.7-0.7,0.7c-0.7,0-1.3-0.4-1.3-0.4L45.6,13.1z"/>
		<path fill="#3794B5" d="M45.6,13.2c0,0,0.2,1-0.2,1.2c-0.6,0.2-0.5-0.9-0.5-0.9L45.6,13.2z"/>
		<path fill="#5B1B1B" d="M45.1,13.9c0,0.2,0.1,0.3,0.2,0.3c0.1,0,0.2-0.2,0.2-0.3c0-0.2-0.1-0.3-0.2-0.3
			C45.2,13.6,45.1,13.7,45.1,13.9z"/>
		<ellipse fill="#FFFFFF" cx="45.4" cy="13.6" rx="0.1" ry="0.2"/>
		<path fill="#5B1B1B" d="M45.5,10.4c0.5,0,0.9,0.2,0.7,0.4c-0.4,0.3-0.9,0-1.7,0.4c-0.5,0.3-1.7,1.6-1.7,1.6S43.4,10.3,45.5,10.4z"
			/>
		<path fill="#5B1B1B" d="M43.6,14.1c0,0,0.9-0.5,1.2-0.7c0.5-0.3,0.9-0.7,0.9-0.7s0.1,0.3,0.5,0.5c0.3,0.1,0.7,0.1,0.7,0.1
			s-0.7,0.2-1.2,0.1c0.1,0.2,0.2,0.4,0.4,0.4c-0.6,0-0.8-0.2-0.9-0.4c-0.3,0.2-0.6,0.4-0.9,0.5C43.8,14.1,43.6,14.1,43.6,14.1z"/>
		
			<linearGradient id="SVGID_8_" gradientUnits="userSpaceOnUse" x1="256.8593" y1="4.5461" x2="256.8593" y2="20.5638" gradientTransform="matrix(-1 0 0 1 295.4409 0)">
			<stop  offset="0" style="stop-color:#7B2B08"/>
			<stop  offset="1" style="stop-color:#682007"/>
		</linearGradient>
		<path fill="url(#SVGID_8_)" d="M31.3,12.8c0.4-1.2,0.8-2.6,0.9-2.9c1.7-6.1,8-5.6,9.9-5c4.2,1.2,3.7,3.3,3.7,3.3S44,8.4,42.2,7.9
			c-0.8,0.7-0.5,2-0.7,2.8c-0.2,0.9-1.3,2.1-1.2,3.2c-0.7-0.7-1.7-0.7-2.2,0.7c-0.4,1.1,0.1,1.6,0.6,2.4c-0.2,1.9-2.3,3.5-2.3,3.5
			s-2.2,0.5-4-3.5C31.6,15.7,31.1,13.6,31.3,12.8z M32,15.6c0.1,0.7,0.6,1.4,1.2,1.9C32.8,15.9,32,14,32,11.9
			C31.4,13.4,31.9,14.9,32,15.6z"/>
		<path fill="#FFA08D" d="M48.3,16.8c0,0-0.4,0.1-0.6,0.3c-0.2,0.2,0,0.4,0.2,0.2C48.1,17.1,48.3,16.8,48.3,16.8z"/>
		
			<linearGradient id="SVGID_9_" gradientUnits="userSpaceOnUse" x1="249.5252" y1="12.6497" x2="251.4507" y2="12.6497" gradientTransform="matrix(-1 0 0 1 295.4409 0)">
			<stop  offset="0" style="stop-color:#EFA08B"/>
			<stop  offset="0.156" style="stop-color:#EB9984"/>
			<stop  offset="0.6493" style="stop-color:#E18672"/>
			<stop  offset="0.9948" style="stop-color:#DD7F6C"/>
		</linearGradient>
		<path fill="url(#SVGID_9_)" d="M45.9,11.9v0.4c0,0-0.5,0.4-1.1,0.7c-0.5,0.3-0.9,0.4-0.9,0.4S44.6,12.6,45.9,11.9z"/>
		
			<linearGradient id="SVGID_10_" gradientUnits="userSpaceOnUse" x1="255.8371" y1="17.0754" x2="255.8371" y2="14.4972" gradientTransform="matrix(-1 0 0 1 295.4409 0)">
			<stop  offset="0" style="stop-color:#EFA08B"/>
			<stop  offset="0.2778" style="stop-color:#E7917D"/>
			<stop  offset="0.6579" style="stop-color:#E08470"/>
			<stop  offset="0.9948" style="stop-color:#DD7F6C"/>
		</linearGradient>
		<path fill="url(#SVGID_10_)" d="M38.7,15.2c0,0,0.2-0.9,0.9-0.7c0.7,0.2,0.9,1.2,0.9,1.2s-0.6-0.1-0.6,0.4c0,0.5,0.3,0.6,0.3,0.6
			s-0.2,0.3-0.5,0.3c-0.3-0.1-0.6-0.5-0.4-0.9c0.2-0.4,0.4-0.7,0.3-0.8C39.2,14.9,38.7,15.2,38.7,15.2z"/>
		
			<linearGradient id="SVGID_11_" gradientUnits="userSpaceOnUse" x1="254.6905" y1="10.7179" x2="261.8168" y2="10.7179" gradientTransform="matrix(-1 0 0 1 295.4409 0)">
			<stop  offset="0" style="stop-color:#B24E2B"/>
			<stop  offset="0.3843" style="stop-color:#AA4727"/>
			<stop  offset="1" style="stop-color:#A34123"/>
		</linearGradient>
		<path fill="url(#SVGID_11_)" d="M40.8,12.2c-1.1-0.7-2.7-0.1-4.7-1.4c-0.6-0.4-2.4-3.3-2.4-3.3s0.5,3.1,1.5,4.1
			c1.3,1.2,2.4,1.9,3.3,2.2c1.1-0.7,1.7,0.1,1.7,0.1S40.4,12.8,40.8,12.2z"/>
		
			<linearGradient id="SVGID_12_" gradientUnits="userSpaceOnUse" x1="249.8673" y1="6.4731" x2="260.8871" y2="6.4731" gradientTransform="matrix(-1 0 0 1 295.4409 0)">
			<stop  offset="0" style="stop-color:#B24E2B"/>
			<stop  offset="0.3843" style="stop-color:#AA4727"/>
			<stop  offset="1" style="stop-color:#A34123"/>
		</linearGradient>
		<path fill="url(#SVGID_12_)" d="M34.9,5.8c0.2-0.4,0.7-1.1,1.4-1.6c0.9-0.6,1.5-0.8,2.5-0.6c1,0.2,3.8,1.2,3.8,1.2l0,0
			c2.6,0.7,3,2.1,3,2.1S44.4,5.6,40.8,5c-2.3-0.4-4.1,0-4.9,0.5c0.8,0.2,2,0.2,3.6,0.7c1.6,0.5,2.7,1.8,2.7,1.8s-0.4,0.4-0.6,1.5
			c-0.8-0.8-1.3-2.1-2.6-2.6c-2.5-0.9-4.4-0.7-4.4-0.7S34.6,6,34.9,5.8z M40.3,4.4c0.1,0,0.2,0,0.4,0C40,4.2,39.2,4,38.7,3.8
			c-1.1-0.3-2.3,0.4-2.8,1.2c0,0,0,0,0,0C36.7,4.6,38.1,4.2,40.3,4.4z"/>
		
			<linearGradient id="SVGID_13_" gradientUnits="userSpaceOnUse" x1="262.6283" y1="6.1525" x2="268.1755" y2="6.1525" gradientTransform="matrix(-1 0 0 1 295.4409 0)">
			<stop  offset="0" style="stop-color:#B24E2B"/>
			<stop  offset="1" style="stop-color:#A34123"/>
		</linearGradient>
		<path fill="url(#SVGID_13_)" d="M32.8,6.4c0,0-0.2-1.1-1.8-1.6c-1.6-0.5-2.7-0.2-3.4,0.5C27,6,27.4,7.8,27.4,7.8l0.2-0.9
			c0,0-0.3-1.2,0.8-1.6c1.2-0.4,2.4,0,2.8,0.3c0.4,0.2,1.3,1.1,1.3,1.1L32.8,6.4z"/>
	</g>
	
		<linearGradient id="SVGID_14_" gradientUnits="userSpaceOnUse" x1="256.2875" y1="51.5124" x2="256.2875" y2="41.9398" gradientTransform="matrix(-1 0 0 1 295.4409 0)">
		<stop  offset="0" style="stop-color:#EFA08B"/>
		<stop  offset="0.6405" style="stop-color:#E48C78"/>
		<stop  offset="0.9948" style="stop-color:#DD7F6C"/>
	</linearGradient>
	<path fill="url(#SVGID_14_)" d="M31.4,46.4c0.2-1.5,0.8-3.5,0.5-4l15.6,0.4c0,2.1,0.1,4.3-3.1,6.4c-3.6,2.3-3.6,2.3-3.6,2.3
		s1.8,0.3-2.5-0.6c-3.7-0.7-7.6-0.4-7.6-0.4S31.1,48.8,31.4,46.4z"/>
	
		<linearGradient id="SVGID_15_" gradientUnits="userSpaceOnUse" x1="255.4772" y1="24.8157" x2="255.4772" y2="46.3729" gradientTransform="matrix(-1 0 0 1 295.4409 0)">
		<stop  offset="0" style="stop-color:#347FB6"/>
		<stop  offset="0.3453" style="stop-color:#337BB2"/>
		<stop  offset="0.7007" style="stop-color:#3270A6"/>
		<stop  offset="1" style="stop-color:#2F6095"/>
	</linearGradient>
	<path fill="url(#SVGID_15_)" d="M37,36.2c0.4-0.3,0.8-0.7,1.2-1.3c1.1-1.7,1.6-4.5,0.4-6.6c-1.6-2.8-5.4-2.9-5.4-2.9
		s2.7-1.9,5.8,0.7c1.5,1.3,4.3,5,7.6,8c3.1,2.8,2.1,4.6,1.4,6.8c-0.5,1.5-0.4,1.9,0,3.2l-7.4,2.2L32,42.8l-0.7-5.5
		C31.3,37.3,34.3,37.9,37,36.2z"/>
	<path fill="#295B8A" d="M48.4,39.4c0,0-1,1.6-2.2,2.1c-1.3,0.5-1.7,1.9-0.6,2.7c1.1,0.9,2.2,0.8,2.2,0.8s-0.7-1.6-0.3-2.9
		C47.9,41,48.4,39.4,48.4,39.4z"/>
	
		<linearGradient id="SVGID_16_" gradientUnits="userSpaceOnUse" x1="250.8334" y1="64.361" x2="250.8334" y2="116.665" gradientTransform="matrix(-1 0 0 1 295.4409 0)">
		<stop  offset="0" style="stop-color:#FFC5B3"/>
		<stop  offset="0.3645" style="stop-color:#FBBBA8"/>
		<stop  offset="1" style="stop-color:#EFA08B"/>
	</linearGradient>
	<path fill="url(#SVGID_16_)" d="M44.9,64.4c0,0,4.4,2.1,7.6,7.2c3.1,5,4.2,7.6,5.4,10.6c0.6,1.3,0,3.1-1.5,6.8
		c-0.8,1.8-3.1,6.4-3.9,8.6c-3.3,8.9-5.7,17-5.7,17l-4.8,2.2c0,0,0.4-11.4,0.5-14.1c0.2-5.3,1.5-9.5,2.4-11.7c1.3-3,2.9-4.1,2.9-4.1
		s-6.2-4.2-10.6-7.7c-3.1-2.5-6.2-7.4-6.2-7.4L44.9,64.4z"/>
	<path fill="#682356" d="M27.4,78.4C26.4,66,26.3,64.6,27.7,61c5.2,2.9,10.2,16.8,11.4,19.9C36.1,81.6,30.2,79.6,27.4,78.4z"/>
	
		<linearGradient id="SVGID_17_" gradientUnits="userSpaceOnUse" x1="256.913" y1="54.6357" x2="256.913" y2="82.6667" gradientTransform="matrix(-1 0 0 1 295.4409 0)">
		<stop  offset="0" style="stop-color:#933A7C"/>
		<stop  offset="1" style="stop-color:#7F2E66"/>
	</linearGradient>
	<path fill="url(#SVGID_17_)" d="M44.7,60.5c-1.4-1.7-3.4-3.2-6.7-4.7c-4.4-1.9-8-0.8-8-0.8s-6,7.5-5.4,12.3
		c1.1,7.9,17.1,15.4,17.1,15.4s0.4-5,5.3-8.9c2.2-1.7,5.5-2.2,5.5-2.2S46.8,63,44.7,60.5z"/>
	
		<linearGradient id="SVGID_18_" gradientUnits="userSpaceOnUse" x1="244.3176" y1="37.3332" x2="273.1839" y2="37.3332" gradientTransform="matrix(-1 0 0 1 295.4409 0)">
		<stop  offset="0" style="stop-color:#FFC5B3"/>
		<stop  offset="0.3645" style="stop-color:#FBBBA8"/>
		<stop  offset="1" style="stop-color:#EFA08B"/>
	</linearGradient>
	<path fill="url(#SVGID_18_)" d="M38.4,34.4c0,0-6,2.6-7.2,2.9c-1.1,0.8-2.4,2.8-2.4,2.8s2.8,1.3,4.3,2c2.5,1.1,4.9,2.9,7.6,3.1
		c1.8,0.1,2.9-0.4,4.7-1.7c1.3-0.9,2.5-1,3.5-0.2c1.5,1.1,2.4,1.6,1.9,2.6c0.3,0.6,0,1.8-0.6,1.8c0.4,1-0.4,1-0.7,1.6
		c-0.4,1-2-0.8-3.3-0.4c-2.3,0.8-3.5,0.5-5.6,0.6c-3.6,0.3-11.6-2.4-14.5-3.9c-1.6-0.8-2.2-1.1-3.6-1.7c-1.1-0.5-0.4-2.2,0.3-4.3
		c0.8-2.2,2.3-5.2,4.6-8.8c2.5-3.9,3.8-5.4,6-5.3C37.4,25.4,40.8,30.1,38.4,34.4z"/>
	
		<linearGradient id="SVGID_19_" gradientUnits="userSpaceOnUse" x1="257.2997" y1="35.8366" x2="264.1611" y2="35.8366" gradientTransform="matrix(-1 0 0 1 295.4409 0)">
		<stop  offset="0" style="stop-color:#EFA08B"/>
		<stop  offset="0.6405" style="stop-color:#E48C78"/>
		<stop  offset="0.9948" style="stop-color:#DD7F6C"/>
	</linearGradient>
	<path fill="url(#SVGID_19_)" d="M34.5,34.5c-1.6,0.8-3.3,2.8-3.3,2.8s3.5,0.5,5.1-0.6c1.3-0.9,1.7-1.8,1.7-1.8S36.2,33.7,34.5,34.5
		z"/>
	
		<linearGradient id="SVGID_20_" gradientUnits="userSpaceOnUse" x1="270.9838" y1="42.4135" x2="272.346" y2="42.4135" gradientTransform="matrix(-1 0 0 1 295.4409 0)">
		<stop  offset="0" style="stop-color:#EFA08B"/>
		<stop  offset="8.620072e-02" style="stop-color:#ED9C87"/>
		<stop  offset="0.6354" style="stop-color:#E18773"/>
		<stop  offset="0.9948" style="stop-color:#DD7F6C"/>
	</linearGradient>
	<path fill="url(#SVGID_20_)" d="M23.7,41.5c0,0,0.5,1.6,0.8,1.9c-0.4,0-1.4-0.3-1.4-1.1C23.2,41.4,23.7,41.5,23.7,41.5z"/>
	<path fill="#FFA08D" d="M54.5,81.8c0-0.1,1.3,0.1,1.8,1.6c0.3,0.9-0.9,1.6-0.9,1.6L54.5,81.8z"/>
	<g>
		
			<linearGradient id="SVGID_21_" gradientUnits="userSpaceOnUse" x1="236.9727" y1="115.6939" x2="255.0671" y2="115.6939" gradientTransform="matrix(-1 0 0 1 295.4409 0)">
			<stop  offset="0" style="stop-color:#347FB6"/>
			<stop  offset="0.3453" style="stop-color:#337BB2"/>
			<stop  offset="0.7007" style="stop-color:#3270A6"/>
			<stop  offset="1" style="stop-color:#2F6095"/>
		</linearGradient>
		<path fill="url(#SVGID_21_)" d="M42,112.8c0.6,0.1,0.6,1.5,1.2,1.7c0.7,0.3,2-1.3,2.8-1.7c0.1,0,0.2-0.1,0.3-0.1l0-0.1
			c0,0,0.1-0.8,0.9-1.7c0.7-0.9,2-1.4,2-1.4c0.9-0.5,0.5,1.9,0.2,3.2c0.9,0.6,3.8,2.4,5,2.6c1.4,0.3,3-0.2,3-0.2s0.6,0.8,1,1.5
			c0.6,1-0.2,1.5-1.1,2.1s-2.9,2-5.4,2.4c-2.5,0.4-3.9-0.7-4.5-0.5c-0.5,0.2-1,1.2-1,1.2s-1.7,0.1-3.6,0c-1.3-0.1-2.4-1.9-2.3-2.3
			C40.4,119.2,41.4,112.7,42,112.8z"/>
		<path fill="#225077" d="M58.3,116.7c0,0-3.1,2.6-6.4,2.8c-3.3,0.2-5.2-0.8-6.5,0c-1.3,0.9-4.4-0.4-4.4-0.4s2.4,0.7,4.1-0.1
			c1.9-1,4.6,0,6.9-0.1c1.6-0.1,6.1-2.5,6.1-2.5L58.3,116.7z"/>
		<path fill="#FFFFFF" d="M53.4,115.1c0,0-0.7,0.5-1.8,1.2c-1.1,0.8-1.7,0.9-1.7,0.9s0.8-0.9,1.7-1.7c0.3-0.2,1.2-0.8,1.2-0.8
			L53.4,115.1z"/>
		<path fill="#FFFFFF" d="M51.7,114.2c0,0-1.3,0.9-1.8,1.2c-0.5,0.3-1.5,1.3-1.5,1.3s0.8-1.4,1.2-1.8c0.3-0.3,1.6-0.9,1.6-0.9
			L51.7,114.2z"/>
		<path fill="#FFFFFF" d="M50.2,113.3c0,0-1.3,0.9-1.8,1.2c-0.5,0.3-1.5,1.3-1.5,1.3s0.8-1.4,1.2-1.8c0.3-0.3,1.6-0.9,1.6-0.9
			L50.2,113.3z"/>
	</g>
	<g>
		
			<linearGradient id="SVGID_22_" gradientUnits="userSpaceOnUse" x1="276.1932" y1="105.9313" x2="291.2467" y2="105.9313" gradientTransform="matrix(-1 0 0 1 295.4409 0)">
			<stop  offset="0" style="stop-color:#347FB6"/>
			<stop  offset="0.3453" style="stop-color:#337BB2"/>
			<stop  offset="0.7007" style="stop-color:#3270A6"/>
			<stop  offset="1" style="stop-color:#2F6095"/>
		</linearGradient>
		<path fill="url(#SVGID_22_)" d="M4.7,101.5c0.3-0.2,5.8-3.8,6.2-3.3c0.3,0.5-0.7,1.4-0.5,2.1c0.2,0.7,2.3,0.6,3.1,0.9
			c0.1,0,0.2,0.1,0.3,0.1l0-0.1c0,0,0.7-0.4,1.8-0.5c1.1,0,2.4,0.6,2.4,0.6c0.9,0.3-1.1,1.6-2.3,2.3c0.2,1,0.8,4.5,1.4,5.5
			c0.7,1.2,2.1,2.1,2.1,2.1s-0.2,1-0.5,1.8c-0.4,1.1-1.3,0.9-2.3,0.6c-1.1-0.3-3.4-0.8-5.4-2.5c-2-1.7-2.1-3.4-2.6-3.7
			c-0.5-0.3-1.5,0.1-1.5,0.1s-1.2-1.2-2.4-2.7C3.8,103.7,4.4,101.7,4.7,101.5z"/>
		<path fill="#225077" d="M18.8,112.9c0,0-4-0.6-6.3-3c-2.4-2.3-2.8-4.5-4.3-4.8c-1.5-0.4-2.7-3.5-2.7-3.5s1.1,2.3,2.8,3
			c2,0.8,3,3.4,4.7,5.1c1.1,1.1,5.9,2.9,5.9,2.9L18.8,112.9z"/>
		<path fill="#FFFFFF" d="M16.8,108.2c0,0-0.8-0.2-2.1-0.5c-1.3-0.3-1.8-0.7-1.8-0.7s1.2,0,2.4,0.2c0.4,0.1,1.4,0.4,1.4,0.4
			L16.8,108.2z"/>
		<path fill="#FFFFFF" d="M16.3,106.3c0,0-1.5-0.4-2.1-0.5c-0.6-0.1-2-0.3-2-0.3s1.6-0.3,2.2-0.3c0.4,0,1.7,0.6,1.7,0.6L16.3,106.3z
			"/>
		<path fill="#FFFFFF" d="M15.9,104.7c0,0-1.5-0.4-2.1-0.5c-0.6-0.1-2-0.3-2-0.3s1.6-0.3,2.2-0.3c0.4,0,1.7,0.6,1.7,0.6L15.9,104.7z
			"/>
	</g>
</g>
</svg>
