<?xml version="1.0" encoding="utf-8"?>
<!-- Generator: Adobe Illustrator 24.0.1, SVG Export Plug-In . SVG Version: 6.00 Build 0)  -->
<svg version="1.1" id="Layer_1" xmlns="http://www.w3.org/2000/svg" xmlns:xlink="http://www.w3.org/1999/xlink" x="0px" y="0px"
	 viewBox="0 0 69.1 123.9" enable-background="new 0 0 69.1 123.9" xml:space="preserve">
<g>
	
		<linearGradient id="SVGID_1_" gradientUnits="userSpaceOnUse" x1="446.7421" y1="46.0597" x2="466.1373" y2="46.0597" gradientTransform="matrix(-1 0 0 1 506.0886 0)">
		<stop  offset="0" style="stop-color:#EFA08B"/>
		<stop  offset="0.6405" style="stop-color:#E48C78"/>
		<stop  offset="0.9948" style="stop-color:#DD7F6C"/>
	</linearGradient>
	<path fill="url(#SVGID_1_)" d="M43.2,44.9c0,0,7.3-0.1,8.9-0.7c1-0.4,1.4-1.5,2.2-2.4c1.1-1.2,1-0.9,2.6-0.6
		c1.8,0.3,1.8,0.9,1.5,1.9c0.5,0.4,0.9,1,0.4,1.9c0.7,0.6,0.7,1.6-0.1,2.2c-2.6,1.7-3.5,1.3-6.7,2.2c-1.9,0.5-6.4,2-9.3,1.7
		c-2.4-0.3-2.1-0.4-2.5-1.2C39,47.9,43.2,44.9,43.2,44.9z"/>
	<path fill="#FFA08D" d="M9.9,100.3c0,0,1.2-4.2,4.9-8.7c1,1.9,5.4,3.9,7.1,5c-4.5,3.3-8.8,6.7-8.8,6.7l-4.3,0.4L9.9,100.3z"/>
	<path fill="#682356" d="M45.2,74.1c-0.6,1.2-5.7,11.4-7.9,14.4c-2.2,3-4.7,3-8.2,5C26.7,94.8,19,98.9,19,98.9s-2.7-0.4-3.6-1.2
		c-1.2-1-2.6-3.2-2.6-3.2s2.6-5.5,5.7-8.8c3.4-3.7,7.1-5,7.1-5s-5.2-8.9-2.8-17C24.1,58.9,45.2,74.1,45.2,74.1z"/>
	<g>
		
			<linearGradient id="SVGID_2_" gradientUnits="userSpaceOnUse" x1="455.7434" y1="20.4029" x2="473.9837" y2="20.4029" gradientTransform="matrix(-1 0 0 1 506.0886 0)">
			<stop  offset="0" style="stop-color:#FFC5B3"/>
			<stop  offset="0.3645" style="stop-color:#FBBBA8"/>
			<stop  offset="1" style="stop-color:#EFA08B"/>
		</linearGradient>
		<path fill="url(#SVGID_2_)" d="M45,33.6l-12.9-5.8c0,0,3-4,3.3-5.8c0.6-2.9-0.4-6.7-0.4-7.1l0,0c-0.1-0.4-0.2-0.9-0.3-1.6
			c-0.4-4.9,5.8-6.5,10.1-6c1.8,0.2,2.3,0.1,3,1.8c0.7,1.7-0.1,1.7,0.1,4.2c0.1,0.7,1.1,1.5,1.6,2.1c0.4,0.4,0.8,0.6,0.7,0.8
			c-0.3,0.9-0.9,0.6-1.3,1.1c-0.1,0.2-0.5,0.5-0.2,1c-0.7,0.4-1.4,0.6-1.5,0.8c-0.1,0.5,1,0.3,0.9,0.7c-0.2,0.7,0.9,1.8,0.2,2.4
			c-0.9,0.8-2,1.4-2.9,2.5c-1,1.4-1.3,1.6-1.8,4C43.5,30.4,45,33.6,45,33.6z"/>
		
			<linearGradient id="SVGID_3_" gradientUnits="userSpaceOnUse" x1="470.896" y1="6.2158" x2="479.65" y2="6.2158" gradientTransform="matrix(-1 0 0 1 506.0886 0)">
			<stop  offset="0" style="stop-color:#7B2B08"/>
			<stop  offset="1" style="stop-color:#682007"/>
		</linearGradient>
		<path fill="url(#SVGID_3_)" d="M27,7.8c0.2-2.1,1.7-1.7,2.8-4.5C31,0.2,34.4,0,35,2.6c0.5,2.5,0,4.8,0,4.8L31.7,11
			c0,0-0.5,0-1.1,0c-0.5,0.3-1.2,0.5-1.7,0.6c-0.9,0.1-2.4-1.2-2.5-2.1C26.4,9,26.8,8.2,27,7.8z M28.5,11c0.3,0,0.7,0,1-0.1
			c-1.2-0.3-2.4-0.9-2.5-2.4c0-0.1,0-0.2,0-0.3c-0.1,0.3-0.1,0.7-0.1,1C27,9.9,27.3,10.8,28.5,11z"/>
		<path fill="#295B8A" d="M35.7,5.5c0,0,0.1-1.2-1.7,0C31.6,7,31.1,9.8,31.7,11c0.7,1.2,1.5,0.9,1.5,0.9L35.7,5.5z"/>
		<path fill="#7B2B08" d="M31.5,13.3c0.4-1.3,0.8-2.3,0.8-2.3s0,0,0,0c0-0.3,0.1-0.7,0.2-1c1.9-6.8,8.8-6.2,11-5.6
			c4.7,1.3,4.1,3.7,4.1,3.7s-2.1,0.2-4.1-0.3c-0.9,0.8-0.6,2.2-0.8,3.2c-0.3,1.1-1.5,2.3-1.4,3.5c-0.7-0.8-1.9-0.8-2.5,0.8
			c-0.4,1.2,0.2,1.8,0.6,2.7c-0.3,2.1-4,4-4,4s-1.9-0.5-2.4-0.9C30.8,19.1,31.2,14.2,31.5,13.3z M32.2,16.4c0.1,0.8,0.7,1.6,1.3,2.2
			c-0.4-1.8-1.2-3.9-1.3-6.2C31.5,13.9,32,15.6,32.2,16.4z"/>
		<path fill="#F967A9" d="M48.7,17.9c0,0,0.5-0.1,0.4,0.4c-0.1,0.4-1.1,0.8-1.1,0.8s0.8,0.3,0.9,0.8c0.1,0.5-0.5,0.4-0.5,0.4
			s-0.7-0.4-1.5-1C47.6,18.6,48.7,17.9,48.7,17.9z"/>
		<path fill="#FFFFFF" d="M46.9,12.9c0,0,0,0.4,0,0.7c0,0.3-0.1,0.7-0.7,0.7s-1.3-0.4-1.3-0.4L46.9,12.9z"/>
		<path fill="#3794B5" d="M46.9,13c0,0,0.2,1-0.2,1.2c-0.6,0.2-0.5-0.9-0.5-0.9L46.9,13z"/>
		<path fill="#5B1B1B" d="M46.4,13.7c0,0.2,0.1,0.3,0.2,0.3c0.1,0,0.2-0.2,0.2-0.3c0-0.2-0.1-0.3-0.2-0.3
			C46.5,13.4,46.4,13.5,46.4,13.7z"/>
		<ellipse fill="#FFFFFF" cx="46.6" cy="13.4" rx="0.1" ry="0.2"/>
		<path fill="#5B1B1B" d="M46.7,10.2c0.5,0,1,0.2,0.7,0.5c-0.5,0.3-1,0-1.7,0.4c-0.5,0.3-1.7,1.8-1.7,1.8S44.6,10,46.7,10.2z"/>
		<path fill="#5B1B1B" d="M44.9,13.9c0,0,0.9-0.5,1.2-0.7c0.5-0.4,0.9-0.7,0.9-0.7s0.1,0.3,0.5,0.5c0.3,0.1,0.8,0.1,0.8,0.1
			s-0.8,0.2-1.2,0.1c0.1,0.2,0.3,0.4,0.4,0.4c-0.6,0-0.8-0.2-0.9-0.4c-0.3,0.2-0.6,0.4-0.9,0.5C45,13.9,44.9,13.9,44.9,13.9z"/>
		<path fill="#FFA08D" d="M49.6,16.6c0,0-0.4,0.1-0.6,0.3c-0.2,0.2,0,0.4,0.2,0.2C49.4,16.9,49.6,16.6,49.6,16.6z"/>
		
			<linearGradient id="SVGID_4_" gradientUnits="userSpaceOnUse" x1="458.9248" y1="12.4284" x2="460.8708" y2="12.4284" gradientTransform="matrix(-1 0 0 1 506.0886 0)">
			<stop  offset="0" style="stop-color:#EFA08B"/>
			<stop  offset="0.156" style="stop-color:#EB9984"/>
			<stop  offset="0.6493" style="stop-color:#E18672"/>
			<stop  offset="0.9948" style="stop-color:#DD7F6C"/>
		</linearGradient>
		<path fill="url(#SVGID_4_)" d="M47.2,11.7v0.4c0,0-0.5,0.4-1.1,0.7c-0.5,0.3-0.9,0.4-0.9,0.4S45.9,12.4,47.2,11.7z"/>
		
			<linearGradient id="SVGID_5_" gradientUnits="userSpaceOnUse" x1="464.7019" y1="16.4593" x2="466.5468" y2="16.4593" gradientTransform="matrix(-1 0 0 1 506.0886 0)">
			<stop  offset="0" style="stop-color:#EFA08B"/>
			<stop  offset="0.2778" style="stop-color:#E7917D"/>
			<stop  offset="0.6579" style="stop-color:#E08470"/>
			<stop  offset="0.9948" style="stop-color:#DD7F6C"/>
		</linearGradient>
		<path fill="url(#SVGID_5_)" d="M39.5,15.9c0,0,0.2-0.9,0.9-0.7c0.7,0.2,0.9,1.3,0.9,1.3s-0.6-0.1-0.6,0.4c0,0.5,0.3,0.6,0.3,0.6
			s-0.2,0.3-0.5,0.3c-0.3-0.1-0.6-0.5-0.4-0.9c0.2-0.4,0.4-0.7,0.3-0.9C40.1,15.5,39.5,15.9,39.5,15.9z"/>
		
			<linearGradient id="SVGID_6_" gradientUnits="userSpaceOnUse" x1="464.1731" y1="10.9796" x2="472.0892" y2="10.9796" gradientTransform="matrix(-1 0 0 1 506.0886 0)">
			<stop  offset="0" style="stop-color:#B24E2B"/>
			<stop  offset="0.3843" style="stop-color:#AA4727"/>
			<stop  offset="1" style="stop-color:#A34123"/>
		</linearGradient>
		<path fill="url(#SVGID_6_)" d="M41.9,12.6c-1.2-0.7-3-0.1-5.2-1.6C36,10.6,34,7.4,34,7.4s0.5,3.4,1.7,4.6c1.4,1.4,2.7,2.1,3.7,2.4
			c1.2-0.7,1.9,0.1,1.9,0.1S41.5,13.3,41.9,12.6z"/>
		
			<linearGradient id="SVGID_7_" gradientUnits="userSpaceOnUse" x1="458.8154" y1="6.2642" x2="471.0565" y2="6.2642" gradientTransform="matrix(-1 0 0 1 506.0886 0)">
			<stop  offset="0" style="stop-color:#B24E2B"/>
			<stop  offset="0.3843" style="stop-color:#AA4727"/>
			<stop  offset="1" style="stop-color:#A34123"/>
		</linearGradient>
		<path fill="url(#SVGID_7_)" d="M35.4,5.5c0.3-0.4,0.8-1.3,1.5-1.7c1-0.7,1.6-0.9,2.7-0.7c1.1,0.2,4.3,1.4,4.3,1.4l0,0
			c2.9,0.8,3.4,2.4,3.4,2.4S46,5.3,41.9,4.6c-2.6-0.5-4.6,0-5.4,0.6c0.9,0.2,2.2,0.2,4,0.7c1.7,0.5,3,2,3,2S43,8.3,42.8,9.6
			c-0.9-0.9-1.4-2.3-2.9-2.8c-2.7-1-4.9-0.8-4.9-0.8S35.1,5.7,35.4,5.5z M41.4,3.9c0.1,0,0.3,0,0.4,0c-0.7-0.2-1.5-0.5-2.2-0.7
			C38.4,3,37,3.8,36.5,4.7c0,0,0,0,0,0C37.5,4.1,39,3.7,41.4,3.9z"/>
		
			<linearGradient id="SVGID_8_" gradientUnits="userSpaceOnUse" x1="470.6364" y1="2.649" x2="477.3309" y2="2.649" gradientTransform="matrix(-1 0 0 1 506.0886 0)">
			<stop  offset="0" style="stop-color:#B24E2B"/>
			<stop  offset="1" style="stop-color:#A34123"/>
		</linearGradient>
		<path fill="url(#SVGID_8_)" d="M28.8,3c0.1-0.8,0.7-2.2,2.3-2c0.2,0,0.3,0.1,0.4,0.1c0.3-0.3,1.2-1.1,2.5-0.5
			c1,0.5,1.3,1.6,1.4,2.2c0.1,0.5,0,2.2,0,2.2h-0.6c0,0,0.1-2.8-1.2-3.4c-0.9-0.4-1.5-0.4-1.9-0.4C32.9,1.6,33.6,3,33.6,3
			c-0.7-1.1-2.2-1.5-2.6-1.6c-0.4,0-1.2,0.4-1.6,1.1c-0.4,0.7,0.1,1.7,0.1,1.7l-0.3,0.6C29.1,4.7,28.7,3.8,28.8,3z"/>
		
			<linearGradient id="SVGID_9_" gradientUnits="userSpaceOnUse" x1="472.9906" y1="5.9082" x2="479.1526" y2="5.9082" gradientTransform="matrix(-1 0 0 1 506.0886 0)">
			<stop  offset="0" style="stop-color:#B24E2B"/>
			<stop  offset="1" style="stop-color:#A34123"/>
		</linearGradient>
		<path fill="url(#SVGID_9_)" d="M33.1,6.2c0,0-0.3-1.2-2-1.8c-1.8-0.6-3.1-0.2-3.7,0.6C26.7,5.7,27,7.7,27,7.7l0.3-1
			c0,0-0.4-1.3,0.9-1.8c1.3-0.5,2.7,0,3.2,0.3c0.5,0.3,1.5,1.2,1.5,1.2L33.1,6.2z"/>
	</g>
	<path fill="#FFC5B3" d="M49.2,104.6c-1.8,4.5-1.9,7.1-1.9,7.1l-6.1,2.4c0.5,0.9,0-2.1-1.3-11.8C41.7,103.2,47.3,105.1,49.2,104.6z"
		/>
	
		<linearGradient id="SVGID_10_" gradientUnits="userSpaceOnUse" x1="446.3633" y1="79.6719" x2="484.6627" y2="79.6719" gradientTransform="matrix(-1 0 0 1 506.0886 0)">
		<stop  offset="0" style="stop-color:#933A7C"/>
		<stop  offset="1" style="stop-color:#7F2E66"/>
	</linearGradient>
	<path fill="url(#SVGID_10_)" d="M21.5,66.4c-0.4-3.2,2.1-12.8,2-13.6c0,0,12.1,1.4,15.9,2.4C42.8,56.1,45,57,45,57
		c0,2.9,2.2,5.5,2.9,7.3c0.3,0.7,1.4,1.5,1.9,2.1c0.6,0.6,5.6,5.9,7.3,8.4c1.2,1.7,2.9,5.5,2.5,8.4c-0.3,1.9-11,22.8-11,22.8
		s-2.1,0.8-3.8,0.6c-2.2-0.3-4.4-0.5-4.4-0.5s-1.8-9.3,0.4-15.1c1.5-3.8,4-5.6,4-5.6s-5.1-0.8-9.2-2.5
		C32.3,81.4,22.9,77.6,21.5,66.4z"/>
	
		<linearGradient id="SVGID_11_" gradientUnits="userSpaceOnUse" x1="468.7282" y1="24.7243" x2="468.7282" y2="67.7262" gradientTransform="matrix(-1 0 0 1 506.0886 0)">
		<stop  offset="0" style="stop-color:#347FB6"/>
		<stop  offset="0.3453" style="stop-color:#337BB2"/>
		<stop  offset="0.7007" style="stop-color:#3270A6"/>
		<stop  offset="1" style="stop-color:#2F6095"/>
	</linearGradient>
	<path fill="url(#SVGID_11_)" d="M24.8,47.6c2.3-5.4,8-10.7,7.6-10.2c0,0,3.1,0.6,5.8-1.2c0.4-0.3,0.8-0.7,1.2-1.3
		c1.1-1.7,1.6-4.6,0.4-6.7c-1.6-2.8-5.4-2.9-5.4-2.9s2.8-1.9,5.8,0.7c1.5,1.3,5.5,5.6,8.9,8.5c3.4,2.9,4.4,3.9,3.1,7.6
		c-1.1,3,0.7,8.7,1.1,13.4c0.7,9.2-2,12.1-2,12.1s-7.2-6.7-13.9-7.1c-8.2-0.5-15.7,3.8-15.7,3.8S21.5,55.3,24.8,47.6z"/>
	<path fill="#295B8A" d="M52.5,40.5c0,0-1.7,1.3-3.4,2.4c-1.7,1.1-4.6,1.6-3.4,2.7c1.2,1.1,6.2,2.5,6.2,2.5s-0.6-3.2-0.4-4
		C51.7,43.3,52.6,41.6,52.5,40.5z"/>
	
		<linearGradient id="SVGID_12_" gradientUnits="userSpaceOnUse" x1="453.6616" y1="37.8608" x2="484.6162" y2="37.8608" gradientTransform="matrix(-1 0 0 1 506.0886 0)">
		<stop  offset="0" style="stop-color:#FFC5B3"/>
		<stop  offset="0.3645" style="stop-color:#FBBBA8"/>
		<stop  offset="1" style="stop-color:#EFA08B"/>
	</linearGradient>
	<path fill="url(#SVGID_12_)" d="M39.6,34.4c0,0-0.6,1.5-1.9,2.1c-1.9,0.8-3.8,0.8-4.5,1c-1.2,1.7-1.8,2.8-1.8,2.8s3.8,1.4,5.4,2.1
		c2.5,1.1,3.8,1.8,6.5,2c1.8,0.1,2.7,0,3.9-0.6c1.4-0.7,2-1.3,3.1-0.5c1.5,1.1,2.4,1.6,2,2.6c0.3,0.6,0,1.8-0.6,1.8
		c0.4,1-0.4,1-0.7,1.6c-0.4,1-2.1,0.7-3.5,1.1c-2.3,0.8-2.7-1.2-4.8-0.6c-5.2,1.4-13-0.2-15.9-1.7c-1.6-0.8-3.6-1.5-5-2.1
		c-1.1-0.5-0.1-4.3,0.7-6.4c0.8-2.2,1-4.7,4.3-9.9c2.5-4,5.8-4.5,8-4.4C38.5,25.3,42,30.1,39.6,34.4z"/>
	
		<linearGradient id="SVGID_13_" gradientUnits="userSpaceOnUse" x1="466.7823" y1="36.0649" x2="472.867" y2="36.0649" gradientTransform="matrix(-1 0 0 1 506.0886 0)">
		<stop  offset="0" style="stop-color:#EFA08B"/>
		<stop  offset="0.6405" style="stop-color:#E48C78"/>
		<stop  offset="0.9948" style="stop-color:#DD7F6C"/>
	</linearGradient>
	<path fill="url(#SVGID_13_)" d="M36.2,35.3c-1.6,1.6-3,2.2-3,2.2s2.7,0.4,4.3-0.7c1.3-0.9,1.8-1.8,1.8-1.8S37.5,34,36.2,35.3z"/>
	
		<linearGradient id="SVGID_14_" gradientUnits="userSpaceOnUse" x1="481.6123" y1="43.7828" x2="482.9921" y2="43.7828" gradientTransform="matrix(-1 0 0 1 506.0886 0)">
		<stop  offset="0" style="stop-color:#EFA08B"/>
		<stop  offset="0.2947" style="stop-color:#E6907C"/>
		<stop  offset="0.6529" style="stop-color:#DF8370"/>
		<stop  offset="0.9948" style="stop-color:#DD7F6C"/>
	</linearGradient>
	<path fill="url(#SVGID_14_)" d="M23.7,42.7c0,0,0.5,1.9,0.8,2.2c-0.4,0-1.4-0.3-1.4-1.1C23.2,42.9,23.7,42.7,23.7,42.7z"/>
	<g>
		
			<linearGradient id="SVGID_15_" gradientUnits="userSpaceOnUse" x1="447.8873" y1="114.6131" x2="466.1749" y2="114.6131" gradientTransform="matrix(-1 0 0 1 506.0886 0)">
			<stop  offset="0" style="stop-color:#347FB6"/>
			<stop  offset="0.3453" style="stop-color:#337BB2"/>
			<stop  offset="0.7007" style="stop-color:#3270A6"/>
			<stop  offset="1" style="stop-color:#2F6095"/>
		</linearGradient>
		<path fill="url(#SVGID_15_)" d="M41.1,111.9c0.6,0.1,1,1.2,1.6,1.5c0.7,0.3,2-1.3,2.8-1.8c0.1,0,0.2-0.1,0.3-0.1l0-0.1
			c0,0,0.1-0.8,0.9-1.7c0.7-0.9,2.1-1.4,2.1-1.4c0.9-0.5,0.5,1.9,0.2,3.3c0.9,0.6,3.9,2.4,5.1,2.7c1.4,0.3,3-0.2,3-0.2
			s0.6,0.8,1,1.5c0.6,1.1-0.2,1.6-1.2,2.1c-1,0.6-2.9,2.1-5.5,2.4c-2.6,0.4-4-0.7-4.5-0.5c-0.5,0.2-1,1.2-1,1.2s-1.7,0.1-3.6,0
			c-1.3-0.1-2.4-1.9-2.3-2.3C40,118.2,40.6,111.9,41.1,111.9z"/>
		<path fill="#225077" d="M58,115.6c0,0-3.2,2.6-6.5,2.8c-3.3,0.2-5.3-0.9-6.6,0c-1.3,0.9-4.5-0.4-4.5-0.4s2.4,0.7,4.1-0.1
			c1.9-1,4.6,0,7-0.1c1.6-0.1,6.2-2.6,6.2-2.6L58,115.6z"/>
		<path fill="#FFFFFF" d="M53.1,114c0,0-0.7,0.5-1.8,1.2c-1.1,0.8-1.7,0.9-1.7,0.9s0.8-0.9,1.7-1.7c0.3-0.2,1.2-0.8,1.2-0.8
			L53.1,114z"/>
		<path fill="#FFFFFF" d="M51.3,113.1c0,0-1.3,0.9-1.8,1.2c-0.5,0.3-1.5,1.3-1.5,1.3s0.8-1.4,1.2-1.8c0.3-0.3,1.6-0.9,1.6-0.9
			L51.3,113.1z"/>
		<path fill="#FFFFFF" d="M49.8,112.2c0,0-1.3,0.9-1.8,1.2c-0.5,0.3-1.5,1.3-1.5,1.3s0.8-1.4,1.2-1.8c0.3-0.3,1.6-0.9,1.6-0.9
			L49.8,112.2z"/>
	</g>
	<g>
		
			<linearGradient id="SVGID_16_" gradientUnits="userSpaceOnUse" x1="486.2186" y1="106.0115" x2="501.4328" y2="106.0115" gradientTransform="matrix(-1 0 0 1 506.0886 0)">
			<stop  offset="0" style="stop-color:#347FB6"/>
			<stop  offset="0.3453" style="stop-color:#337BB2"/>
			<stop  offset="0.7007" style="stop-color:#3270A6"/>
			<stop  offset="1" style="stop-color:#2F6095"/>
		</linearGradient>
		<path fill="url(#SVGID_16_)" d="M5.2,101.8c0.3-0.2,5.6-4.3,5.9-3.8c0.3,0.5-0.4,1.9-0.2,2.6c0.2,0.7,2.3,0.6,3.2,0.9
			c0.1,0,0.2,0.1,0.3,0.1l0-0.1c0,0,0.7-0.4,1.9-0.5c1.2,0,2.4,0.6,2.4,0.6c1,0.4-1.1,1.6-2.3,2.3c0.2,1,0.8,4.5,1.4,5.6
			c0.7,1.2,2.2,2.1,2.2,2.1s-0.2,1-0.5,1.8c-0.4,1.1-1.3,0.9-2.4,0.6c-1.1-0.3-3.5-0.8-5.5-2.5c-2-1.7-2.1-3.5-2.6-3.7
			c-0.5-0.3-1.5,0.1-1.5,0.1S6.2,106.5,5,105C4.2,104,4.9,101.9,5.2,101.8z"/>
		<path fill="#225077" d="M19.4,113.3c0,0-4-0.6-6.4-3c-2.4-2.3-2.8-4.5-4.4-4.9c-1.5-0.4-2.7-3.6-2.7-3.6s1.1,2.3,2.8,3
			c2,0.8,3.1,3.5,4.8,5.1c1.2,1.1,6,2.9,6,2.9L19.4,113.3z"/>
		<path fill="#FFFFFF" d="M17.4,108.6c0,0-0.8-0.2-2.2-0.5c-1.3-0.3-1.8-0.7-1.8-0.7s1.2,0,2.4,0.2c0.4,0.1,1.4,0.4,1.4,0.4
			L17.4,108.6z"/>
		<path fill="#FFFFFF" d="M16.9,106.6c0,0-1.6-0.4-2.1-0.5c-0.6-0.1-2-0.3-2-0.3s1.6-0.3,2.2-0.3c0.4,0,1.7,0.6,1.7,0.6L16.9,106.6z
			"/>
		<path fill="#FFFFFF" d="M16.5,105c0,0-1.6-0.4-2.1-0.5c-0.6-0.1-2-0.3-2-0.3s1.6-0.3,2.2-0.3c0.4,0,1.7,0.6,1.7,0.6L16.5,105z"/>
	</g>
	
		<linearGradient id="SVGID_17_" gradientUnits="userSpaceOnUse" x1="462.7144" y1="21.9424" x2="466.7823" y2="21.9424" gradientTransform="matrix(-1 0 0 1 506.0886 0)">
		<stop  offset="0" style="stop-color:#EFA08B"/>
		<stop  offset="0.6405" style="stop-color:#E48C78"/>
		<stop  offset="0.9948" style="stop-color:#DD7F6C"/>
	</linearGradient>
	<path fill="url(#SVGID_17_)" d="M43.4,23.6c0,0-1.8-0.5-2.5-1.3c-0.7-0.8-1.5-2.1-1.5-2.1s0.3,2,1.5,2.8S43.4,23.6,43.4,23.6z"/>
	<path fill="#295B8A" d="M41.2,58.4c0,0-6.7-0.4-12.4,1c-5.2,1.2-5.7,1.3-5.7,1.3s1.4-1.4,5.6-2.6C34,56.5,41.2,58.4,41.2,58.4z"/>
</g>
</svg>
