<?xml version="1.0" encoding="utf-8"?>
<!-- Generator: Adobe Illustrator 24.0.1, SVG Export Plug-In . SVG Version: 6.00 Build 0)  -->
<svg version="1.1" id="Layer_1" xmlns="http://www.w3.org/2000/svg" xmlns:xlink="http://www.w3.org/1999/xlink" x="0px" y="0px"
	 viewBox="0 0 69.1 123.9" enable-background="new 0 0 69.1 123.9" xml:space="preserve">
<g>
	
		<linearGradient id="SVGID_1_" gradientUnits="userSpaceOnUse" x1="571.9733" y1="47.0358" x2="589.0623" y2="47.0358" gradientTransform="matrix(-1 0 0 1 629.9536 0)">
		<stop  offset="0" style="stop-color:#EFA08B"/>
		<stop  offset="0.6405" style="stop-color:#E48C78"/>
		<stop  offset="0.9948" style="stop-color:#DD7F6C"/>
	</linearGradient>
	<path fill="url(#SVGID_1_)" d="M43.7,46c0,0,6.9,0.9,8.3,0.3c0.9-0.3,0.8-2.3,1.5-3c1-1.1,0.9-0.8,2.2-0.5c1.6,0.3,1.6,0.8,1.4,1.7
		c0.4,0.3,0.8,0.9,0.4,1.7c0.6,0.5,0.6,1.4-0.1,1.9c-2.3,1.5-3.1,1.2-5.9,1.9c-1.7,0.4-5.6,1.7-8.2,1.5c-2.1-0.2-1.8-0.4-2.2-1
		C40.1,48.7,43.7,46,43.7,46z"/>
	
		<linearGradient id="SVGID_2_" gradientUnits="userSpaceOnUse" x1="588.843" y1="84.1658" x2="621.8792" y2="84.1658" gradientTransform="matrix(-1 0 0 1 629.9536 0)">
		<stop  offset="0" style="stop-color:#FFC5B3"/>
		<stop  offset="0.3645" style="stop-color:#FBBBA8"/>
		<stop  offset="1" style="stop-color:#EFA08B"/>
	</linearGradient>
	<path fill="url(#SVGID_2_)" d="M41.1,73.4c0,0-5.1,5.8-6.4,10.9c-0.6,2.2-0.4,5.3-4.2,6.3s-18.2,12.5-18.2,12.5l-4.2,0.4l1.1-2.2
		c0,0,7.3-9,11.2-13.5c4.2-4.8,7.8-4.2,8-5.4c0.6-5.3,1.3-17.6,1.3-17.6L41.1,73.4z"/>
	
		<linearGradient id="SVGID_3_" gradientUnits="userSpaceOnUse" x1="584.0536" y1="42.8094" x2="600.3969" y2="42.8094" gradientTransform="matrix(-1 0 0 1 629.9536 0)">
		<stop  offset="0" style="stop-color:#FFC5B3"/>
		<stop  offset="0.3645" style="stop-color:#FBBBA8"/>
		<stop  offset="1" style="stop-color:#EFA08B"/>
	</linearGradient>
	<path fill="url(#SVGID_3_)" d="M45.9,42.6c0,0-3.8,5.6-3.8,8.3c0,4.6,1.4,9.1,1.4,9.1l-6.3-2.5l-5.3-1.8c0,0,3.1-4.6,2.9-6.8
		c-0.2-2.2-2.5-8.2-2.5-8.2s-2.8-8.5-2.6-11s5.2-5.5,8.6-3.3C41.6,28.6,45.9,42.6,45.9,42.6z"/>
	<g>
		
			<linearGradient id="SVGID_4_" gradientUnits="userSpaceOnUse" x1="580.8795" y1="15.6533" x2="596.3184" y2="15.6533" gradientTransform="matrix(-1 0 0 1 629.9536 0)">
			<stop  offset="0" style="stop-color:#FFC5B3"/>
			<stop  offset="0.3645" style="stop-color:#FBBBA8"/>
			<stop  offset="1" style="stop-color:#EFA08B"/>
		</linearGradient>
		<path fill="url(#SVGID_4_)" d="M36.7,18.7c-0.2-2-2.7-0.3-3.1-4.6c-0.4-4.8,5.7-6.5,10-5.9c1.7,0.2,2.2,0.1,2.9,1.8
			c0.7,1.7-0.1,1.7,0.1,4.2c0.1,0.7,1.1,1.5,1.6,2.1c0.4,0.4,0.8,0.6,0.7,0.8c-0.3,0.8-0.9,0.6-1.2,1c-0.1,0.2-0.5,0.5-0.2,0.9
			c0.2,0.3-0.2,0.6-0.3,0.7c-0.1,0.5-0.2,0.3-0.3,0.7c-0.2,0.7,0.6,1.4,0,2c-0.4,0.5-4,0.2-4.8,0.5c-1.6,0.6-0.5-0.1-2.1-1.4
			C38.9,20.6,37.7,19.5,36.7,18.7z"/>
		
			<linearGradient id="SVGID_5_" gradientUnits="userSpaceOnUse" x1="586.1849" y1="25.242" x2="596.3188" y2="25.242" gradientTransform="matrix(-1 0 0 1 629.9536 0)">
			<stop  offset="0" style="stop-color:#FFC5B3"/>
			<stop  offset="0.3645" style="stop-color:#FBBBA8"/>
			<stop  offset="1" style="stop-color:#EFA08B"/>
		</linearGradient>
		<path fill="url(#SVGID_5_)" d="M36.1,16.3c2.1,1.5,3.5,6.3,6.1,6.7c-0.8,1.3-1.7,2.2-1,5.7c0.3,1.7,2.6,5.4,2.6,5.4l-10.1-4.3
			c0,0,2.1-5.3,2.4-7C36.6,19.9,36,16.8,36.1,16.3z"/>
		
			<linearGradient id="SVGID_6_" gradientUnits="userSpaceOnUse" x1="586.1849" y1="21.3334" x2="591.866" y2="21.3334" gradientTransform="matrix(-1 0 0 1 629.9536 0)">
			<stop  offset="0" style="stop-color:#EFA08B"/>
			<stop  offset="0.6405" style="stop-color:#E48C78"/>
			<stop  offset="0.9948" style="stop-color:#DD7F6C"/>
		</linearGradient>
		<path fill="url(#SVGID_6_)" d="M43.8,22.9c0,0-1,0.1-1.7,0.6c-0.5,0.4-0.6,0.7-0.6,0.7s-1.2-0.6-2.5-3c-0.9-1.6-0.9-2.8-0.9-2.8
			s1.1,1.7,2.6,3.1C41.3,22.1,43.8,22.9,43.8,22.9z"/>
		
			<linearGradient id="SVGID_7_" gradientUnits="userSpaceOnUse" x1="595.2448" y1="6.9922" x2="603.1253" y2="6.9922" gradientTransform="matrix(-1 0 0 1 629.9536 0)">
			<stop  offset="0" style="stop-color:#7B2B08"/>
			<stop  offset="1" style="stop-color:#682007"/>
		</linearGradient>
		<path fill="url(#SVGID_7_)" d="M27.4,8.4c0.2-1.9,1.5-1.5,2.5-4.1c1-2.8,4.1-2.9,4.6-0.6c0.5,2.3,0,4.3,0,4.3l-2.9,3.3
			c0,0-0.4,0-1,0c-0.5,0.2-1.1,0.5-1.5,0.5c-0.8,0.1-2.2-1.1-2.3-1.8C26.8,9.5,27.1,8.8,27.4,8.4z M28.6,11.3c0.3,0,0.6,0,0.9-0.1
			c-1.1-0.2-2.2-0.8-2.2-2.2c0-0.1,0-0.2,0-0.3c-0.1,0.3-0.1,0.6-0.1,0.9C27.4,10.3,27.6,11.1,28.6,11.3z"/>
		
			<linearGradient id="SVGID_8_" gradientUnits="userSpaceOnUse" x1="595.0111" y1="3.9478" x2="601.0376" y2="3.9478" gradientTransform="matrix(-1 0 0 1 629.9536 0)">
			<stop  offset="0" style="stop-color:#B24E2B"/>
			<stop  offset="1" style="stop-color:#A34123"/>
		</linearGradient>
		<path fill="url(#SVGID_8_)" d="M28.9,4.1C29,3.3,29.5,2.1,31,2.3c0.1,0,0.3,0.1,0.4,0.1c0.3-0.3,1.1-1,2.2-0.4
			c0.9,0.5,1.1,1.5,1.3,1.9c0.1,0.5,0,1.9,0,1.9l-0.6,0.3c0,0,0.2-2.8-1.1-3.4c-0.8-0.4-1.3-0.4-1.7-0.3c1.1,0.4,1.7,1.6,1.7,1.6
			c-0.7-1-2-1.4-2.4-1.4c-0.4,0-1.1,0.3-1.4,1c-0.4,0.6,0.1,1.5,0.1,1.5l-0.3,0.5C29.2,5.6,28.8,4.8,28.9,4.1z"/>
		<path fill="#295B8A" d="M35.2,6.3c0,0,0.1-1-1.5,0c-2.2,1.4-2.6,3.9-2,5c0.6,1.1,1.3,0.8,1.3,0.8L35.2,6.3z"/>
		<path fill="#F967A9" d="M47.4,18.7c0,0,0.5-0.1,0.4,0.4c-0.1,0.4-0.3,0.5-0.3,0.5s0.4,0.2,0.3,0.5c-0.1,0.5-0.7,0.3-0.7,0.3
			s-0.8-0.3-1.6-1C46.5,19.3,47.4,18.7,47.4,18.7z"/>
		<path fill="#FFFFFF" d="M45.6,13.7c0,0,0,0.4,0,0.7c0,0.3-0.1,0.7-0.7,0.7c-0.7,0-1.3-0.4-1.3-0.4L45.6,13.7z"/>
		<path fill="#3794B5" d="M45.6,13.8c0,0,0.2,1-0.2,1.2c-0.6,0.2-0.5-0.9-0.5-0.9L45.6,13.8z"/>
		<ellipse fill="#5B1B1B" cx="45.4" cy="14.5" rx="0.2" ry="0.3"/>
		<path fill="#FFFFFF" d="M45.3,14.2c0,0.1,0.1,0.2,0.1,0.2c0.1,0,0.1-0.1,0.1-0.2c0-0.1-0.1-0.2-0.1-0.2
			C45.3,13.9,45.3,14,45.3,14.2z"/>
		<path fill="#5B1B1B" d="M45.5,11c0.5,0,0.9,0.2,0.7,0.4c-0.4,0.3-0.9,0-1.7,0.4c-0.5,0.3-1.7,1.6-1.7,1.6S43.4,10.9,45.5,11z"/>
		<path fill="#5B1B1B" d="M43.7,14.6c0,0,0.9-0.5,1.2-0.7c0.5-0.3,0.9-0.7,0.9-0.7s0.1,0.3,0.5,0.5c0.3,0.1,0.7,0.1,0.7,0.1
			s-0.7,0.2-1.2,0.1c0.1,0.2,0.2,0.4,0.4,0.4c-0.6,0-0.8-0.2-0.9-0.4c-0.3,0.2-0.6,0.4-0.9,0.5C43.8,14.6,43.7,14.6,43.7,14.6z"/>
		
			<linearGradient id="SVGID_9_" gradientUnits="userSpaceOnUse" x1="591.363" y1="5.1089" x2="591.363" y2="20.4084" gradientTransform="matrix(-1 0 0 1 629.9536 0)">
			<stop  offset="0" style="stop-color:#7B2B08"/>
			<stop  offset="1" style="stop-color:#682007"/>
		</linearGradient>
		<path fill="url(#SVGID_9_)" d="M31.3,13.4c0.4-1.2,0.8-2.6,0.9-2.9c1.7-6.1,8-5.6,9.9-5c4.2,1.2,3.7,3.3,3.7,3.3S44,9,42.2,8.5
			c-0.8,0.7-0.5,2-0.7,2.8c-0.2,0.9-1.3,2.1-1.2,3.2c-0.7-0.7-1.7-0.7-2.2,0.7c-0.4,1.1,0.1,1.6,0.6,2.4c-0.2,1.9-2.3,2.8-2.3,2.8
			s-1.2,0-2-0.5l0,0c0,0-0.9-0.3-1.9-2.3C31.6,16.3,31.1,14.2,31.3,13.4z M32,16.2c0.1,0.7,0.6,1.4,1.2,1.9
			c-0.3-1.7-1.1-3.5-1.1-5.6C31.4,13.9,31.9,15.4,32,16.2z"/>
		<path fill="#FFA08D" d="M48.3,17.4c0,0-0.4,0.1-0.6,0.3c-0.2,0.2,0,0.4,0.2,0.2C48.1,17.7,48.3,17.4,48.3,17.4z"/>
		
			<linearGradient id="SVGID_10_" gradientUnits="userSpaceOnUse" x1="584.0273" y1="13.2125" x2="585.9528" y2="13.2125" gradientTransform="matrix(-1 0 0 1 629.9536 0)">
			<stop  offset="0" style="stop-color:#EFA08B"/>
			<stop  offset="0.156" style="stop-color:#EB9984"/>
			<stop  offset="0.6493" style="stop-color:#E18672"/>
			<stop  offset="0.9948" style="stop-color:#DD7F6C"/>
		</linearGradient>
		<path fill="url(#SVGID_10_)" d="M45.9,12.5v0.4c0,0-0.5,0.4-1.1,0.7c-0.5,0.3-0.9,0.4-0.9,0.4S44.7,13.2,45.9,12.5z"/>
		
			<linearGradient id="SVGID_11_" gradientUnits="userSpaceOnUse" x1="590.3392" y1="17.6381" x2="590.3392" y2="15.0599" gradientTransform="matrix(-1 0 0 1 629.9536 0)">
			<stop  offset="0" style="stop-color:#EFA08B"/>
			<stop  offset="0.2778" style="stop-color:#E7917D"/>
			<stop  offset="0.6579" style="stop-color:#E08470"/>
			<stop  offset="0.9948" style="stop-color:#DD7F6C"/>
		</linearGradient>
		<path fill="url(#SVGID_11_)" d="M38.7,15.8c0,0,0.2-0.9,0.9-0.7c0.7,0.2,0.9,1.2,0.9,1.2s-0.6-0.1-0.6,0.4s0.3,0.6,0.3,0.6
			s-0.2,0.3-0.5,0.3c-0.3-0.1-0.6-0.5-0.4-0.9c0.2-0.4,0.4-0.7,0.3-0.8C39.3,15.4,38.7,15.8,38.7,15.8z"/>
		
			<linearGradient id="SVGID_12_" gradientUnits="userSpaceOnUse" x1="589.1927" y1="11.2807" x2="596.3188" y2="11.2807" gradientTransform="matrix(-1 0 0 1 629.9536 0)">
			<stop  offset="0" style="stop-color:#B24E2B"/>
			<stop  offset="0.3843" style="stop-color:#AA4727"/>
			<stop  offset="1" style="stop-color:#A34123"/>
		</linearGradient>
		<path fill="url(#SVGID_12_)" d="M40.8,12.8c-1.1-0.7-2.7-0.1-4.7-1.4c-0.6-0.4-2.4-3.3-2.4-3.3s0.5,3.1,1.5,4.1
			c1.3,1.2,2.4,1.9,3.3,2.2c1.1-0.7,1.7,0.1,1.7,0.1S40.4,13.4,40.8,12.8z"/>
		
			<linearGradient id="SVGID_13_" gradientUnits="userSpaceOnUse" x1="584.3694" y1="7.0358" x2="595.3893" y2="7.0358" gradientTransform="matrix(-1 0 0 1 629.9536 0)">
			<stop  offset="0" style="stop-color:#B24E2B"/>
			<stop  offset="0.3843" style="stop-color:#AA4727"/>
			<stop  offset="1" style="stop-color:#A34123"/>
		</linearGradient>
		<path fill="url(#SVGID_13_)" d="M34.9,6.3c0.2-0.4,0.7-1.1,1.4-1.6c0.9-0.6,1.5-0.8,2.5-0.6c1,0.2,3.8,1.2,3.8,1.2l0,0
			c2.6,0.7,3,2.1,3,2.1s-1.2-1.3-4.8-1.9c-2.3-0.4-4.1,0-4.9,0.5c0.8,0.2,2,0.2,3.6,0.7c1.6,0.5,2.7,1.8,2.7,1.8s-0.4,0.4-0.6,1.5
			C40.8,9.2,40.3,8,39,7.5c-2.5-0.9-4.4-0.7-4.4-0.7S34.7,6.6,34.9,6.3z M40.3,4.9c0.1,0,0.2,0,0.4,0c-0.6-0.2-1.4-0.5-1.9-0.6
			c-1.1-0.3-2.3,0.4-2.8,1.2c0,0,0,0,0,0C36.8,5.1,38.1,4.7,40.3,4.9z"/>
		
			<linearGradient id="SVGID_14_" gradientUnits="userSpaceOnUse" x1="597.1305" y1="6.7153" x2="602.6776" y2="6.7153" gradientTransform="matrix(-1 0 0 1 629.9536 0)">
			<stop  offset="0" style="stop-color:#B24E2B"/>
			<stop  offset="1" style="stop-color:#A34123"/>
		</linearGradient>
		<path fill="url(#SVGID_14_)" d="M32.8,6.9c0,0-0.2-1.1-1.8-1.6c-1.6-0.5-2.7-0.2-3.4,0.5c-0.6,0.7-0.3,2.5-0.3,2.5l0.2-0.9
			c0,0-0.3-1.2,0.8-1.6c1.2-0.4,2.4,0,2.8,0.3c0.4,0.2,1.3,1.1,1.3,1.1L32.8,6.9z"/>
	</g>
	
		<linearGradient id="SVGID_15_" gradientUnits="userSpaceOnUse" x1="590.1255" y1="25.3785" x2="590.1255" y2="43.3827" gradientTransform="matrix(-1 0 0 1 629.9536 0)">
		<stop  offset="0" style="stop-color:#347FB6"/>
		<stop  offset="0.3453" style="stop-color:#337BB2"/>
		<stop  offset="0.7007" style="stop-color:#3270A6"/>
		<stop  offset="1" style="stop-color:#2F6095"/>
	</linearGradient>
	<path fill="url(#SVGID_15_)" d="M37,36.7c0.4-0.3,0.8-0.7,1.2-1.3c1.1-1.7,1.6-4.5,0.4-6.6C37,26.1,33.2,26,33.2,26
		s2.7-1.9,5.8,0.7c1.5,1.3,4.3,5,7.6,8c3.1,2.8,1.7,5.1,0.2,6.8c-0.5,0.6-0.8,0.8-1.1,1.8h-5.1h-7.8l-1.5-5.5
		C31.3,37.9,34.3,38.5,37,36.7z"/>
	
		<linearGradient id="SVGID_16_" gradientUnits="userSpaceOnUse" x1="586.5355" y1="65.3279" x2="586.5355" y2="117.2278" gradientTransform="matrix(-1 0 0 1 629.9536 0)">
		<stop  offset="0" style="stop-color:#FFC5B3"/>
		<stop  offset="0.3645" style="stop-color:#FBBBA8"/>
		<stop  offset="1" style="stop-color:#EFA08B"/>
	</linearGradient>
	<path fill="url(#SVGID_16_)" d="M43.7,65.3c0,0,0.6,5.4,3.8,10.5c3.1,5,6,5.8,7.6,7.8c0.9,1.1,0.9,2.6-0.7,5.3
		c-1,1.7-2.7,5.7-3.5,7.9c-3.3,8.9-4.1,18.2-4.1,18.2l-4.8,2.2c0,0,0.4-11.4,0.5-14.1c0.2-5.3,1.5-9.5,2.4-11.7
		c1.3-3,2.9-4.1,2.9-4.1s-6-5.1-10.5-8.6c-3.1-2.5-6.3-6.4-6.3-6.4L43.7,65.3z"/>
	<path fill="#682356" d="M27.9,75.9c-0.7-4.2,0.6-9.6,2-13.2c5.2,2.9,5.6,10.7,6.7,13.9C33.7,77.3,30.7,77.1,27.9,75.9z"/>
	
		<linearGradient id="SVGID_17_" gradientUnits="userSpaceOnUse" x1="592.638" y1="54.3959" x2="592.638" y2="78.7044" gradientTransform="matrix(-1 0 0 1 629.9536 0)">
		<stop  offset="0" style="stop-color:#933A7C"/>
		<stop  offset="1" style="stop-color:#7F2E66"/>
	</linearGradient>
	<path fill="url(#SVGID_17_)" d="M43.8,57.3c0,0-2.1-1-5.6-1.9c-3.7-1-5.6-1.1-5.6-1.1s-2.9,5.3-2.9,10.4c0,8,7.8,13.9,7.8,13.9
		s-0.8-3.4,4.2-7.3c2.2-1.7,3.4-1.1,3.4-1.1s0.5-4.6-0.9-7.8C43.3,60.8,43.8,60.2,43.8,57.3z"/>
	
		<linearGradient id="SVGID_18_" gradientUnits="userSpaceOnUse" x1="590.7941" y1="52.1715" x2="590.7941" y2="43.3827" gradientTransform="matrix(-1 0 0 1 629.9536 0)">
		<stop  offset="0" style="stop-color:#EFA08B"/>
		<stop  offset="0.6405" style="stop-color:#E48C78"/>
		<stop  offset="0.9948" style="stop-color:#DD7F6C"/>
	</linearGradient>
	<path fill="url(#SVGID_18_)" d="M45.6,43.4c0,0-1.2,2.3-2.6,4.2c-1.1,1.5-0.9,4.6-0.9,4.6s-0.8-0.3-3.7-0.7
		c-2.2-0.3-4.2-0.2-4.2-0.2s0.6-2.4,0.3-3.8c-0.3-1.6-1.7-4.1-1.7-4.1H45.6z"/>
	
		<linearGradient id="SVGID_19_" gradientUnits="userSpaceOnUse" x1="578.8197" y1="37.8964" x2="607.686" y2="37.8964" gradientTransform="matrix(-1 0 0 1 629.9536 0)">
		<stop  offset="0" style="stop-color:#FFC5B3"/>
		<stop  offset="0.3645" style="stop-color:#FBBBA8"/>
		<stop  offset="1" style="stop-color:#EFA08B"/>
	</linearGradient>
	<path fill="url(#SVGID_19_)" d="M38.5,34.9c0,0-6,2.6-7.2,2.9c-1.1,0.8-3.1,3-3.1,3s3.2,1.6,4.7,2.2c2.5,1.1,5.2,2.9,7.9,3.1
		c1.8,0.1,3.2-0.4,5-1.6c1.3-0.9,2.2-1.6,3.2-0.9c1.5,1.1,2.4,1.6,1.9,2.6c0.3,0.6,0,1.8-0.6,1.8c0.4,1-0.4,1-0.7,1.6
		c-0.4,1-2-0.8-3.3-0.4c-2.3,0.8-3.5,0.5-5.6,0.6c-3.6,0.3-11.6-2.4-14.5-3.9c-1.6-0.8-2.2-1.1-3.6-1.7c-1.1-0.5-0.4-2.2,0.3-4.3
		c0.8-2.2,4.5-3.4,6.4-7.8c1.8-4.3,2-6.4,4.2-6.3C37.4,26,40.8,30.7,38.5,34.9z"/>
	
		<linearGradient id="SVGID_20_" gradientUnits="userSpaceOnUse" x1="591.8018" y1="36.3994" x2="598.6633" y2="36.3994" gradientTransform="matrix(-1 0 0 1 629.9536 0)">
		<stop  offset="0" style="stop-color:#EFA08B"/>
		<stop  offset="0.6405" style="stop-color:#E48C78"/>
		<stop  offset="0.9948" style="stop-color:#DD7F6C"/>
	</linearGradient>
	<path fill="url(#SVGID_20_)" d="M34.5,35.1c-1.6,0.8-3.3,2.8-3.3,2.8s3.5,0.5,5.1-0.6c1.3-0.9,1.7-1.8,1.7-1.8S36.2,34.3,34.5,35.1
		z"/>
	
		<linearGradient id="SVGID_21_" gradientUnits="userSpaceOnUse" x1="605.486" y1="42.9763" x2="606.8481" y2="42.9763" gradientTransform="matrix(-1 0 0 1 629.9536 0)">
		<stop  offset="0" style="stop-color:#EFA08B"/>
		<stop  offset="8.620072e-02" style="stop-color:#ED9C87"/>
		<stop  offset="0.6354" style="stop-color:#E18773"/>
		<stop  offset="0.9948" style="stop-color:#DD7F6C"/>
	</linearGradient>
	<path fill="url(#SVGID_21_)" d="M23.7,42c0,0,0.5,1.6,0.8,1.9c-0.4,0-1.4-0.3-1.4-1.1C23.2,42,23.7,42,23.7,42z"/>
	<path fill="#FFA08D" d="M53.2,83.2c0-0.1,0.8,0.1,1.3,1.6c0.3,0.9-0.5,1.6-0.5,1.6L53.2,83.2z"/>
	<g>
		
			<linearGradient id="SVGID_22_" gradientUnits="userSpaceOnUse" x1="571.4748" y1="116.2567" x2="589.5692" y2="116.2567" gradientTransform="matrix(-1 0 0 1 629.9536 0)">
			<stop  offset="0" style="stop-color:#347FB6"/>
			<stop  offset="0.3453" style="stop-color:#337BB2"/>
			<stop  offset="0.7007" style="stop-color:#3270A6"/>
			<stop  offset="1" style="stop-color:#2F6095"/>
		</linearGradient>
		<path fill="url(#SVGID_22_)" d="M42,113.4c0.6,0.1,0.6,1.5,1.2,1.7c0.7,0.3,2-1.3,2.8-1.7c0.1,0,0.2-0.1,0.3-0.1l0-0.1
			c0,0,0.1-0.8,0.9-1.7c0.7-0.9,2-1.4,2-1.4c0.9-0.5,0.5,1.9,0.2,3.2c0.9,0.6,3.8,2.4,5,2.6c1.4,0.3,3-0.2,3-0.2s0.6,0.8,1,1.5
			c0.6,1-0.2,1.5-1.1,2.1c-0.9,0.6-2.9,2-5.4,2.4c-2.5,0.4-3.9-0.7-4.5-0.5c-0.5,0.2-1,1.2-1,1.2s-1.7,0.1-3.6,0
			c-1.3-0.1-2.4-1.9-2.3-2.3C40.5,119.8,41.4,113.3,42,113.4z"/>
		<path fill="#225077" d="M58.3,117.3c0,0-3.1,2.6-6.4,2.8c-3.3,0.2-5.2-0.8-6.5,0c-1.3,0.9-4.4-0.4-4.4-0.4s2.4,0.7,4.1-0.1
			c1.9-1,4.6,0,6.9-0.1c1.6-0.1,6.1-2.5,6.1-2.5L58.3,117.3z"/>
		<path fill="#FFFFFF" d="M53.4,115.7c0,0-0.7,0.5-1.8,1.2c-1.1,0.8-1.7,0.9-1.7,0.9s0.8-0.9,1.7-1.7c0.3-0.2,1.2-0.8,1.2-0.8
			L53.4,115.7z"/>
		<path fill="#FFFFFF" d="M51.7,114.7c0,0-1.3,0.9-1.8,1.2c-0.5,0.3-1.5,1.3-1.5,1.3s0.8-1.4,1.2-1.8c0.3-0.3,1.6-0.9,1.6-0.9
			L51.7,114.7z"/>
		<path fill="#FFFFFF" d="M50.2,113.9c0,0-1.3,0.9-1.8,1.2c-0.5,0.3-1.5,1.3-1.5,1.3s0.8-1.4,1.2-1.8c0.3-0.3,1.6-0.9,1.6-0.9
			L50.2,113.9z"/>
	</g>
	<g>
		
			<linearGradient id="SVGID_23_" gradientUnits="userSpaceOnUse" x1="610.6953" y1="106.494" x2="625.7488" y2="106.494" gradientTransform="matrix(-1 0 0 1 629.9536 0)">
			<stop  offset="0" style="stop-color:#347FB6"/>
			<stop  offset="0.3453" style="stop-color:#337BB2"/>
			<stop  offset="0.7007" style="stop-color:#3270A6"/>
			<stop  offset="1" style="stop-color:#2F6095"/>
		</linearGradient>
		<path fill="url(#SVGID_23_)" d="M4.7,102c0.3-0.2,5.8-3.8,6.2-3.3s-0.7,1.4-0.5,2.1c0.2,0.7,2.3,0.6,3.1,0.9
			c0.1,0,0.2,0.1,0.3,0.1l0-0.1c0,0,0.7-0.4,1.8-0.5c1.1,0,2.4,0.6,2.4,0.6c0.9,0.3-1.1,1.6-2.3,2.3c0.2,1,0.8,4.5,1.4,5.5
			c0.7,1.2,2.1,2.1,2.1,2.1s-0.2,1-0.5,1.8c-0.4,1.1-1.3,0.9-2.3,0.6c-1.1-0.3-3.4-0.8-5.4-2.5c-2-1.7-2.1-3.4-2.6-3.7
			c-0.5-0.3-1.5,0.1-1.5,0.1s-1.2-1.2-2.4-2.7C3.8,104.3,4.4,102.2,4.7,102z"/>
		<path fill="#225077" d="M18.8,113.5c0,0-4-0.6-6.3-3c-2.4-2.3-2.8-4.5-4.3-4.8c-1.5-0.4-2.7-3.5-2.7-3.5s1.1,2.3,2.8,3
			c2,0.8,3,3.4,4.7,5.1c1.1,1.1,5.9,2.9,5.9,2.9L18.8,113.5z"/>
		<path fill="#FFFFFF" d="M16.8,108.8c0,0-0.8-0.2-2.1-0.5c-1.3-0.3-1.8-0.7-1.8-0.7s1.2,0,2.4,0.2c0.4,0.1,1.4,0.4,1.4,0.4
			L16.8,108.8z"/>
		<path fill="#FFFFFF" d="M16.3,106.9c0,0-1.5-0.4-2.1-0.5c-0.6-0.1-2-0.3-2-0.3s1.6-0.3,2.2-0.3c0.4,0,1.7,0.6,1.7,0.6L16.3,106.9z
			"/>
		<path fill="#FFFFFF" d="M15.9,105.2c0,0-1.5-0.4-2.1-0.5c-0.6-0.1-2-0.3-2-0.3s1.6-0.3,2.2-0.3c0.4,0,1.7,0.6,1.7,0.6L15.9,105.2z
			"/>
	</g>
</g>
</svg>
