<?xml version="1.0" encoding="utf-8"?>
<!-- Generator: Adobe Illustrator 24.0.1, SVG Export Plug-In . SVG Version: 6.00 Build 0)  -->
<svg version="1.1" id="Layer_1" xmlns="http://www.w3.org/2000/svg" xmlns:xlink="http://www.w3.org/1999/xlink" x="0px" y="0px"
	 viewBox="0 0 69.1 123.9" enable-background="new 0 0 69.1 123.9" xml:space="preserve">
<g>
	
		<linearGradient id="SVGID_1_" gradientUnits="userSpaceOnUse" x1="84.6588" y1="46.4922" x2="101.7478" y2="46.4922" gradientTransform="matrix(-1 0 0 1 142.8793 0)">
		<stop  offset="0" style="stop-color:#EFA08B"/>
		<stop  offset="0.6405" style="stop-color:#E48C78"/>
		<stop  offset="0.9948" style="stop-color:#DD7F6C"/>
	</linearGradient>
	<path fill="url(#SVGID_1_)" d="M44,45.6c0,0,5.9-0.1,7.4-0.7c0.9-0.3,1.4-1.6,2.1-2.4c1-1.1,1.3-0.4,2.6-0.2
		c1.6,0.3,1.6,0.8,1.4,1.7c0.4,0.3,0.8,0.9,0.4,1.7c0.6,0.5,0.6,1.4-0.1,1.9c-2.3,1.5-3.1,1.2-5.9,1.9C50,50,46.1,51.3,43.5,51
		c-2.1-0.2-1.8-0.4-2.2-1C40.3,48.2,44,45.6,44,45.6z"/>
	
		<linearGradient id="SVGID_2_" gradientUnits="userSpaceOnUse" x1="101.0078" y1="83.9912" x2="134.5647" y2="83.9912" gradientTransform="matrix(-1 0 0 1 142.8793 0)">
		<stop  offset="0" style="stop-color:#FFC5B3"/>
		<stop  offset="0.3645" style="stop-color:#FBBBA8"/>
		<stop  offset="1" style="stop-color:#EFA08B"/>
	</linearGradient>
	<path fill="url(#SVGID_2_)" d="M41.4,73c0,0,1.3,4.9-0.2,9.1c-0.7,2.1-1.5,3.4-2.1,5c-0.8,2.2-2.7,3.3-6.4,4.7
		C28.3,93.3,13,102.7,13,102.7l-4.7,0.4l1.1-2.2c0,0,4.7-8.9,10.1-13.7c4.8-4.3,8.2-4.1,8.4-5.3c0.6-5.3-0.8-17-0.8-17L41.4,73z"/>
	
		<linearGradient id="SVGID_3_" gradientUnits="userSpaceOnUse" x1="95.2731" y1="43.6738" x2="116.2453" y2="43.6738" gradientTransform="matrix(-1 0 0 1 142.8793 0)">
		<stop  offset="0" style="stop-color:#FFC5B3"/>
		<stop  offset="0.3645" style="stop-color:#FBBBA8"/>
		<stop  offset="1" style="stop-color:#EFA08B"/>
	</linearGradient>
	<path fill="url(#SVGID_3_)" d="M46.1,42.1c0,0,2.3,4.9,1.2,10.8c-1.1,6.2-1.1,9.2-1.1,9.2l-8.8-5.1l-10.8,3c0,0,0.2-4,2.1-9.1
		c1.1-3,3.7-10.8,3.7-10.8s-2.8-8.5-2.6-11c0.2-2.5,5.2-5.5,8.6-3.3C41.8,28.2,46.1,42.1,46.1,42.1z"/>
	<g>
		
			<linearGradient id="SVGID_4_" gradientUnits="userSpaceOnUse" x1="93.5651" y1="20.6592" x2="110.7514" y2="20.6592" gradientTransform="matrix(-1 0 0 1 142.8793 0)">
			<stop  offset="0" style="stop-color:#FFC5B3"/>
			<stop  offset="0.3645" style="stop-color:#FBBBA8"/>
			<stop  offset="1" style="stop-color:#EFA08B"/>
		</linearGradient>
		<path fill="url(#SVGID_4_)" d="M44,33.7l-11.9-4.8c0,0,3.8-4.8,4.2-6.5c0.4-1.8,0.2-3.8,0.1-5.1c-0.8-0.5-2.3-0.4-2.5-3.6
			c-0.4-4.8,5.7-6.5,10-5.9c1.7,0.2,2.2,0.1,2.9,1.8c0.7,1.7-0.1,1.7,0.1,4.2c0.1,0.7,1.1,1.5,1.6,2.1c0.4,0.4,0.8,0.6,0.7,0.8
			c-0.3,0.8-0.9,0.6-1.2,1c-0.1,0.2-0.5,0.5-0.2,0.9c0.2,0.3-0.2,0.6-0.3,0.7c-0.1,0.5-0.2,0.3-0.3,0.7c-0.2,0.7,0.6,1.5,0,2.2
			c-0.4,0.5-1.9,1.1-3.4,1.9c-1.1,0.6-2.3,1.4-1.7,4.9C42.6,30.7,44,33.7,44,33.7z"/>
		
			<linearGradient id="SVGID_5_" gradientUnits="userSpaceOnUse" x1="100.9037" y1="21.1951" x2="104.6294" y2="21.1951" gradientTransform="matrix(-1 0 0 1 142.8793 0)">
			<stop  offset="0" style="stop-color:#EFA08B"/>
			<stop  offset="0.6405" style="stop-color:#E48C78"/>
			<stop  offset="0.9948" style="stop-color:#DD7F6C"/>
		</linearGradient>
		<path fill="url(#SVGID_5_)" d="M42,23c0,0-0.5,0.7-2.4-0.9c-1.2-1-1.3-2.8-1.3-2.8s0.6,1.1,2.1,2.5C41,22.4,42,23,42,23z"/>
		
			<linearGradient id="SVGID_6_" gradientUnits="userSpaceOnUse" x1="107.9303" y1="6.5487" x2="115.8109" y2="6.5487" gradientTransform="matrix(-1 0 0 1 142.8793 0)">
			<stop  offset="0" style="stop-color:#7B2B08"/>
			<stop  offset="1" style="stop-color:#682007"/>
		</linearGradient>
		<path fill="url(#SVGID_6_)" d="M27.6,7.9c0.2-1.9,1.5-1.5,2.5-4.1c1-2.8,4.1-2.9,4.6-0.6c0.5,2.3,0,4.3,0,4.3l-2.9,3.3
			c0,0-0.4,0-1,0c-0.5,0.2-1.1,0.5-1.5,0.5c-0.8,0.1-2.2-1.1-2.3-1.8C27,9.1,27.4,8.4,27.6,7.9z M28.9,10.8c0.3,0,0.6,0,0.9-0.1
			c-1.1-0.2-2.2-0.8-2.2-2.2c0-0.1,0-0.2,0-0.3c-0.1,0.3-0.1,0.6-0.1,0.9C27.6,9.9,27.9,10.7,28.9,10.8z"/>
		
			<linearGradient id="SVGID_7_" gradientUnits="userSpaceOnUse" x1="107.6967" y1="3.5043" x2="113.7231" y2="3.5043" gradientTransform="matrix(-1 0 0 1 142.8793 0)">
			<stop  offset="0" style="stop-color:#B24E2B"/>
			<stop  offset="1" style="stop-color:#A34123"/>
		</linearGradient>
		<path fill="url(#SVGID_7_)" d="M29.2,3.6c0.1-0.8,0.6-1.9,2.1-1.8c0.1,0,0.3,0.1,0.4,0.1c0.3-0.3,1.1-1,2.2-0.4
			C34.8,2,35,3,35.1,3.5s0,1.9,0,1.9l-0.6,0.3c0,0,0.2-2.8-1.1-3.4C32.7,2,32.1,2,31.8,2c1.1,0.4,1.7,1.6,1.7,1.6
			c-0.7-1-2-1.4-2.4-1.4c-0.4,0-1.1,0.3-1.4,1c-0.4,0.6,0.1,1.5,0.1,1.5l-0.3,0.5C29.4,5.2,29.1,4.4,29.2,3.6z"/>
		<path fill="#295B8A" d="M35.4,5.9c0,0,0.1-1-1.5,0c-2.2,1.4-2.6,3.9-2,5c0.6,1.1,1.3,0.8,1.3,0.8L35.4,5.9z"/>
		<path fill="#F967A9" d="M47.7,18.2c0,0,0.5-0.1,0.4,0.4c-0.1,0.4-0.3,0.5-0.3,0.5s0.4,0.2,0.3,0.5c-0.1,0.5-0.7,0.3-0.7,0.3
			s-0.8-0.3-1.6-1C46.7,18.9,47.7,18.2,47.7,18.2z"/>
		<path fill="#FFFFFF" d="M45.9,13.2c0,0,0,0.4,0,0.7c0,0.3-0.1,0.7-0.7,0.7c-0.7,0-1.3-0.4-1.3-0.4L45.9,13.2z"/>
		<path fill="#3794B5" d="M45.9,13.3c0,0,0.2,1-0.2,1.2c-0.6,0.2-0.5-0.9-0.5-0.9L45.9,13.3z"/>
		<path fill="#5B1B1B" d="M45.4,14c0,0.2,0.1,0.3,0.2,0.3c0.1,0,0.2-0.2,0.2-0.3c0-0.2-0.1-0.3-0.2-0.3C45.5,13.7,45.4,13.9,45.4,14
			z"/>
		<ellipse fill="#FFFFFF" cx="45.7" cy="13.7" rx="0.1" ry="0.2"/>
		<path fill="#5B1B1B" d="M45.7,10.5c0.5,0,0.9,0.2,0.7,0.4c-0.4,0.3-0.9,0-1.7,0.4C44.2,11.6,43,13,43,13S43.6,10.4,45.7,10.5z"/>
		<path fill="#5B1B1B" d="M43.9,14.2c0,0,0.9-0.5,1.2-0.7c0.5-0.3,0.9-0.7,0.9-0.7s0.1,0.3,0.5,0.5c0.3,0.1,0.7,0.1,0.7,0.1
			s-0.7,0.2-1.2,0.1c0.1,0.2,0.2,0.4,0.4,0.4c-0.6,0-0.8-0.2-0.9-0.4c-0.3,0.2-0.6,0.4-0.9,0.5C44.1,14.2,43.9,14.2,43.9,14.2z"/>
		
			<linearGradient id="SVGID_8_" gradientUnits="userSpaceOnUse" x1="104.0462" y1="4.6654" x2="104.0462" y2="20.683" gradientTransform="matrix(-1 0 0 1 142.8793 0)">
			<stop  offset="0" style="stop-color:#7B2B08"/>
			<stop  offset="1" style="stop-color:#682007"/>
		</linearGradient>
		<path fill="url(#SVGID_8_)" d="M31.6,13c0.4-1.2,0.8-2.6,0.9-2.9c1.7-6.1,8-5.6,9.9-5c4.2,1.2,3.7,3.3,3.7,3.3s-1.9,0.2-3.7-0.3
			c-0.8,0.7-0.5,2-0.7,2.8c-0.2,0.9-1.3,2.1-1.2,3.2c-0.7-0.7-1.7-0.7-2.2,0.7c-0.4,1.1,0.1,1.6,0.6,2.4c-0.2,1.9-2.3,3.5-2.3,3.5
			s-2.3,0.5-4-3.5C31.9,15.8,31.3,13.8,31.6,13z M32.2,15.7c0.1,0.7,0.6,1.4,1.2,1.9c-0.3-1.7-1.1-3.5-1.1-5.6
			C31.7,13.5,32.1,15,32.2,15.7z"/>
		<path fill="#FFA08D" d="M48.5,16.9c0,0-0.4,0.1-0.6,0.3c-0.2,0.2,0,0.4,0.2,0.2C48.3,17.2,48.5,16.9,48.5,16.9z"/>
		
			<linearGradient id="SVGID_9_" gradientUnits="userSpaceOnUse" x1="96.7129" y1="12.7689" x2="98.6384" y2="12.7689" gradientTransform="matrix(-1 0 0 1 142.8793 0)">
			<stop  offset="0" style="stop-color:#EFA08B"/>
			<stop  offset="0.156" style="stop-color:#EB9984"/>
			<stop  offset="0.6493" style="stop-color:#E18672"/>
			<stop  offset="0.9948" style="stop-color:#DD7F6C"/>
		</linearGradient>
		<path fill="url(#SVGID_9_)" d="M46.2,12v0.4c0,0-0.5,0.4-1.1,0.7c-0.5,0.3-0.9,0.4-0.9,0.4S44.9,12.7,46.2,12z"/>
		
			<linearGradient id="SVGID_10_" gradientUnits="userSpaceOnUse" x1="103.0247" y1="17.1946" x2="103.0247" y2="14.6164" gradientTransform="matrix(-1 0 0 1 142.8793 0)">
			<stop  offset="0" style="stop-color:#EFA08B"/>
			<stop  offset="0.2778" style="stop-color:#E7917D"/>
			<stop  offset="0.6579" style="stop-color:#E08470"/>
			<stop  offset="0.9948" style="stop-color:#DD7F6C"/>
		</linearGradient>
		<path fill="url(#SVGID_10_)" d="M38.9,15.3c0,0,0.2-0.9,0.9-0.7c0.7,0.2,0.9,1.2,0.9,1.2s-0.6-0.1-0.6,0.4c0,0.5,0.3,0.6,0.3,0.6
			s-0.2,0.3-0.5,0.3c-0.3-0.1-0.6-0.5-0.4-0.9c0.2-0.4,0.4-0.7,0.3-0.8C39.5,15,38.9,15.3,38.9,15.3z"/>
		
			<linearGradient id="SVGID_11_" gradientUnits="userSpaceOnUse" x1="101.8782" y1="10.8371" x2="109.0045" y2="10.8371" gradientTransform="matrix(-1 0 0 1 142.8793 0)">
			<stop  offset="0" style="stop-color:#B24E2B"/>
			<stop  offset="0.3843" style="stop-color:#AA4727"/>
			<stop  offset="1" style="stop-color:#A34123"/>
		</linearGradient>
		<path fill="url(#SVGID_11_)" d="M41,12.3c-1.1-0.7-2.7-0.1-4.7-1.4c-0.6-0.4-2.4-3.3-2.4-3.3s0.5,3.1,1.5,4.1
			c1.3,1.2,2.4,1.9,3.3,2.2c1.1-0.7,1.7,0.1,1.7,0.1S40.6,13,41,12.3z"/>
		
			<linearGradient id="SVGID_12_" gradientUnits="userSpaceOnUse" x1="97.0551" y1="6.5923" x2="108.0748" y2="6.5923" gradientTransform="matrix(-1 0 0 1 142.8793 0)">
			<stop  offset="0" style="stop-color:#B24E2B"/>
			<stop  offset="0.3843" style="stop-color:#AA4727"/>
			<stop  offset="1" style="stop-color:#A34123"/>
		</linearGradient>
		<path fill="url(#SVGID_12_)" d="M35.1,5.9c0.2-0.4,0.7-1.1,1.4-1.6c0.9-0.6,1.5-0.8,2.5-0.6c1,0.2,3.8,1.2,3.8,1.2l0,0
			c2.6,0.7,3,2.1,3,2.1S44.7,5.7,41,5.1c-2.3-0.4-4.1,0-4.9,0.5c0.8,0.2,2,0.2,3.6,0.7c1.6,0.5,2.7,1.8,2.7,1.8S42,8.4,41.8,9.6
			C41,8.8,40.6,7.5,39.2,7c-2.5-0.9-4.4-0.7-4.4-0.7S34.9,6.1,35.1,5.9z M40.5,4.5c0.1,0,0.2,0,0.4,0c-0.6-0.2-1.4-0.5-1.9-0.6
			c-1.1-0.3-2.3,0.4-2.8,1.2c0,0,0,0,0,0C37,4.7,38.4,4.3,40.5,4.5z"/>
		
			<linearGradient id="SVGID_13_" gradientUnits="userSpaceOnUse" x1="109.816" y1="6.2717" x2="115.3632" y2="6.2717" gradientTransform="matrix(-1 0 0 1 142.8793 0)">
			<stop  offset="0" style="stop-color:#B24E2B"/>
			<stop  offset="1" style="stop-color:#A34123"/>
		</linearGradient>
		<path fill="url(#SVGID_13_)" d="M33.1,6.5c0,0-0.2-1.1-1.8-1.6c-1.6-0.5-2.7-0.2-3.4,0.5c-0.6,0.7-0.3,2.5-0.3,2.5L27.8,7
			c0,0-0.3-1.2,0.8-1.6c1.2-0.4,2.4,0,2.8,0.3c0.4,0.2,1.3,1.1,1.3,1.1L33.1,6.5z"/>
	</g>
	
		<linearGradient id="SVGID_14_" gradientUnits="userSpaceOnUse" x1="103.1488" y1="52.3714" x2="103.1488" y2="42.0205" gradientTransform="matrix(-1 0 0 1 142.8793 0)">
		<stop  offset="0" style="stop-color:#EFA08B"/>
		<stop  offset="0.6405" style="stop-color:#E48C78"/>
		<stop  offset="0.9948" style="stop-color:#DD7F6C"/>
	</linearGradient>
	<path fill="url(#SVGID_14_)" d="M31.7,46.5c0.2-1.5,0.8-3.5,0.5-4l15.6,0.4c0,2.1,1.2,1.7,0.4,5.3c-0.7,3.1-1.2,4.2-1.2,4.2
		s-4-0.5-8.3-1.4C35,50.3,31,50.6,31,50.6S31.3,48.9,31.7,46.5z"/>
	
		<linearGradient id="SVGID_15_" gradientUnits="userSpaceOnUse" x1="104.541" y1="24.935" x2="104.541" y2="56.591" gradientTransform="matrix(-1 0 0 1 142.8793 0)">
		<stop  offset="0" style="stop-color:#347FB6"/>
		<stop  offset="0.3453" style="stop-color:#337BB2"/>
		<stop  offset="0.7007" style="stop-color:#3270A6"/>
		<stop  offset="1" style="stop-color:#2F6095"/>
	</linearGradient>
	<path fill="url(#SVGID_15_)" d="M37.2,36.3c0.4-0.3,0.8-0.7,1.2-1.3c1.1-1.7,1.6-4.5,0.4-6.6c-1.6-2.8-5.4-2.9-5.4-2.9
		s2.7-1.9,5.8,0.7c1.5,1.3,4.3,5,7.6,8c3.1,2.8,2.2,4.6,1.4,6.8c-0.6,1.5,0.3,7.4-1.4,15.5c-2-1.7-3.2-2.3-5.4-2.7
		c-3.2-0.6-9.1-0.7-13.6,0.3c0.7-3.7,2.1-6.7,3.2-8.4c1.5-2.4,0.6-8.3,0.6-8.3S34.6,38,37.2,36.3z"/>
	<path fill="#295B8A" d="M48.7,39.5c0,0-1,1.6-2.2,2.1c-1.3,0.5-1.7,1.9-0.6,2.7c1.1,0.9,2.2,0.8,2.2,0.8s-0.5-0.9-0.1-2.3
		C48.3,41.7,48.7,39.5,48.7,39.5z"/>
	
		<linearGradient id="SVGID_16_" gradientUnits="userSpaceOnUse" x1="97.2036" y1="64.4802" x2="97.2036" y2="116.7842" gradientTransform="matrix(-1 0 0 1 142.8793 0)">
		<stop  offset="0" style="stop-color:#FFC5B3"/>
		<stop  offset="0.3645" style="stop-color:#FBBBA8"/>
		<stop  offset="1" style="stop-color:#EFA08B"/>
	</linearGradient>
	<path fill="url(#SVGID_16_)" d="M45.2,64.5c0,0,7.2,3.7,10.5,8.8c3.1,5,3.4,4.4,4.4,7.9c0.4,1.4-0.3,4.9-2.2,8.4
		c-1.3,2.4-3.9,6.4-4.7,8.6c-3.3,8.9-6,16.4-6,16.4l-4.8,2.2c0,0,0.4-11.4,0.5-14.1c0.2-5.3,1.1-9.8,1.8-12.1
		c1.1-3.7,3.3-5.3,3.3-5.3s-6.1-2.7-10.5-6.2c-3.1-2.5-6.2-7.4-6.2-7.4L45.2,64.5z"/>
	<path fill="#682356" d="M27.9,81.9c-0.8-1.7-1.7-7.3-1.8-8.6c-0.7-8.4-0.1-11,1.1-14.1c3.4,1.9,12.6,9.9,14.9,15.2
		c1.1,2.7-0.9,8.5-1.6,9.8C36.7,85.4,30.6,83.1,27.9,81.9z"/>
	
		<linearGradient id="SVGID_17_" gradientUnits="userSpaceOnUse" x1="100.1318" y1="54.1703" x2="100.1318" y2="85.3685" gradientTransform="matrix(-1 0 0 1 142.8793 0)">
		<stop  offset="0" style="stop-color:#933A7C"/>
		<stop  offset="1" style="stop-color:#7F2E66"/>
	</linearGradient>
	<path fill="url(#SVGID_17_)" d="M46.9,61.1c-1.4-1.7-4.8-4.5-8.1-5.8c-5.3-2.2-11.3-0.5-11.3-0.5s-1.6,6.6-0.9,11.4
		c0.4,2.8,1,5.6,4.4,8.8c6.3,6,16.9,10.4,16.9,10.4s0.8-1.3,5.7-5.2c2.2-1.7,5.4-1.9,5.4-1.9s-4.3-7-5.5-8.6
		C51.5,67,48.3,62.8,46.9,61.1z"/>
	
		<linearGradient id="SVGID_18_" gradientUnits="userSpaceOnUse" x1="91.5053" y1="37.6915" x2="120.2173" y2="37.6915" gradientTransform="matrix(-1 0 0 1 142.8793 0)">
		<stop  offset="0" style="stop-color:#FFC5B3"/>
		<stop  offset="0.3645" style="stop-color:#FBBBA8"/>
		<stop  offset="1" style="stop-color:#EFA08B"/>
	</linearGradient>
	<path fill="url(#SVGID_18_)" d="M38.7,34.5c0,0-6,2.6-7.2,2.9c-1.1,0.8-1.7,2.8-1.7,2.8s2.1,1.3,3.7,2c2.5,1.1,4.9,2.9,7.6,3.1
		c1.8,0.1,2.9-0.4,4.7-1.7c1.3-0.9,2.5-1,3.5-0.2c1.5,1.1,2.4,1.6,1.9,2.6c0.3,0.6,0,1.8-0.6,1.8c0.4,1-0.4,1-0.7,1.6
		c-0.4,1-2.6-0.1-3.9,0.3c-2.3,0.8-2.8,0.3-4.9,0.5c-3.6,0.3-11.8-2-14.7-3.5c-1.6-0.8-2.6-1.4-3.5-2.6c-0.8-1-0.4-2.2,0.3-4.3
		c0.8-2.2,1.4-6,3.7-9.6c2.5-3.9,4.8-4.7,7-4.6C37.6,25.5,41,30.2,38.7,34.5z"/>
	
		<linearGradient id="SVGID_19_" gradientUnits="userSpaceOnUse" x1="104.4874" y1="35.9559" x2="111.3489" y2="35.9559" gradientTransform="matrix(-1 0 0 1 142.8793 0)">
		<stop  offset="0" style="stop-color:#EFA08B"/>
		<stop  offset="0.6405" style="stop-color:#E48C78"/>
		<stop  offset="0.9948" style="stop-color:#DD7F6C"/>
	</linearGradient>
	<path fill="url(#SVGID_19_)" d="M34.8,34.6c-1.6,0.8-3.3,2.8-3.3,2.8s3.5,0.5,5.1-0.6C38,36,38.4,35,38.4,35S36.4,33.8,34.8,34.6z"
		/>
	
		<linearGradient id="SVGID_20_" gradientUnits="userSpaceOnUse" x1="118.1715" y1="42.5328" x2="119.5337" y2="42.5328" gradientTransform="matrix(-1 0 0 1 142.8793 0)">
		<stop  offset="0" style="stop-color:#EFA08B"/>
		<stop  offset="8.620072e-02" style="stop-color:#ED9C87"/>
		<stop  offset="0.6354" style="stop-color:#E18773"/>
		<stop  offset="0.9948" style="stop-color:#DD7F6C"/>
	</linearGradient>
	<path fill="url(#SVGID_20_)" d="M23.9,41.6c0,0,0.5,1.6,0.8,1.9c-0.4,0-1.4-0.3-1.4-1.1C23.4,41.5,23.9,41.6,23.9,41.6z"/>
	<path fill="#FFA08D" d="M55.5,82.1c0-0.1,1.3,0.1,1.8,1.6c0.3,0.9-0.9,1.6-0.9,1.6L55.5,82.1z"/>
	<g>
		
			<linearGradient id="SVGID_21_" gradientUnits="userSpaceOnUse" x1="84.1603" y1="115.8131" x2="102.2547" y2="115.8131" gradientTransform="matrix(-1 0 0 1 142.8793 0)">
			<stop  offset="0" style="stop-color:#347FB6"/>
			<stop  offset="0.3453" style="stop-color:#337BB2"/>
			<stop  offset="0.7007" style="stop-color:#3270A6"/>
			<stop  offset="1" style="stop-color:#2F6095"/>
		</linearGradient>
		<path fill="url(#SVGID_21_)" d="M42.2,112.9c0.6,0.1,0.6,1.5,1.2,1.7c0.7,0.3,2-1.3,2.8-1.7c0.1,0,0.2-0.1,0.3-0.1l0-0.1
			c0,0,0.1-0.8,0.9-1.7c0.7-0.9,2-1.4,2-1.4c0.9-0.5,0.5,1.9,0.2,3.2c0.9,0.6,3.8,2.4,5,2.6c1.4,0.3,3-0.2,3-0.2s0.6,0.8,1,1.5
			c0.6,1-0.2,1.5-1.1,2.1c-0.9,0.6-2.9,2-5.4,2.4c-2.5,0.4-3.9-0.7-4.5-0.5c-0.5,0.2-1,1.2-1,1.2s-1.7,0.1-3.6,0
			c-1.3-0.1-2.4-1.9-2.3-2.3C40.7,119.4,41.6,112.8,42.2,112.9z"/>
		<path fill="#225077" d="M58.5,116.8c0,0-3.1,2.6-6.4,2.8c-3.3,0.2-5.2-0.8-6.5,0c-1.3,0.9-4.4-0.4-4.4-0.4s2.4,0.7,4.1-0.1
			c1.9-1,4.6,0,6.9-0.1c1.6-0.1,6.1-2.5,6.1-2.5L58.5,116.8z"/>
		<path fill="#FFFFFF" d="M53.7,115.2c0,0-0.7,0.5-1.8,1.2c-1.1,0.8-1.7,0.9-1.7,0.9s0.8-0.9,1.7-1.7c0.3-0.2,1.2-0.8,1.2-0.8
			L53.7,115.2z"/>
		<path fill="#FFFFFF" d="M51.9,114.3c0,0-1.3,0.9-1.8,1.2c-0.5,0.3-1.5,1.3-1.5,1.3s0.8-1.4,1.2-1.8c0.3-0.3,1.6-0.9,1.6-0.9
			L51.9,114.3z"/>
		<path fill="#FFFFFF" d="M50.5,113.5c0,0-1.3,0.9-1.8,1.2c-0.5,0.3-1.5,1.3-1.5,1.3s0.8-1.4,1.2-1.8c0.3-0.3,1.6-0.9,1.6-0.9
			L50.5,113.5z"/>
	</g>
	<g>
		
			<linearGradient id="SVGID_22_" gradientUnits="userSpaceOnUse" x1="123.3809" y1="106.0505" x2="138.4344" y2="106.0505" gradientTransform="matrix(-1 0 0 1 142.8793 0)">
			<stop  offset="0" style="stop-color:#347FB6"/>
			<stop  offset="0.3453" style="stop-color:#337BB2"/>
			<stop  offset="0.7007" style="stop-color:#3270A6"/>
			<stop  offset="1" style="stop-color:#2F6095"/>
		</linearGradient>
		<path fill="url(#SVGID_22_)" d="M5,101.6c0.3-0.2,5.8-3.8,6.2-3.3c0.3,0.5-0.7,1.4-0.5,2.1c0.2,0.7,2.3,0.6,3.1,0.9
			c0.1,0,0.2,0.1,0.3,0.1l0-0.1c0,0,0.7-0.4,1.8-0.5c1.1,0,2.4,0.6,2.4,0.6c0.9,0.3-1.1,1.6-2.3,2.3c0.2,1,0.8,4.5,1.4,5.5
			c0.7,1.2,2.1,2.1,2.1,2.1s-0.2,1-0.5,1.8c-0.4,1.1-1.3,0.9-2.3,0.6c-1.1-0.3-3.4-0.8-5.4-2.5c-2-1.7-2.1-3.4-2.6-3.7
			c-0.5-0.3-1.5,0.1-1.5,0.1s-1.2-1.2-2.4-2.7C4,103.8,4.7,101.8,5,101.6z"/>
		<path fill="#225077" d="M19,113c0,0-4-0.6-6.3-3c-2.4-2.3-2.8-4.5-4.3-4.8c-1.5-0.4-2.7-3.5-2.7-3.5s1.1,2.3,2.8,3
			c2,0.8,3,3.4,4.7,5.1c1.1,1.1,5.9,2.9,5.9,2.9L19,113z"/>
		<path fill="#FFFFFF" d="M17,108.4c0,0-0.8-0.2-2.1-0.5c-1.3-0.3-1.8-0.7-1.8-0.7s1.2,0,2.4,0.2c0.4,0.1,1.4,0.4,1.4,0.4L17,108.4z
			"/>
		<path fill="#FFFFFF" d="M16.5,106.4c0,0-1.5-0.4-2.1-0.5c-0.6-0.1-2-0.3-2-0.3s1.6-0.3,2.2-0.3c0.4,0,1.7,0.6,1.7,0.6L16.5,106.4z
			"/>
		<path fill="#FFFFFF" d="M16.2,104.8c0,0-1.5-0.4-2.1-0.5c-0.6-0.1-2-0.3-2-0.3s1.6-0.3,2.2-0.3c0.4,0,1.7,0.6,1.7,0.6L16.2,104.8z
			"/>
	</g>
</g>
</svg>
