<?xml version="1.0" encoding="utf-8"?>
<!-- Generator: Adobe Illustrator 24.0.1, SVG Export Plug-In . SVG Version: 6.00 Build 0)  -->
<svg version="1.1" id="Layer_1" xmlns="http://www.w3.org/2000/svg" xmlns:xlink="http://www.w3.org/1999/xlink" x="0px" y="0px"
	 viewBox="0 0 69.1 123.9" enable-background="new 0 0 69.1 123.9" xml:space="preserve">
<g>
	
		<linearGradient id="SVGID_1_" gradientUnits="userSpaceOnUse" x1="-418.4856" y1="46.5413" x2="-399.9981" y2="46.5413" gradientTransform="matrix(-1 0 0 1 -360.038 0)">
		<stop  offset="0" style="stop-color:#EFA08B"/>
		<stop  offset="0.6405" style="stop-color:#E48C78"/>
		<stop  offset="0.9948" style="stop-color:#DD7F6C"/>
	</linearGradient>
	<path fill="url(#SVGID_1_)" d="M43,45.5c0,0,6.9-0.1,8.5-0.7c0.9-0.3,1.4-1.4,2.1-2.3c1-1.2,1-0.8,2.4-0.6c1.7,0.3,1.7,0.9,1.5,1.8
		c0.5,0.4,0.8,0.9,0.4,1.8c0.7,0.5,0.7,1.5-0.1,2.1c-2.5,1.6-3.3,1.3-6.4,2c-1.8,0.5-6.1,1.9-8.9,1.6c-2.3-0.2-2-0.4-2.4-1.1
		C39.1,48.3,43,45.5,43,45.5z"/>
	<path fill="#FFA08D" d="M9,100.6c0,0,1.2-4.2,4.9-8.7c1,1.9,5.4,3.9,7.1,5c-4.5,3.3-8.8,6.7-8.8,6.7L8,104L9,100.6z"/>
	<path fill="#682356" d="M44.3,74.4c-0.5,1.2-5.7,11.4-7.9,14.4c-2.2,3-4.7,3-8.2,5c-2.4,1.3-10.1,5.4-10.1,5.4s-2.7-0.4-3.6-1.2
		c-1.2-1-2.6-3.2-2.6-3.2S12.9,87.4,16,84c3.4-3.7,5.1-4.1,5.1-4.1S19.4,72,21.7,64C23.2,59.1,44.3,74.4,44.3,74.4z"/>
	<g>
		
			<linearGradient id="SVGID_2_" gradientUnits="userSpaceOnUse" x1="-409.4842" y1="20.648" x2="-391.2439" y2="20.648" gradientTransform="matrix(-1 0 0 1 -360.038 0)">
			<stop  offset="0" style="stop-color:#FFC5B3"/>
			<stop  offset="0.3645" style="stop-color:#FBBBA8"/>
			<stop  offset="1" style="stop-color:#EFA08B"/>
		</linearGradient>
		<path fill="url(#SVGID_2_)" d="M44.1,33.8L31.2,28c0,0,3-4,3.3-5.8c0.6-2.9-0.4-6.7-0.4-7.1l0,0c-0.1-0.4-0.2-0.9-0.3-1.6
			C33.5,8.7,39.6,7,44,7.6c1.8,0.2,2.3,0.1,3,1.8c0.7,1.7-0.1,1.7,0.1,4.2c0.1,0.7,1.1,1.5,1.6,2.1c0.4,0.4,0.8,0.6,0.7,0.8
			c-0.3,0.9-0.9,0.6-1.3,1.1c-0.1,0.2-0.5,0.5-0.2,1c-0.7,0.4-1.4,0.6-1.5,0.8c-0.1,0.5,1,0.3,0.9,0.7c-0.2,0.7,0.7,1.7,0.5,2.7
			c-0.3,1.4-1.5,1-2.4,2.7c-0.8,1.5-1.3,1.2-1.8,3.6C43.3,30.7,44.1,33.8,44.1,33.8z"/>
		
			<linearGradient id="SVGID_3_" gradientUnits="userSpaceOnUse" x1="-394.3316" y1="6.4609" x2="-385.5776" y2="6.4609" gradientTransform="matrix(-1 0 0 1 -360.038 0)">
			<stop  offset="0" style="stop-color:#7B2B08"/>
			<stop  offset="1" style="stop-color:#682007"/>
		</linearGradient>
		<path fill="url(#SVGID_3_)" d="M26.1,8c0.2-2.1,1.7-1.7,2.8-4.5c1.2-3.1,4.6-3.2,5.2-0.7c0.5,2.6,0,4.8,0,4.8l-3.2,3.6
			c0,0-0.5,0-1.1,0c-0.5,0.3-1.2,0.5-1.7,0.6c-0.9,0.1-2.4-1.2-2.5-2.1C25.5,9.3,25.9,8.5,26.1,8z M27.6,11.2c0.3,0,0.7,0,1-0.1
			c-1.2-0.3-2.4-0.9-2.5-2.4c0-0.1,0-0.2,0-0.3c-0.1,0.3-0.1,0.7-0.1,1C26.1,10.2,26.4,11.1,27.6,11.2z"/>
		<path fill="#295B8A" d="M34.8,5.7c0,0,0.1-1.2-1.7,0c-2.4,1.6-2.9,4.4-2.3,5.6s1.5,0.9,1.5,0.9L34.8,5.7z"/>
		<path fill="#7B2B08" d="M30.6,13.6c0.4-1.3,0.8-2.3,0.8-2.3s0,0,0,0c0-0.3,0.1-0.7,0.2-1c1.9-6.8,8.8-6.2,11-5.6
			c4.7,1.3,4.1,3.7,4.1,3.7s-2.1,0.2-4.1-0.3c-0.9,0.8-0.6,2.2-0.8,3.2c-0.3,1.1-1.5,2.3-1.4,3.5c-0.7-0.8-1.9-0.8-2.5,0.8
			c-0.4,1.2,0.2,1.8,0.6,2.7c-0.1,2.8-4,4-4,4s-2.9-1.5-4-3.8C29.8,17,30.3,14.5,30.6,13.6z"/>
		<path fill="#F967A9" d="M47.8,18.2c0,0,0.5-0.1,0.4,0.4c-0.1,0.4-1.1,0.8-1.1,0.8s0.8,0.3,0.9,0.8c0.1,0.5-0.5,0.4-0.5,0.4
			s-0.7-0.4-1.5-1C46.7,18.8,47.8,18.2,47.8,18.2z"/>
		<path fill="#FFFFFF" d="M46,13.1c0,0,0,0.4,0,0.7c0,0.3-0.1,0.7-0.7,0.7c-0.7,0-1.3-0.4-1.3-0.4L46,13.1z"/>
		<path fill="#3794B5" d="M46,13.3c0,0,0.2,1-0.2,1.2c-0.6,0.2-0.5-0.9-0.5-0.9L46,13.3z"/>
		<ellipse fill="#5B1B1B" cx="45.7" cy="14" rx="0.2" ry="0.3"/>
		<ellipse fill="#FFFFFF" cx="45.7" cy="13.6" rx="0.1" ry="0.2"/>
		<path fill="#5B1B1B" d="M45.8,10.4c0.5,0,1,0.2,0.7,0.5c-0.5,0.3-1,0-1.7,0.4c-0.5,0.3-1.7,1.8-1.7,1.8S43.7,10.3,45.8,10.4z"/>
		<path fill="#5B1B1B" d="M44,14.1c0,0,0.9-0.5,1.2-0.7c0.5-0.3,0.9-0.7,0.9-0.7s0.1,0.3,0.5,0.5c0.3,0.1,0.8,0.1,0.8,0.1
			s-0.8,0.2-1.2,0.1c0.1,0.2,0.3,0.4,0.4,0.4c-0.6,0-0.8-0.2-0.9-0.4c-0.3,0.2-0.6,0.4-0.9,0.5C44.2,14.1,44,14.1,44,14.1z"/>
		<path fill="#FFA08D" d="M48.7,16.9c0,0-0.4,0.1-0.6,0.3c-0.2,0.2,0,0.4,0.2,0.2C48.5,17.2,48.7,16.9,48.7,16.9z"/>
		
			<linearGradient id="SVGID_4_" gradientUnits="userSpaceOnUse" x1="-406.3028" y1="12.6735" x2="-404.3567" y2="12.6735" gradientTransform="matrix(-1 0 0 1 -360.038 0)">
			<stop  offset="0" style="stop-color:#EFA08B"/>
			<stop  offset="0.156" style="stop-color:#EB9984"/>
			<stop  offset="0.6493" style="stop-color:#E18672"/>
			<stop  offset="0.9948" style="stop-color:#DD7F6C"/>
		</linearGradient>
		<path fill="url(#SVGID_4_)" d="M46.3,11.9v0.4c0,0-0.5,0.4-1.1,0.7c-0.5,0.3-0.9,0.4-0.9,0.4S45,12.6,46.3,11.9z"/>
		
			<linearGradient id="SVGID_5_" gradientUnits="userSpaceOnUse" x1="-400.5257" y1="16.7044" x2="-398.6807" y2="16.7044" gradientTransform="matrix(-1 0 0 1 -360.038 0)">
			<stop  offset="0" style="stop-color:#EFA08B"/>
			<stop  offset="0.2778" style="stop-color:#E7917D"/>
			<stop  offset="0.6579" style="stop-color:#E08470"/>
			<stop  offset="0.9948" style="stop-color:#DD7F6C"/>
		</linearGradient>
		<path fill="url(#SVGID_5_)" d="M38.6,16.1c0,0,0.2-0.9,0.9-0.7c0.7,0.2,0.9,1.3,0.9,1.3s-0.6-0.1-0.6,0.4c0,0.5,0.3,0.6,0.3,0.6
			S40,18.1,39.7,18c-0.3-0.1-0.6-0.5-0.4-0.9c0.2-0.4,0.4-0.7,0.3-0.9C39.2,15.8,38.6,16.1,38.6,16.1z"/>
		
			<linearGradient id="SVGID_6_" gradientUnits="userSpaceOnUse" x1="-401.0545" y1="11.2247" x2="-393.1384" y2="11.2247" gradientTransform="matrix(-1 0 0 1 -360.038 0)">
			<stop  offset="0" style="stop-color:#B24E2B"/>
			<stop  offset="0.3843" style="stop-color:#AA4727"/>
			<stop  offset="1" style="stop-color:#A34123"/>
		</linearGradient>
		<path fill="url(#SVGID_6_)" d="M41,12.9c-1.2-0.7-3-0.1-5.2-1.6c-0.7-0.4-2.7-3.6-2.7-3.6s0.5,3.4,1.7,4.6
			c1.4,1.4,2.7,2.1,3.7,2.4c1.2-0.7,1.9,0.1,1.9,0.1S40.6,13.6,41,12.9z"/>
		
			<linearGradient id="SVGID_7_" gradientUnits="userSpaceOnUse" x1="-406.4122" y1="6.5093" x2="-394.1711" y2="6.5093" gradientTransform="matrix(-1 0 0 1 -360.038 0)">
			<stop  offset="0" style="stop-color:#B24E2B"/>
			<stop  offset="0.3843" style="stop-color:#AA4727"/>
			<stop  offset="1" style="stop-color:#A34123"/>
		</linearGradient>
		<path fill="url(#SVGID_7_)" d="M34.5,5.7C34.8,5.3,35.3,4.5,36,4c1-0.7,1.6-0.9,2.7-0.7C39.9,3.5,43,4.6,43,4.6l0,0
			C45.9,5.5,46.4,7,46.4,7S45.1,5.6,41,4.8c-2.6-0.5-4.6,0-5.4,0.6c0.9,0.2,2.2,0.2,4,0.7c1.7,0.5,3,2,3,2s-0.5,0.4-0.7,1.7
			C41,8.9,40.5,7.5,39,7c-2.7-1-4.9-0.8-4.9-0.8S34.2,6,34.5,5.7z M40.5,4.2c0.1,0,0.3,0,0.4,0c-0.7-0.2-1.5-0.5-2.2-0.7
			c-1.2-0.3-2.6,0.5-3.1,1.4c0,0,0,0,0,0C36.6,4.4,38.1,4,40.5,4.2z"/>
		
			<linearGradient id="SVGID_8_" gradientUnits="userSpaceOnUse" x1="-394.5912" y1="2.8941" x2="-387.8967" y2="2.8941" gradientTransform="matrix(-1 0 0 1 -360.038 0)">
			<stop  offset="0" style="stop-color:#B24E2B"/>
			<stop  offset="1" style="stop-color:#A34123"/>
		</linearGradient>
		<path fill="url(#SVGID_8_)" d="M27.9,3.2c0.1-0.8,0.7-2.2,2.3-2c0.2,0,0.3,0.1,0.4,0.1c0.3-0.3,1.2-1.1,2.5-0.5
			c1,0.5,1.3,1.6,1.4,2.2c0.1,0.5,0,2.2,0,2.2h-0.6c0,0,0.1-2.8-1.2-3.4c-0.9-0.4-1.5-0.4-1.9-0.4c1.2,0.5,1.9,1.8,1.9,1.8
			c-0.7-1.1-2.2-1.5-2.6-1.6c-0.4,0-1.2,0.4-1.6,1.1c-0.4,0.7,0.1,1.7,0.1,1.7l-0.3,0.6C28.2,4.9,27.8,4,27.9,3.2z"/>
		
			<linearGradient id="SVGID_9_" gradientUnits="userSpaceOnUse" x1="-392.237" y1="6.1533" x2="-386.075" y2="6.1533" gradientTransform="matrix(-1 0 0 1 -360.038 0)">
			<stop  offset="0" style="stop-color:#B24E2B"/>
			<stop  offset="1" style="stop-color:#A34123"/>
		</linearGradient>
		<path fill="url(#SVGID_9_)" d="M32.2,6.4c0,0-0.3-1.2-2-1.8c-1.8-0.6-3.1-0.2-3.7,0.6C25.8,6,26.1,8,26.1,8l0.3-1
			c0,0-0.4-1.3,0.9-1.8c1.3-0.5,2.7,0,3.2,0.3C31,5.7,32,6.7,32,6.7L32.2,6.4z"/>
	</g>
	<path fill="#FFC5B3" d="M48.3,104.8c-1.8,4.5-1.9,7.1-1.9,7.1l-6.1,2.4c0.5,0.9,0-2.1-1.3-11.8C40.8,103.5,46.4,105.4,48.3,104.8z"
		/>
	
		<linearGradient id="SVGID_10_" gradientUnits="userSpaceOnUse" x1="-421.4526" y1="79.9171" x2="-376.4704" y2="79.9171" gradientTransform="matrix(-1 0 0 1 -360.038 0)">
		<stop  offset="0" style="stop-color:#933A7C"/>
		<stop  offset="1" style="stop-color:#7F2E66"/>
	</linearGradient>
	<path fill="url(#SVGID_10_)" d="M16.5,67.9c-0.4-3.2,6.2-14,6.1-14.9c0,0,12.1,1.4,15.9,2.4c3.5,0.9,5.7,1.9,5.7,1.9
		c0,2.9,3.3,4.9,3.8,5.5c4.7,1.7,9.2,8.6,10.9,11.1c2.4,3.5,3.6,6,1.6,9.9c-0.9,1.7-12.6,22.4-12.6,22.4s-2.1,0.8-3.8,0.6
		c-2.2-0.3-4.4-0.5-4.4-0.5s-2.9-4.2-2.2-13.1c0.3-4.2,2.9-6.6,2.9-6.6s-3.9-0.5-8-2.3C28.9,82.9,17.9,79.1,16.5,67.9z"/>
	
		<linearGradient id="SVGID_11_" gradientUnits="userSpaceOnUse" x1="-395.7114" y1="24.231" x2="-395.7114" y2="67.9713" gradientTransform="matrix(-1 0 0 1 -360.038 0)">
		<stop  offset="0" style="stop-color:#347FB6"/>
		<stop  offset="0.3453" style="stop-color:#337BB2"/>
		<stop  offset="0.7007" style="stop-color:#3270A6"/>
		<stop  offset="1" style="stop-color:#2F6095"/>
	</linearGradient>
	<path fill="url(#SVGID_11_)" d="M18.6,50.8c2.3-5.4,4-11.2,9.2-16c0,0,6.7,3.4,9.4,1.6c0.4-0.3,0.8-0.7,1.2-1.3
		c1.1-1.7,1.6-4.6,0.4-6.7c-1.6-2.8-8.9-2.3-8.9-2.3s4.3-3.9,9.6-0.8c5,2.9,5.2,6.6,8.5,9.4c3.4,2.9,4.4,3.9,3.1,7.6
		c-1.1,3,2.3,9,3.2,13.6c1.5,6.8,0.1,12,0.1,12S43,61.3,36.3,60.9c-8.2-0.5-19.8,7-19.8,7S15.3,58.5,18.6,50.8z"/>
	<path fill="#295B8A" d="M51.6,40.7c0,0-1.7,1.3-3.4,2.4c-1.7,1.1-4.6,1.6-3.4,2.7c1.2,1.1,6.2,2.5,6.2,2.5s-0.6-3.2-0.4-4
		C50.8,43.6,51.7,41.8,51.6,40.7z"/>
	
		<linearGradient id="SVGID_12_" gradientUnits="userSpaceOnUse" x1="-411.7635" y1="38.0902" x2="-380.2899" y2="38.0902" gradientTransform="matrix(-1 0 0 1 -360.038 0)">
		<stop  offset="0" style="stop-color:#FFC5B3"/>
		<stop  offset="0.3645" style="stop-color:#FBBBA8"/>
		<stop  offset="1" style="stop-color:#EFA08B"/>
	</linearGradient>
	<path fill="url(#SVGID_12_)" d="M38.7,34.6c0,0-0.6,1.5-1.9,2.1c-1.9,0.8-3.8,0.8-4.5,1c-0.5,1.5-1.1,2.6-1.1,2.6s2.9,0.7,5.9,1.5
		c3.3,0.9,7.4,1.8,8.7,1.2c1.4-0.7,3.7-0.2,4.7,0.5c1.5,1.1,1.4,1.7,0.9,2.7c0.3,0.9,0,1.8-0.6,1.8c0.4,1-0.4,1-0.7,1.6
		c-0.4,1-2.1,0.7-3.5,1.1c-2.3,0.8-3.3-1.6-5.4-1.1c-5.2,1.4-14.6,1.2-17.4-0.4c-2-1.1-2.6-1.3-3.4-2.8c-0.6-1.1,0-4.2,0.7-6.4
		c0.8-2.2,1.5-4.8,4.8-10.1c2.5-4,5.8-4.5,8-4.4C37.6,25.6,41.1,30.3,38.7,34.6z"/>
	
		<linearGradient id="SVGID_13_" gradientUnits="userSpaceOnUse" x1="-398.4453" y1="36.31" x2="-392.3606" y2="36.31" gradientTransform="matrix(-1 0 0 1 -360.038 0)">
		<stop  offset="0" style="stop-color:#EFA08B"/>
		<stop  offset="0.6405" style="stop-color:#E48C78"/>
		<stop  offset="0.9948" style="stop-color:#DD7F6C"/>
	</linearGradient>
	<path fill="url(#SVGID_13_)" d="M35.3,35.5c-1.6,1.6-3,2.2-3,2.2s2.7,0.4,4.3-0.7c1.3-0.9,1.8-1.8,1.8-1.8S36.6,34.2,35.3,35.5z"/>
	
		<linearGradient id="SVGID_14_" gradientUnits="userSpaceOnUse" x1="-383.9252" y1="45.1423" x2="-382.5455" y2="45.1423" gradientTransform="matrix(-1 0 0 1 -360.038 0)">
		<stop  offset="0" style="stop-color:#EFA08B"/>
		<stop  offset="0.2947" style="stop-color:#E6907C"/>
		<stop  offset="0.6529" style="stop-color:#DF8370"/>
		<stop  offset="0.9948" style="stop-color:#DD7F6C"/>
	</linearGradient>
	<path fill="url(#SVGID_14_)" d="M23.1,44c0,0,0.5,1.9,0.8,2.2c-0.4,0-1.4-0.3-1.4-1.1C22.6,44.3,23.1,44,23.1,44z"/>
	<g>
		
			<linearGradient id="SVGID_15_" gradientUnits="userSpaceOnUse" x1="-417.3403" y1="114.8582" x2="-399.0526" y2="114.8582" gradientTransform="matrix(-1 0 0 1 -360.038 0)">
			<stop  offset="0" style="stop-color:#347FB6"/>
			<stop  offset="0.3453" style="stop-color:#337BB2"/>
			<stop  offset="0.7007" style="stop-color:#3270A6"/>
			<stop  offset="1" style="stop-color:#2F6095"/>
		</linearGradient>
		<path fill="url(#SVGID_15_)" d="M40.2,112.2c0.6,0.1,1,1.2,1.6,1.5c0.7,0.3,2-1.3,2.8-1.8c0.1,0,0.2-0.1,0.3-0.1l0-0.1
			c0,0,0.1-0.8,0.9-1.7c0.7-0.9,2.1-1.4,2.1-1.4c0.9-0.5,0.5,1.9,0.2,3.3c0.9,0.6,3.9,2.4,5.1,2.7c1.4,0.3,3-0.2,3-0.2
			s0.6,0.8,1,1.5c0.6,1.1-0.2,1.6-1.2,2.1c-1,0.6-2.9,2.1-5.5,2.4c-2.6,0.4-4-0.7-4.5-0.5c-0.5,0.2-1,1.2-1,1.2s-1.7,0.1-3.6,0
			c-1.3-0.1-2.4-1.9-2.3-2.3C39.1,118.5,39.7,112.1,40.2,112.2z"/>
		<path fill="#225077" d="M57.1,115.9c0,0-3.2,2.6-6.5,2.8c-3.3,0.2-5.3-0.9-6.6,0c-1.3,0.9-4.5-0.4-4.5-0.4s2.4,0.7,4.1-0.1
			c1.9-1,4.6,0,7-0.1c1.6-0.1,6.2-2.6,6.2-2.6L57.1,115.9z"/>
		<path fill="#FFFFFF" d="M52.2,114.3c0,0-0.7,0.5-1.8,1.2c-1.1,0.8-1.7,0.9-1.7,0.9s0.8-0.9,1.7-1.7c0.3-0.2,1.2-0.8,1.2-0.8
			L52.2,114.3z"/>
		<path fill="#FFFFFF" d="M50.4,113.3c0,0-1.3,0.9-1.8,1.2c-0.5,0.3-1.5,1.3-1.5,1.3s0.8-1.4,1.2-1.8c0.3-0.3,1.6-0.9,1.6-0.9
			L50.4,113.3z"/>
		<path fill="#FFFFFF" d="M48.9,112.5c0,0-1.3,0.9-1.8,1.2c-0.5,0.3-1.5,1.3-1.5,1.3s0.8-1.4,1.2-1.8c0.3-0.3,1.6-0.9,1.6-0.9
			L48.9,112.5z"/>
	</g>
	<g>
		
			<linearGradient id="SVGID_16_" gradientUnits="userSpaceOnUse" x1="-379.009" y1="106.2566" x2="-363.7947" y2="106.2566" gradientTransform="matrix(-1 0 0 1 -360.038 0)">
			<stop  offset="0" style="stop-color:#347FB6"/>
			<stop  offset="0.3453" style="stop-color:#337BB2"/>
			<stop  offset="0.7007" style="stop-color:#3270A6"/>
			<stop  offset="1" style="stop-color:#2F6095"/>
		</linearGradient>
		<path fill="url(#SVGID_16_)" d="M4.3,102c0.3-0.2,5.6-4.3,5.9-3.8c0.3,0.5-0.4,1.9-0.2,2.6c0.2,0.7,2.3,0.6,3.2,0.9
			c0.1,0,0.2,0.1,0.3,0.1l0-0.1c0,0,0.7-0.4,1.9-0.5c1.2,0,2.4,0.6,2.4,0.6c1,0.4-1.1,1.6-2.3,2.3c0.2,1,0.8,4.5,1.4,5.6
			c0.7,1.2,2.2,2.1,2.2,2.1s-0.2,1-0.5,1.8c-0.4,1.1-1.3,0.9-2.4,0.6c-1.1-0.3-3.5-0.8-5.5-2.5c-2-1.7-2.1-3.5-2.6-3.7
			c-0.5-0.3-1.5,0.1-1.5,0.1s-1.2-1.2-2.4-2.7C3.3,104.3,4,102.2,4.3,102z"/>
		<path fill="#225077" d="M18.5,113.6c0,0-4-0.6-6.4-3c-2.4-2.3-2.8-4.5-4.4-4.9S5,102.1,5,102.1s1.1,2.3,2.8,3
			c2,0.8,3.1,3.5,4.8,5.1c1.2,1.1,6,2.9,6,2.9L18.5,113.6z"/>
		<path fill="#FFFFFF" d="M16.5,108.8c0,0-0.8-0.2-2.2-0.5c-1.3-0.3-1.8-0.7-1.8-0.7s1.2,0,2.4,0.2c0.4,0.1,1.4,0.4,1.4,0.4
			L16.5,108.8z"/>
		<path fill="#FFFFFF" d="M16,106.9c0,0-1.6-0.4-2.1-0.5c-0.6-0.1-2-0.3-2-0.3s1.6-0.3,2.2-0.3c0.4,0,1.7,0.6,1.7,0.6L16,106.9z"/>
		<path fill="#FFFFFF" d="M15.6,105.2c0,0-1.6-0.4-2.1-0.5c-0.6-0.1-2-0.3-2-0.3s1.6-0.3,2.2-0.3c0.4,0,1.7,0.6,1.7,0.6L15.6,105.2z
			"/>
	</g>
	<path fill="#295B8A" d="M35.7,58.8c0,0-6,0-11,1.8c-5,1.8-6.1,3-6.1,3s0.8-2.3,6-4.3C29.8,57.3,35.7,58.8,35.7,58.8z"/>
</g>
</svg>
