<?xml version="1.0" encoding="utf-8"?>
<!-- Generator: Adobe Illustrator 24.0.1, SVG Export Plug-In . SVG Version: 6.00 Build 0)  -->
<svg version="1.1" id="Layer_1" xmlns="http://www.w3.org/2000/svg" xmlns:xlink="http://www.w3.org/1999/xlink" x="0px" y="0px"
	 viewBox="0 0 69.1 123.9" enable-background="new 0 0 69.1 123.9" xml:space="preserve">
<g>
	
		<linearGradient id="SVGID_1_" gradientUnits="userSpaceOnUse" x1="287.7617" y1="48.1485" x2="306.2492" y2="48.1485" gradientTransform="matrix(-1 0 0 1 344.3386 0)">
		<stop  offset="0" style="stop-color:#EFA08B"/>
		<stop  offset="0.6405" style="stop-color:#E48C78"/>
		<stop  offset="0.9948" style="stop-color:#DD7F6C"/>
	</linearGradient>
	<path fill="url(#SVGID_1_)" d="M41.1,47.1c0,0,6.9-0.1,8.5-0.7c0.9-0.3,1.4-1.4,2.1-2.3c1-1.2,1-0.8,2.4-0.6
		c1.7,0.3,1.7,0.9,1.5,1.8c0.5,0.4,0.8,0.9,0.4,1.8c0.7,0.5,0.7,1.5-0.1,2.1c-2.5,1.6-3.3,1.3-6.4,2c-1.8,0.5-6.1,1.9-8.9,1.6
		c-2.3-0.2-2-0.4-2.4-1.1C37.2,49.9,41.1,47.1,41.1,47.1z"/>
	<path fill="#FFA08D" d="M7.1,102.2c0,0,2.7-3.9,6.4-8.3c1,1.9,4,3.5,5.7,4.6c-4.5,3.3-8.8,6.7-8.8,6.7l-4.3,0.4L7.1,102.2z"/>
	<path fill="#682356" d="M42.4,76c-0.5,1.2-5.7,11.4-7.9,14.4c-2.2,3-4.7,3-8.2,5c-2.4,1.3-10.1,5.4-10.1,5.4s-2.6-0.5-3.3-1.5
		c-0.7-1-0.9-3.5-0.9-3.5s2.7-4.4,5-6.8c2.9-2.9,7.9-6,7.9-6s-3.7-9.6-1.3-17.7C25.1,60.5,42.4,76,42.4,76z"/>
	<g>
		
			<linearGradient id="SVGID_2_" gradientUnits="userSpaceOnUse" x1="296.7631" y1="22.2552" x2="313.9965" y2="22.2552" gradientTransform="matrix(-1 0 0 1 344.3386 0)">
			<stop  offset="0" style="stop-color:#FFC5B3"/>
			<stop  offset="0.3645" style="stop-color:#FBBBA8"/>
			<stop  offset="1" style="stop-color:#EFA08B"/>
		</linearGradient>
		<path fill="url(#SVGID_2_)" d="M42.2,35.4l-11.9-6.6c0,0,3.1-3,3.5-4.7c0.6-2.9-1.6-7-1.6-7.4l0,0c-0.1-0.4-0.2-0.9-0.3-1.6
			c-0.4-4.9,5.8-6.5,10.1-6c1.8,0.2,2.3,0.1,3,1.8c0.7,1.7-0.1,1.7,0.1,4.2c0.1,0.7,1.1,1.5,1.6,2.1c0.4,0.4,0.8,0.6,0.7,0.8
			c-0.3,0.9-0.9,0.6-1.3,1.1c-0.1,0.2-0.5,0.5-0.2,1c-0.7,0.4-1.4,0.6-1.5,0.8c-0.1,0.5,1,0.3,0.9,0.7c-0.2,0.7,0.9,1.8,0.2,2.4
			c-0.9,0.8-2,1-2.9,1.4c-1.5,0.8-2.9,1.4-2.9,3c0,0.3,0.1,0.7,0.1,1C40.4,31.1,42.2,35.4,42.2,35.4z"/>
		
			<linearGradient id="SVGID_3_" gradientUnits="userSpaceOnUse" x1="311.9157" y1="8.0681" x2="320.6697" y2="8.0681" gradientTransform="matrix(-1 0 0 1 344.3386 0)">
			<stop  offset="0" style="stop-color:#7B2B08"/>
			<stop  offset="1" style="stop-color:#682007"/>
		</linearGradient>
		<path fill="url(#SVGID_3_)" d="M24.3,9.6C24.4,7.5,26,7.9,27,5.1c1.2-3.1,4.6-3.2,5.2-0.7c0.5,2.5,0,4.8,0,4.8L29,12.9
			c0,0-0.5,0-1.1,0c-0.5,0.3-1.2,0.5-1.7,0.6c-0.9,0.1-2.4-1.2-2.5-2.1C23.6,10.9,24,10.1,24.3,9.6z M25.7,12.8c0.3,0,0.7,0,1-0.1
			c-1.2-0.3-2.4-0.9-2.5-2.4c0-0.1,0-0.2,0-0.3c-0.1,0.3-0.1,0.7-0.1,1C24.3,11.8,24.6,12.7,25.7,12.8z"/>
		<path fill="#295B8A" d="M32.9,7.3c0,0,0.1-1.2-1.7,0c-2.4,1.6-2.9,4.4-2.3,5.6c0.7,1.2,1.5,0.9,1.5,0.9L32.9,7.3z"/>
		<path fill="#7B2B08" d="M28.7,15.2c0.4-1.3,0.8-2.3,0.8-2.3s0,0,0,0c0-0.3,0.1-0.7,0.2-1c1.9-6.8,8.8-6.2,11-5.6
			c4.7,1.3,4.1,3.7,4.1,3.7s-2.1,0.2-4.1-0.3c-0.9,0.8-0.6,2.2-0.8,3.2c-0.3,1.1-1.5,2.3-1.4,3.5c-0.7-0.8-1.9-0.8-2.5,0.8
			c-0.4,1.2,0.2,1.8,0.6,2.7C36.4,22,34.1,23,34.1,23s-1.3,0-2.3-0.5l0,0c0,0-1-0.3-2.1-2.6C28.9,18.4,28.4,16.1,28.7,15.2z
			 M29.4,18.3c0.1,0.8,0.7,1.6,1.3,2.2c-0.4-1.8-1.2-3.9-1.3-6.2C28.8,15.8,29.3,17.4,29.4,18.3z"/>
		<path fill="#F967A9" d="M45.9,19.8c0,0,0.5-0.1,0.4,0.4c-0.1,0.4-1.1,0.8-1.1,0.8s0.8,0.3,0.9,0.8c0.1,0.5-0.5,0.4-0.5,0.4
			s-0.7-0.4-1.5-1C44.9,20.4,45.9,19.8,45.9,19.8z"/>
		<path fill="#FFFFFF" d="M44.1,14.7c0,0,0,0.4,0,0.7c0,0.3-0.1,0.7-0.7,0.7c-0.7,0-1.3-0.4-1.3-0.4L44.1,14.7z"/>
		<path fill="#3794B5" d="M44.1,14.9c0,0,0.2,1-0.2,1.2c-0.6,0.2-0.5-0.9-0.5-0.9L44.1,14.9z"/>
		<ellipse fill="#5B1B1B" cx="43.8" cy="15.6" rx="0.2" ry="0.3"/>
		<ellipse fill="#FFFFFF" cx="43.9" cy="15.2" rx="0.1" ry="0.2"/>
		<path fill="#5B1B1B" d="M43.9,12c0.5,0,1,0.2,0.7,0.5c-0.5,0.3-1,0-1.7,0.4c-0.5,0.3-1.7,1.8-1.7,1.8S41.8,11.9,43.9,12z"/>
		<path fill="#5B1B1B" d="M42.1,15.7c0,0,0.9-0.5,1.2-0.7c0.5-0.4,0.9-0.7,0.9-0.7s0.1,0.3,0.5,0.5c0.3,0.1,0.8,0.1,0.8,0.1
			s-0.8,0.2-1.2,0.1c0.1,0.2,0.3,0.4,0.4,0.4c-0.6,0-0.8-0.2-0.9-0.4c-0.3,0.2-0.6,0.4-0.9,0.5C42.3,15.7,42.1,15.7,42.1,15.7z"/>
		<path fill="#FFA08D" d="M46.8,18.5c0,0-0.4,0.1-0.6,0.3c-0.2,0.2,0,0.4,0.2,0.2C46.6,18.8,46.8,18.5,46.8,18.5z"/>
		
			<linearGradient id="SVGID_4_" gradientUnits="userSpaceOnUse" x1="299.9444" y1="14.2807" x2="301.8905" y2="14.2807" gradientTransform="matrix(-1 0 0 1 344.3386 0)">
			<stop  offset="0" style="stop-color:#EFA08B"/>
			<stop  offset="0.156" style="stop-color:#EB9984"/>
			<stop  offset="0.6493" style="stop-color:#E18672"/>
			<stop  offset="0.9948" style="stop-color:#DD7F6C"/>
		</linearGradient>
		<path fill="url(#SVGID_4_)" d="M44.4,13.5v0.4c0,0-0.5,0.4-1.1,0.7C42.8,15,42.4,15,42.4,15S43.1,14.2,44.4,13.5z"/>
		
			<linearGradient id="SVGID_5_" gradientUnits="userSpaceOnUse" x1="305.7216" y1="18.3116" x2="307.5665" y2="18.3116" gradientTransform="matrix(-1 0 0 1 344.3386 0)">
			<stop  offset="0" style="stop-color:#EFA08B"/>
			<stop  offset="0.2778" style="stop-color:#E7917D"/>
			<stop  offset="0.6579" style="stop-color:#E08470"/>
			<stop  offset="0.9948" style="stop-color:#DD7F6C"/>
		</linearGradient>
		<path fill="url(#SVGID_5_)" d="M36.8,17.7c0,0,0.2-0.9,0.9-0.7c0.7,0.2,0.9,1.3,0.9,1.3S38,18.2,38,18.7c0,0.5,0.3,0.6,0.3,0.6
			s-0.2,0.3-0.5,0.3c-0.3-0.1-0.6-0.5-0.4-0.9c0.2-0.4,0.4-0.7,0.3-0.9C37.3,17.4,36.8,17.7,36.8,17.7z"/>
		
			<linearGradient id="SVGID_6_" gradientUnits="userSpaceOnUse" x1="305.1927" y1="12.8319" x2="313.1088" y2="12.8319" gradientTransform="matrix(-1 0 0 1 344.3386 0)">
			<stop  offset="0" style="stop-color:#B24E2B"/>
			<stop  offset="0.3843" style="stop-color:#AA4727"/>
			<stop  offset="1" style="stop-color:#A34123"/>
		</linearGradient>
		<path fill="url(#SVGID_6_)" d="M39.1,14.5c-1.2-0.7-3-0.1-5.2-1.6c-0.7-0.4-2.7-3.6-2.7-3.6s0.5,3.4,1.7,4.6
			c1.4,1.4,2.7,2.1,3.7,2.4c1.2-0.7,1.9,0.1,1.9,0.1S38.7,15.2,39.1,14.5z"/>
		
			<linearGradient id="SVGID_7_" gradientUnits="userSpaceOnUse" x1="299.8351" y1="8.1165" x2="312.0761" y2="8.1165" gradientTransform="matrix(-1 0 0 1 344.3386 0)">
			<stop  offset="0" style="stop-color:#B24E2B"/>
			<stop  offset="0.3843" style="stop-color:#AA4727"/>
			<stop  offset="1" style="stop-color:#A34123"/>
		</linearGradient>
		<path fill="url(#SVGID_7_)" d="M32.6,7.3c0.3-0.4,0.8-1.3,1.5-1.7c1-0.7,1.6-0.9,2.7-0.7c1.1,0.2,4.3,1.4,4.3,1.4l0,0
			c2.9,0.8,3.4,2.4,3.4,2.4s-1.3-1.4-5.4-2.2c-2.6-0.5-4.6,0-5.4,0.6c0.9,0.2,2.2,0.2,4,0.7c1.7,0.5,3,2,3,2s-0.5,0.4-0.7,1.7
			c-0.9-0.9-1.4-2.3-2.9-2.8c-2.7-1-4.9-0.8-4.9-0.8S32.4,7.6,32.6,7.3z M38.6,5.8c0.1,0,0.3,0,0.4,0c-0.7-0.2-1.5-0.5-2.2-0.7
			c-1.2-0.3-2.6,0.5-3.1,1.4c0,0,0,0,0,0C34.7,6,36.2,5.6,38.6,5.8z"/>
		
			<linearGradient id="SVGID_8_" gradientUnits="userSpaceOnUse" x1="311.6561" y1="4.5013" x2="318.3506" y2="4.5013" gradientTransform="matrix(-1 0 0 1 344.3386 0)">
			<stop  offset="0" style="stop-color:#B24E2B"/>
			<stop  offset="1" style="stop-color:#A34123"/>
		</linearGradient>
		<path fill="url(#SVGID_8_)" d="M26,4.8c0.1-0.8,0.7-2.2,2.3-2c0.2,0,0.3,0.1,0.4,0.1c0.3-0.3,1.2-1.1,2.5-0.5
			c1,0.5,1.3,1.6,1.4,2.2c0.1,0.5,0,2.2,0,2.2H32c0,0,0.1-2.8-1.2-3.4C30,3,29.3,3,29,3c1.2,0.5,1.9,1.8,1.9,1.8
			c-0.7-1.1-2.2-1.5-2.6-1.6c-0.4,0-1.2,0.4-1.6,1.1C26.2,5,26.6,6,26.6,6l-0.3,0.6C26.3,6.5,25.9,5.6,26,4.8z"/>
		
			<linearGradient id="SVGID_9_" gradientUnits="userSpaceOnUse" x1="314.0103" y1="7.7605" x2="320.1723" y2="7.7605" gradientTransform="matrix(-1 0 0 1 344.3386 0)">
			<stop  offset="0" style="stop-color:#B24E2B"/>
			<stop  offset="1" style="stop-color:#A34123"/>
		</linearGradient>
		<path fill="url(#SVGID_9_)" d="M30.3,8c0,0-0.3-1.2-2-1.8c-1.8-0.6-3.1-0.2-3.7,0.6c-0.7,0.8-0.3,2.8-0.3,2.8l0.3-1
			c0,0-0.4-1.3,0.9-1.8c1.3-0.5,2.7,0,3.2,0.3c0.5,0.3,1.5,1.2,1.5,1.2L30.3,8z"/>
	</g>
	<path fill="#FFC5B3" d="M46.5,106.4c-1.8,4.5-1.9,7.1-1.9,7.1l-6.1,2.4c0,0-0.1-5.1,1-11.2C41.3,105.6,44.6,107,46.5,106.4z"/>
	
		<linearGradient id="SVGID_10_" gradientUnits="userSpaceOnUse" x1="287.383" y1="82.1772" x2="320.78" y2="82.1772" gradientTransform="matrix(-1 0 0 1 344.3386 0)">
		<stop  offset="0" style="stop-color:#933A7C"/>
		<stop  offset="1" style="stop-color:#7F2E66"/>
	</linearGradient>
	<path fill="url(#SVGID_10_)" d="M23.7,65.3c0.7-5.1,7.2-9.4,7.2-9.4s1.9,0.1,5.7,1.1c3.5,0.9,5.7,1.9,5.7,1.9
		c0,2.9,2.2,5.5,2.9,7.3c0.3,0.7,1.4,1.5,1.9,2.1c0.6,0.6,5.6,5.9,7.3,8.4c1.2,1.7,2.9,5.5,2.5,8.4c-0.3,1.9-11,22.8-11,22.8
		s-2.2,0.9-3.8,0.6c-1.1-0.2-3-1.1-3-1.1s0.6-8.3,3-14.1c0.7-1.6,2-5.2,2-5.2s-6-1.8-9.7-4.4C31.7,82,22.4,74.6,23.7,65.3z"/>
	
		<linearGradient id="SVGID_11_" gradientUnits="userSpaceOnUse" x1="307.0368" y1="26.5766" x2="307.0368" y2="68.2465" gradientTransform="matrix(-1 0 0 1 344.3386 0)">
		<stop  offset="0" style="stop-color:#347FB6"/>
		<stop  offset="0.3453" style="stop-color:#337BB2"/>
		<stop  offset="0.7007" style="stop-color:#3270A6"/>
		<stop  offset="1" style="stop-color:#2F6095"/>
	</linearGradient>
	<path fill="url(#SVGID_11_)" d="M27.2,52.4c2.4-3.9,2.4-13.2,2.4-13.2s3.1,0.6,5.8-1.2c0.4-0.3,0.8-0.7,1.2-1.3
		c1.1-1.7,1.6-4.6,0.4-6.7c-1.6-2.8-5.4-2.9-5.4-2.9s2.8-1.9,5.8,0.7c1.5,1.3,4.4,5.1,7.7,8.1c3.1,2.9,3.1,5.5,1.8,7.4
		c-0.7,1,2.8,8.1,3.5,12.7c1.1,7.2-3.2,12.1-3.2,12.1s-9.4-5.2-12.7-5.8c-8.1-1.3-10.3,1.2-10.3,1.2S24.3,57.1,27.2,52.4z"/>
	<path fill="#295B8A" d="M47.6,40.9c0,0,0.1,0.8-1.5,1.9c-1.7,1.1-3.4,1.9-2.2,3c1.2,1.1,4.1,1.6,4.1,1.6s-1.5-2.4-1.3-3.2
		C46.8,43.4,47.7,42,47.6,40.9z"/>
	
		<linearGradient id="SVGID_12_" gradientUnits="userSpaceOnUse" x1="294.6812" y1="39.7296" x2="325.1481" y2="39.7296" gradientTransform="matrix(-1 0 0 1 344.3386 0)">
		<stop  offset="0" style="stop-color:#FFC5B3"/>
		<stop  offset="0.3645" style="stop-color:#FBBBA8"/>
		<stop  offset="1" style="stop-color:#EFA08B"/>
	</linearGradient>
	<path fill="url(#SVGID_12_)" d="M36.8,36.2c0,0-0.6,1.5-1.9,2.1c-1.9,0.8-4.6,0.7-5.3,0.9c-1.2,1.7-2.4,2.8-2.4,2.8s3.4,1.5,5,2.2
		c2.5,1.1,4.5,2.3,7.3,2.5c1.8,0.1,3.1,0.6,4.8-0.6c1.3-0.9,2.2-1.7,3.2-0.9c1.5,1.1,2.4,1.6,2,2.6c0.3,0.6,0,1.8-0.6,1.8
		c0.4,1-0.4,1-0.7,1.6c-0.4,1-2.1,0.7-3.5,1.1c-2.3,0.8-2.7-0.8-4.8-0.6c-3.6,0.3-12.2-0.9-15.1-2.4c-1.6-0.8-3.7-1.2-5.1-1.8
		c-1.1-0.5-0.8-3.9,0-6.1c0.8-2.2,1-4.7,4.3-9.9c2.5-4,5.8-4.5,8-4.4C35.7,27.2,39.2,31.9,36.8,36.2z"/>
	
		<linearGradient id="SVGID_13_" gradientUnits="userSpaceOnUse" x1="307.8019" y1="37.7152" x2="314.7367" y2="37.7152" gradientTransform="matrix(-1 0 0 1 344.3386 0)">
		<stop  offset="0" style="stop-color:#EFA08B"/>
		<stop  offset="0.6405" style="stop-color:#E48C78"/>
		<stop  offset="0.9948" style="stop-color:#DD7F6C"/>
	</linearGradient>
	<path fill="url(#SVGID_13_)" d="M32.9,36.4c-1.7,0.8-3.3,2.9-3.3,2.9s3.5,0.5,5.2-0.6c1.3-0.9,1.8-1.8,1.8-1.8S34.6,35.6,32.9,36.4
		z"/>
	
		<linearGradient id="SVGID_14_" gradientUnits="userSpaceOnUse" x1="321.6322" y1="44.5209" x2="323.0119" y2="44.5209" gradientTransform="matrix(-1 0 0 1 344.3386 0)">
		<stop  offset="0" style="stop-color:#EFA08B"/>
		<stop  offset="0.2947" style="stop-color:#E6907C"/>
		<stop  offset="0.6529" style="stop-color:#DF8370"/>
		<stop  offset="0.9948" style="stop-color:#DD7F6C"/>
	</linearGradient>
	<path fill="url(#SVGID_14_)" d="M21.9,43.4c0,0,0.5,1.9,0.8,2.2c-0.4,0-1.4-0.3-1.4-1.1C21.4,43.7,21.9,43.4,21.9,43.4z"/>
	<g>
		
			<linearGradient id="SVGID_15_" gradientUnits="userSpaceOnUse" x1="288.907" y1="116.4654" x2="307.1946" y2="116.4654" gradientTransform="matrix(-1 0 0 1 344.3386 0)">
			<stop  offset="0" style="stop-color:#347FB6"/>
			<stop  offset="0.3453" style="stop-color:#337BB2"/>
			<stop  offset="0.7007" style="stop-color:#3270A6"/>
			<stop  offset="1" style="stop-color:#2F6095"/>
		</linearGradient>
		<path fill="url(#SVGID_15_)" d="M38.8,113.5c0.6,0.1,0.6,1.5,1.2,1.8c0.7,0.3,2-1.3,2.8-1.8c0.1,0,0.2-0.1,0.3-0.1l0-0.1
			c0,0,0.1-0.8,0.9-1.7c0.7-0.9,2.1-1.4,2.1-1.4c0.9-0.5,0.5,1.9,0.2,3.3c0.9,0.6,3.9,2.4,5.1,2.7c1.4,0.3,3-0.2,3-0.2
			s0.6,0.8,1,1.5c0.6,1.1-0.2,1.6-1.2,2.1c-1,0.6-2.9,2.1-5.5,2.4c-2.6,0.4-4-0.7-4.5-0.5c-0.5,0.2-1,1.2-1,1.2s-1.7,0.1-3.6,0
			c-1.3-0.1-2.4-1.9-2.3-2.3C37.2,120.1,38.2,113.5,38.8,113.5z"/>
		<path fill="#225077" d="M55.2,117.5c0,0-3.2,2.6-6.5,2.8c-3.3,0.2-5.3-0.9-6.6,0c-1.3,0.9-4.5-0.4-4.5-0.4s2.4,0.7,4.1-0.1
			c1.9-1,4.6,0,7-0.1c1.6-0.1,6.2-2.6,6.2-2.6L55.2,117.5z"/>
		<path fill="#FFFFFF" d="M50.3,115.9c0,0-0.7,0.5-1.8,1.2c-1.1,0.8-1.7,0.9-1.7,0.9s0.8-0.9,1.7-1.7c0.3-0.2,1.2-0.8,1.2-0.8
			L50.3,115.9z"/>
		<path fill="#FFFFFF" d="M48.5,114.9c0,0-1.3,0.9-1.8,1.2c-0.5,0.3-1.5,1.3-1.5,1.3s0.8-1.4,1.2-1.8c0.3-0.3,1.6-0.9,1.6-0.9
			L48.5,114.9z"/>
		<path fill="#FFFFFF" d="M47.1,114.1c0,0-1.3,0.9-1.8,1.2c-0.5,0.3-1.5,1.3-1.5,1.3s0.8-1.4,1.2-1.8c0.3-0.3,1.6-0.9,1.6-0.9
			L47.1,114.1z"/>
	</g>
	<g>
		
			<linearGradient id="SVGID_16_" gradientUnits="userSpaceOnUse" x1="327.2383" y1="108.105" x2="342.4525" y2="108.105" gradientTransform="matrix(-1 0 0 1 344.3386 0)">
			<stop  offset="0" style="stop-color:#347FB6"/>
			<stop  offset="0.3453" style="stop-color:#337BB2"/>
			<stop  offset="0.7007" style="stop-color:#3270A6"/>
			<stop  offset="1" style="stop-color:#2F6095"/>
		</linearGradient>
		<path fill="url(#SVGID_16_)" d="M2.4,103.6c0.3-0.2,5.9-3.8,6.2-3.4c0.3,0.5-0.7,1.4-0.5,2.1c0.2,0.7,2.3,0.6,3.2,0.9
			c0.1,0,0.2,0.1,0.3,0.1l0-0.1c0,0,0.7-0.4,1.9-0.5c1.2,0,2.4,0.6,2.4,0.6c1,0.4-1.1,1.6-2.3,2.3c0.2,1,0.8,4.5,1.4,5.6
			c0.7,1.2,2.2,2.1,2.2,2.1s-0.2,1-0.5,1.8c-0.4,1.1-1.3,0.9-2.4,0.6c-1.1-0.3-3.5-0.8-5.5-2.5c-2-1.7-2.1-3.5-2.6-3.7
			c-0.5-0.3-1.5,0.1-1.5,0.1s-1.2-1.2-2.4-2.7C1.5,105.9,2.1,103.8,2.4,103.6z"/>
		<path fill="#225077" d="M16.6,115.2c0,0-4-0.6-6.4-3c-2.4-2.3-2.8-4.5-4.4-4.9c-1.5-0.4-2.7-3.6-2.7-3.6s1.1,2.3,2.8,3
			c2,0.8,3.1,3.5,4.8,5.1c1.2,1.1,6,2.9,6,2.9L16.6,115.2z"/>
		<path fill="#FFFFFF" d="M14.6,110.4c0,0-0.8-0.2-2.2-0.5c-1.3-0.3-1.8-0.7-1.8-0.7s1.2,0,2.4,0.2c0.4,0.1,1.4,0.4,1.4,0.4
			L14.6,110.4z"/>
		<path fill="#FFFFFF" d="M14.1,108.5c0,0-1.6-0.4-2.1-0.5c-0.6-0.1-2-0.3-2-0.3s1.6-0.3,2.2-0.3c0.4,0,1.7,0.6,1.7,0.6L14.1,108.5z
			"/>
		<path fill="#FFFFFF" d="M13.7,106.8c0,0-1.6-0.4-2.1-0.5c-0.6-0.1-2-0.3-2-0.3s1.6-0.3,2.2-0.3c0.4,0,1.7,0.6,1.7,0.6L13.7,106.8z
			"/>
	</g>
	
		<linearGradient id="SVGID_17_" gradientUnits="userSpaceOnUse" x1="303.7341" y1="23.7947" x2="307.8019" y2="23.7947" gradientTransform="matrix(-1 0 0 1 344.3386 0)">
		<stop  offset="0" style="stop-color:#EFA08B"/>
		<stop  offset="0.6405" style="stop-color:#E48C78"/>
		<stop  offset="0.9948" style="stop-color:#DD7F6C"/>
	</linearGradient>
	<path fill="url(#SVGID_17_)" d="M40.6,25.4c0,0-1.8-0.5-2.5-1.3c-0.7-0.8-1.5-2.1-1.5-2.1s0.3,2,1.5,2.8
		C39.2,25.7,40.6,25.4,40.6,25.4z"/>
</g>
</svg>
