<?xml version="1.0" encoding="utf-8"?>
<!-- Generator: Adobe Illustrator 24.0.1, SVG Export Plug-In . SVG Version: 6.00 Build 0)  -->
<svg version="1.1" id="Layer_1" xmlns="http://www.w3.org/2000/svg" xmlns:xlink="http://www.w3.org/1999/xlink" x="0px" y="0px"
	 viewBox="0 0 69.1 123.9" enable-background="new 0 0 69.1 123.9" xml:space="preserve">
<g>
	
		<linearGradient id="SVGID_1_" gradientUnits="userSpaceOnUse" x1="-236.9291" y1="46.802" x2="-219.8401" y2="46.802" gradientTransform="matrix(-1 0 0 1 -179.3768 0)">
		<stop  offset="0" style="stop-color:#EFA08B"/>
		<stop  offset="0.6405" style="stop-color:#E48C78"/>
		<stop  offset="0.9948" style="stop-color:#DD7F6C"/>
	</linearGradient>
	<path fill="url(#SVGID_1_)" d="M43.3,45.9c0,0,6.5,0.5,8,0c0.9-0.3,0.8-2.3,1.5-3c1-1.1,1.3-0.4,2.6-0.2c1.6,0.3,1.6,0.8,1.4,1.7
		c0.4,0.3,0.8,0.9,0.4,1.7c0.6,0.5,0.6,1.4-0.1,1.9c-2.3,1.5-3.1,1.2-5.9,1.9c-1.7,0.4-5.6,1.7-8.2,1.5c-2.1-0.2-1.8-0.4-2.2-1
		C39.6,48.6,43.3,45.9,43.3,45.9z"/>
	
		<linearGradient id="SVGID_2_" gradientUnits="userSpaceOnUse" x1="-220.0594" y1="84.301" x2="-187.0233" y2="84.301" gradientTransform="matrix(-1 0 0 1 -179.3768 0)">
		<stop  offset="0" style="stop-color:#FFC5B3"/>
		<stop  offset="0.3645" style="stop-color:#FBBBA8"/>
		<stop  offset="1" style="stop-color:#EFA08B"/>
	</linearGradient>
	<path fill="url(#SVGID_2_)" d="M40.7,73.3c0,0-3.8,7.4-5.2,12.4c-0.6,2.2-1.6,3.8-5.4,4.8S11.9,103,11.9,103l-4.2,0.4l1.1-2.2
		c0,0,6.2-9.2,10.1-13.7c4.2-4.8,7.9-4.9,8-6.1c0.6-5.3-0.4-16.2-0.4-16.2L40.7,73.3z"/>
	
		<linearGradient id="SVGID_3_" gradientUnits="userSpaceOnUse" x1="-224.8488" y1="42.4764" x2="-208.5055" y2="42.4764" gradientTransform="matrix(-1 0 0 1 -179.3768 0)">
		<stop  offset="0" style="stop-color:#FFC5B3"/>
		<stop  offset="0.3645" style="stop-color:#FBBBA8"/>
		<stop  offset="1" style="stop-color:#EFA08B"/>
	</linearGradient>
	<path fill="url(#SVGID_3_)" d="M45.5,42.5c0,0,0,4.8-0.3,7.6c-0.5,5.1-1.1,9.4-1.1,9.4l-7.4-2.1l-6.1-2c0,0,1.5-5.4,1.8-7.6
		c0.4-3.2-0.6-7.2-0.6-7.2s-2.8-8.5-2.6-11s5.2-5.5,8.6-3.3C41.1,28.5,45.5,42.5,45.5,42.5z"/>
	<g>
		
			<linearGradient id="SVGID_4_" gradientUnits="userSpaceOnUse" x1="-228.0228" y1="20.969" x2="-212.5835" y2="20.969" gradientTransform="matrix(-1 0 0 1 -179.3768 0)">
			<stop  offset="0" style="stop-color:#FFC5B3"/>
			<stop  offset="0.3645" style="stop-color:#FBBBA8"/>
			<stop  offset="1" style="stop-color:#EFA08B"/>
		</linearGradient>
		<path fill="url(#SVGID_4_)" d="M43.3,34l-10.1-4.3c0,0,2.1-5.3,2.4-7c0.4-1.8,0.2-3.8,0.1-5.1c-0.8-0.5-2.3-0.4-2.5-3.6
			c-0.4-4.8,5.7-6.5,10-5.9c1.7,0.2,2.2,0.1,2.9,1.8c0.7,1.7-0.1,1.7,0.1,4.2c0.1,0.7,1.1,1.5,1.6,2.1c0.4,0.4,0.8,0.6,0.7,0.8
			c-0.3,0.8-0.9,0.6-1.2,1c-0.1,0.2-0.5,0.5-0.2,0.9c0.2,0.3-0.2,0.6-0.3,0.7c-0.1,0.5-0.2,0.3-0.3,0.7c-0.2,0.7,0.6,1.4,0,2
			c-0.4,0.5-2.3,0.8-3.8,1.5c-1.1,0.6-2.5,1.5-1.9,5C41.3,30.6,43.3,34,43.3,34z"/>
		
			<linearGradient id="SVGID_5_" gradientUnits="userSpaceOnUse" x1="-222.1595" y1="20.9689" x2="-217.0363" y2="20.9689" gradientTransform="matrix(-1 0 0 1 -179.3768 0)">
			<stop  offset="0" style="stop-color:#EFA08B"/>
			<stop  offset="0.6405" style="stop-color:#E48C78"/>
			<stop  offset="0.9948" style="stop-color:#DD7F6C"/>
		</linearGradient>
		<path fill="url(#SVGID_5_)" d="M42.8,23.2c0,0-2.9,0.7-4.2-1.8c-0.9-1.6-0.9-2.8-0.9-2.8s1.1,1.7,2.6,3.1
			C40.9,22.3,42.8,23.2,42.8,23.2z"/>
		
			<linearGradient id="SVGID_6_" gradientUnits="userSpaceOnUse" x1="-213.6576" y1="6.8585" x2="-205.777" y2="6.8585" gradientTransform="matrix(-1 0 0 1 -179.3768 0)">
			<stop  offset="0" style="stop-color:#7B2B08"/>
			<stop  offset="1" style="stop-color:#682007"/>
		</linearGradient>
		<path fill="url(#SVGID_6_)" d="M26.9,8.3c0.2-1.9,1.5-1.5,2.5-4.1c1-2.8,4.1-2.9,4.6-0.6c0.5,2.3,0,4.3,0,4.3l-2.9,3.3
			c0,0-0.4,0-1,0c-0.5,0.2-1.1,0.5-1.5,0.5c-0.8,0.1-2.2-1.1-2.3-1.8C26.4,9.4,26.7,8.7,26.9,8.3z M28.2,11.1c0.3,0,0.6,0,0.9-0.1
			c-1.1-0.2-2.2-0.8-2.2-2.2c0-0.1,0-0.2,0-0.3c-0.1,0.3-0.1,0.6-0.1,0.9C26.9,10.2,27.2,11,28.2,11.1z"/>
		
			<linearGradient id="SVGID_7_" gradientUnits="userSpaceOnUse" x1="-213.8912" y1="3.814" x2="-207.8647" y2="3.814" gradientTransform="matrix(-1 0 0 1 -179.3768 0)">
			<stop  offset="0" style="stop-color:#B24E2B"/>
			<stop  offset="1" style="stop-color:#A34123"/>
		</linearGradient>
		<path fill="url(#SVGID_7_)" d="M28.5,3.9c0.1-0.8,0.6-1.9,2.1-1.8c0.1,0,0.3,0.1,0.4,0.1c0.3-0.3,1.1-1,2.2-0.4
			c0.9,0.5,1.1,1.5,1.3,1.9c0.1,0.5,0,1.9,0,1.9L33.9,6c0,0,0.2-2.8-1.1-3.4c-0.8-0.4-1.3-0.4-1.7-0.3c1.1,0.4,1.7,1.6,1.7,1.6
			c-0.7-1-2-1.4-2.4-1.4c-0.4,0-1.1,0.3-1.4,1C28.7,4.1,29.1,5,29.1,5l-0.3,0.5C28.8,5.5,28.4,4.7,28.5,3.9z"/>
		<path fill="#295B8A" d="M34.7,6.2c0,0,0.1-1-1.5,0c-2.2,1.4-2.6,3.9-2,5c0.6,1.1,1.3,0.8,1.3,0.8L34.7,6.2z"/>
		<path fill="#F967A9" d="M47,18.5c0,0,0.5-0.1,0.4,0.4c-0.1,0.4-0.3,0.5-0.3,0.5s0.4,0.2,0.3,0.5c-0.1,0.5-0.7,0.3-0.7,0.3
			s-0.8-0.3-1.6-1C46.1,19.2,47,18.5,47,18.5z"/>
		<path fill="#FFFFFF" d="M45.2,13.5c0,0,0,0.4,0,0.7c0,0.3-0.1,0.7-0.7,0.7c-0.7,0-1.3-0.4-1.3-0.4L45.2,13.5z"/>
		<path fill="#3794B5" d="M45.2,13.7c0,0,0.2,1-0.2,1.2c-0.6,0.2-0.5-0.9-0.5-0.9L45.2,13.7z"/>
		<path fill="#5B1B1B" d="M44.7,14.4c0,0.2,0.1,0.3,0.2,0.3s0.2-0.2,0.2-0.3S45.1,14,44.9,14S44.7,14.2,44.7,14.4z"/>
		<path fill="#FFFFFF" d="M44.8,14c0,0.1,0.1,0.2,0.1,0.2c0.1,0,0.1-0.1,0.1-0.2c0-0.1-0.1-0.2-0.1-0.2C44.9,13.8,44.8,13.9,44.8,14
			z"/>
		<path fill="#5B1B1B" d="M45,10.8c0.5,0,0.9,0.2,0.7,0.4c-0.4,0.3-0.9,0-1.7,0.4c-0.5,0.3-1.7,1.6-1.7,1.6S43,10.7,45,10.8z"/>
		<path fill="#5B1B1B" d="M43.2,14.5c0,0,0.9-0.5,1.2-0.7c0.5-0.3,0.9-0.7,0.9-0.7s0.1,0.3,0.5,0.5c0.3,0.1,0.7,0.1,0.7,0.1
			s-0.7,0.2-1.2,0.1c0.1,0.2,0.2,0.4,0.4,0.4c-0.6,0-0.8-0.2-0.9-0.4c-0.3,0.2-0.6,0.4-0.9,0.5C43.4,14.5,43.2,14.5,43.2,14.5z"/>
		
			<linearGradient id="SVGID_8_" gradientUnits="userSpaceOnUse" x1="-217.5393" y1="4.9751" x2="-217.5393" y2="20.2747" gradientTransform="matrix(-1 0 0 1 -179.3768 0)">
			<stop  offset="0" style="stop-color:#7B2B08"/>
			<stop  offset="1" style="stop-color:#682007"/>
		</linearGradient>
		<path fill="url(#SVGID_8_)" d="M30.9,13.3c0.4-1.2,0.8-2.6,0.9-2.9c1.7-6.1,8-5.6,9.9-5c4.2,1.2,3.7,3.3,3.7,3.3s-1.9,0.2-3.7-0.3
			c-0.8,0.7-0.5,2-0.7,2.8c-0.2,0.9-1.3,2.1-1.2,3.2c-0.7-0.7-1.7-0.7-2.2,0.7c-0.4,1.1,0.1,1.6,0.6,2.4c-0.2,1.9-2.3,2.8-2.3,2.8
			s-1.2,0-2-0.5l0,0c0,0-0.9-0.3-1.9-2.3C31.1,16.2,30.7,14.1,30.9,13.3z M31.6,16c0.1,0.7,0.6,1.4,1.2,1.9
			c-0.3-1.7-1.1-3.5-1.1-5.6C31,13.8,31.4,15.3,31.6,16z"/>
		<path fill="#FFA08D" d="M47.9,17.2c0,0-0.4,0.1-0.6,0.3c-0.2,0.2,0,0.4,0.2,0.2C47.7,17.5,47.9,17.2,47.9,17.2z"/>
		
			<linearGradient id="SVGID_9_" gradientUnits="userSpaceOnUse" x1="-224.875" y1="13.0787" x2="-222.9496" y2="13.0787" gradientTransform="matrix(-1 0 0 1 -179.3768 0)">
			<stop  offset="0" style="stop-color:#EFA08B"/>
			<stop  offset="0.156" style="stop-color:#EB9984"/>
			<stop  offset="0.6493" style="stop-color:#E18672"/>
			<stop  offset="0.9948" style="stop-color:#DD7F6C"/>
		</linearGradient>
		<path fill="url(#SVGID_9_)" d="M45.5,12.4v0.4c0,0-0.5,0.4-1.1,0.7c-0.5,0.3-0.9,0.4-0.9,0.4S44.2,13,45.5,12.4z"/>
		
			<linearGradient id="SVGID_10_" gradientUnits="userSpaceOnUse" x1="-218.5632" y1="17.5044" x2="-218.5632" y2="14.9262" gradientTransform="matrix(-1 0 0 1 -179.3768 0)">
			<stop  offset="0" style="stop-color:#EFA08B"/>
			<stop  offset="0.2778" style="stop-color:#E7917D"/>
			<stop  offset="0.6579" style="stop-color:#E08470"/>
			<stop  offset="0.9948" style="stop-color:#DD7F6C"/>
		</linearGradient>
		<path fill="url(#SVGID_10_)" d="M38.3,15.6c0,0,0.2-0.9,0.9-0.7c0.7,0.2,0.9,1.2,0.9,1.2s-0.6-0.1-0.6,0.4c0,0.5,0.3,0.6,0.3,0.6
			s-0.2,0.3-0.5,0.3c-0.3-0.1-0.6-0.5-0.4-0.9c0.2-0.4,0.4-0.7,0.3-0.8C38.8,15.3,38.3,15.6,38.3,15.6z"/>
		
			<linearGradient id="SVGID_11_" gradientUnits="userSpaceOnUse" x1="-219.7097" y1="11.1469" x2="-212.5835" y2="11.1469" gradientTransform="matrix(-1 0 0 1 -179.3768 0)">
			<stop  offset="0" style="stop-color:#B24E2B"/>
			<stop  offset="0.3843" style="stop-color:#AA4727"/>
			<stop  offset="1" style="stop-color:#A34123"/>
		</linearGradient>
		<path fill="url(#SVGID_11_)" d="M40.3,12.6c-1.1-0.7-2.7-0.1-4.7-1.4c-0.6-0.4-2.4-3.3-2.4-3.3s0.5,3.1,1.5,4.1
			c1.3,1.2,2.4,1.9,3.3,2.2c1.1-0.7,1.7,0.1,1.7,0.1S39.9,13.3,40.3,12.6z"/>
		
			<linearGradient id="SVGID_12_" gradientUnits="userSpaceOnUse" x1="-224.5329" y1="6.9021" x2="-213.5132" y2="6.9021" gradientTransform="matrix(-1 0 0 1 -179.3768 0)">
			<stop  offset="0" style="stop-color:#B24E2B"/>
			<stop  offset="0.3843" style="stop-color:#AA4727"/>
			<stop  offset="1" style="stop-color:#A34123"/>
		</linearGradient>
		<path fill="url(#SVGID_12_)" d="M34.5,6.2c0.2-0.4,0.7-1.1,1.4-1.6C36.7,4,37.3,3.8,38.3,4c1,0.2,3.8,1.2,3.8,1.2l0,0
			c2.6,0.7,3,2.1,3,2.1S44,6.1,40.3,5.4C38,5,36.2,5.4,35.5,6c0.8,0.2,2,0.2,3.6,0.7c1.6,0.5,2.7,1.8,2.7,1.8s-0.4,0.4-0.6,1.5
			c-0.8-0.8-1.3-2.1-2.6-2.6c-2.5-0.9-4.4-0.7-4.4-0.7S34.2,6.4,34.5,6.2z M39.9,4.8c0.1,0,0.2,0,0.4,0c-0.6-0.2-1.4-0.5-1.9-0.6
			c-1.1-0.3-2.3,0.4-2.8,1.2c0,0,0,0,0,0C36.3,5,37.7,4.6,39.9,4.8z"/>
		
			<linearGradient id="SVGID_13_" gradientUnits="userSpaceOnUse" x1="-211.772" y1="6.5815" x2="-206.2247" y2="6.5815" gradientTransform="matrix(-1 0 0 1 -179.3768 0)">
			<stop  offset="0" style="stop-color:#B24E2B"/>
			<stop  offset="1" style="stop-color:#A34123"/>
		</linearGradient>
		<path fill="url(#SVGID_13_)" d="M32.4,6.8c0,0-0.2-1.1-1.8-1.6C29,4.7,27.8,5,27.2,5.7c-0.6,0.7-0.3,2.5-0.3,2.5l0.2-0.9
			c0,0-0.3-1.2,0.8-1.6c1.2-0.4,2.4,0,2.8,0.3C31.3,6.2,32.2,7,32.2,7L32.4,6.8z"/>
	</g>
	
		<linearGradient id="SVGID_14_" gradientUnits="userSpaceOnUse" x1="-218.9823" y1="25.2447" x2="-218.9823" y2="43.2489" gradientTransform="matrix(-1 0 0 1 -179.3768 0)">
		<stop  offset="0" style="stop-color:#347FB6"/>
		<stop  offset="0.3453" style="stop-color:#337BB2"/>
		<stop  offset="0.7007" style="stop-color:#3270A6"/>
		<stop  offset="1" style="stop-color:#2F6095"/>
	</linearGradient>
	<path fill="url(#SVGID_14_)" d="M36.6,36.6c0.4-0.3,0.8-0.7,1.2-1.3c1.1-1.7,1.6-4.5,0.4-6.6c-1.6-2.8-5.4-2.9-5.4-2.9
		s2.7-1.9,5.8,0.7c1.5,1.3,4.3,5,7.6,8c3.1,2.8,2.6,5.1,1,6.8c-0.5,0.6-0.6,0.8-0.9,1.9h-6.2h-7.8l-1.5-5.5
		C30.9,37.8,33.9,38.3,36.6,36.6z"/>
	
		<linearGradient id="SVGID_15_" gradientUnits="userSpaceOnUse" x1="-222.8038" y1="64.79" x2="-222.8038" y2="117.094" gradientTransform="matrix(-1 0 0 1 -179.3768 0)">
		<stop  offset="0" style="stop-color:#FFC5B3"/>
		<stop  offset="0.3645" style="stop-color:#FBBBA8"/>
		<stop  offset="1" style="stop-color:#EFA08B"/>
	</linearGradient>
	<path fill="url(#SVGID_15_)" d="M44.5,64.8c0,0,2.9,3.4,6.1,8.5c3.1,5,4.1,6.9,5.4,9.8c0.6,1.3,0.4,3.2-1.2,5.9
		c-1,1.7-2.7,5.7-3.5,7.9c-3.3,8.9-4.8,18-4.8,18l-4.8,2.2c0,0,0.4-11.4,0.5-14.1c0.2-5.3,1.5-9.5,2.4-11.7c1.3-3,2.9-4.1,2.9-4.1
		s-6.2-4.2-10.6-7.7c-3.1-2.5-6.2-7.4-6.2-7.4L44.5,64.8z"/>
	<path fill="#682356" d="M27.1,76.3c-0.7-4.2-1.9-10-0.6-13.6c5.2,2.9,8.2,11.1,9.3,14.2C32.9,77.7,29.9,77.5,27.1,76.3z"/>
	
		<linearGradient id="SVGID_16_" gradientUnits="userSpaceOnUse" x1="-216.4916" y1="54.2621" x2="-216.4916" y2="80.5056" gradientTransform="matrix(-1 0 0 1 -179.3768 0)">
		<stop  offset="0" style="stop-color:#933A7C"/>
		<stop  offset="1" style="stop-color:#7F2E66"/>
	</linearGradient>
	<path fill="url(#SVGID_16_)" d="M44.4,57.3c0,0-3.2-1-6.6-1.9c-3.7-1-6.9-1.1-6.9-1.1s-5.3,5.8-5.3,10.9c0,8,12.4,15.3,12.4,15.3
		s-0.8-3.6,4.8-7.8c2.3-1.7,5.9-2.4,5.9-2.4s-2.6-4.7-4-7.9C43.9,60.7,44.4,60.1,44.4,57.3z"/>
	
		<linearGradient id="SVGID_17_" gradientUnits="userSpaceOnUse" x1="-218.2998" y1="52.9896" x2="-218.2998" y2="42.7418" gradientTransform="matrix(-1 0 0 1 -179.3768 0)">
		<stop  offset="0" style="stop-color:#EFA08B"/>
		<stop  offset="0.6405" style="stop-color:#E48C78"/>
		<stop  offset="0.9948" style="stop-color:#DD7F6C"/>
	</linearGradient>
	<path fill="url(#SVGID_17_)" d="M32.4,46.9c0.2-1.5,0.1-3.2-0.1-3.7h13.9c-0.2,0.9-0.5,3-0.8,4.7c-0.3,1.9-0.7,5-0.7,5
		s-3.9-1.3-6.9-1.7c-2.2-0.3-6.4,0-6.4,0S32.1,49.3,32.4,46.9z"/>
	
		<linearGradient id="SVGID_18_" gradientUnits="userSpaceOnUse" x1="-230.0826" y1="37.7622" x2="-201.2163" y2="37.7622" gradientTransform="matrix(-1 0 0 1 -179.3768 0)">
		<stop  offset="0" style="stop-color:#FFC5B3"/>
		<stop  offset="0.3645" style="stop-color:#FBBBA8"/>
		<stop  offset="1" style="stop-color:#EFA08B"/>
	</linearGradient>
	<path fill="url(#SVGID_18_)" d="M38,34.8c0,0-6,2.6-7.2,2.9c-1.1,0.8-2.4,2.8-2.4,2.8s2.8,1.3,4.3,2c2.5,1.1,4.9,2.9,7.6,3.1
		c1.8,0.1,2.9-0.4,4.7-1.7c1.3-0.9,2.5-1,3.5-0.2c1.5,1.1,2.4,1.6,1.9,2.6c0.3,0.6,0,1.8-0.6,1.8c0.4,1-0.4,1-0.7,1.6
		c-0.4,1-2-0.8-3.3-0.4c-2.3,0.8-3.5,0.5-5.6,0.6C36.9,50,28.9,47.4,26,45.9c-1.6-0.8-2.2-1.1-3.6-1.7c-1.1-0.5-0.4-2.2,0.3-4.3
		c0.8-2.2,2.3-5.2,4.6-8.8c2.5-3.9,3.8-5.4,6-5.3C36.9,25.8,40.4,30.5,38,34.8z"/>
	
		<linearGradient id="SVGID_19_" gradientUnits="userSpaceOnUse" x1="-217.1006" y1="36.2656" x2="-210.2391" y2="36.2656" gradientTransform="matrix(-1 0 0 1 -179.3768 0)">
		<stop  offset="0" style="stop-color:#EFA08B"/>
		<stop  offset="0.6405" style="stop-color:#E48C78"/>
		<stop  offset="0.9948" style="stop-color:#DD7F6C"/>
	</linearGradient>
	<path fill="url(#SVGID_19_)" d="M34.1,34.9c-1.6,0.8-3.3,2.8-3.3,2.8s3.5,0.5,5.1-0.6c1.3-0.9,1.7-1.8,1.7-1.8S35.8,34.1,34.1,34.9
		z"/>
	
		<linearGradient id="SVGID_20_" gradientUnits="userSpaceOnUse" x1="-203.4165" y1="42.8425" x2="-202.0542" y2="42.8425" gradientTransform="matrix(-1 0 0 1 -179.3768 0)">
		<stop  offset="0" style="stop-color:#EFA08B"/>
		<stop  offset="8.620072e-02" style="stop-color:#ED9C87"/>
		<stop  offset="0.6354" style="stop-color:#E18773"/>
		<stop  offset="0.9948" style="stop-color:#DD7F6C"/>
	</linearGradient>
	<path fill="url(#SVGID_20_)" d="M23.3,41.9c0,0,0.5,1.6,0.8,1.9c-0.4,0-1.4-0.3-1.4-1.1C22.7,41.8,23.3,41.9,23.3,41.9z"/>
	<path fill="#FFA08D" d="M52.7,83.1c0-0.1,0.8,0.1,1.3,1.6c0.3,0.9-0.5,1.6-0.5,1.6L52.7,83.1z"/>
	<g>
		
			<linearGradient id="SVGID_21_" gradientUnits="userSpaceOnUse" x1="-237.4276" y1="116.1229" x2="-219.3331" y2="116.1229" gradientTransform="matrix(-1 0 0 1 -179.3768 0)">
			<stop  offset="0" style="stop-color:#347FB6"/>
			<stop  offset="0.3453" style="stop-color:#337BB2"/>
			<stop  offset="0.7007" style="stop-color:#3270A6"/>
			<stop  offset="1" style="stop-color:#2F6095"/>
		</linearGradient>
		<path fill="url(#SVGID_21_)" d="M41.6,113.2c0.6,0.1,0.6,1.5,1.2,1.7c0.7,0.3,2-1.3,2.8-1.7c0.1,0,0.2-0.1,0.3-0.1l0-0.1
			c0,0,0.1-0.8,0.9-1.7c0.7-0.9,2-1.4,2-1.4c0.9-0.5,0.5,1.9,0.2,3.2c0.9,0.6,3.8,2.4,5,2.6c1.4,0.3,3-0.2,3-0.2s0.6,0.8,1,1.5
			c0.6,1-0.2,1.5-1.1,2.1c-0.9,0.6-2.9,2-5.4,2.4c-2.5,0.4-3.9-0.7-4.5-0.5c-0.5,0.2-1,1.2-1,1.2s-1.7,0.1-3.6,0
			c-1.3-0.1-2.4-1.9-2.3-2.3C40,119.7,41,113.2,41.6,113.2z"/>
		<path fill="#225077" d="M57.9,117.1c0,0-3.1,2.6-6.4,2.8c-3.3,0.2-5.2-0.8-6.5,0c-1.3,0.9-4.4-0.4-4.4-0.4s2.4,0.7,4.1-0.1
			c1.9-1,4.6,0,6.9-0.1c1.6-0.1,6.1-2.5,6.1-2.5L57.9,117.1z"/>
		<path fill="#FFFFFF" d="M53,115.5c0,0-0.7,0.5-1.8,1.2c-1.1,0.8-1.7,0.9-1.7,0.9s0.8-0.9,1.7-1.7c0.3-0.2,1.2-0.8,1.2-0.8
			L53,115.5z"/>
		<path fill="#FFFFFF" d="M51.2,114.6c0,0-1.3,0.9-1.8,1.2c-0.5,0.3-1.5,1.3-1.5,1.3s0.8-1.4,1.2-1.8c0.3-0.3,1.6-0.9,1.6-0.9
			L51.2,114.6z"/>
		<path fill="#FFFFFF" d="M49.8,113.8c0,0-1.3,0.9-1.8,1.2c-0.5,0.3-1.5,1.3-1.5,1.3s0.8-1.4,1.2-1.8c0.3-0.3,1.6-0.9,1.6-0.9
			L49.8,113.8z"/>
	</g>
	<g>
		
			<linearGradient id="SVGID_22_" gradientUnits="userSpaceOnUse" x1="-198.207" y1="106.3603" x2="-183.1535" y2="106.3603" gradientTransform="matrix(-1 0 0 1 -179.3768 0)">
			<stop  offset="0" style="stop-color:#347FB6"/>
			<stop  offset="0.3453" style="stop-color:#337BB2"/>
			<stop  offset="0.7007" style="stop-color:#3270A6"/>
			<stop  offset="1" style="stop-color:#2F6095"/>
		</linearGradient>
		<path fill="url(#SVGID_22_)" d="M4.3,101.9c0.3-0.2,5.8-3.8,6.2-3.3c0.3,0.5-0.7,1.4-0.5,2.1c0.2,0.7,2.3,0.6,3.1,0.9
			c0.1,0,0.2,0.1,0.3,0.1l0-0.1c0,0,0.7-0.4,1.8-0.5c1.1,0,2.4,0.6,2.4,0.6c0.9,0.3-1.1,1.6-2.3,2.3c0.2,1,0.8,4.5,1.4,5.5
			c0.7,1.2,2.1,2.1,2.1,2.1s-0.2,1-0.5,1.8c-0.4,1.1-1.3,0.9-2.3,0.6c-1.1-0.3-3.4-0.8-5.4-2.5c-2-1.7-2.1-3.4-2.6-3.7
			c-0.5-0.3-1.5,0.1-1.5,0.1s-1.2-1.2-2.4-2.7C3.4,104.1,4,102.1,4.3,101.9z"/>
		<path fill="#225077" d="M18.4,113.4c0,0-4-0.6-6.3-3c-2.4-2.3-2.8-4.5-4.3-4.8C6.2,105.2,5,102,5,102s1.1,2.3,2.8,3
			c2,0.8,3,3.4,4.7,5.1c1.1,1.1,5.9,2.9,5.9,2.9L18.4,113.4z"/>
		<path fill="#FFFFFF" d="M16.3,108.7c0,0-0.8-0.2-2.1-0.5c-1.3-0.3-1.8-0.7-1.8-0.7s1.2,0,2.4,0.2c0.4,0.1,1.4,0.4,1.4,0.4
			L16.3,108.7z"/>
		<path fill="#FFFFFF" d="M15.9,106.7c0,0-1.5-0.4-2.1-0.5c-0.6-0.1-2-0.3-2-0.3s1.6-0.3,2.2-0.3c0.4,0,1.7,0.6,1.7,0.6L15.9,106.7z
			"/>
		<path fill="#FFFFFF" d="M15.5,105.1c0,0-1.5-0.4-2.1-0.5c-0.6-0.1-2-0.3-2-0.3s1.6-0.3,2.2-0.3c0.4,0,1.7,0.6,1.7,0.6L15.5,105.1z
			"/>
	</g>
</g>
</svg>
