<svg xmlns="http://www.w3.org/2000/svg" xmlns:xlink="http://www.w3.org/1999/xlink" viewBox="0 0 295 506.96"><defs><style>.cls-1{fill:none;}.cls-2{fill:url(#Degradado_sin_nombre_3);}.cls-3{fill:url(#Degradado_sin_nombre_3-2);}.cls-4{fill:#0053ac;}.cls-5{fill:url(#Degradado_sin_nombre_3-3);}.cls-6{fill:url(#Degradado_sin_nombre_3-4);}.cls-7{clip-path:url(#clip-path);}.cls-8{fill:#fff;}.cls-9{fill:#b71415;}.cls-10{fill:#ff7c24;}.cls-11{fill:#81dd5e;}.cls-12{fill:#309eff;}.cls-13{fill:#b51518;}.cls-14{fill:#ebe01f;}.cls-15{fill:#357fb7;}</style><linearGradient id="Degradado_sin_nombre_3" x1="-2.85" y1="237.19" x2="299.35" y2="237.19" gradientUnits="userSpaceOnUse"><stop offset="0" stop-color="#007bff"/><stop offset="0.25" stop-color="#005cbf"/><stop offset="0.62" stop-color="#003165"/><stop offset="0.88" stop-color="#00162d"/><stop offset="1" stop-color="#000b17"/></linearGradient><linearGradient id="Degradado_sin_nombre_3-2" x1="259.96" y1="294.66" x2="351.94" y2="294.66" xlink:href="#Degradado_sin_nombre_3"/><linearGradient id="Degradado_sin_nombre_3-3" x1="-71.54" y1="171.45" x2="27.52" y2="171.45" xlink:href="#Degradado_sin_nombre_3"/><linearGradient id="Degradado_sin_nombre_3-4" x1="276.13" y1="80.45" x2="320.11" y2="80.45" gradientTransform="translate(308.36 -228.17) rotate(76.8)" xlink:href="#Degradado_sin_nombre_3"/><clipPath id="clip-path"><rect class="cls-1" x="95.25" y="38.03" width="106" height="106"/></clipPath></defs><title>backgroudSlide-02</title><g id="OBJECTS"><rect class="cls-2" x="-2.85" y="-43" width="302.2" height="560.37" rx="9.3"/><path class="cls-3" d="M347.45,417.5a109.06,109.06,0,0,1-65.95-30.88c-10.36-10.28-18.79-23.15-21-37.58-3.69-24.44,11-48.06,28.7-65.32,7-6.83,14.81-13.4,18.69-22.39,7.26-16.83-1.33-36.42,1.81-54.49,3.41-19.6,22.32-35.28,42.21-35C344.85,253.67,343.92,335.42,347.45,417.5Z"/><circle class="cls-4" cx="77.76" cy="-7.27" r="21.44"/><circle class="cls-4" cx="-11.24" cy="304.2" r="21.44"/><path class="cls-5" d="M4.51,91.58c18.41,14.29,29.2,40.71,19.18,61.76-9.56,20.12-35.17,31.29-38.81,53.26-2.89,17.46,9.43,37.06,0,52.06-6.73,10.74-21.27,13-33.95,13.09-4,0-8.24-.09-11.82-1.95-8.38-4.34-9.64-15.59-9.84-25-.92-44.36-1.88-88.85,1.71-133.12C-67.46,92.89-71.19,75-51.7,71.56-35.29,68.64-7.82,82,4.51,91.58Z"/><circle class="cls-6" cx="298.12" cy="80.45" r="21.99" transform="translate(151.71 352.32) rotate(-76.8)"/><path class="cls-8" d="M115.66,65.93v7.79h-2V65.93Z"/><path class="cls-8" d="M118,69.93c0-.7,0-1.34,0-1.89h1.73l.09.69h0a2,2,0,0,1,1.67-.81c1.24,0,2.2,1.18,2.2,2.91,0,2-1.23,3-2.4,3A1.53,1.53,0,0,1,120,73.3h0V76h-2Zm2,1.43a1.43,1.43,0,0,0,0,.38.75.75,0,0,0,.69.55c.56,0,.89-.58.89-1.39s-.3-1.4-.86-1.4a.75.75,0,0,0-.72.59,1,1,0,0,0,0,.31v1Z"/><path class="cls-8" d="M125.48,65.58h2v8.14h-2Z"/><path class="cls-8" d="M134.45,72.35a7.24,7.24,0,0,0,.1,1.37h-1.81l-.11-.52h0a1.85,1.85,0,0,1-1.51.63,1.75,1.75,0,0,1-1.81-1.78c0-1.52,1.4-2.17,3.16-2.18V69.8c0-.25-.21-.51-.9-.51a3.15,3.15,0,0,0-1.51.41l-.35-1.28a5,5,0,0,1,2.26-.5,2.23,2.23,0,0,1,2.52,2.51ZM132.5,71.1c-.77,0-1.27.23-1.27.76a.53.53,0,0,0,.57.58.73.73,0,0,0,.67-.47,1.18,1.18,0,0,0,0-.27Z"/><path class="cls-8" d="M136.54,72a3.21,3.21,0,0,0,1.43.39c.42,0,.6-.1.6-.32s-.14-.32-.71-.53c-1.2-.44-1.54-1.11-1.54-1.71,0-1.11.92-1.94,2.35-1.94a3.92,3.92,0,0,1,1.56.3l-.32,1.39a2.71,2.71,0,0,0-1.13-.29c-.35,0-.55.11-.55.33s.16.31.79.56c1.08.4,1.44,1,1.45,1.74,0,1.11-.85,1.87-2.49,1.87a4,4,0,0,1-1.79-.38Z"/><path class="cls-8" d="M144.51,66.44V68h1.18v1.44h-1.18v1.81c0,.66.2.9.65.9a2.13,2.13,0,0,0,.46,0v1.52a4.51,4.51,0,0,1-1.19.14,2,2,0,0,1-1.37-.47,2.31,2.31,0,0,1-.54-1.76V69.48h-.69V68h.69V67Z"/><path class="cls-9" d="M128.86,135.26a23.2,23.2,0,0,1-3.08-10H115.35a34.18,34.18,0,0,0,4.49,15.33Z"/><path class="cls-10" d="M125.71,123.48a23.49,23.49,0,0,1,2.31-10.2L119,108a34.14,34.14,0,0,0-3.69,15.51v.32h10.42C125.72,123.69,125.71,123.58,125.71,123.48Z"/><path class="cls-11" d="M137.29,103.24a22.21,22.21,0,0,1,10.53-3V89.62a32.57,32.57,0,0,0-15.74,4.43Z"/><path class="cls-12" d="M149.23,89.62v10.62a22.21,22.21,0,0,1,10.53,3L165,94A32.67,32.67,0,0,0,149.23,89.62Z"/><path class="cls-13" d="M181.7,125.24H171.27a23.2,23.2,0,0,1-3.08,10l9,5.3A34.1,34.1,0,0,0,181.7,125.24Z"/><path class="cls-14" d="M128.68,112a23.21,23.21,0,0,1,7.4-8l-5.21-9.2a33.7,33.7,0,0,0-11.21,11.91Z"/><path class="cls-10" d="M178.07,108l-9,5.31a23.49,23.49,0,0,1,2.31,10.2c0,.1,0,.21,0,.31h10.42v-.31A34.26,34.26,0,0,0,178.07,108Z"/><path class="cls-14" d="M161,104a23.21,23.21,0,0,1,7.4,8l9-5.3a33.7,33.7,0,0,0-11.21-11.91Z"/><path class="cls-15" d="M145.93,133.18h0a9,9,0,0,0,9.86-3h0L144.3,109.58Zm5.2-5.65a1.47,1.47,0,1,1-2-.37A1.46,1.46,0,0,1,151.13,127.53Z"/></g></svg>